<svg width="143" height="35" xmlns="http://www.w3.org/2000/svg">
  <g fill="none" fill-rule="evenodd">
    <path d="M123.224 24.74c0-.3840019.140999-.7139986.423-.99.282001-.2760014.620998-.414 1.017-.414.384002 0 .719999.1319987 1.008.396.288001.2640013.432.5879981.432.972s-.140999.7139986-.423.99c-.282001.2760014-.620998.414-1.017.414-.192001 0-.374999-.0359996-.549-.108-.174001-.0720004-.326999-.1679994-.459-.288-.132001-.1200006-.237-.2639992-.315-.432-.078-.1680008-.117-.347999-.117-.54zm14.902-3.42c0 .7680038-.131999 1.4609969-.396 2.079-.264001.6180031-.623998 1.1429978-1.08 1.575-.456002.4320022-.995997.7649988-1.62.999-.624003.2340012-1.301996.351-2.034.351-.732004 0-1.409997-.1169988-2.034-.351-.624003-.2340012-1.166998-.5669978-1.629-.999s-.821999-.9569969-1.08-1.575c-.258001-.6180031-.387-1.3109962-.387-2.079v-8.064h2.268v7.992c0 .3120016.048.6389983.144.981.096.3420017.254999.6569986.477.945.222001.2880014.515998.5249991.882.711.366002.1860009.818997.279 1.359.279s.992998-.0929991 1.359-.279c.366002-.1860009.659999-.4229986.882-.711.222001-.2880014.381-.6029983.477-.945.096-.3420017.144-.6689984.144-.981v-7.992h2.268v8.064zm1.906-8.064h2.268V26h-2.268V13.256z" fill="#94A1AE"/>
    <g fill-rule="nonzero">
      <path d="M22.9939394 17.4789157h-5.430303c0 1.8554216.2969697 3.626506.8484848 5.2921686 2.5666667-.4216867 4.539394-2.6144578 4.5818182-5.2921686M35 18.3855422c-.3393939 6.0301205-3.7545455 11.2379518-8.6969697 14.0843373 2.5878788 1.4759036 5.6 2.3403615 8.6969697 2.3403615V18.3855422z" fill="#6A6A6A"/>
      <path d="M12.0909091 17.4789157H.06363636C.08484848 22.2650602 2.01515152 26.6084337 5.17575758 29.75l8.50606062-8.4548193c-.9757576-.9909638-1.569697-2.3403614-1.5909091-3.816265" fill="#8B8B8A"/>
      <path d="M17.5424242 22.8554217c-1.4848484 0-2.8636363-.6114458-3.8393939-1.560241L5.1969697 29.75c3.16060606 3.1204819 7.530303 5.0813253 12.3454545 5.0813253.0212122 0-.0212121 0 0 0V22.8554217c-.0212121 0 .0212122 0 0 0" fill="#3C3C3B"/>
      <path d="M17.6060606 11.9548193c.0212121 0 0 0 0 0V0c-.0212121 0 .0212121 0 0 0-4.8575758 0-9.29090908 1.96084337-12.47272727 5.14457831l8.48484847 8.47590359c1.0181818-1.0120482 2.4606061-1.6656626 3.9878788-1.6656626" fill="#292627"/>
      <path d="M12.0909091 17.3945783c0-1.4548193.5939394-2.8042169 1.5484848-3.7951807L5.13333333 5.12349398C1.99393939 8.26506024.04242424 12.6084337.04242424 17.3945783v.0843374H12.0909091v-.0843374" fill="#575756"/>
      <path d="M21.4030303 13.5572289l8.5060606-8.45481926C26.769697 1.96084337 22.4212121.02108434 17.6272727 0v11.9548193c1.4636364.0210843 2.8.6325301 3.7757576 1.6024096" fill="#7C7B7B"/>
      <path d="M18.3909091 22.7710843c-.2757576.0421687-.5727273.063253-.869697.063253v11.9548193c3.1818182 0 6.1939394-.8644578 8.7606061-2.3403614-1.3363637-.7590362-2.5454546-1.686747-3.6272727-2.7409639-1.9303031-1.9186747-3.3939394-4.2801205-4.2636364-6.936747" fill="#6F6F6E"/>
      <path d="M35 18.3855422v-.9066265H22.9939394c-.0424242 2.6777108-2.0151515 4.8915662-4.5818182 5.2921686.8484849 2.6355422 2.3333333 5.0180723 4.2636364 6.936747 1.0818182 1.0542169 2.2909091 1.9819277 3.6272727 2.7409639C31.2454545 29.6024096 34.6606061 24.3945783 35 18.3855422" fill="#292627"/>
      <g fill="#000">
        <path d="M56.2750398 18.2v6.2888889c-1.1868463.7555555-3.13666518 1.1777778-4.59902937 1.1777778-4.13276836 0-6.50646096-3.0888889-6.50646096-6.71111114 0-3.77777778 2.62801681-6.71111112 6.33691149-6.71111112 2.22533681 0 3.58173254.62222223 4.53544834 1.66666667l-1.1656526 1.31111111c-.99610314-1-2.14056207-1.35555555-3.36979574-1.35555555-2.77637259 0-4.57783572 2.28888889-4.57783572 5.08888889 0 2.88888888 2.05578733 5.08888884 4.72619151 5.08888884 1.14445893 0 2.24653049-.2222222 2.98830943-.6666666v-3.55555558h-2.69159786V18.2h4.32351148z"/>
        <path d="M51.67601043 25.8c-3.92083152 0-6.65481675-2.8222222-6.65481675-6.84444444 0-3.88888889 2.7763726-6.84444445 6.4640736-6.84444445 2.0981747 0 3.56053892.53333333 4.64141682 1.71111111l.0847747.08888889-1.3352021 1.51111111-.10596842-.08888889c-.86894104-.88888889-1.94981892-1.31111111-3.285021-1.31111111-2.58562944 0-4.45067363 2.08888889-4.45067363 4.93333334 0 2.82222222 1.97101261 4.93333334 4.59902941 4.93333334 1.12326525 0 2.14056208-.2222222 2.86114733-.6v-3.33333334h-2.69159786v-1.91111112h4.62022307v6.51111116L56.3598146 24.6c-1.2928147.8222222-3.3274084 1.2-4.68380417 1.2zm-.16954947-13.4c-3.60292626 0-6.20974939 2.75555556-6.20974939 6.55555556 0 3.86666664 2.62801681 6.55555554 6.37929886 6.55555554 1.29281472 0 3.22143995-.3555555 4.47186727-1.1111111v-6.06666667h-4.09038096v1.33333334h2.69159786v3.77777773l-.06358106.0444445c-.74177893.4444444-1.86504418.6888889-3.05189048.6888889-2.77637259 0-4.85335361-2.24444447-4.85335361-5.22222224 0-3.02222223 1.99220629-5.22222223 4.72619151-5.22222223 1.35639577 0 2.45846733.42222223 3.36979574 1.28888889l.9961031-1.11111111C54.85506302 12.88888889 53.45627988 12.4 51.50646096 12.4zm10.36371176 4.17777733c2.41607997 0 4.32351152 2 4.32351152 4.48888889s-1.90743155 4.48888889-4.32351152 4.48888889c-2.41607996 0-4.32351151-2-4.32351151-4.48888889s1.90743155-4.48888889 4.32351151-4.48888889zm0 7.46666667c1.65310735 0 2.67040418-1.24444444 2.67040418-2.97777778 0-1.73333333-1.03849052-2.97777778-2.67040418-2.97777778-1.65310734 0-2.67040417 1.24444445-2.67040417 2.97777778 0 1.73333334 1.01729683 2.97777778 2.67040417 2.97777778z"/>
        <path d="M61.87017272 25.68888844c-2.5008547 0-4.45067362-2.02222222-4.45067362-4.62222222s1.94981892-4.62222222 4.45067362-4.62222222c2.5008547 0 4.45067362 2.02222222 4.45067362 4.62222222.02119369 2.6-1.94981892 4.62222222-4.45067362 4.62222222zm0-8.97777777c-2.35249891 0-4.19634941 1.91111111-4.19634941 4.35555555 0 2.44444445 1.8438505 4.35555556 4.19634941 4.35555556 2.35249892 0 4.19634942-1.91111111 4.19634942-4.35555556 0-2.44444444-1.8438505-4.35555555-4.19634942-4.35555555zm0 7.46666666c-1.67430102 0-2.81875996-1.24444444-2.81875996-3.11111111 0-1.86666666 1.12326525-3.11111111 2.81875996-3.11111111 1.67430103 0 2.81875996 1.24444445 2.81875996 3.11111111 0 1.86666667-1.14445893 3.11111111-2.81875996 3.11111111zm0-5.95555555c-1.52594524 0-2.54324207 1.13333333-2.54324207 2.82222222s1.01729683 2.82222222 2.54324207 2.82222222c1.52594524 0 2.54324207-1.13333333 2.54324207-2.82222222 0-1.66666667-1.01729683-2.82222222-2.54324207-2.82222222zm9.537157-1.64444445c2.41607997 0 4.32351152 2 4.32351152 4.48888889s-1.90743155 4.48888889-4.32351152 4.48888889c-2.41607996 0-4.32351151-2-4.32351151-4.48888889s1.90743155-4.48888889 4.32351151-4.48888889zm0 7.46666667c1.65310735 0 2.67040418-1.24444444 2.67040418-2.97777778 0-1.73333333-1.03849052-2.97777778-2.67040418-2.97777778-1.65310734 0-2.67040417 1.24444445-2.67040417 2.97777778 0 1.73333334 1.01729683 2.97777778 2.67040417 2.97777778z"/>
        <path d="M71.40732972 25.68888844c-2.5008547 0-4.4718673-2.02222222-4.4718673-4.62222222s1.94981892-4.62222222 4.4718673-4.62222222c2.5008547 0 4.47186731 2.02222222 4.47186731 4.62222222s-1.97101261 4.62222222-4.47186731 4.62222222zm0-8.97777777c-2.35249891 0-4.19634941 1.91111111-4.19634941 4.35555555 0 2.44444445 1.8438505 4.35555556 4.19634941 4.35555556 2.35249892 0 4.19634942-1.91111111 4.19634942-4.35555556 0-2.44444444-1.8438505-4.35555555-4.19634942-4.35555555zm0 7.46666666c-1.67430102 0-2.81875996-1.24444444-2.81875996-3.11111111 0-1.86666666 1.12326525-3.11111111 2.81875996-3.11111111 1.67430103 0 2.81875996 1.24444445 2.81875996 3.11111111 0 1.86666667-1.12326524 3.11111111-2.81875996 3.11111111zm0-5.95555555c-1.52594524 0-2.54324207 1.13333333-2.54324207 2.82222222s1.01729683 2.82222222 2.54324207 2.82222222c1.52594524 0 2.54324207-1.13333333 2.54324207-2.82222222 0-1.66666667-1.01729683-2.82222222-2.54324207-2.82222222zm13.79708847 7.11111132h-1.54713893v-1.2222222h-.04238736c-.59342315.9111111-1.73788208 1.4444444-2.83995365 1.4444444-2.52204838 0-4.13276836-1.9555555-4.13276836-4.48888886 0-2.55555555 1.63191366-4.48888888 4.13276836-4.48888888 1.16565262 0 2.28891786.55555555 2.83995365 1.44444444h.04238736v-5.64444444h1.54713893V25.3333331zm-1.54713893-4.26666666c0-1.73333333-1.03849051-2.97777777-2.67040417-2.97777777-1.65310734 0-2.67040417 1.24444444-2.67040417 2.97777777 0 1.73333336 1.03849051 2.97777776 2.67040417 2.97777776 1.65310735 0 2.67040417-1.2444444 2.67040417-2.97777776z"/>
        <path d="M80.79613194 25.6888887c-2.5008547 0-4.28112415-1.9111111-4.28112415-4.62222226 0-2.73333333 1.75907576-4.62222222 4.28112415-4.62222222 1.08087788 0 2.11936839.46666667 2.73398522 1.22222222V12.222222h1.82265682v13.2444444h-1.82265682v-1c-.63581052.7555556-1.67430103 1.2222223-2.73398522 1.2222223zm0-8.97777781c-2.35249892 0-4.00560626 1.77777778-4.00560626 4.35555555 0 2.55555556 1.65310734 4.35555556 4.00560626 4.35555556 1.10207156 0 2.18294944-.5333333 2.73398522-1.3777778l.04238737-.0666666h.19074315l.02119369.1333333v1.0888889h1.29281472V12.51111089h-1.29281472v5.64444444h-.21193684l-.06358105-.06666666c-.50864842-.82222223-1.5895263-1.37777778-2.71279154-1.37777778zm.19074315 7.46666671c-1.67430103 0-2.81875996-1.2444445-2.81875996-3.11111116 0-1.86666666 1.12326525-3.11111111 2.81875996-3.11111111 1.67430103 0 2.81875996 1.24444445 2.81875996 3.11111111s-1.14445893 3.11111116-2.81875996 3.11111116zm0-5.9555556c-1.52594524 0-2.54324207 1.13333333-2.54324207 2.82222222 0 1.68888888 1.01729683 2.82222218 2.54324207 2.82222218 1.52594524 0 2.54324207-1.1333333 2.54324207-2.82222218 0-1.66666666-1.01729683-2.82222222-2.54324207-2.82222222zm6.27333049-5.73333333h3.70889468c5.1288715 0 6.40049254 4.11111111 6.40049254 6.46666666 0 3.26666667-2.31011155 6.37777777-6.67601043 6.37777777h-3.4333768V12.48888867zm1.65310734 11.22222223h1.54713892c2.7763726 0 5.15006519-1.60000001 5.15006519-4.75555557 0-1.62222222-.80535998-4.84444444-4.74738519-4.84444444H88.9345066v9.60000001h-.02119368z"/>
        <path d="M90.69358237 25.4666664h-3.5605389V12.33333311h3.83605679c5.15006519 0 6.52765464 4.15555556 6.52765464 6.6 0 3.26666667-2.33130523 6.53333329-6.80317253 6.53333329zm-3.3062147-.2666666h3.3062147c4.49306099 0 6.52765463-3.24444447 6.52765463-6.24444447 0-.64444444-.1695495-6.33333333-6.25213674-6.33333333h-3.58173258v12.5777778zm3.07308417-1.3555556h-1.67430102v-9.88888887h2.07698102c4.74738519 0 4.89574098 4.48888889 4.89574098 5-.02119368 3.37777777-2.67040417 4.88888887-5.29842098 4.88888887zm-1.41997682-.2666666h1.41997682c2.31011155 0 5.02290309-1.2 5.02290309-4.62222227 0-.48888889-.1271621-4.71111111-4.62022309-4.71111111h-1.80146313v9.33333338h-.02119369zm9.53715813-5.73333338c.86894104-.84444444 2.09817471-1.26666666 3.22143995-1.26666666 2.39488628 0 3.41218311 1.37777777 3.41218311 2.84444444v4.35555556c0 .6.02119369 1.08888888.06358105 1.55555555h-1.37758945c-.04238737-.42222222-.04238737-.86666667-.04238737-1.28888889h-.04238737c-.67819788 1.08888889-1.61071997 1.51111111-2.86114732 1.51111111-1.50475156 0-2.81875996-.88888889-2.81875996-2.55555555 0-2.2 2.01339997-2.95555556 4.49306099-2.95555556h1.12326524v-.35555555c0-.88888889-.61461683-1.8-1.94981892-1.8-1.1868463 0-1.75907576.53333333-2.31011154.97777777l-.91132841-1.02222222zm4.36589888 3.37777778c-1.46236419 0-3.24263363.26666667-3.24263363 1.64444444 0 .97777778.67819788 1.37777778 1.75907576 1.37777778 1.7166884 0 2.31011155-1.33333333 2.31011155-2.48888889V21.222222h-.82655368z"/>
        <path d="M100.97251943 25.68888867c-1.73788208 0-2.94592206-1.11111111-2.94592206-2.68888889 0-2 1.63191366-3.08888889 4.62022309-3.08888889h.99610314v-.22222222c0-.8-.57222946-1.66666667-1.80146313-1.66666667-1.05968419 0-1.61071998.42222222-2.11936839.84444444l-.21193684.15555556-1.10207156-1.2.10596842-.08888889c.82655367-.82222222 2.05578734-1.31111111 3.32740837-1.31111111 2.60682312 0 3.53934521 1.53333333 3.53934521 2.97777778v4.37777778c0 .64444444.02119369 1.11111111.06358105 1.53333333l.02119369.15555555h-1.65310735v-.13333333c-.02119368-.31111111-.04238736-.62222222-.04238736-.93333333-.69939157.88888889-1.5895263 1.28888889-2.79756628 1.28888889zm1.65310735-5.51111111c-1.99220629 0-4.3447052.48888888-4.3447052 2.82222222 0 1.66666666 1.35639576 2.42222222 2.69159785 2.42222222 1.27162104 0 2.11936839-.44444444 2.73398522-1.44444444l.04238737-.06666667h.21193684l.04238737.13333333c0 .37777778.02119368.77777778.04238737 1.15555556h1.10207156c-.04238737-.37777778-.04238737-.82222222-.04238737-1.4v-4.35555556c0-1.31111111-.84774735-2.7111111-3.26382732-2.7111111-1.14445893 0-2.26772418.42222221-3.0306968 1.13333332l.74177894.82222223.02119368-.02222223c.5298421-.42222222 1.14445893-.91111111 2.28891786-.91111111 1.41997683 0 2.07698103 1 2.07698103 1.93333334v.48888889h-1.3140084zm-1.1868463 4.22222222c-1.20803999 0-1.88623787-.53333334-1.88623787-1.53333334 0-.82222222.59342315-1.77777777 3.39098942-1.77777777h.95371578v.68888889c0 1.2-.63581052 2.62222222-2.45846733 2.62222222zm1.50475155-3.02222222c-1.41997682 0-3.11547153.26666666-3.11547153 1.51111111 0 .82222222.55103578 1.24444444 1.63191366 1.24444444 1.61071998 0 2.18294944-1.2 2.18294944-2.35555555v-.4h-.69939157zm8.64702299-3.17777778h-2.22533681v3.86666666c0 .95555556 0 1.95555556 1.16565262 1.95555556.36029262 0 .7841663-.04444444 1.10207156-.24444444v1.46666664c-.36029263.2222222-1.08087788.2888889-1.39878314.2888889-2.39488628 0-2.41607996-1.53333332-2.41607996-2.88888888v-4.44444444h-1.78026945v-1.4h1.78026945v-2.4h1.54713892v2.4h2.22533681v1.4z"/>
        <path d="M110.25535294 25.6888887c-2.56443576 0-2.56443576-1.75555559-2.56443576-3.04444448v-4.31111111h-1.78026944v-1.66666667h1.78026944v-2.4h1.80146314v2.4h2.22533681v1.68888889h-2.22533681v3.73333334c0 1.13333333.06358105 1.82222222 1.03849051 1.82222222.31790526 0 .74177893-.04444445 1.03849051-.22222222l.21193684-.13333334v1.82222227l-.06358105.0444444c-.42387368.2222222-1.20803999.2666667-1.46236419.2666667zm-4.06918731-7.62222226h1.78026944v4.6c0 1.28888889 0 2.75555556 2.28891787 2.75555556.33909894 0 .93252209-.0666667 1.25042735-.2444444V24.022222c-.31790526.13333333-.69939157.17777778-.97490946.17777778-1.29281472 0-1.29281472-1.17777778-1.29281472-2.11111111v-4.02222223h2.22533681v-1.13333333h-2.22533681v-2.4h-1.27162104v2.4h-1.78026944v1.13333333zm6.93033462-.22222222c.84774736-.84444444 2.09817471-1.26666666 3.22143996-1.26666666 2.39488628 0 3.39098942 1.37777777 3.39098942 2.84444444v4.35555556c0 .6.02119369 1.08888888.06358105 1.55555555h-1.37758945c-.04238737-.42222222-.04238737-.86666667-.04238737-1.28888889h-.04238737c-.67819788 1.08888889-1.61071997 1.51111111-2.83995364 1.51111111-1.50475156 0-2.81875996-.88888889-2.81875996-2.55555555 0-2.2 2.01339997-2.95555556 4.49306099-2.95555556h1.12326525v-.35555555c0-.88888889-.61461684-1.8-1.92862524-1.8-1.1868463 0-1.75907576.53333333-2.33130523.97777777l-.9113284-1.02222222zm4.36589889 3.37777778c-1.46236419 0-3.24263364.26666667-3.24263364 1.64444444 0 .97777778.67819788 1.37777778 1.75907576 1.37777778 1.7166884 0 2.31011155-1.33333333 2.31011155-2.48888889V21.222222h-.82655367z"/>
        <path d="M115.49019285 25.68888867c-1.73788208 0-2.94592206-1.11111111-2.94592206-2.68888889 0-2 1.63191366-3.08888889 4.62022309-3.08888889h.99610314v-.22222222c0-.8-.57222946-1.66666667-1.80146313-1.66666667-1.05968419 0-1.61071998.42222222-2.11936839.84444444l-.21193684.15555556-1.10207156-1.2.10596842-.08888889c.82655367-.82222222 2.05578734-1.31111111 3.32740837-1.31111111 2.60682312 0 3.53934521 1.53333333 3.53934521 2.97777778v4.37777778c0 .64444444.02119369 1.11111111.06358105 1.53333333l.02119369.15555555h-1.65310735v-.13333333c-.02119368-.31111111-.04238736-.62222222-.04238736-.93333333-.67819789.88888889-1.56833261 1.28888889-2.79756628 1.28888889zm1.67430103-5.51111111c-1.99220629 0-4.3447052.48888888-4.3447052 2.82222222 0 1.66666666 1.35639577 2.42222222 2.69159785 2.42222222 1.27162104 0 2.11936839-.44444444 2.73398523-1.44444444l.04238737-.06666667h.21193683l.04238737.13333333c0 .37777778.02119369.77777778.04238737 1.15555556h1.10207156c-.04238736-.37777778-.06358105-.82222222-.06358105-1.4v-4.35555556c0-1.31111111-.84774735-2.7111111-3.26382732-2.7111111-1.14445893 0-2.26772418.42222221-3.05189048 1.13333332l.74177893.82222223.02119369-.02222223c.5298421-.42222222 1.14445893-.91111111 2.28891786-.91111111 1.41997682 0 2.07698102 1 2.07698102 1.93333334v.48888889h-1.27162103zm-1.1868463 4.22222222c-1.20803998 0-1.88623787-.53333334-1.88623787-1.53333334 0-.82222222.59342315-1.77777777 3.36979574-1.77777777h.95371578v.68888889c.02119368 1.2-.63581052 2.62222222-2.43727365 2.62222222zm1.50475156-3.02222222c-1.41997682 0-3.11547154.26666666-3.11547154 1.51111111 0 .82222222.55103578 1.24444444 1.61071998 1.24444444 1.61071998 0 2.18294944-1.2 2.18294944-2.35555555v-.4h-.67819788z"/>
      </g>
    </g>
  </g>
</svg>
