<?xml version="1.0" encoding="UTF-8"?>
<svg width="11px" height="14px" viewBox="0 0 11 14" version="1.1" xmlns="http://www.w3.org/2000/svg" xmlns:xlink="http://www.w3.org/1999/xlink">
    <!-- Generator: Sketch 56.3 (81716) - https://sketch.com -->
    <title>Combined Shape</title>
    <desc>Created with Sketch.</desc>
    <g id="Design" stroke="none" stroke-width="1" fill="none" fill-rule="evenodd">
        <path d="M8.40071618,8.75 C8.51009172,8.85937555 8.56477868,9.00065018 8.56477868,9.17382812 C8.56477868,9.34700607 8.51464897,9.4973952 8.41438805,9.625 C8.31412713,9.7526048 8.15918077,9.81640625 7.9495443,9.81640625 C7.73990784,9.81640625 7.49381655,9.77539104 7.21126305,9.69335937 C6.92870956,9.61132771 6.65983204,9.49739656 6.40462243,9.3515625 C6.07649579,9.40625027 5.56608422,9.55208215 4.87337243,9.7890625 L4.54524743,9.8984375 C4.21712079,10.4453152 3.90722805,10.8463529 3.61555993,11.1015625 C3.37857958,11.3020843 3.16438901,11.3932293 2.9729818,11.375 C2.7815746,11.3567707 2.64029997,11.2792976 2.54915368,11.1425781 C2.45800739,11.0058587 2.42154942,10.8736986 2.43977868,10.7460937 C2.53092497,10.3450501 2.99576407,9.92578344 3.83430993,9.48828125 C4.12597805,8.97786203 4.45409977,8.30338961 4.81868493,7.46484375 C4.58170458,6.58983937 4.51790313,5.9791684 4.62727868,5.6328125 C4.66373719,5.46874918 4.7731111,5.35481803 4.95540368,5.29101562 C5.13769626,5.22721322 5.31087161,5.23632771 5.47493493,5.31835937 C5.63899825,5.40039104 5.73925766,5.55989465 5.77571618,5.796875 C5.86686247,6.05208461 5.82129001,6.54426719 5.63899743,7.2734375 L5.63899743,7.30078125 C5.85774852,7.8841175 6.19498473,8.31249863 6.65071618,8.5859375 C7.58040833,8.4583327 8.16373583,8.51301965 8.40071618,8.75 Z M2.98665368,10.8828125 C2.98665368,10.9010418 3.02311165,10.8828128 3.09602868,10.828125 C3.16894571,10.7734372 3.26009063,10.6822923 3.36946618,10.5546875 C3.51530024,10.3906242 3.67024661,10.1809909 3.83430993,9.92578125 L3.72493493,10.0078125 C3.305662,10.3723977 3.05957071,10.6640614 2.98665368,10.8828125 Z M5.22884118,5.66015625 C5.19238266,5.66015625 5.17415368,5.80598813 5.17415368,6.09765625 C5.17415368,6.38932438 5.21061165,6.61718668 5.28352868,6.78125 C5.33821645,6.6536452 5.36555993,6.43489738 5.36555993,6.125 C5.36555993,5.81510262 5.31998747,5.66015625 5.22884118,5.66015625 Z M4.54524743,9.40625 L4.87337243,9.26953125 C5.36556239,9.06900941 5.75748555,8.94140652 6.04915368,8.88671875 C5.72102704,8.6497384 5.44759227,8.32161668 5.22884118,7.90234375 C4.99186083,8.54036777 4.76399852,9.04166484 4.54524743,9.40625 Z M8.15462243,9.26953125 C8.19108094,9.25130199 8.1865237,9.21940127 8.14095055,9.17382812 C8.09537741,9.12825498 7.99056075,9.09179701 7.82649743,9.06445312 C7.66243411,9.03710924 7.4345718,9.03255199 7.14290368,9.05078125 C7.39811329,9.1601568 7.6168611,9.23307273 7.79915368,9.26953125 C7.92675848,9.30598977 8.0179034,9.31510426 8.07259118,9.296875 C8.10904969,9.296875 8.13639317,9.28776051 8.15462243,9.26953125 Z M6.6,0.80050529 C6.59528501,0.800169545 6.59054446,0.8 6.58578644,0.8 L1,0.8 C0.88954305,0.8 0.8,0.88954305 0.8,1 L0.8,13 C0.8,13.1104569 0.88954305,13.2 1,13.2 L10,13.2 C10.1104569,13.2 10.2,13.1104569 10.2,13 L10.2,4.41421356 C10.2,4.40945554 10.1998305,4.40471499 10.1994947,4.4 L8,4.4 C7.22680135,4.4 6.6,3.77319865 6.6,3 L6.6,0.800502936 Z M7.4,1.53137085 L7.4,3 C7.4,3.33137085 7.66862915,3.6 8,3.6 L9.46862915,3.6 L7.4,1.53137085 Z M1,0 L6.58578644,0 C6.85100293,0 7.10535684,0.10535684 7.29289322,0.292893219 L10.7071068,3.70710678 C10.8946432,3.89464316 11,4.14899707 11,4.41421356 L11,13 C11,13.5522847 10.5522847,14 10,14 L1,14 C0.44771525,14 0,13.5522847 0,13 L0,1 C0,0.44771525 0.44771525,0 1,0 Z" id="Combined-Shape" fill="#6D7680" fill-rule="nonzero"></path>
    </g>
</svg>