<svg width="24" height="26" viewBox="0 0 24 26" fill="none" xmlns="http://www.w3.org/2000/svg">
<path d="M23.4402 16.3133C23.3661 13.0781 21.62 10.5101 18.9543 9.50636V3.87563C18.2812 3.43554 17.5648 3.07169 16.8171 2.79197V14.9057C16.8171 17.3055 15.7287 18.377 13.9795 18.377C12.2766 18.377 10.8522 17.0615 10.8522 14.8616C10.8522 12.4061 12.7233 10.9066 15.1734 10.9066C15.4004 10.9023 15.6314 10.9144 15.8584 10.9507V8.80705C15.6314 8.76709 15.4045 8.74711 15.1734 8.75131C11.5371 8.75131 8.68771 11.0312 8.68771 14.8663C8.68771 18.5537 11.2592 20.5212 14.1246 20.5212C15.4827 20.5212 16.6571 20.0491 17.4676 19.2372C18.2776 18.4254 18.9631 17.2534 18.9631 15.1939V11.8383C20.4426 12.5943 21.3349 14.4257 21.339 16.5215C21.3313 20.4686 17.7496 23.8043 13.5498 23.8043C13.452 23.8043 13.3774 23.8043 13.2796 23.8001C10.3988 23.7964 7.86638 22.7322 5.81512 20.6327C4.3392 19.121 3.32952 17.1972 2.92246 15.1055C2.5154 13.0097 2.72279 10.8424 3.52508 8.86647C4.32376 6.89474 5.67772 5.20694 7.41558 4.01917C9.15344 2.8314 11.197 2.1994 13.2868 2.1994V0C11.6154 0 9.95984 0.335981 8.41754 0.987966C6.87523 1.63995 5.47033 2.59952 4.28825 3.80359C1.90043 6.23907 0.5578 9.54632 0.5578 12.9939C0.5578 16.4411 1.89632 19.7488 4.28002 22.1885C6.66372 24.6282 9.90066 26 13.275 26H13.5452C14.5826 26 15.616 25.836 16.6102 25.52C16.6143 25.52 16.6179 25.5157 16.6221 25.5157C18.0584 25.0599 19.3737 24.2838 20.4776 23.2443C22.3837 21.4445 23.433 19.0653 23.4407 16.5336C23.4443 16.5252 23.4402 16.3175 23.4402 16.3133Z" fill="white"/>
</svg>
