<?xml version="1.0" encoding="UTF-8"?>
<svg width="16px" height="16px" viewBox="0 0 16 16" version="1.1" xmlns="http://www.w3.org/2000/svg" xmlns:xlink="http://www.w3.org/1999/xlink">
    <!-- Generator: Sketch 52.5 (67469) - http://www.bohemiancoding.com/sketch -->
    <title>icon1</title>
    <desc>Created with Sketch.</desc>
    <g id="icon1" stroke="none" stroke-width="1" fill="none" fill-rule="evenodd">
        <path d="M13.0355781,1.01063601 L13.0355781,3.01063601 L0.0355780683,3.01063601 L0.0355780683,1.01063601 L13.0355781,1.01063601 Z M14.0355781,1.01063601 L16.0355781,1.01063601 L16.0355781,3.01063601 L14.0355781,3.01063601 L14.0355781,1.01063601 Z M0.0355780683,7.2063946 L8.03557807,7.2063946 L8.03557807,9.2063946 L0.0355780683,9.2063946 L0.0355780683,7.2063946 Z M0.0355780683,13.0259896 L4.03557807,13.0259896 L4.03557807,15.0259896 L0.0355780683,15.0259896 L0.0355780683,13.0259896 Z" id="Combined-Shape" fill="#94A1AD"></path>
        <path d="M11.0355781,6.19575859 L12.0355781,6.19575859 L12.0355781,10.1957586 L11.0355781,10.1957586 L11.0355781,6.19575859 Z M6.03557807,12.0153536 L7.03557807,12.0153536 L7.03557807,16.0153536 L6.03557807,16.0153536 L6.03557807,12.0153536 Z M13.0355781,4.4408921e-16 L14.0355781,4.4408921e-16 L14.0355781,4 L13.0355781,4 L13.0355781,4.4408921e-16 Z" id="Combined-Shape" fill-opacity="0.45" fill="#B0BECA"></path>
    </g>
</svg>