<?xml version="1.0" encoding="UTF-8"?>
<svg width="16px" height="16px" viewBox="0 0 16 16" version="1.1" xmlns="http://www.w3.org/2000/svg" xmlns:xlink="http://www.w3.org/1999/xlink">
    <!-- Generator: Sketch 52.5 (67469) - http://www.bohemiancoding.com/sketch -->
    <title>Icon4</title>
    <desc>Created with Sketch.</desc>
    <g id="Icon4" stroke="none" stroke-width="1" fill="none" fill-rule="evenodd">
        <g id="Group-2" transform="translate(-0.500000, -0.500000)"></g>
        <g id="Group-2"></g>
        <path d="M13,1.01063601 L13,0.0106360099 L14,0.0106360099 L14,1.01063601 L16,1.01063601 L16,3.01063601 L14,3.01063601 L14,4.01063601 L13,4.01063601 L13,3.01063601 L8.17124146e-13,3.01063601 L8.17124146e-13,1.01063601 L13,1.01063601 Z M8.0380147e-13,7.2063946 L8,7.2063946 L8,9.2063946 L8.0380147e-13,9.2063946 L8.0380147e-13,7.2063946 Z M11,6.2063946 L12,6.2063946 L12,10.2063946 L11,10.2063946 L11,6.2063946 Z M6.2558847e-12,13.0259896 L4,13.0259896 L4,15.0259896 L6.2558847e-12,15.0259896 L6.2558847e-12,13.0259896 Z M6,12.0259896 L7,12.0259896 L7,16.0259896 L6,16.0259896 L6,12.0259896 Z" id="Combined-Shape" fill-opacity="0.45" fill="#B0BECA"></path>
        <path d="M0.734773169,0.62683604 L0.734773169,15.2229485" id="Line-6" stroke="#94A1AD" stroke-width="1.5" stroke-linecap="square"></path>
    </g>
</svg>