<svg width="48" height="48" viewBox="0 0 48 48" fill="none" xmlns="http://www.w3.org/2000/svg">
<path d="M18.8 22.6999H11.2603L11 22.0499V18.3568L12.9513 14.8999H18.8V22.6999Z" fill="#B0BECA"/>
<path d="M24 31.8H22.05L21.4 30.5L20.75 29.85L20.1 30.5H18.8V29.2H16.2L14.9 27.9216L12.95 27.25L11 27.9216L12.3013 25.3L11.7808 24H24V31.8Z" fill="#B0BECA" fill-opacity="0.6"/>
<path d="M24.5814 15.6477H25.9512L26.6012 16.1999L27.9012 15.5499L29.7852 18.1499L30.5012 19.4499H31.8012L32.4512 19.3839L33.1012 18.7999L35.0512 18.1499L35.7012 16.1999H37.0012L36.3512 17.4999L37.0012 18.7999L35.4283 19.898V21.1587L33.9074 21.6729L33.8109 22.6999H20.1V14.8999H24L24.5814 15.6477Z" fill="#B0BECA" fill-opacity="0.6"/>
<path d="M33.6903 24L33.5875 25.0943L32.9464 25.9817L33.2676 26.7765L30.5546 29.6888L31.8 32.45L30.5546 34.4H29.2444V33.2219L27.9 31.8V30.5L27.4633 30.1864L26.6 30.5L25.3 29.2V24H33.6903Z" fill="#B0BECA"/>
</svg>
