<svg width="32" height="30" viewBox="0 0 32 30" fill="none" xmlns="http://www.w3.org/2000/svg">
    <g clip-path="url(#clip0_2389_2062)">
        <path d="M22.2877 7.21605L23.7079 5.79591C21.8555 4.22788 19.5214 3.2114 16.959 3V4.98389H16.9543C16.4435 12.6697 9.51533 15.9589 5.45435 15.9589L4 15.959C4.2114 18.5214 5.22787 20.8555 6.79591 22.7079L7.51888 21.9849C12.3505 18.4188 19.1199 18.1106 23.6991 21.286C23.9516 20.985 24.1907 20.6674 24.4066 20.3395C19.0603 17.0943 12.7972 17.6825 7.9413 20.5925C13.1503 16.7227 20.6259 13.959 25.959 13.959L25.9096 13.9588C25.8762 13.6223 25.8261 13.2907 25.7601 12.9648C21.1648 13.1202 16.0323 14.71 11.2782 17.2496C14.8469 15.0032 19.0388 11.6793 20.5401 6.06767C21.1637 6.38965 21.7491 6.77531 22.2877 7.21605Z" fill="#14B2E2" fill-opacity="0.4"/>
        <path d="M8.21021 24.1222L9.63028 22.7021C11.1119 23.9146 12.9478 24.7101 14.959 24.9098V26.9181C12.3966 26.7067 10.0625 25.6902 8.21021 24.1222Z" fill="#14B2E2" fill-opacity="0.4"/>
        <path d="M14.9589 3C12.3964 3.2114 10.0623 4.22788 8.20996 5.79591L9.6301 7.21605C11.1117 6.00363 12.9476 5.20805 14.9589 5.00836V3Z" fill="#14B2E2" fill-opacity="0.4"/>
        <path d="M8.08284 8.49697L6.79583 7.20996C5.22784 9.06228 4.21139 11.3964 4 13.9588H5.95898C8.95898 13.9588 16.459 16.959 16.959 24.959V26.9181C19.5214 26.7067 21.8555 25.6902 23.7078 24.1222L22.2877 22.7021C21.173 23.6143 19.8578 24.2905 18.4182 24.6545C17.7218 19.7811 15.1423 16.6168 11.9783 14.6894C15.3663 15.9013 19.1818 16.8902 25.7596 16.9555C25.4313 18.5763 24.7109 20.0547 23.7019 21.2878L25.122 22.7079C26.69 20.8555 27.7065 18.5214 27.9179 15.959H26.459C22.1752 15.959 18.1519 15.5958 14.2083 14.4318C18.9491 14.87 23.0683 12.8607 25.2123 11.1605C25.5728 12.0376 25.8121 12.9773 25.9096 13.9588H27.9179C27.7065 11.3964 26.69 9.06228 25.122 7.20996L24.0392 8.2928C17.0547 13.6756 10.4252 10.3053 8.08284 8.49697Z" fill="#14B2E2"/>
    </g>
    <defs>
        <clipPath id="clip0_2389_2062">
            <rect width="24" height="24" fill="white" transform="translate(4 3)"/>
        </clipPath>
    </defs>
</svg>
