<svg width="22" height="22" xmlns="http://www.w3.org/2000/svg"><g fill="#14B2E2" fill-rule="evenodd"><path d="M14.2501952 5.76442695l1.9595689-3.90660584c3.2773041 1.75240812 5.5213606 5.18451065 5.5820761 9.14621419a10.73274186 10.73274186 0 0 1-.002635.1246773h-4.229757c0-2.34623052-1.3466846-4.37792602-3.309253-5.36428565z"/><path d="M13.1449345 5.34041967c-.5050491-.13802012-1.0366624-.21170705-1.5854863-.21170705-3.31370846 0-5.99999996 2.6862915-5.99999996 5.99999998 0 3.3137085 2.6862915 6 5.99999996 6 2.9546384 0 5.4104653-2.1356652 5.9079949-4.9475097h4.241111c-.6593226 5.1938331-5.0942822 9.2096017-10.4671748 9.2096017-5.82755632 0-10.55172413-4.7241678-10.55172413-10.5517241 0-5.82755637 4.72416781-10.55172418 10.55172413-10.55172418 1.4093442 0 2.7541543.27630358 3.9832156.77769612l-2.0796604 4.27536723z" fill-opacity=".4"/></g></svg>