<svg width="48" height="48" xmlns="http://www.w3.org/2000/svg"><g fill="#14b2e2" fill-rule="evenodd"><path fill-opacity=".6" d="M29 11h8v3h-8z"/><path d="M20 11h8v3h-8z"/><path fill-opacity=".6" d="M11 11h8v3h-8z"/><path fill-opacity=".4" d="M20 15h8v3h-8z"/><path d="M29 15h8v3h-8z"/><path fill-opacity=".6" d="M11 15h8v3h-8z"/><path d="M20 19h8v3h-8zm9 0h8v3h-8z"/><path fill-opacity=".4" d="M11 19h8v3h-8z"/><path d="M20 23h8v3h-8z"/><path fill-opacity=".4" d="M29 23h8v3h-8zm-18 0h8v3h-8z"/><path d="M20 27h8v3h-8zm9 0h8v3h-8z"/><path fill-opacity=".4" d="M11 27h8v3h-8zm9 4h8v3h-8z"/><path d="M20 35h8v2h-8z"/><path fill-opacity=".4" d="M29 31h8v3h-8zm0 4h8v2h-8z"/><path fill-opacity=".6" d="M11 31h8v3h-8zm0 4h8v2h-8z"/></g></svg>