<svg width="48" height="48" xmlns="http://www.w3.org/2000/svg"><g fill="#14B2E2" fill-rule="nonzero" stroke="#FFF"><path d="M31.5 16.5l.29.007a5.961 5.961 0 013.954 1.764 6.045 6.045 0 011.756 4.272c0 3.715-5.61 10.77-5.61 10.77s-.14.177-.391.477c-.248-.3-.389-.477-.389-.477S25.5 26.247 25.5 23.1c0-1.916.648-3.532 1.687-4.684A5.75 5.75 0 0131.5 16.5h0zm-.4 4.25c-.39.078-.756.27-1.05.566a2.088 2.088 0 00.311 3.19 2.036 2.036 0 002.589-.257 2.084 2.084 0 00.256-2.619 2.054 2.054 0 00-.922-.763 2.032 2.032 0 00-1.183-.117z" opacity=".5"/><path d="M21.5 9.5c2.488 0 4.743 1.066 6.374 2.795 1.621 1.718 2.626 4.09 2.626 6.712 0 5.975-8.603 17.297-8.603 17.297s-.14.185-.398.51c-.255-.325-.396-.51-.396-.51S12.5 24.97 12.5 19.912c0-3.023.97-5.575 2.528-7.392 1.64-1.913 3.935-3.02 6.472-3.02zm-.183 6.067a3.496 3.496 0 00-2.75 2.75 3.496 3.496 0 001.489 3.593 3.496 3.496 0 004.419-.435 3.496 3.496 0 00-1.135-5.708 3.496 3.496 0 00-2.023-.2z"/></g></svg>
