<svg width="48" height="48" viewBox="0 0 48 48" fill="none" xmlns="http://www.w3.org/2000/svg">
<path d="M15.4804 16.2C15.4611 16.4141 15.4499 16.6308 15.4499 16.85C15.4499 17.9118 15.9106 19.1112 16.5201 20.2548C17.1392 21.4165 17.9574 22.6023 18.7634 23.6597C19.5713 24.7196 20.3777 25.6639 20.9813 26.3422C21.2834 26.6818 21.5355 26.9564 21.7125 27.1459C21.8008 27.2403 21.8702 27.3139 21.9182 27.3642C21.942 27.3892 21.9613 27.4081 21.974 27.4213C21.9804 27.4279 21.9859 27.4331 21.9893 27.4366L21.9931 27.4417L21.9943 27.4429L22.4501 27.9126L22.9173 27.4518L22.9376 27.4315C22.9509 27.4183 22.971 27.3995 22.996 27.3744C23.0461 27.324 23.1182 27.2495 23.2106 27.1547C23.3953 26.9653 23.6596 26.6918 23.9748 26.3524C24.6046 25.6742 25.4462 24.7307 26.2892 23.6711C27.1304 22.6139 27.9837 21.4272 28.6302 20.265C28.8801 19.8158 29.1037 19.3562 29.2865 18.9002L29.6852 19.45L30.4012 20.75H31.7012L32.3512 20.6839L33.0012 20.1L34.9512 19.45L35.6012 17.5H36.9012L36.2512 18.8L36.9012 20.1L35.3282 21.1981V22.4587L33.8073 22.9729L33.4874 26.3943L32.8463 27.2817L33.1675 28.0764L30.4545 30.9887L31.6999 33.75L30.4545 35.7H29.1444V34.5218L27.7999 33.1V31.8L27.3632 31.4864L26.4999 31.8L25.1999 30.5L23.8999 31.8V33.1H21.9499L21.2999 31.8L20.6499 31.15L19.9999 31.8H18.6999V30.5H16.0999L14.7999 29.2215L12.8499 28.55L10.9012 29.2215L12.2012 26.6L10.9012 23.35V19.6569L12.8512 16.2H15.4804Z" fill="#B0BECA" fill-opacity="0.6"/>
<path fill-rule="evenodd" clip-rule="evenodd" d="M22.5999 11C25.8307 11 28.4499 13.6191 28.4499 16.85C28.4499 17.5761 28.103 18.5379 27.4939 19.6328C26.8956 20.7083 26.0895 21.8324 25.271 22.8612C24.4544 23.8875 23.6363 24.8055 23.0214 25.4676C22.8117 25.6933 22.6238 25.8869 22.4704 26.0465C22.3253 25.8889 22.1488 25.6985 21.9524 25.4777C21.3634 24.8158 20.5789 23.8988 19.7968 22.8727C19.0127 21.844 18.2412 20.719 17.6677 19.643C17.0846 18.5488 16.7499 17.5831 16.7499 16.85C16.7499 13.6191 19.369 11 22.5999 11ZM22.5999 14.2513C21.1639 14.2513 19.9999 15.4153 19.9999 16.8513C19.9999 18.2872 21.1639 19.4513 22.5999 19.4513C24.0358 19.4513 25.1999 18.2872 25.1999 16.8513C25.1999 15.4153 24.0358 14.2513 22.5999 14.2513Z" fill="#B0BECA"/>
</svg>
