<svg width="24" height="24" viewBox="0 0 24 24" fill="none" xmlns="http://www.w3.org/2000/svg">
<path d="M20.4203 10.55L14.8012 17.1228L6.92188 20.2578L5.32422 11.1213L12.0015 6.30664L20.4203 10.55Z" fill="#14B2E2" fill-opacity="0.3"/>
<path fill-rule="evenodd" clip-rule="evenodd" d="M23.4131 9.56543L19.0537 22.9814H4.94629L0.586914 9.56543L12 1.27344L23.4131 9.56543ZM9.08887 18.1279L6.28613 21.9814H17.7139L14.9111 18.1279H9.08887ZM17.5137 12.0098L15.7178 17.5361L18.5195 21.3887L22.043 10.541L17.5137 12.0098ZM5.47949 21.3877L8.28027 17.5352L6.48926 12.0205L1.96094 10.5596L5.47949 21.3877ZM9.81543 17.1279H14.1846L12 14.124L9.81543 17.1279ZM12.8096 13.5371L14.9912 16.5371L16.3379 12.3916L12.8096 13.5371ZM9.00781 16.5361L11.1895 13.5371L7.66309 12.3994L9.00781 16.5361ZM12.5 12.5869L16.0342 11.4395L12.5 8.87207V12.5869ZM7.95898 11.4434L11.5 12.5859V8.87109L7.95898 11.4434ZM2.23926 9.59863L6.78223 11.0635L11.5 7.63574V2.87109L2.23926 9.59863ZM12.5 7.63574L17.21 11.0586L21.7441 9.58789L12.5 2.87109V7.63574Z" fill="#14B2E2" fill-opacity="0.3"/>
<path d="M5.32617 21.4727C5.87846 21.4727 6.32617 21.9204 6.32617 22.4727C6.32617 23.0249 5.87846 23.4727 5.32617 23.4727C4.77389 23.4727 4.32617 23.0249 4.32617 22.4727C4.32617 21.9204 4.77389 21.4727 5.32617 21.4727Z" fill="#14B2E2"/>
<path d="M18.6904 21.4727C19.2427 21.4727 19.6904 21.9204 19.6904 22.4727C19.6904 23.0249 19.2427 23.4727 18.6904 23.4727C18.1381 23.4727 17.6904 23.0249 17.6904 22.4727C17.6904 21.9204 18.1381 21.4727 18.6904 21.4727Z" fill="#14B2E2"/>
<path d="M12 12.2734C12.5523 12.2734 13 12.7212 13 13.2734C13 13.8257 12.5523 14.2734 12 14.2734C11.4477 14.2734 11 13.8257 11 13.2734C11 12.7212 11.4477 12.2734 12 12.2734Z" fill="#14B2E2"/>
<path fill-rule="evenodd" clip-rule="evenodd" d="M21.2148 10.3896L15.1006 17.541L14.9863 17.5859L6.53516 20.9492L4.83203 11.2061L4.77734 10.8975L5.03223 10.7148L11.9551 5.72266L21.2148 10.3896ZM5.87012 11.3428L7.30762 19.5645L14.501 16.7021L19.626 10.708L12.0469 6.8877L5.87012 11.3428Z" fill="#14B2E2"/>
<path d="M1.17969 8.77344C1.73197 8.77344 2.17969 9.22115 2.17969 9.77344C2.17969 10.3257 1.73197 10.7734 1.17969 10.7734C0.627403 10.7734 0.179688 10.3257 0.179688 9.77344C0.179688 9.22115 0.627403 8.77344 1.17969 8.77344Z" fill="#14B2E2"/>
<path d="M22.8203 8.77344C23.3726 8.77344 23.8203 9.22115 23.8203 9.77344C23.8203 10.3257 23.3726 10.7734 22.8203 10.7734C22.268 10.7734 21.8203 10.3257 21.8203 9.77344C21.8203 9.22115 22.268 8.77344 22.8203 8.77344Z" fill="#14B2E2"/>
<path d="M12 0.914062C12.5523 0.914062 13 1.36178 13 1.91406C13 2.46635 12.5523 2.91406 12 2.91406C11.4477 2.91406 11 2.46635 11 1.91406C11 1.36178 11.4477 0.914062 12 0.914062Z" fill="#14B2E2"/>
</svg>
