<svg width="32" height="30" viewBox="0 0 32 30" fill="none" xmlns="http://www.w3.org/2000/svg">
<path d="M14.4122 15.4619L9.40442 22.4717C7.31888 20.639 6.0011 17.9536 6.0011 14.959C6.0011 14.1517 6.0988 13.3672 6.27942 12.6152L14.4122 15.4619Z" fill="#14B2E2" fill-opacity="0.6"/>
<path d="M17.0011 4.00488C21.0165 4.36689 24.4069 6.887 26.0089 10.3965L17.0011 13.5488V4.00488Z" fill="#14B2E2" fill-opacity="0.6"/>
<path d="M15.0011 13.5488L5.04504 10.0645C6.78918 6.16628 10.5491 3.36728 15.0011 3V13.5488Z" fill="#14B2E2"/>
<path d="M24.7734 12.9201C24.9196 13.5616 25 14.2285 25 14.9142C25 17.5737 23.8441 19.9605 22.0098 21.6076L17.5889 15.4191L24.7734 12.9201Z" fill="#14B2E2"/>
<path d="M22.1359 25.2676C20.3405 26.3395 18.2441 26.959 16.0011 26.959C13.7577 26.959 11.66 26.3406 9.86438 25.2686L16.0011 16.6787L22.1359 25.2676Z" fill="#14B2E2" fill-opacity="0.4"/>
</svg>
