<svg width="32" height="30" viewBox="0 0 32 30" fill="none" xmlns="http://www.w3.org/2000/svg">
    <rect x="4" y="6" width="2" height="6" fill="#B0BECA"/>
    <rect x="4" y="16" width="2" height="8" fill="#B0BECA"/>
    <rect x="26" y="12" width="2" height="4" fill="#B0BECA"/>
    <rect x="26" y="18" width="2" height="6" fill="#B0BECA"/>
    <rect x="26" y="6" width="2" height="4" fill="#B0BECA"/>
    <path fill-rule="evenodd" clip-rule="evenodd" d="M11.1376 16.6685C9.76745 17.2583 8.39374 17.7317 7.10858 17.9163C8.03015 17.7885 9.09427 17.5183 10.2813 17.1351C11.9621 16.5924 13.7708 15.8637 15.6223 15.1106L15.9016 14.9969L15.9017 14.9969L15.9017 14.9969C17.6413 14.2889 19.4164 13.5665 21.0627 13.0151C22.7749 12.4418 24.4967 12 26 12V15C25.0033 15 23.6626 15.3082 22.0154 15.8599C20.4623 16.38 18.7686 17.0692 16.9984 17.7895L16.9984 17.7895L16.9984 17.7895L16.7527 17.8894C14.9167 18.6363 13.0066 19.4076 11.2031 19.9899C9.41635 20.5668 7.61258 21 6 21V18V16C7.16458 16 8.63551 15.5682 10.3468 14.8315C12.0405 14.1024 13.8605 13.1245 15.7107 12.121L15.987 11.9711C17.7294 11.0256 19.4951 10.0675 21.1313 9.33689C22.831 8.57797 24.5261 8 26 8V10C24.9739 10 23.6065 10.422 21.9468 11.1631C20.3836 11.8611 18.6806 12.7851 16.9137 13.7437L16.6643 13.879C14.827 14.8755 12.9282 15.8976 11.1376 16.6685ZM6 21H26V24H6V21Z" fill="#B0BECA" fill-opacity="0.4"/>
    <path fill-rule="evenodd" clip-rule="evenodd" d="M6 8V6H26V8H6ZM7.2072 9.09257C8.26823 9.24846 9.38732 9.59254 10.5573 10.0583C12.1177 10.6795 13.732 11.5016 15.3878 12.3448L15.5857 12.4456C18.992 14.1797 22.6061 16 26 16V15C22.8939 15 19.508 13.3203 16.0393 11.5544L15.8251 11.4453C14.1832 10.6091 12.5316 9.76797 10.9271 9.12921C9.25365 8.46299 7.59167 8 6 8V9V12C7.14715 12 8.48748 12.4373 10.0587 13.2415C11.568 14.014 13.1405 15.0435 14.815 16.1399L14.991 16.2551C16.6978 17.3723 18.5071 18.5484 20.3131 19.4391C22.1143 20.3273 24.0433 21 26 21V18C24.7067 18 23.2607 17.5477 21.64 16.7484C20.0241 15.9516 18.3647 14.8777 16.634 13.7449L16.4022 13.5932C14.7756 12.528 13.0816 11.4186 11.4256 10.571C10.0754 9.87988 8.65076 9.30847 7.2072 9.09257Z" fill="#B0BECA" fill-opacity="0.4"/>
</svg>
