<?xml version="1.0" encoding="UTF-8"?>
<svg width="24px" height="24px" viewBox="0 0 24 24" version="1.1" xmlns="http://www.w3.org/2000/svg" xmlns:xlink="http://www.w3.org/1999/xlink">
    <!-- Generator: Sketch 49.1 (51147) - http://www.bohemiancoding.com/sketch -->
    <title>unknow active</title>
    <desc>Created with Sketch.</desc>
    <defs></defs>
    <g id="unknow-active" stroke="none" stroke-width="1" fill="none" fill-rule="evenodd">
        <path d="M10.99,15.029 L10.99,13.984 C10.99,13.7053319 11.0058332,13.4678343 11.0375,13.2715 C11.0691668,13.0751657 11.1261663,12.8978341 11.2085,12.7395 C11.2908337,12.5811659 11.3984993,12.4291674 11.5315,12.2835 C11.6645007,12.1378326 11.8259991,11.9636677 12.016,11.761 L13.479,10.279 C13.7956683,9.96233175 13.954,9.5506692 13.954,9.044 C13.954,8.54999753 13.7925016,8.14783489 13.4695,7.8375 C13.1464984,7.52716511 12.7380025,7.372 12.244,7.372 C11.7119973,7.372 11.2750017,7.55249819 10.933,7.9135 C10.5909983,8.2745018 10.3946669,8.71466407 10.344,9.234 L7.912,9.044 C7.98800038,8.43599696 8.14633213,7.89450237 8.387,7.4195 C8.62766787,6.94449763 8.94116474,6.54233498 9.3275,6.213 C9.71383527,5.88366502 10.1603308,5.63350086 10.667,5.4625 C11.1736692,5.29149914 11.730997,5.206 12.339,5.206 C12.9090029,5.206 13.4378309,5.28833251 13.9255,5.453 C14.4131691,5.61766749 14.8374982,5.85516512 15.1985,6.1655 C15.5595018,6.47583489 15.8413323,6.86216435 16.044,7.3245 C16.2466677,7.78683565 16.348,8.31566369 16.348,8.911 C16.348,9.32900209 16.2910006,9.69633175 16.177,10.013 C16.0629994,10.3296682 15.911001,10.6209987 15.721,10.887 C15.5309991,11.1530013 15.3125012,11.4063321 15.0655,11.647 C14.8184988,11.8876679 14.5556681,12.1409987 14.277,12.407 C14.0996658,12.5716675 13.9476673,12.7173327 13.821,12.844 C13.6943327,12.9706673 13.5898337,13.1004993 13.5075,13.2335 C13.4251663,13.3665007 13.3650002,13.5184991 13.327,13.6895 C13.2889998,13.8605009 13.27,14.0663321 13.27,14.307 L13.27,15.029 L10.99,15.029 Z M10.61,17.67 C10.61,17.2646646 10.7588318,16.9163348 11.0565,16.625 C11.3541682,16.3336652 11.7119979,16.188 12.13,16.188 C12.5353354,16.188 12.8899985,16.3273319 13.194,16.606 C13.4980015,16.8846681 13.65,17.2266646 13.65,17.632 C13.65,18.0373354 13.5011682,18.3856652 13.2035,18.677 C12.9058318,18.9683348 12.5480021,19.114 12.13,19.114 C11.9273323,19.114 11.7341676,19.0760004 11.5505,19 C11.3668324,18.9239996 11.205334,18.8226673 11.066,18.696 C10.926666,18.5693327 10.8158337,18.4173342 10.7335,18.24 C10.6511663,18.0626658 10.61,17.8726677 10.61,17.67 Z" id="?" fill="#14B2E2"></path>
    </g>
</svg>