<svg xmlns="http://www.w3.org/2000/svg" width="24" height="24" viewBox="0 0 24 24">
  <path d="M2.52 15.58l1.86-2.99 1.87 2.99h1.6l-2.57-3.7L7.6 8.5H6.07l-1.65 2.62L2.75 8.5H1.16l2.36 3.38L1 15.58h1.52zm7.35 0V8.5H8.61v7.08h1.26zm2.81 0v-3h.92l1.64 3h1.52l-1.88-3.13c.5266667-.0733333.9316667-.2833333 1.215-.63.2833333-.3466667.425-.7766667.425-1.29 0-.4-.0733333-.73-.22-.99-.1466667-.26-.3433333-.46666667-.59-.62-.2466667-.15333333-.5283333-.26166667-.845-.325-.3166667-.06333333-.645-.095-.985-.095h-2.46v7.08h1.26zm.98-4.08h-.98V9.58h1.09c.16 0 .325.01.495.03.17.02.325.06166667.465.125s.2533333.15833333.34.285c.0866667.1266667.13.2933333.13.5 0 .2333333-.0466667.415-.14.545-.0933333.13-.215.2266667-.365.29-.15.0633333-.315.1033333-.495.12-.18.0166667-.36.025-.54.025zm5.32 4.08v-3h.92l1.64 3h1.52l-1.88-3.13c.5266667-.0733333.9316667-.2833333 1.215-.63.2833333-.3466667.425-.7766667.425-1.29 0-.4-.0733333-.73-.22-.99-.1466667-.26-.3433333-.46666667-.59-.62-.2466667-.15333333-.5283333-.26166667-.845-.325-.3166667-.06333333-.645-.095-.985-.095h-2.46v7.08h1.26zm.98-4.08h-.98V9.58h1.09c.16 0 .325.01.495.03.17.02.325.06166667.465.125s.2533333.15833333.34.285c.0866667.1266667.13.2933333.13.5 0 .2333333-.0466667.415-.14.545-.0933333.13-.215.2266667-.365.29-.15.0633333-.315.1033333-.495.12-.18.0166667-.36.025-.54.025z" fill="#B0BECA" fill-rule="nonzero"/>
</svg>
