<svg width="16" height="14" viewBox="0 0 16 14" fill="none" xmlns="http://www.w3.org/2000/svg">
    <rect width="2" height="5" fill="#B0BECA"/>
    <rect y="7" width="2" height="7" fill="#B0BECA"/>
    <rect x="14" y="4" width="2" height="4" fill="#B0BECA"/>
    <rect x="14" y="9" width="2" height="5" fill="#B0BECA"/>
    <rect x="14" width="2" height="3" fill="#B0BECA"/>
    <path d="M2.00008 7.5C5.50008 7.5 9.83341 2.5 14.0001 2.5" stroke="#B0BECA"/>
    <path d="M2 9.5C6.58333 9.5 9.83333 5.5 14 5.5" stroke="#B0BECA" stroke-width="3"/>
    <path d="M2 1C5.6 1 10.1 1 14 1" stroke="#B0BECA" stroke-width="2"/>
    <path d="M2 12.5C5.6 12.5 10.1 12.5 14 12.5" stroke="#B0BECA" stroke-width="3"/>
    <path d="M1.99992 3.99976C5.99992 3.99976 8.58326 9.99976 13.9999 9.99976" stroke="#B0BECA" stroke-width="2"/>
    <path d="M1.99992 2.50037C6.99992 2.50037 8.58326 7.50037 13.9999 7.50037" stroke="#B0BECA"/>
</svg>
