<?xml version="1.0" encoding="UTF-8"?>
<svg width="16px" height="16px" viewBox="0 0 16 16" version="1.1" xmlns="http://www.w3.org/2000/svg" xmlns:xlink="http://www.w3.org/1999/xlink">
    <!-- Generator: Sketch 56.3 (81716) - https://sketch.com -->
    <title>vetical_center copy</title>
    <desc>Created with Sketch.</desc>
    <g id="vetical_center-copy" stroke="none" stroke-width="1" fill="none" fill-rule="evenodd">
        <rect id="Rectangle" x="0" y="0" width="16" height="16"></rect>
        <rect id="Rectangle-8-Copy-6" fill="#B0BECA" transform="translate(1.000000, 8.000000) rotate(-450.000000) translate(-1.000000, -8.000000) " x="-2" y="7" width="6" height="2"></rect>
        <rect id="Rectangle-8-Copy" fill="#B0BECA" opacity="0.400000006" transform="translate(12.000000, 8.000000) rotate(-450.000000) translate(-12.000000, -8.000000) " x="4" y="7" width="16" height="2"></rect>
        <rect id="Rectangle-8-Copy-3" fill="#B0BECA" opacity="0.400000006" transform="translate(7.500000, 5.500000) rotate(-450.000000) translate(-7.500000, -5.500000) " x="7" y="4" width="1" height="3"></rect>
        <rect id="Rectangle-8-Copy-5" fill="#B0BECA" opacity="0.400000006" transform="translate(7.500000, 10.500000) rotate(-450.000000) translate(-7.500000, -10.500000) " x="7" y="9" width="1" height="3"></rect>
        <rect id="Rectangle-8-Copy-8" fill="#B0BECA" opacity="0.400000006" transform="translate(7.500000, 15.500000) rotate(-450.000000) translate(-7.500000, -15.500000) " x="7" y="14" width="1" height="3"></rect>
        <rect id="Rectangle-8-Copy-7" fill="#B0BECA" opacity="0.400000006" transform="translate(7.500000, 0.500000) rotate(-450.000000) translate(-7.500000, -0.500000) " x="7" y="-1" width="1" height="3"></rect>
    </g>
</svg>