<svg width="16" height="16" viewBox="0 0 16 16" fill="none" xmlns="http://www.w3.org/2000/svg">
    <path d="M10.0929 13.625C9.44127 13.8676 8.73617 14.0001 8.00012 14.0001C7.26402 14.0001 6.55889 13.8675 5.90729 13.625L4.89648 15.3758C5.85083 15.7778 6.89952 16.0001 8.00012 16.0001C9.10066 16.0001 10.1493 15.7779 11.1036 15.3758L10.0929 13.625Z" fill="#B0BECA"/>
    <path d="M11.824 12.6238C12.9098 11.7248 13.6737 10.4507 13.9171 9H15.9382C15.6652 11.1891 14.5077 13.1036 12.8347 14.3744L11.824 12.6238Z" fill="#B0BECA"/>
    <path d="M13.9172 7.00013C13.6739 5.54962 12.9101 4.27558 11.8245 3.3766L12.8352 1.62598C14.508 2.89685 15.6654 4.81117 15.9383 7.00013H13.9172Z" fill="#B0BECA"/>
    <path d="M10.0933 2.37522C9.44158 2.1326 8.73633 2 8.00011 2C7.26384 2 6.55854 2.13262 5.9068 2.37527L4.896 0.624524C5.85047 0.222326 6.89933 0 8.00011 0C9.10082 0 10.1496 0.222293 11.104 0.624435L10.0933 2.37522Z" fill="#B0BECA"/>
    <path d="M4.17556 3.3766C2.84661 4.47714 2 6.13969 2 7.99998C2 9.86044 2.84677 11.5231 4.17594 12.6237L3.16522 14.3743C1.2419 12.9132 0 10.6016 0 7.99998C0 5.3985 1.24172 3.08705 3.16481 1.62598L4.17556 3.3766Z" fill="#B0BECA" fill-opacity="0.4"/>
    <path d="M9.14562 2.10925C9.47119 2.17219 9.78739 2.26145 10.0919 2.37473C8.88347 4.72509 7.32704 5.84995 5.82195 6.30367C4.71609 6.63704 3.6887 6.60907 2.94617 6.50871C4.88252 6.86996 8.69054 7.07889 11.8242 3.37112C11.8273 3.36746 11.8305 3.36393 11.8338 3.36051L11.8245 3.37663C12.3515 3.81301 12.8026 4.33777 13.1552 4.92819C10.9961 7.36439 8.56918 8.30798 6.47596 8.59324C6.59815 8.60326 6.72146 8.61416 6.84572 8.62598C9.03255 8.83406 11.5728 9.33325 13.5093 10.3804C13.3761 10.6884 13.2177 10.9831 13.0369 11.2618C11.277 10.309 8.89343 9.82534 6.75099 9.62148C6.12697 9.56211 5.52839 9.52692 4.97823 9.51031C5.25173 9.55322 5.53418 9.6155 5.82195 9.70225C7.32645 10.1558 8.88368 11.2769 10.0919 13.6254C9.78654 13.739 9.46939 13.8285 9.14281 13.8914C8.0645 11.8897 6.72396 11.0186 5.53332 10.6597C4.32764 10.2962 3.2174 10.4404 2.57917 10.5752C2.20782 9.79485 2 8.9217 2 8.00001C2 7.08043 2.20687 6.20916 2.57662 5.43022C3.21444 5.56514 4.32604 5.71017 5.53332 5.34623C6.725 4.98699 8.06683 4.11471 9.14562 2.10925Z" fill="#B0BECA" fill-opacity="0.4"/>
</svg>
