<?xml version="1.0" encoding="UTF-8"?>
<svg width="13" height="14" viewBox="0 0 13 14" fill="none" xmlns="http://www.w3.org/2000/svg">
    <path d="M0.5 1C0.223858 1 0 1.22386 0 1.5V2.5C0 2.77614 0.223858 3 0.5 3H7.5C7.77614 3 8 2.77614 8 2.5V1.5C8 1.22386 7.77614 1 7.5 1H0.5Z" fill="#94A1AD"/>
    <path d="M6.5 6C6.22386 6 6 6.22386 6 6.5V7.5C6 7.77614 6.22386 8 6.5 8H12.5C12.7761 8 13 7.77614 13 7.5V6.5C13 6.22386 12.7761 6 12.5 6H6.5Z" fill="#94A1AD"/>
    <path d="M6 10.5C6 10.2239 6.22386 10 6.5 10H12.5C12.7761 10 13 10.2239 13 10.5V11.5C13 11.7761 12.7761 12 12.5 12H6.5C6.22386 12 6 11.7761 6 11.5V10.5Z" fill="#94A1AD"/>
    <path d="M2 4H1V10C1 10.5523 1.44772 11 2 11H5V10H2V7H5V6H2V4Z" fill="#94A1AD"/>
</svg>
