<?xml version="1.0" encoding="utf-8"?>
<!-- Generator: Adobe Illustrator 18.1.0, SVG Export Plug-In . SVG Version: 6.00 Build 0)  -->
<!DOCTYPE svg PUBLIC "-//W3C//DTD SVG 1.1//EN" "http://www.w3.org/Graphics/SVG/1.1/DTD/svg11.dtd">
<svg version="1.1" id="Layer_1" xmlns="http://www.w3.org/2000/svg" xmlns:xlink="http://www.w3.org/1999/xlink" x="0px" y="0px"
	 viewBox="-40 -40 100 100" enable-background="new -40 -40 100 100" xml:space="preserve">
<g>
	<g>
		<path d="M44.5-35H32v-2.5c0-1.4-1.1-2.5-2.5-2.5c-1.4,0-2.5,1.2-2.5,2.5v2.5H-15v-2.5c0-1.4-1.1-2.5-2.5-2.5
			c-1.4,0-2.5,1.2-2.5,2.5v2.5h-12.5c-4.1,0-7.5,3.4-7.5,8.4v67.9c0,3.3,3.4,6.7,7.5,6.7h77c4.1,0,7.5-3.4,7.5-6.7v-67.9
			C52-31.6,48.6-35,44.5-35z M-32.5-30H-20v7.5c0,1.4,1.1,2.5,2.5,2.5c1.4,0,2.5-1.1,2.5-2.5V-30H27v7.5c0,1.4,1.1,2.5,2.5,2.5
			c1.4,0,2.5-1.1,2.5-2.5V-30h12.5c1.4,0,2.5,1.1,2.5,2.5v13.3h-82v-13.3C-35-28.8-33.9-30-32.5-30z M44.5,43h-77
			c-1.4,0-2.5-1.1-2.5-2.5V-9.1h82v49.6C47,41.8,45.9,43,44.5,43z" fill="#94a1ad"/>
	</g>
	<g>
		<path d="M5.5,14.3C7.1,11.7,7.3,8,6.1,5.2C5,2.3,2,0.7-1.1,0.1c-2.9-0.6-6-0.6-8.9-0.3C-13.5,0.1-17,1-18.9,3.9
			c-0.8,1.2-1.6,2.7-0.8,4c0.6,1,1.8,1.1,2.9,0.8c1.6-0.4,1.5-1.6,2.3-2.8c0.7-1.1,2.2-1.5,3.5-1.7c2.4-0.5,5.2-0.4,7.7-0.1
			c1.4,0.2,3,0.4,4.1,1.3C1.6,6.3,1.9,7.8,2,9c0,1.3-0.3,2.9-1.4,3.8c-1.1,0.9-2.5,1.1-3.8,1.3c-1.1,0.2-2.2,0.2-3.4,0.2
			c-1.1,0-2,0-2.8,0.8c-1.1,1.1-0.7,2.8,0.6,3.4c0.8,0.4,1.7,0.3,2.5,0.3c2.2,0,5.7,0.1,7.1,1.9c1.5,1.9,1.6,5.9-0.7,7.3
			c-2.5,1.5-6.4,1.4-9.2,1.2c-1.3-0.1-2.8-0.2-4-0.9c-0.5-0.3-1-0.6-1.4-1.1c-0.5-0.6-0.5-1.5-1.1-2.1c-0.8-0.9-2.2-0.9-3.2-0.3
			c-1.3,0.8-1.2,2.4-0.7,3.6c2.8,5.7,10.9,6.1,16.7,5.5c3.1-0.4,6.3-1.3,8.2-3.8c1.9-2.6,2-6.5,0.9-9.4C5.7,19,4.6,18,3.4,16.9
			C4.2,16.1,4.9,15.3,5.5,14.3z M-8.2,17.8L-8.2,17.8L-8.2,17.8L-8.2,17.8z" fill="#94a1ad"/>
		<path d="M31.8,1.2c-0.1-0.2-0.2-0.4-0.3-0.6c-0.1-0.2-0.2-0.3-0.4-0.4c-0.2-0.2-0.4-0.3-0.8-0.4c-0.2-0.1-0.3-0.1-0.5-0.1
			c-0.1,0-0.2,0-0.3,0H29c-0.2,0-0.4,0.1-0.7,0.2c-0.2,0.1-0.4,0.3-0.5,0.4l-5.3,5c-0.1,0.2-0.3,0.4-0.3,0.5
			c-0.2,0.3-0.2,0.6-0.2,0.9C21.9,7,22,7.3,22,7.5c0.1,0.3,0.3,0.5,0.5,0.8c0.2,0.2,0.4,0.4,0.8,0.5c0.5,0.2,1.2,0.2,1.7,0
			c0.3-0.1,0.5-0.3,0.8-0.5L27,7.2v24.4c0,0.2,0.1,0.4,0.2,0.7c0.1,0.3,0.3,0.5,0.5,0.7c0.2,0.2,0.4,0.4,0.8,0.5
			c0.3,0.1,0.7,0.2,1,0.2s0.7-0.1,0.9-0.2c0.3-0.1,0.5-0.3,0.8-0.5c0.2-0.2,0.3-0.4,0.5-0.7c0.1-0.3,0.2-0.6,0.2-0.9V1.6
			C31.9,1.6,31.8,1.4,31.8,1.2z" fill="#94a1ad"/>
	</g>
</g>
</svg>
