<svg width="17" height="8" viewBox="0 0 17 8" fill="none" xmlns="http://www.w3.org/2000/svg">
<path d="M4.5 7.79688C4.44792 7.79688 4.39583 7.78906 4.34375 7.77344C4.29688 7.7526 4.25521 7.72135 4.21875 7.67969L1.01562 4.48438C0.9375 4.40625 0.898438 4.3125 0.898438 4.20312C0.898438 4.08854 0.9375 3.99219 1.01562 3.91406L4.21875 0.71875C4.29688 0.640625 4.39062 0.601562 4.5 0.601562C4.60938 0.601562 4.70312 0.640625 4.78125 0.71875C4.85938 0.796875 4.89844 0.890625 4.89844 1C4.89844 1.10938 4.85938 1.20312 4.78125 1.28125L1.86719 4.20312L4.78125 7.11719C4.85938 7.19531 4.89844 7.28906 4.89844 7.39844C4.89844 7.50781 4.85938 7.60156 4.78125 7.67969C4.74479 7.72135 4.70052 7.7526 4.64844 7.77344C4.60156 7.78906 4.55208 7.79688 4.5 7.79688ZM12.5 7.79688C12.4479 7.79688 12.3958 7.78906 12.3438 7.77344C12.2969 7.7526 12.2552 7.72135 12.2188 7.67969C12.1406 7.60156 12.1016 7.50781 12.1016 7.39844C12.1016 7.28906 12.1406 7.19531 12.2188 7.11719L15.1328 4.20312L12.2188 1.28125C12.1406 1.20312 12.1016 1.10938 12.1016 1C12.1016 0.890625 12.1406 0.796875 12.2188 0.71875C12.2969 0.640625 12.3906 0.601562 12.5 0.601562C12.6094 0.601562 12.7031 0.640625 12.7812 0.71875L15.9844 3.91406C16.0625 3.99219 16.1016 4.08854 16.1016 4.20312C16.1016 4.3125 16.0625 4.40625 15.9844 4.48438L12.7812 7.67969C12.7448 7.72135 12.7005 7.7526 12.6484 7.77344C12.6016 7.78906 12.5521 7.79688 12.5 7.79688ZM6.5 7.79688C6.46354 7.79688 6.42708 7.79427 6.39062 7.78906C6.35417 7.77865 6.32031 7.76302 6.28906 7.74219C6.19531 7.67969 6.13542 7.59635 6.10938 7.49219C6.08333 7.38281 6.10156 7.28125 6.16406 7.1875L10.1641 0.789062C10.2214 0.695312 10.3021 0.635417 10.4062 0.609375C10.5156 0.583333 10.6172 0.601562 10.7109 0.664062C10.8047 0.721354 10.8646 0.804688 10.8906 0.914062C10.9167 1.01823 10.8984 1.11719 10.8359 1.21094L6.83594 7.60938C6.79948 7.67188 6.75 7.71875 6.6875 7.75C6.63021 7.78125 6.56771 7.79688 6.5 7.79688Z" fill="#94A1AD"/>
</svg>
