<?xml version="1.0" standalone="no"?>
<!DOCTYPE svg PUBLIC "-//W3C//DTD SVG 1.1//EN" "http://www.w3.org/Graphics/SVG/1.1/DTD/svg11.dtd" >
<svg xmlns="http://www.w3.org/2000/svg" xmlns:xlink="http://www.w3.org/1999/xlink" version="1.1" viewBox="-10 0 1034 1024">
   <path fill="#f1233d"
         d="M830.338 180.864c-91.8691 -91.8691 -214.016 -142.464 -343.938 -142.464c-129.923 0 -252.067 50.5947 -343.937 142.464s-142.464 214.014 -142.464 343.936s50.5947 252.069 142.464 343.938s214.014 142.462 343.937 142.462
c129.922 0 252.068 -50.5938 343.938 -142.462s142.462 -214.017 142.462 -343.938s-50.5938 -252.066 -142.462 -343.936zM486.4 960c-239.971 0 -435.2 -195.23 -435.2 -435.2s195.229 -435.2 435.2 -435.2c239.97 0 435.199 195.23 435.199 435.2
s-195.229 435.2 -435.199 435.2zM734.525 711.12l-211.923 -211.92l186.322 -186.323c9.99805 -9.99707 10 -26.2061 0 -36.2021c-9.99707 -9.99805 -26.2061 -9.99805 -36.2031 0l-186.321 186.322l-186.322 -186.323c-9.99707 -9.99805 -26.2051 -9.99707 -36.2031 0
s-9.99707 26.2051 0 36.2031l186.323 186.323l-211.925 211.92c-9.99805 9.99707 -9.99805 26.2061 0 36.2031c5 5 11.5518 7.50098 18.1006 7.49902c6.55176 0 13.1035 -2.49902 18.1006 -7.49902l211.926 -211.92l211.922 211.92
c4.99805 4.99805 11.5498 7.50098 18.0986 7.50098c6.55176 0 13.1025 -2.49902 18.1016 -7.50098c10.002 -9.99512 10 -26.2051 0.00292969 -36.2031z" />
</svg>