<svg width="16" height="16" xmlns="http://www.w3.org/2000/svg">
  <g fill="none" fill-rule="evenodd">
    <path d="M15.9813899 8.55000019C15.6988102 12.7117329 12.233413 16 8 16c-4.418278 0-8-3.581722-8-8s3.581722-8 8-8 8 3.581722 8 8a8.18115801 8.18115801 0 0 1-.0000042.00829035A8.17449378 8.17449378 0 0 1 16 8.01657877c0 .17924508-.005895.35711332-.0175016.53342142h-.0011085zm0 0c.0121552-.17901783.0184213-.35965184.0186059-.54170984-.0030913-3.04809009-1.7108458-5.6970242-4.2212748-7.04481569L7 8.5500002h8.9813899z" fill="#D7DCE1"/>
    <path d="M15.9999832 8H8l4.2577032-6.75754355C14.5017206 2.65584594 15.9942093 5.15342245 15.9999832 8z" fill="#B0BEC7"/>
  </g>
</svg>
