<svg width="342" height="263" viewBox="0 0 342 263" fill="none" xmlns="http://www.w3.org/2000/svg">
<rect x="1" y="1" width="340" height="261" fill="#CCD8E2" fill-opacity="0.15"/>
<rect opacity="0.25" x="11" y="11" width="100" height="10" rx="5" fill="#B0BECA"/>
<rect opacity="0.25" x="11" y="31" width="200" height="10" rx="5" fill="#B0BECA"/>
<rect opacity="0.25" x="31" y="51" width="100" height="10" rx="5" fill="#B0BECA"/>
<rect opacity="0.25" x="31" y="71" width="150" height="10" rx="5" fill="#B0BECA"/>
<rect opacity="0.25" x="31" y="91" width="200" height="10" rx="5" fill="#B0BECA"/>
<rect opacity="0.25" x="31" y="111" width="50" height="10" rx="5" fill="#B0BECA"/>
<rect opacity="0.25" x="11" y="131" width="100" height="10" rx="5" fill="#B0BECA"/>
<rect opacity="0.25" x="11" y="151" width="50" height="10" rx="5" fill="#B0BECA"/>
<rect opacity="0.25" x="31" y="171" width="50" height="10" rx="5" fill="#B0BECA"/>
<rect opacity="0.25" x="31" y="191" width="150" height="10" rx="5" fill="#B0BECA"/>
<rect opacity="0.25" x="31" y="211" width="50" height="10" rx="5" fill="#B0BECA"/>
<rect opacity="0.25" x="11" y="231" width="50" height="10" rx="5" fill="#B0BECA"/>
<rect x="1" y="1" width="340" height="261" stroke="#DDE4EB"/>
</svg>
