<svg xmlns="http://www.w3.org/2000/svg" width="21" height="24" viewBox="0 0 21 24">
  <path d="M19.53 2.307c-.27-.187-.595-.36-.976-.52-.38-.162-.81-.31-1.283-.445-.93-.27-1.99-.474-3.19-.61C12.87.597 11.62.53 10.32.53c-1.308 0-2.558.066-3.76.2-1.204.136-2.27.34-3.2.61-.476.135-.9.283-1.284.444-.38.16-.707.334-.977.52-.43.288-.71.58-.84.877-.14.3-.21.55-.21.75v.69c0 .31.09.67.26 1.09.18.42.38.8.6 1.12l6.71 10.03c.17.27.313.62.44 1.04.124.43.19.79.19 1.09v4.11c0 .12.03.23.09.33s.14.19.24.26c.05.04.104.06.163.08.06.02.123.03.19.03.05 0 .102-.01.153-.02l.15-.05 2.74-1.37c.12-.05.21-.13.28-.24.066-.11.1-.23.1-.37V19c0-.303.064-.67.19-1.09.127-.424.276-.77.445-1.04l6.72-10.04c.22-.32.41-.695.59-1.118.18-.423.27-.787.27-1.092v-.69c0-.203-.07-.453-.206-.75-.136-.296-.416-.588-.84-.875zm-15.79.355c.864-.254 1.862-.448 2.996-.584 1.134-.135 2.328-.203 3.58-.203 1.253 0 2.446.068 3.58.203 1.135.136 2.133.33 2.997.584.95.27 1.57.533 1.867.787.296.25.444.41.444.48 0 .08-.147.25-.443.5-.29.25-.91.51-1.86.78-.86.23-1.86.42-2.99.56-1.13.13-2.32.2-3.58.2-1.25 0-2.44-.07-3.58-.21-1.15-.12-2.15-.307-3.01-.547-.94-.27-1.57-.534-1.86-.788-.29-.26-.44-.43-.44-.51 0-.07.15-.23.45-.487.3-.255.92-.517 1.87-.788zm8.125 13.432c-.237.372-.44.838-.61 1.396-.168.56-.253 1.058-.253 1.498v2.31l-1.37.686v-2.996c0-.44-.086-.94-.255-1.498-.17-.558-.372-1.024-.61-1.396L2.09 6.09c.186.084.385.16.597.228.21.068.435.136.672.203.93.28 1.99.48 3.2.63 1.2.15 2.45.22 3.75.22 1.3 0 2.55-.07 3.76-.21 1.2-.14 2.27-.35 3.2-.62.23-.06.46-.13.67-.2.21-.07.41-.14.59-.23l-6.68 10z" fill="#b0beca" fill-rule="evenodd"/>
</svg>
