<?xml version="1.0" encoding="UTF-8" standalone="no"?>
<svg width="21px" height="24px" viewBox="0 0 21 24" version="1.1" xmlns="http://www.w3.org/2000/svg" xmlns:xlink="http://www.w3.org/1999/xlink">
    <g id="Design" stroke="none" stroke-width="1" fill="none" fill-rule="evenodd">
        <g id="1.4-Filter-item-MO-filter-container" transform="translate(-20.000000, -159.000000)" fill="#94A1AD">
            <g id="Build-panel-" transform="translate(-31.000000, 44.000000)">
                <g id="Item-Filter" transform="translate(38.000000, 104.000000)">
                    <path d="M32.53125,13.3066406 C32.2604153,13.1204418 31.9345722,12.9469409 31.5537109,12.7861328 C31.1728497,12.6253247 30.7454451,12.4772142 30.2714844,12.3417969 C29.3404901,12.0709622 28.2740946,11.8678392 27.0722656,11.7324219 C25.8704367,11.5970045 24.6178451,11.5292969 23.3144531,11.5292969 C22.0110612,11.5292969 20.7584696,11.5970045 19.5566406,11.7324219 C18.3548117,11.8678392 17.2884161,12.0709622 16.3574219,12.3417969 C15.8834612,12.4772142 15.4560566,12.6253247 15.0751953,12.7861328 C14.694334,12.9469409 14.3684909,13.1204418 14.0976562,13.3066406 C13.6744771,13.5944025 13.395183,13.8863917 13.2597656,14.1826172 C13.1243483,14.4788426 13.0566406,14.7285146 13.0566406,14.9316406 L13.0566406,15.6171875 C13.0566406,15.9218765 13.1455069,16.2858052 13.3232422,16.7089844 C13.5009775,17.1321636 13.6998687,17.5045557 13.9199219,17.8261719 L20.6230469,27.8554688 C20.7923186,28.1263034 20.9404291,28.4733052 21.0673828,28.8964844 C21.1943366,29.3196636 21.2578125,29.6835922 21.2578125,29.9882812 L21.2578125,34.1015625 C21.2578125,34.2200527 21.2874346,34.3300776 21.3466797,34.4316406 C21.4059248,34.5332036 21.4863276,34.6178382 21.5878906,34.6855469 C21.6386721,34.7194012 21.6936846,34.7447916 21.7529297,34.7617188 C21.8121748,34.7786459 21.8756507,34.7871094 21.9433594,34.7871094 C21.9941409,34.7871094 22.0449216,34.7786459 22.0957031,34.7617188 C22.1464846,34.7447916 22.1972654,34.7278647 22.2480469,34.7109375 L24.9902344,33.3398438 C25.1087246,33.2890622 25.2018226,33.2086594 25.2695312,33.0986328 C25.3372399,32.9886062 25.3710938,32.8658861 25.3710938,32.7304688 L25.3710938,29.9882812 C25.3710938,29.6835922 25.4345697,29.3196636 25.5615234,28.8964844 C25.6884772,28.4733052 25.8365877,28.1263034 26.0058594,27.8554688 L32.7089844,17.8261719 C32.9290376,17.5045557 33.1279288,17.1321636 33.3056641,16.7089844 C33.4833993,16.2858052 33.5722656,15.9218765 33.5722656,15.6171875 L33.5722656,14.9316406 C33.5722656,14.7285146 33.504558,14.4788426 33.3691406,14.1826172 C33.2337233,13.8863917 32.9544292,13.5944025 32.53125,13.3066406 L32.53125,13.3066406 Z M16.7382812,13.6621094 C17.6015668,13.4082019 18.6002547,13.2135423 19.734375,13.078125 C20.8684953,12.9427077 22.0618427,12.875 23.3144531,12.875 C24.5670636,12.875 25.760411,12.9427077 26.8945312,13.078125 C28.0286515,13.2135423 29.0273394,13.4082019 29.890625,13.6621094 C30.8385464,13.9329441 31.4606105,14.1953112 31.7568359,14.4492188 C32.0530614,14.7031263 32.2011719,14.863932 32.2011719,14.9316406 C32.2011719,15.0162765 32.0530614,15.1855456 31.7568359,15.4394531 C31.4606105,15.6933606 30.8385464,15.9557278 29.890625,16.2265625 C29.0273394,16.4635429 28.0286515,16.6497389 26.8945312,16.7851562 C25.760411,16.9205736 24.5670636,16.9882812 23.3144531,16.9882812 C22.0618427,16.9882812 20.8684953,16.9205736 19.734375,16.7851562 C18.6002547,16.6497389 17.6015668,16.4635429 16.7382812,16.2265625 C15.7903598,15.9557278 15.1682958,15.6933606 14.8720703,15.4394531 C14.5758449,15.1855456 14.4277344,15.0162765 14.4277344,14.9316406 C14.4277344,14.863932 14.5758449,14.7031263 14.8720703,14.4492188 C15.1682958,14.1953112 15.7903598,13.9329441 16.7382812,13.6621094 L16.7382812,13.6621094 Z M24.8632812,27.09375 C24.6263009,27.4661477 24.4231779,27.9316378 24.2539062,28.4902344 C24.0846346,29.0488309 24,29.5481749 24,29.9882812 L24,32.2988281 L22.6289062,32.984375 L22.6289062,29.9882812 C22.6289062,29.5481749 22.5442717,29.0488309 22.375,28.4902344 C22.2057283,27.9316378 22.0026054,27.4661477 21.765625,27.09375 L15.0878906,17.0898438 C15.2740895,17.1744796 15.4729807,17.2506507 15.6845703,17.3183594 C15.8961599,17.386068 16.1204415,17.4537757 16.3574219,17.5214844 C17.2884161,17.7923191 18.3548117,17.9996738 19.5566406,18.1435547 C20.7584696,18.2874356 22.0110612,18.359375 23.3144531,18.359375 C24.6178451,18.359375 25.8704367,18.2874356 27.0722656,18.1435547 C28.2740946,17.9996738 29.3404901,17.7923191 30.2714844,17.5214844 C30.5084647,17.4537757 30.7327463,17.386068 30.9443359,17.3183594 C31.1559255,17.2506507 31.3548168,17.1744796 31.5410156,17.0898438 L24.8632812,27.09375 Z" id="filter"></path>
                </g>
            </g>
        </g>
    </g>
</svg>