<?xml version="1.0" encoding="UTF-8"?>
<svg width="24px" height="25px" viewBox="0 0 24 25" version="1.1" xmlns="http://www.w3.org/2000/svg" xmlns:xlink="http://www.w3.org/1999/xlink">
    <g id="chart" stroke="none" stroke-width="1" fill="none" fill-rule="evenodd">
        <g id="Artboard-Copy-10" transform="translate(-13.000000, -10.000000)" fill="#94A1AD" fill-rule="nonzero">
            <g id="Group-2" transform="translate(12.702946, 9.727564)">
                <path d="M10.9966048,7.29592496 C11.6416141,7.29592496 12.2018957,7.35279962 12.6783469,7.46787487 C13.1692039,7.58642951 13.5803523,7.77277701 13.9093288,8.02912655 C14.2446578,8.29042623 14.493746,8.62324281 14.6535336,9.0229543 C14.808815,9.4113934 14.8851667,9.86553708 14.8851667,10.3845773 C14.8851667,10.6667099 14.8629251,10.9323791 14.8181588,11.1815429 C14.772501,11.4356685 14.7007461,11.6740396 14.6027214,11.8961713 C14.5048611,12.1179306 14.383611,12.3230254 14.2391314,12.5109629 C14.0963062,12.6967483 13.9311302,12.8691486 13.7387299,13.0323958 C13.41384,13.2958285 13.0500288,13.5072471 12.6483106,13.6663571 C12.2707084,13.8159153 11.8930579,13.9563081 11.5118253,14.0887363 C11.3116101,14.1555152 11.1113821,14.2248669 10.9111411,14.2967919 C10.7162091,14.36681 10.5277157,14.4430025 10.3456434,14.5253591 C10.1659554,14.6066372 9.99254943,14.6964693 9.82538004,14.7948639 C9.66606379,14.8886362 9.51873257,14.9962767 9.38290162,15.1181299 C9.11998634,15.3535126 8.91878973,15.6353588 8.77767974,15.9663584 C8.71287428,16.1183716 8.65951241,16.2838265 8.61776361,16.4627819 L8.57989211,16.6462395 L8.547,16.8607412 L14.2158269,16.8621241 L14.3236377,16.873549 C14.4595126,16.8996947 14.5804593,16.9654664 14.6805342,17.0656021 C14.8152239,17.2003736 14.8851667,17.3730037 14.8851667,17.5660568 C14.8851667,17.7549434 14.8144793,17.924696 14.6805342,18.0587224 C14.5733781,18.1659435 14.4433711,18.2326551 14.2990033,18.2550508 L14.1881674,18.263479 L7.78630359,18.2623035 L7.67597811,18.2511584 C7.53700877,18.2254077 7.41363566,18.1597439 7.31267545,18.0587224 C7.17873036,17.924696 7.108043,17.7549434 7.108043,17.5660568 C7.108043,17.1866752 7.13523954,16.8315449 7.18990196,16.5006366 C7.24504046,16.1668462 7.32812946,15.8550734 7.43941127,15.565565 C7.55113204,15.2749148 7.68984941,15.0057239 7.85555915,14.7584136 C8.02323825,14.5081641 8.22342706,14.2808617 8.45140468,14.0806347 C8.64170687,13.9070186 8.8461538,13.7528898 9.06455543,13.6184072 C9.2777856,13.487109 9.49666646,13.370758 9.72114192,13.2694088 C9.94068224,13.1702878 10.164216,13.0792128 10.3917284,12.9961873 L10.7282266,12.876706 L11.0652068,12.7636456 C11.4183044,12.6458749 11.7571022,12.5230661 12.081595,12.3952355 C12.382656,12.2766357 12.6393425,12.1288634 12.8510918,11.9538447 C12.985754,11.8408337 13.1317244,11.6637229 13.2851822,11.422766 C13.4180287,11.2141727 13.4911682,10.8673936 13.4911682,10.3845773 C13.4911682,10.0599706 13.4510643,9.79512436 13.3741684,9.59067711 C13.3024185,9.39991159 13.19642,9.25221658 13.0469822,9.13573047 C12.8741491,8.99231851 12.6250937,8.88156002 12.2972367,8.8081489 C11.9498495,8.73036472 11.5158025,8.69076947 10.9966048,8.69076947 C10.4775278,8.69076947 10.0448978,8.73034822 9.70030424,8.80805023 C9.37395222,8.88163898 9.12251489,8.99296195 8.9389089,9.14161231 C8.7975258,9.25164369 8.69321523,9.39835791 8.62391957,9.58801696 C8.54892187,9.79328221 8.50982579,10.0590668 8.50982579,10.3845773 C8.50982579,10.5734639 8.43913842,10.7432166 8.30519334,10.877243 C8.17124826,11.0112693 8.00159858,11.0819996 7.81282654,11.0819996 C7.61989054,11.0819996 7.44736518,11.0120144 7.31267545,10.877243 C7.17873036,10.7432166 7.108043,10.5734639 7.108043,10.3845773 C7.108043,9.86491284 7.18591727,9.41013439 7.34428351,9.02118136 C7.50672208,8.62222653 7.7568212,8.29004825 8.09166517,8.02912655 C8.42064163,7.77277701 8.83179005,7.58642951 9.32264708,7.46787487 C9.79903929,7.35281386 10.3567538,7.29592496 10.9966048,7.29592496 Z M19.7617255,7.29592496 C20.4067348,7.29592496 20.9670164,7.35279962 21.4434675,7.46787487 C21.9343246,7.58642951 22.345473,7.77277701 22.6744494,8.02912655 C23.0097785,8.29042623 23.2588666,8.62324281 23.4186543,9.0229543 C23.5739357,9.4113934 23.6502873,9.86553708 23.6502873,10.3845773 C23.6502873,10.7005747 23.6223687,10.992501 23.5660093,11.2603709 C23.5081402,11.5354158 23.4175232,11.7854951 23.2937035,12.0096857 C23.1695609,12.2344609 23.0139429,12.4346626 22.8275221,12.6093532 L22.7557725,12.6737842 L22.6809771,12.7354707 L22.622,12.7782651 L22.680565,12.820928 L22.8256482,12.9444152 C23.0134048,13.1173754 23.1699041,13.3187109 23.2944997,13.5472749 C23.4177133,13.7733036 23.5080746,14.022677 23.5658761,14.294509 C23.6223404,14.5600524 23.6502873,14.8508764 23.6502873,15.1670376 C23.6502873,15.6858794 23.5739927,16.1410977 23.4189361,16.5318474 C23.259211,16.9343623 23.0100552,17.2687621 22.6744494,17.5302774 C22.345473,17.786627 21.9343246,17.9729745 21.4434675,18.0915291 C20.9670164,18.2066044 20.4067348,18.263479 19.7617255,18.263479 C19.2300025,18.263479 18.7585534,18.2242804 18.3467835,18.1451507 C17.9286645,18.064801 17.5634609,17.9457928 17.2458479,17.7839271 C16.9182594,17.6083268 16.6464706,17.3807133 16.4331953,17.1021016 C16.2201259,16.8237588 16.0699065,16.4995596 15.9825177,16.1323036 C15.9383333,15.9466164 15.9664047,15.7640414 16.0650808,15.6024734 C16.1629529,15.4422219 16.3089599,15.3338284 16.4928924,15.2878369 C16.678467,15.2436256 16.8609313,15.2717141 17.0224013,15.3704501 C17.1520216,15.4497105 17.2471217,15.561866 17.3016659,15.6949464 L17.3348756,15.798493 C17.3696308,15.9289041 17.4246681,16.0610738 17.5006193,16.1951866 C17.561731,16.3030963 17.6690934,16.4066525 17.8279417,16.5036707 C17.9961803,16.6064242 18.2317102,16.6926459 18.5336409,16.7587334 C18.8419852,16.8262246 19.2522409,16.8608455 19.7617255,16.8608455 C20.2809231,16.8608455 20.7149701,16.8212502 21.0623574,16.743466 C21.3916353,16.6697368 21.6420124,16.5606174 21.8187111,16.4183462 C21.9039282,16.351614 22.0035143,16.2265258 22.1105613,16.0435429 C22.2026831,15.8860727 22.2562888,15.5910622 22.2562888,15.1670376 C22.2562888,14.7481911 22.2027833,14.4559628 22.1105613,14.2983213 C22.0035143,14.1153384 21.9039282,13.9902502 21.8155008,13.9209685 C21.6414497,13.7807936 21.3903706,13.6702518 21.0604121,13.5940613 C20.7714813,13.5273445 20.4223563,13.4879116 20.013907,13.4766205 L19.7617255,13.4732297 L18.967727,13.4732297 C18.778955,13.4732297 18.6093053,13.4024995 18.4753602,13.2684731 C18.3414151,13.1344467 18.2707277,12.9646941 18.2707277,12.7758075 C18.2707277,12.5869209 18.3414151,12.4171682 18.4753602,12.2831419 C18.5825163,12.1759208 18.7125233,12.1092092 18.8568911,12.0868134 L18.967727,12.0783852 L19.7617255,12.0783852 C20.2809231,12.0783852 20.7149701,12.03879 21.0623574,11.9610058 C21.3902143,11.8875947 21.6392698,11.7768362 21.8187111,11.6280969 C21.9039282,11.5613647 22.0035143,11.4362765 22.1105613,11.2532937 C22.2027833,11.0956522 22.2562888,10.8034238 22.2562888,10.3845773 C22.2562888,9.96573085 22.2027833,9.67350253 22.1105613,9.51586104 C22.0035143,9.33287814 21.9039282,9.20778996 21.8121028,9.13573047 C21.6392698,8.99231851 21.3902143,8.88156002 21.0623574,8.8081489 C20.7149701,8.73036472 20.2809231,8.69076947 19.7617255,8.69076947 C19.2725104,8.69076947 18.8593303,8.72666616 18.5234435,8.7972939 C18.201759,8.8649353 17.9502383,8.96356402 17.7703384,9.08784157 C17.6605928,9.16511684 17.5715679,9.25619752 17.5016284,9.3621701 C17.4303146,9.47022517 17.3748197,9.60118889 17.3360479,9.7563701 C17.2908834,9.93713779 17.1825556,10.0832334 17.0224013,10.1811649 C16.8609313,10.2799009 16.678467,10.3079893 16.4896179,10.2629785 C16.3089599,10.2177866 16.1629529,10.1093931 16.0650808,9.94914152 C15.9664047,9.78757356 15.9383333,9.60499851 15.9829963,9.41732984 C16.0585999,9.10891282 16.1788715,8.83006539 16.3439007,8.58237142 C16.5101997,8.33277161 16.7209584,8.11891474 16.9777506,7.93967941 C17.1399181,7.82957042 17.3195838,7.73321113 17.5164818,7.65040667 C17.7120115,7.56817767 17.9256676,7.50066637 18.1573833,7.44759082 C18.3863973,7.39513411 18.6357429,7.35674997 18.9055369,7.33220835 C19.1717781,7.30798992 19.4571423,7.29592496 19.7617255,7.29592496 Z M4.60813417,7.34453459 C4.7331487,7.39814476 4.83714218,7.48410456 4.9156381,7.59755636 C4.97679786,7.68595185 5.01562736,7.78394645 5.03121963,7.88814402 L5.03903256,7.99428345 L5.03903256,17.5660941 C5.03903256,17.7549704 4.96834884,17.9247143 4.83441107,18.0587333 C4.69972864,18.1934975 4.5272123,18.263479 4.33428702,18.263479 C4.14552522,18.263479 3.97588431,18.1927524 3.84194654,18.0587333 C3.73479632,17.9515181 3.6681287,17.821439 3.64574766,17.6769912 L3.63732505,17.5660941 L3.637,9.6843886 L2.14090589,11.2055745 C2.06031975,11.2862096 1.96649264,11.343791 1.86310517,11.3769545 L1.75666723,11.4019283 L1.64467363,11.4103202 C1.45384229,11.4103202 1.2827516,11.3399663 1.14844136,11.2055745 C1.01413112,11.0711828 0.943819874,10.8999882 0.943819874,10.7090411 C0.943819874,10.5562834 0.988819069,10.4161673 1.07527015,10.2977392 L1.14782526,10.2131259 L3.84194654,7.50164417 C3.91662908,7.4269163 4.00439803,7.37170741 4.10224359,7.33741907 L4.20333655,7.31015615 C4.33571743,7.2845185 4.46677658,7.29340926 4.60813417,7.34453459 Z M23.279423,0.8 L23.3911707,0.806394053 C23.793135,0.852773778 24.1029502,1.14582704 24.1029502,1.50042483 C24.1029502,1.85502261 23.793135,2.14807587 23.3911707,2.1944556 L23.279423,2.20084965 L6.20713794,2.20084965 L6.09539018,2.1944556 C5.69342594,2.14807587 5.38361074,1.85502261 5.38361074,1.50042483 C5.38361074,1.14582704 5.69342594,0.852773778 6.09539018,0.806394053 L6.20713794,0.8 L23.279423,0.8 Z M23.5961709,23.3991503 L23.6911568,23.4055444 C24.0328273,23.4519241 24.2961709,23.7449774 24.2961709,24.0995752 C24.2961709,24.454173 24.0328273,24.7472262 23.6911568,24.7936059 L23.5961709,24.8 L14.5961709,24.8 L14.5011851,24.7936059 C14.1595146,24.7472262 13.8961709,24.454173 13.8961709,24.0995752 C13.8961709,23.7449774 14.1595146,23.4519241 14.5011851,23.4055444 L14.5961709,23.3991503 L23.5961709,23.3991503 Z M10,23.3991503 L10.0949859,23.4055444 C10.4366564,23.4519241 10.7,23.7449774 10.7,24.0995752 C10.7,24.454173 10.4366564,24.7472262 10.0949859,24.7936059 L10,24.8 L1,24.8 L0.905014146,24.7936059 C0.563343623,24.7472262 0.3,24.454173 0.3,24.0995752 C0.3,23.7449774 0.563343623,23.4519241 0.905014146,23.4055444 L1,23.3991503 L10,23.3991503 Z M6.78816476,0.8 L6.89593983,0.806394053 C7.28361405,0.852773778 7.58241516,1.14582704 7.58241516,1.50042483 C7.58241516,1.85502261 7.28361405,2.14807587 6.89593983,2.1944556 L6.78816476,2.20084965 L1.0942504,2.20084965 L0.986475327,2.1944556 C0.598801112,2.14807587 0.3,1.85502261 0.3,1.50042483 C0.3,1.14582704 0.598801112,0.852773778 0.986475327,0.806394053 L1.0942504,0.8 L6.78816476,0.8 Z" id="Shape"></path>
            </g>
        </g>
    </g>
</svg>