<?xml version="1.0" encoding="UTF-8"?>
<svg width="24px" height="25px" viewBox="0 0 24 25" version="1.1" xmlns="http://www.w3.org/2000/svg" xmlns:xlink="http://www.w3.org/1999/xlink">
    <g id="chart" stroke="none" stroke-width="1" fill="none" fill-rule="evenodd">
        <g id="Artboard-Copy-19" transform="translate(-13.000000, -10.000000)" fill="#94A1AD">
            <g id="Group-2" transform="translate(13.000000, 10.500000)">
                <path d="M15,5 L15,24 L9,24 L9,5 L15,5 Z M24,0 L24,24 L18,24 L18,0 L24,0 Z M6,12 L6,24 L0,24 L0,12 L6,12 Z M13.6,6.4 L10.4,6.4 L10.4,22.6 L13.6,22.6 L13.6,6.4 Z M22.6,1.4 L19.4,1.4 L19.4,22.6 L22.6,22.6 L22.6,1.4 Z M4.6,13.4 L1.4,13.4 L1.4,22.6 L4.6,22.6 L4.6,13.4 Z" id="Combined-Shape"></path>
            </g>
        </g>
    </g>
</svg>