<svg xmlns="http://www.w3.org/2000/svg" viewBox="-40 -40 100 100"><path d="M9 18c.907 0 1.703-.332 2.344-.973a3.224 3.224 0 0 0 .973-2.344v-.088c.42-.023.84-.067 1.238-.089.398-.044.774-.088 1.128-.133 1.283-.154 2.1-.353 2.52-.574.421-.222.664-.443.753-.664.022-.088.044-.221.044-.42 0-.199-.088-.398-.31-.62a6.936 6.936 0 0 1-.995-1.26c-.31-.442-.575-.928-.818-1.415a15.829 15.829 0 0 1-.663-1.526c-.2-.53-.398-1.039-.597-1.548-.023-.088-.066-.154-.089-.22l-.862.862c.154.42.332.862.508 1.304.222.531.443 1.062.708 1.57.244.531.53 1.018.863 1.504.31.487.685.929 1.083 1.349a5.121 5.121 0 0 1-.752.265c-.376.11-.95.2-1.725.288-.73.088-1.548.155-2.454.199-.907.044-1.858.066-2.853.066-.641 0-1.238-.022-1.835-.044l-1.504 1.504c.066.774.376 1.46.951 2.034A3.224 3.224 0 0 0 9 18zm-2.211-3.361c.353.022.707.022 1.083.022h2.256c.376 0 .73-.022 1.083-.022v.044c0 .62-.22 1.15-.641 1.57-.42.42-.95.641-1.57.641-.62 0-1.15-.22-1.57-.641a2.15 2.15 0 0 1-.641-1.57zm-3.583-.288c-1.216-.154-2.012-.353-2.41-.575-.398-.22-.663-.442-.752-.663a1.687 1.687 0 0 1-.044-.42c0-.2.088-.398.31-.62.376-.375.707-.795.995-1.26.31-.442.575-.929.818-1.415s.464-.995.663-1.526c.2-.53.398-1.04.597-1.548.31-.774.597-1.526.885-2.233a8.142 8.142 0 0 1 1.061-1.88c.465-.663.995-1.15 1.614-1.46A4.454 4.454 0 0 1 8.978.266c.752 0 1.437.155 2.034.487.597.331 1.15.818 1.615 1.46.287.397.663 1.06.972 1.68L16.983.509l.818.818-16.474 16.54-.818-.818zm.973-.973 8.624-8.624c-.31-.663-.774-1.526-1.061-1.924a3.542 3.542 0 0 0-1.172-1.06c-.442-.243-.95-.376-1.57-.376-.62 0-1.128.133-1.57.376-.442.243-.818.62-1.15 1.061a7.962 7.962 0 0 0-.929 1.681c-.265.663-.575 1.393-.884 2.233-.2.509-.398 1.018-.597 1.57a19.597 19.597 0 0 1-.708 1.57c-.243.531-.53 1.018-.862 1.504a9.11 9.11 0 0 1-1.084 1.35c.133.065.376.154.752.264.288.089 1.283.31 2.211.376z" paint-order="stroke markers fill" transform="matrix(5.5 0 0 5.50001 -39.5 -39.5)" fill="#b0beca" stroke="#b0beca" stroke-width=".182"/></svg>