<?xml version="1.0" encoding="UTF-8" standalone="no"?>
<svg width="18px" height="7px" viewBox="0 0 18 7" version="1.1" xmlns="http://www.w3.org/2000/svg" xmlns:xlink="http://www.w3.org/1999/xlink" xmlns:sketch="http://www.bohemiancoding.com/sketch/ns">
    <g id="Screens" stroke="none" stroke-width="1" fill="none" fill-rule="evenodd" sketch:type="MSPage">
        <path d="M5.87875395,6.27725814 L3.41275395,0.302258144 C3.39475395,0.258258144 3.36875395,0.216258144 3.33775395,0.178258144 C3.30775395,0.141258144 3.27175395,0.108258144 3.23175395,0.0822581445 C3.18975395,0.0522581445 3.14275395,0.0312581445 3.09175395,0.0172581445 C2.99775395,-0.00674185552 2.90975395,-0.00474185552 2.82275395,0.0172581445 C2.77175395,0.0312581445 2.72475395,0.0522581445 2.68275395,0.0822581445 C2.64275395,0.108258144 2.60675395,0.141258144 2.57675395,0.178258144 C2.54575395,0.216258144 2.51975395,0.258258144 2.50075395,0.304258144 L0.0347539528,6.28025814 C0.00875395275,6.34525814 -0.00324604725,6.41325814 0.000753952755,6.48225814 C0.00275395275,6.53925814 0.0147539528,6.59725814 0.0357539528,6.65225814 C0.0587539528,6.71125814 0.0917539528,6.76625814 0.136753953,6.81425814 C0.183753953,6.86425814 0.240753953,6.90325814 0.305753953,6.93025814 C0.432753953,6.98125814 0.570753953,6.97925814 0.686753953,6.92625814 C0.741753953,6.90125814 0.790753953,6.86825814 0.834753953,6.82725814 C0.884753953,6.77925814 0.922753953,6.72225814 0.948753953,6.65825814 L1.64175395,4.97425814 L4.27275395,4.97425814 L4.96275395,6.65125814 C4.98275395,6.70525814 5.01175395,6.75325814 5.04875395,6.79425814 C5.07875395,6.82825814 5.11475395,6.85925814 5.15675395,6.88625814 C5.19175395,6.90725814 5.22775395,6.92525814 5.26875395,6.94025814 C5.31775395,6.95825814 5.37075395,6.96725814 5.42475395,6.96725814 C5.43975395,6.96725814 5.52375395,6.95425814 5.53775395,6.95125814 C5.55475395,6.94825814 5.59275395,6.93625814 5.60775395,6.93025814 C5.67375395,6.90325814 5.73075395,6.86425814 5.77775395,6.81425814 C5.81875395,6.77025814 5.85175395,6.72025814 5.87575395,6.66525814 C5.90275395,6.60425814 5.91675395,6.53925814 5.91675395,6.47025814 C5.91675395,6.40625814 5.90475395,6.34225814 5.87975395,6.28025814 C5.87975395,6.27925814 5.87875395,6.27825814 5.87875395,6.27725814 L5.87875395,6.27725814 Z M2.05375395,3.98125814 L2.95875395,1.79125814 L3.86175395,3.98125814 L2.05375395,3.98125814 L2.05375395,3.98125814 Z M11.656754,3.99625814 C11.594754,3.85425814 11.513754,3.72625814 11.415754,3.61425814 C11.319754,3.50425814 11.209754,3.41025814 11.083754,3.33125814 L10.999754,3.28225814 C11.081754,3.17525814 11.153754,3.05425814 11.210754,2.92225814 C11.269754,2.78825814 11.311754,2.64025814 11.335754,2.47925814 C11.358754,2.33125814 11.371754,2.16925814 11.375754,1.98625814 C11.371754,1.65525814 11.324754,1.36325814 11.234754,1.11825814 C11.140754,0.857258144 10.988754,0.639258144 10.784754,0.470258144 C10.587754,0.306258144 10.340754,0.185258144 10.050754,0.109258144 C9.77375395,0.0372581445 9.43975395,0.000258144485 9.05975395,0.000258144485 L7.33275395,0.000258144485 C7.26375395,0.000258144485 7.19975395,0.0142581445 7.14375395,0.0412581445 C7.09275395,0.0662581445 7.04575395,0.0992581445 7.00575395,0.140258144 C6.95675395,0.189258144 6.92075395,0.246258144 6.89875395,0.310258144 C6.88075395,0.361258144 6.86975395,0.415258144 6.86275395,0.497258144 L6.86875395,6.44525814 C6.86075395,6.52325814 6.87375395,6.60025814 6.90575395,6.67225814 C6.92875395,6.72525814 6.95875395,6.77225814 6.99375395,6.81425814 C7.03575395,6.86325814 7.08875395,6.90325814 7.15175395,6.93025814 C7.20975395,6.95525814 7.26875395,6.96725814 7.32875395,6.96725814 L9.29375395,6.96725814 L9.29475395,6.96725814 C9.50975395,6.96725814 9.70175395,6.96025814 9.87075395,6.94725814 C10.043754,6.93325814 10.201754,6.91425814 10.346754,6.88825814 C10.499754,6.86225814 10.635754,6.82525814 10.753754,6.78125814 C10.873754,6.73525814 10.984754,6.68125814 11.089754,6.61725814 C11.209754,6.54125814 11.319754,6.44725814 11.415754,6.33825814 C11.513754,6.22625814 11.594754,6.09825814 11.656754,5.95625814 C11.714754,5.82025814 11.760754,5.66725814 11.790754,5.50325814 C11.820754,5.34025814 11.834754,5.16025814 11.831754,4.97825814 C11.834754,4.79025814 11.820754,4.61225814 11.790754,4.44825814 C11.760754,4.28425814 11.714754,4.13225814 11.656754,3.99625814 L11.656754,3.99625814 Z M10.319754,1.37425814 C10.346754,1.41225814 10.367754,1.45725814 10.383754,1.50725814 C10.404754,1.57225814 10.420754,1.64525814 10.433754,1.72425814 C10.446754,1.80325814 10.451754,1.88925814 10.448754,1.99725814 C10.451754,2.08925814 10.446754,2.17525814 10.433754,2.25325814 C10.420754,2.33325814 10.404754,2.40525814 10.383754,2.47125814 C10.367754,2.52125814 10.346754,2.56525814 10.319754,2.60425814 C10.288754,2.64825814 10.253754,2.68725814 10.218754,2.71925814 C10.170754,2.76125814 10.112754,2.79825814 10.048754,2.82825814 C9.97775395,2.86225814 9.89575395,2.89125814 9.80375395,2.91225814 C9.70475395,2.93625814 9.59475395,2.95425814 9.47375395,2.96625814 C9.34875395,2.97925814 9.21075395,2.98425814 9.05975395,2.98425814 L7.79075395,2.98425814 L7.79375395,0.993258144 L9.05975395,0.993258144 C9.21075395,0.993258144 9.34875395,0.999258144 9.47375395,1.01225814 C9.59475395,1.02425814 9.70475395,1.04225814 9.80375395,1.06525814 C9.89575395,1.08725814 9.97775395,1.11525814 10.048754,1.14925814 C10.112754,1.18025814 10.170754,1.21725814 10.216754,1.25725814 C10.253754,1.29025814 10.288754,1.32925814 10.319754,1.37425814 L10.319754,1.37425814 Z M9.28975395,5.96925814 L7.79075395,5.96925814 L7.79375395,3.97825814 L9.23775395,3.97825814 C9.24175395,3.97825814 9.25175395,3.97725814 9.26375395,3.97625814 C9.44775395,3.99025814 9.63075395,3.98225814 9.77875395,3.99225814 C9.91575395,4.00125814 10.040754,4.01625814 10.152754,4.03525814 C10.257754,4.05425814 10.349754,4.07725814 10.427754,4.10425814 C10.500754,4.13025814 10.567754,4.16025814 10.619754,4.19025814 C10.654754,4.21325814 10.692754,4.24325814 10.730754,4.27925814 C10.757754,4.30325814 10.782754,4.34025814 10.806754,4.38825814 C10.834754,4.44825814 10.859754,4.52625814 10.881754,4.61925814 C10.902754,4.71125814 10.911754,4.82925814 10.908754,4.97925814 C10.911754,5.12225814 10.902754,5.24125814 10.881754,5.33225814 C10.860754,5.42525814 10.835754,5.50225814 10.806754,5.56025814 C10.783754,5.60825814 10.756754,5.64625814 10.727754,5.67425814 C10.689754,5.71025814 10.653754,5.73925814 10.627754,5.75625814 C10.567754,5.79125814 10.500754,5.82225814 10.427754,5.84725814 C10.349754,5.87525814 10.257754,5.89825814 10.152754,5.91625814 C10.041754,5.93625814 9.91775395,5.94925814 9.78075395,5.95725814 C9.63875395,5.96525814 9.47475395,5.96925814 9.28975395,5.96925814 L9.28975395,5.96925814 Z M17.827754,5.81625814 C17.841754,5.88125814 17.844754,5.94725814 17.835754,6.01125814 C17.826754,6.07525814 17.806754,6.13625814 17.776754,6.19325814 C17.745754,6.24825814 17.708754,6.29525814 17.664754,6.33425814 C17.535754,6.44225814 17.395754,6.53625814 17.246754,6.61625814 C17.099754,6.69525814 16.940754,6.76125814 16.773754,6.81325814 C16.607754,6.86425814 16.429754,6.90425814 16.244754,6.92925814 C16.060754,6.95525814 15.865754,6.96725814 15.660754,6.96725814 C15.418754,6.96725814 15.187754,6.94925814 14.973754,6.91425814 C14.757754,6.87825814 14.552754,6.82225814 14.362754,6.74725814 C14.171754,6.67325814 13.993754,6.57825814 13.832754,6.46725814 C13.670754,6.35525814 13.522754,6.22325814 13.391754,6.07325814 C13.260754,5.92325814 13.143754,5.75325814 13.046754,5.56925814 C12.948754,5.38525814 12.866754,5.18125814 12.802754,4.96325814 C12.738754,4.74625814 12.690754,4.51225814 12.657754,4.26725814 C12.624754,4.02225814 12.608754,3.75725814 12.608754,3.48125814 C12.608754,3.20525814 12.624754,2.94125814 12.657754,2.69525814 C12.690754,2.44925814 12.739754,2.21625814 12.802754,2.00225814 C12.866754,1.78425814 12.948754,1.58125814 13.045754,1.39725814 C13.143754,1.21025814 13.260754,1.03925814 13.391754,0.889258144 C13.522754,0.740258144 13.670754,0.607258144 13.832754,0.495258144 C13.993754,0.384258144 14.172754,0.290258144 14.363754,0.217258144 C14.552754,0.144258144 14.757754,0.0892581445 14.973754,0.0532581445 C15.367754,-0.0117418555 15.842754,-0.0177418555 16.244754,0.0382581445 C16.429754,0.0642581445 16.607754,0.103258144 16.773754,0.154258144 C16.940754,0.206258144 17.099754,0.272258144 17.245754,0.348258144 C17.395754,0.427258144 17.535754,0.520258144 17.661754,0.626258144 C17.715754,0.679258144 17.747754,0.721258144 17.773754,0.767258144 C17.805754,0.824258144 17.826754,0.885258144 17.835754,0.951258144 C17.844754,1.01525814 17.841754,1.08125814 17.827754,1.14625814 C17.813754,1.20625814 17.791754,1.26325814 17.761754,1.31525814 C17.720754,1.37725814 17.679754,1.42025814 17.630754,1.45525814 C17.580754,1.49025814 17.527754,1.51325814 17.471754,1.52325814 C17.415754,1.53225814 17.358754,1.52925814 17.300754,1.51325814 C17.248754,1.49825814 17.198754,1.47325814 17.152754,1.43825814 C17.060754,1.36025814 16.966754,1.29825814 16.866754,1.24625814 C16.761754,1.19125814 16.649754,1.14625814 16.526754,1.10925814 C16.400754,1.07225814 16.266754,1.04325814 16.122754,1.02325814 C15.801754,0.980258144 15.427754,0.985258144 15.121754,1.03225814 C14.956754,1.05825814 14.804754,1.09725814 14.669754,1.14825814 C14.533754,1.20025814 14.409754,1.26425814 14.298754,1.33825814 C14.190754,1.41125814 14.091754,1.49825814 14.005754,1.59625814 C13.922754,1.69125814 13.847754,1.80225814 13.783754,1.92625814 C13.718754,2.05225814 13.663754,2.19425814 13.618754,2.34925814 C13.573754,2.50425814 13.538754,2.67825814 13.516754,2.86625814 C13.493754,3.05525814 13.482754,3.26225814 13.482754,3.48125814 C13.482754,3.70025814 13.493754,3.90725814 13.516754,4.09625814 C13.538754,4.28525814 13.573754,4.45925814 13.618754,4.61325814 C13.663754,4.76825814 13.718754,4.91025814 13.783754,5.03725814 C13.848754,5.16225814 13.924754,5.27525814 14.007754,5.37325814 C14.089754,5.46425814 14.188754,5.55025814 14.298754,5.62425814 C14.409754,5.69925814 14.533754,5.76225814 14.669754,5.81425814 C14.804754,5.86525814 14.956754,5.90425814 15.121754,5.93025814 C15.428754,5.97825814 15.803754,5.98125814 16.123754,5.94125814 C16.267754,5.92325814 16.401754,5.89525814 16.526754,5.85825814 C16.647754,5.82225814 16.760754,5.77625814 16.863754,5.72025814 C16.966754,5.66525814 17.061754,5.60325814 17.147754,5.53325814 C17.192754,5.49325814 17.250754,5.46225814 17.312754,5.44825814 C17.366754,5.43725814 17.419754,5.43625814 17.471754,5.44425814 C17.522754,5.45425814 17.573754,5.47425814 17.621754,5.50425814 C17.677754,5.53925814 17.724754,5.58925814 17.761754,5.65225814 C17.787754,5.69225814 17.812754,5.75125814 17.827754,5.81625814 L17.827754,5.81625814 Z" id="attribute" fill="#EF8600" sketch:type="MSShapeGroup"></path>
    </g>
</svg>