<?xml version="1.0" encoding="UTF-8"?>
<svg width="16" height="16" viewBox="0 0 16 16" fill="none" xmlns="http://www.w3.org/2000/svg">
    <path d="M1.16854 1.16732C1.43958 0.896277 1.86498 0.87369 2.16175 1.09956L2.23929 1.16732L11.4313 10.3608L11.4325 5.0501L11.4407 4.93821C11.4948 4.57311 11.8095 4.29296 12.1896 4.29296C12.573 4.29296 12.8897 4.5778 12.9399 4.94736L12.9468 5.0501V12.9456H5.05132L4.93943 12.9373C4.61084 12.8887 4.35106 12.6289 4.30239 12.3003L4.29418 12.1884L4.30239 12.0765C4.35106 11.7479 4.61084 11.4882 4.93943 11.4395L5.05132 11.4313L10.3606 11.4315L1.16854 2.23807C0.872858 1.94239 0.872858 1.463 1.16854 1.16732Z" fill="#94A1AD"/>
</svg>