<?xml version="1.0" encoding="utf-8"?>
<!DOCTYPE svg PUBLIC "-//W3C//DTD SVG 1.1//EN" "http://www.w3.org/Graphics/SVG/1.1/DTD/svg11.dtd">
<svg
    version="1.1"
    id="Layer_1"
    xmlns="http://www.w3.org/2000/svg"
    xmlns:xlink="http://www.w3.org/1999/xlink"
    x="0px"
    y="0px"
    width="131px"
    height="80px"
    viewBox="12 14.5 131 80"
    style="enable-background: new 12 14.5 131 80"
    xml:space="preserve"
>
    <style type="text/css">
        .st0 {
            fill: #94a1ad;
        }
        .st1 {
            opacity: 0.5;
            fill: #9faab5;
            enable-background: new;
        }
    </style>
    <title>dummy kpi</title>
    <desc>Created with Sketch.</desc>
    <g id="Key-Metrics" transform="translate(43.000000, 35.000000)">
        <g id="dummy-kpi">
            <path
                id="_x31_.23"
                class="st0"
                d="M-5.1,26.8l-6.9,6.4l-3.6-4.2l11-9h6.2v36h-6.8L-5.1,26.8L-5.1,26.8z M15,52.7
            c0-1.1,0.4-2,1.2-2.8c0.7-0.7,1.8-1.2,2.9-1.2s2,0.4,2.9,1.2c0.9,0.7,1.3,1.7,1.3,2.8s-0.4,2-1.2,2.8c-0.9,0.7-1.8,1.2-2.9,1.2
            c-0.5,0-1.1-0.1-1.6-0.3c-0.5-0.2-1-0.4-1.3-0.9c-0.4-0.3-0.6-0.7-0.9-1.3C15.1,53.8,15,53.2,15,52.7L15,52.7z M29.6,49.7L43.8,36
            c0.4-0.4,0.9-0.9,1.3-1.3c0.4-0.4,0.9-1,1.2-1.5c0.3-0.5,0.7-1.1,0.9-1.6c0.2-0.5,0.3-1.2,0.3-1.8c0-0.7-0.1-1.4-0.4-2
            s-0.6-1.1-1.2-1.5c-0.4-0.4-1.1-0.7-1.7-1c-0.6-0.2-1.3-0.3-2-0.3c-1.5,0-2.8,0.4-3.9,1.3c-1,0.9-1.6,2.1-1.8,3.6l-6.4-0.6
            c0.1-1.7,0.5-3.2,1.2-4.5c0.6-1.3,1.5-2.4,2.6-3.2c1.1-0.9,2.2-1.5,3.7-1.9c1.5-0.4,2.9-0.6,4.6-0.6s3.2,0.2,4.6,0.6
            c1.4,0.4,2.7,1.1,3.7,1.9c1.1,0.9,1.9,1.9,2.6,3.2c0.6,1.3,1,2.8,1,4.6c0,2.2-0.5,4.3-1.6,5.9c-1.1,1.7-2.4,3.5-4.1,5L37.2,51
            h16.4v5h-24V49.7L29.6,49.7z M68.6,35h1.6c0.9,0,1.7-0.3,2.6-0.4s1.6-0.5,2.2-0.8s1.2-0.9,1.6-1.6c0.4-0.6,0.6-1.5,0.6-2.6
            c0-1.4-0.4-2.6-1.4-3.4c-1-0.9-2.2-1.3-3.7-1.3c-1.3,0-2.4,0.3-3.3,1.1c-1,0.7-1.7,1.7-2.1,3l-6.5-1.7c0.4-1.3,1-2.5,1.7-3.5
            c0.7-1,1.6-1.8,2.7-2.5c1.1-0.6,2.1-1.1,3.4-1.4s2.6-0.4,3.9-0.4c1.6,0,3.1,0.2,4.5,0.6c1.4,0.4,2.7,1.1,3.7,1.8
            c1.1,0.9,1.9,1.8,2.6,3c0.6,1.2,1,2.7,1,4.3c0,1.9-0.4,3.6-1.5,5.2c-1.1,1.5-2.5,2.6-4.5,3v0.1c2,0.3,3.9,1.3,5.1,3
            c1.2,1.6,1.8,3.6,1.8,5.9c0,1.7-0.4,3.3-1,4.6c-0.6,1.3-1.6,2.5-2.7,3.3c-1.2,0.9-2.5,1.6-4,2s-3,0.6-4.6,0.6
            c-1.5,0-2.9-0.2-4.3-0.5c-1.3-0.3-2.6-0.9-3.6-1.5c-1.1-0.6-2-1.6-2.8-2.7c-0.7-1.1-1.4-2.4-1.8-3.9l6.5-1.7
            c0.4,1.5,1.1,2.7,2,3.5c1,0.9,2.2,1.3,3.9,1.3c0.9,0,1.6-0.1,2.4-0.4c0.7-0.3,1.4-0.6,1.9-1.2c0.5-0.5,1-1.1,1.3-1.8
            c0.3-0.7,0.5-1.5,0.5-2.4c0-1.2-0.2-2.1-0.7-2.9c-0.5-0.7-1.2-1.3-1.9-1.7c-0.7-0.4-1.6-0.8-2.6-0.9s-1.9-0.3-2.8-0.3h-1.5
            L68.6,35L68.6,35z"
            />
            <path
                id="Dummy-kpi-widget"
                class="st1"
                d="M-30.5-4v-14h10v14C-20.5-4-30.5-4-30.5-4z M-20.5-4v-14h10v14C-10.5-4-20.5-4-20.5-4z
             M-10.5-4v-14h10v14C-0.5-4-10.5-4-10.5-4z M-0.5-4v-14h10v14C9.5-4-0.5-4-0.5-4z M14.5-4v-14h10v14C24.5-4,14.5-4,14.5-4z
             M24.5-4v-14h10v14C34.5-4,24.5-4,24.5-4z M39.5-4v-14h10v14C49.5-4,39.5-4,39.5-4z M49.5-4v-14h10v14C59.5-4,49.5-4,49.5-4z
             M59.5-4v-14h10v14C69.5-4,59.5-4,59.5-4z M69.5-4v-14h10v14C79.5-4,69.5-4,69.5-4z M79.5-4v-14h10v14C89.5-4,79.5-4,79.5-4z
             M89.5-4v-14h10v14C99.5-4,89.5-4,89.5-4z"
            />
        </g>
    </g>
</svg>
