<svg width="43" height="43" viewBox="0 0 43 43" fill="none" xmlns="http://www.w3.org/2000/svg">
<rect width="43" height="43" fill="#DADFE6"/>
<path d="M14.1667 23.1666C14.3967 23.1666 14.6126 23.1222 14.8145 23.0332C15.0163 22.9442 15.1931 22.8248 15.3451 22.6751C15.497 22.5254 15.6163 22.3496 15.7031 22.1478C15.7899 21.9459 15.8333 21.73 15.8333 21.5C15.8333 21.2699 15.7899 21.0529 15.7031 20.8489C15.6163 20.6449 15.497 20.4681 15.3451 20.3183C15.1931 20.1686 15.0163 20.0503 14.8145 19.9635C14.6126 19.8767 14.3967 19.8333 14.1667 19.8333C13.9366 19.8333 13.7207 19.8767 13.5189 19.9635C13.3171 20.0503 13.1402 20.1686 12.9883 20.3183C12.8364 20.4681 12.717 20.6449 12.6302 20.8489C12.5434 21.0529 12.5 21.2699 12.5 21.5C12.5 21.73 12.5434 21.9459 12.6302 22.1478C12.717 22.3496 12.8364 22.5254 12.9883 22.6751C13.1402 22.8248 13.3171 22.9442 13.5189 23.0332C13.7207 23.1222 13.9366 23.1666 14.1667 23.1666Z" fill="#687581"/>
<path d="M21.5 23.1666C21.7301 23.1666 21.946 23.1222 22.1478 23.0332C22.3496 22.9442 22.5265 22.8248 22.6784 22.6751C22.8303 22.5254 22.9497 22.3496 23.0365 22.1478C23.1233 21.9459 23.1667 21.73 23.1667 21.5C23.1667 21.2699 23.1233 21.0529 23.0365 20.8489C22.9497 20.6449 22.8303 20.4681 22.6784 20.3183C22.5265 20.1686 22.3496 20.0503 22.1478 19.9635C21.946 19.8767 21.7301 19.8333 21.5 19.8333C21.27 19.8333 21.0541 19.8767 20.8523 19.9635C20.6504 20.0503 20.4736 20.1686 20.3217 20.3183C20.1697 20.4681 20.0504 20.6449 19.9636 20.8489C19.8768 21.0529 19.8334 21.2699 19.8334 21.5C19.8334 21.73 19.8768 21.9459 19.9636 22.1478C20.0504 22.3496 20.1697 22.5254 20.3217 22.6751C20.4736 22.8248 20.6504 22.9442 20.8523 23.0332C21.0541 23.1222 21.27 23.1666 21.5 23.1666Z" fill="#687581"/>
<path d="M28.8334 23.1666C29.0634 23.1666 29.2794 23.1222 29.4812 23.0332C29.683 22.9442 29.8588 22.8248 30.0085 22.6751C30.1583 22.5254 30.2776 22.3496 30.3666 22.1478C30.4556 21.9459 30.5001 21.73 30.5001 21.5C30.5001 21.2699 30.4556 21.0529 30.3666 20.8489C30.2776 20.6449 30.1583 20.4681 30.0085 20.3183C29.8588 20.1686 29.683 20.0503 29.4812 19.9635C29.2794 19.8767 29.0634 19.8333 28.8334 19.8333C28.6034 19.8333 28.3864 19.8767 28.1824 19.9635C27.9784 20.0503 27.8015 20.1686 27.6518 20.3183C27.502 20.4681 27.3838 20.6449 27.297 20.8489C27.2102 21.0529 27.1667 21.2699 27.1667 21.5C27.1667 21.73 27.2102 21.9459 27.297 22.1478C27.3838 22.3496 27.502 22.5254 27.6518 22.6751C27.8015 22.8248 27.9784 22.9442 28.1824 23.0332C28.3864 23.1222 28.6034 23.1666 28.8334 23.1666Z" fill="#687581"/>
</svg>
