<svg width="11" height="12" viewBox="0 0 11 12" fill="none" xmlns="http://www.w3.org/2000/svg">
<path d="M10.3613 1.01465C10.5846 1.16504 10.7305 1.31543 10.7988 1.46582C10.8672 1.61621 10.9014 1.74382 10.9014 1.84863V2.19727C10.9014 2.34766 10.8535 2.53223 10.7578 2.75098C10.6667 2.96973 10.5641 3.16113 10.4502 3.3252L7.03223 8.45898C6.94108 8.59115 6.86133 8.7666 6.79297 8.98535C6.72917 9.2041 6.69727 9.39323 6.69727 9.55273V10.9473C6.69727 11.0156 6.67904 11.0794 6.64258 11.1387C6.61068 11.1934 6.5651 11.2344 6.50586 11.2617L5.10449 11.9658C5.08171 11.9749 5.05664 11.984 5.0293 11.9932C5.00195 11.9977 4.97461 12 4.94727 12C4.91536 12 4.88346 11.9954 4.85156 11.9863C4.82422 11.9772 4.7946 11.9635 4.7627 11.9453C4.71257 11.9134 4.67155 11.8724 4.63965 11.8223C4.6123 11.7676 4.59863 11.7106 4.59863 11.6514V9.55273C4.59863 9.39323 4.56445 9.2041 4.49609 8.98535C4.43229 8.7666 4.3571 8.59115 4.27051 8.45898L0.845703 3.3252C0.736328 3.16113 0.633789 2.96973 0.538086 2.75098C0.44694 2.53223 0.401367 2.34766 0.401367 2.19727V1.84863C0.401367 1.74382 0.435547 1.61621 0.503906 1.46582C0.572266 1.31543 0.718099 1.16504 0.941406 1.01465C1.07812 0.918945 1.24219 0.830078 1.43359 0.748047C1.62956 0.666016 1.84831 0.59082 2.08984 0.522461C2.32682 0.454102 2.58203 0.394857 2.85547 0.344727C3.13346 0.290039 3.42285 0.244466 3.72363 0.208008C4.02441 0.171549 4.33659 0.144206 4.66016 0.125977C4.98372 0.107747 5.31413 0.0986328 5.65137 0.0986328C5.98405 0.0986328 6.31217 0.107747 6.63574 0.125977C6.95931 0.144206 7.27148 0.171549 7.57227 0.208008C7.8776 0.244466 8.16699 0.290039 8.44043 0.344727C8.71387 0.394857 8.97135 0.454102 9.21289 0.522461C9.45443 0.59082 9.6709 0.666016 9.8623 0.748047C10.0537 0.830078 10.2201 0.918945 10.3613 1.01465ZM2.28125 1.19922C1.79818 1.33594 1.47917 1.4681 1.32422 1.5957C1.17383 1.72331 1.09863 1.80762 1.09863 1.84863C1.09863 1.88965 1.17383 1.97624 1.32422 2.1084C1.47917 2.236 1.79818 2.36816 2.28125 2.50488C2.50456 2.56868 2.74609 2.62565 3.00586 2.67578C3.26562 2.72135 3.53678 2.76237 3.81934 2.79883C4.10645 2.83073 4.40267 2.85579 4.70801 2.87402C5.0179 2.89225 5.33236 2.90137 5.65137 2.90137C5.97038 2.90137 6.28255 2.89225 6.58789 2.87402C6.89779 2.85579 7.19401 2.83073 7.47656 2.79883C7.76367 2.76237 8.03483 2.72135 8.29004 2.67578C8.5498 2.62565 8.79362 2.56868 9.02148 2.50488C9.5 2.36816 9.81445 2.236 9.96484 2.1084C10.1198 1.97624 10.1973 1.88965 10.1973 1.84863C10.1973 1.80762 10.1198 1.72331 9.96484 1.5957C9.81445 1.4681 9.5 1.33594 9.02148 1.19922C8.79362 1.13542 8.5498 1.07845 8.29004 1.02832C8.03483 0.97819 7.76367 0.937174 7.47656 0.905273C7.19401 0.868815 6.89779 0.84375 6.58789 0.830078C6.28255 0.811849 5.97038 0.802734 5.65137 0.802734C5.33236 0.802734 5.0179 0.811849 4.70801 0.830078C4.40267 0.84375 4.10645 0.868815 3.81934 0.905273C3.53678 0.937174 3.26562 0.97819 3.00586 1.02832C2.74609 1.07845 2.50456 1.13542 2.28125 1.19922ZM6.44434 8.07617L9.8623 2.94922C9.7666 2.99023 9.66406 3.03125 9.55469 3.07227C9.44531 3.10872 9.33138 3.1429 9.21289 3.1748C8.97135 3.24316 8.71387 3.30469 8.44043 3.35938C8.16699 3.40951 7.8776 3.4528 7.57227 3.48926C7.27148 3.52572 6.95931 3.55306 6.63574 3.57129C6.31217 3.58952 5.98405 3.59863 5.65137 3.59863C5.31413 3.59863 4.98372 3.58952 4.66016 3.57129C4.33659 3.55306 4.02441 3.52572 3.72363 3.48926C3.42285 3.4528 3.13346 3.40951 2.85547 3.35938C2.58203 3.30469 2.32682 3.24316 2.08984 3.1748C1.9668 3.1429 1.85059 3.10872 1.74121 3.07227C1.63639 3.03125 1.53385 2.99023 1.43359 2.94922L4.85156 8.07617C4.97917 8.26302 5.08626 8.5 5.17285 8.78711C5.25944 9.06966 5.30273 9.32487 5.30273 9.55273V11.084L6 10.7354V9.55273C6 9.32487 6.04329 9.06966 6.12988 8.78711C6.21647 8.5 6.32129 8.26302 6.44434 8.07617Z" fill="#B0BECA"/>
</svg>
