<svg xmlns="http://www.w3.org/2000/svg" width="14" height="10" viewBox="0 0 14 10" fill="none">
    <path d="M13.6514 8.90137H3.15137C3.05566 8.90137 2.97363 8.86719 2.90527 8.79883C2.83691 8.73047 2.80273 8.64844 2.80273 8.55273C2.80273 8.45247 2.83691 8.36816 2.90527 8.2998C2.97363 8.23145 3.05566 8.19727 3.15137 8.19727H13.6514C13.7471 8.19727 13.8291 8.23145 13.8975 8.2998C13.9658 8.36816 14 8.45247 14 8.55273C14 8.64844 13.9658 8.73047 13.8975 8.79883C13.8291 8.86719 13.7471 8.90137 13.6514 8.90137ZM13.6514 5.40137H3.15137C3.05566 5.40137 2.97363 5.36719 2.90527 5.29883C2.83691 5.23047 2.80273 5.14844 2.80273 5.05273C2.80273 4.95247 2.83691 4.86816 2.90527 4.7998C2.97363 4.73145 3.05566 4.69727 3.15137 4.69727H13.6514C13.7471 4.69727 13.8291 4.73145 13.8975 4.7998C13.9658 4.86816 14 4.95247 14 5.05273C14 5.14844 13.9658 5.23047 13.8975 5.29883C13.8291 5.36719 13.7471 5.40137 13.6514 5.40137ZM13.6514 1.90137H3.15137C3.05566 1.90137 2.97363 1.86719 2.90527 1.79883C2.83691 1.73047 2.80273 1.64844 2.80273 1.55273C2.80273 1.45247 2.83691 1.36816 2.90527 1.2998C2.97363 1.23145 3.05566 1.19727 3.15137 1.19727H13.6514C13.7471 1.19727 13.8291 1.23145 13.8975 1.2998C13.9658 1.36816 14 1.45247 14 1.55273C14 1.64844 13.9658 1.73047 13.8975 1.79883C13.8291 1.86719 13.7471 1.90137 13.6514 1.90137ZM1.05273 2.59863C0.761068 2.59863 0.512695 2.49609 0.307617 2.29102C0.102539 2.08594 0 1.83984 0 1.55273C0 1.26107 0.102539 1.0127 0.307617 0.807617C0.512695 0.602539 0.761068 0.5 1.05273 0.5C1.33984 0.5 1.58594 0.602539 1.79102 0.807617C1.99609 1.0127 2.09863 1.26107 2.09863 1.55273C2.09863 1.83984 1.99609 2.08594 1.79102 2.29102C1.58594 2.49609 1.33984 2.59863 1.05273 2.59863ZM1.05273 1.19727C0.952474 1.19727 0.868164 1.23145 0.799805 1.2998C0.731445 1.36816 0.697266 1.45247 0.697266 1.55273C0.697266 1.64844 0.731445 1.73047 0.799805 1.79883C0.868164 1.86719 0.952474 1.90137 1.05273 1.90137C1.14844 1.90137 1.23047 1.86719 1.29883 1.79883C1.36719 1.73047 1.40137 1.64844 1.40137 1.55273C1.40137 1.45247 1.36719 1.36816 1.29883 1.2998C1.23047 1.23145 1.14844 1.19727 1.05273 1.19727ZM1.05273 6.09863C0.761068 6.09863 0.512695 5.99609 0.307617 5.79102C0.102539 5.58594 0 5.33984 0 5.05273C0 4.76107 0.102539 4.5127 0.307617 4.30762C0.512695 4.10254 0.761068 4 1.05273 4C1.33984 4 1.58594 4.10254 1.79102 4.30762C1.99609 4.5127 2.09863 4.76107 2.09863 5.05273C2.09863 5.33984 1.99609 5.58594 1.79102 5.79102C1.58594 5.99609 1.33984 6.09863 1.05273 6.09863ZM1.05273 4.69727C0.952474 4.69727 0.868164 4.73145 0.799805 4.7998C0.731445 4.86816 0.697266 4.95247 0.697266 5.05273C0.697266 5.14844 0.731445 5.23047 0.799805 5.29883C0.868164 5.36719 0.952474 5.40137 1.05273 5.40137C1.14844 5.40137 1.23047 5.36719 1.29883 5.29883C1.36719 5.23047 1.40137 5.14844 1.40137 5.05273C1.40137 4.95247 1.36719 4.86816 1.29883 4.7998C1.23047 4.73145 1.14844 4.69727 1.05273 4.69727ZM1.05273 9.59863C0.761068 9.59863 0.512695 9.49609 0.307617 9.29102C0.102539 9.08594 0 8.83984 0 8.55273C0 8.26107 0.102539 8.0127 0.307617 7.80762C0.512695 7.60254 0.761068 7.5 1.05273 7.5C1.33984 7.5 1.58594 7.60254 1.79102 7.80762C1.99609 8.0127 2.09863 8.26107 2.09863 8.55273C2.09863 8.83984 1.99609 9.08594 1.79102 9.29102C1.58594 9.49609 1.33984 9.59863 1.05273 9.59863ZM1.05273 8.19727C0.952474 8.19727 0.868164 8.23145 0.799805 8.2998C0.731445 8.36816 0.697266 8.45247 0.697266 8.55273C0.697266 8.64844 0.731445 8.73047 0.799805 8.79883C0.868164 8.86719 0.952474 8.90137 1.05273 8.90137C1.14844 8.90137 1.23047 8.86719 1.29883 8.79883C1.36719 8.73047 1.40137 8.64844 1.40137 8.55273C1.40137 8.45247 1.36719 8.36816 1.29883 8.2998C1.23047 8.23145 1.14844 8.19727 1.05273 8.19727Z" fill="#B0BECA"/>
</svg>