<?xml version="1.0" encoding="UTF-8" standalone="no"?>
<svg width="18px" height="7px" viewBox="0 0 18 7" version="1.1" xmlns="http://www.w3.org/2000/svg" xmlns:xlink="http://www.w3.org/1999/xlink" xmlns:sketch="http://www.bohemiancoding.com/sketch/ns">
    <g id="Screens" stroke="none" stroke-width="1" fill="none" fill-rule="evenodd" sketch:type="MSPage">
        <path d="M17.0323333,2.98937532 C17.3473333,2.46237532 17.3873333,1.71337532 17.1513333,1.14637532 C16.9343333,0.559375324 16.3433333,0.235375324 15.7323333,0.113375324 C15.1603333,-0.00762467561 14.5503333,-0.00762467561 13.9783333,0.0533753244 C13.2893333,0.113375324 12.5993333,0.295375324 12.2253333,0.883375324 C12.0673333,1.12637532 11.9093333,1.42937532 12.0673333,1.69337532 C12.1853333,1.89537532 12.4223333,1.91537532 12.6383333,1.85537532 C12.9543333,1.77437532 12.9343333,1.53137532 13.0923333,1.28837532 C13.2293333,1.06537532 13.5253333,0.984375324 13.7813333,0.943375324 C14.2543333,0.842375324 14.8063333,0.863375324 15.2983333,0.923375324 C15.5743333,0.964375324 15.8893333,1.00437532 16.1063333,1.18737532 C16.2643333,1.36937532 16.3233333,1.67237532 16.3433333,1.91537532 C16.3433333,2.17937532 16.2843333,2.50337532 16.0673333,2.68537532 C15.8503333,2.86737532 15.6063333,2.94037532 15.3503333,2.98037532 C15.1333333,3.02137532 14.9173333,3.02137532 14.6803333,3.02137532 C14.4633333,3.02137532 14.2863333,3.02137532 14.1293333,3.18337532 C13.9123333,3.40637532 13.9903333,3.81237532 14.2473333,3.93437532 C14.4043333,4.01537532 14.5823333,3.99437532 14.7393333,3.99437532 C15.1733333,3.99437532 15.8303333,3.92037532 16.1063333,4.28537532 C16.4023333,4.66937532 16.4213333,5.47937532 15.9683333,5.76337532 C15.4763333,6.06737532 14.7073333,6.04637532 14.1563333,6.00637532 C13.8993333,5.98637532 13.6043333,5.96537532 13.3673333,5.82437532 C13.2693333,5.76337532 13.1703333,5.70237532 13.0923333,5.60137532 C12.9933333,5.47937532 12.9933333,5.29737532 12.8753333,5.17637532 C12.7173333,4.99437532 12.4413333,4.99437532 12.2443333,5.11537532 C11.9883333,5.27737532 12.0083333,5.60137532 12.1063333,5.84437532 C12.6583333,6.99837532 14.2543333,7.07937532 15.3973333,6.95837532 C16.0083333,6.87737532 16.6383333,6.69437532 17.0133333,6.18837532 C17.3873333,5.66237532 17.4073333,4.87237532 17.1903333,4.28537532 C17.0723333,3.94037532 16.8553333,3.73837532 16.6183333,3.51537532 C16.7763333,3.35337532 16.9143333,3.19137532 17.0323333,2.98937532 L17.0323333,2.98937532 Z M2.96533333,0.344375324 C2.94533333,0.303375324 2.92433333,0.262375324 2.90433333,0.221375324 C2.88433333,0.180375324 2.86433333,0.160375324 2.82333333,0.139375324 C2.78333333,0.0983753244 2.74333333,0.0783753244 2.66233333,0.0573753244 C2.62133333,0.0373753244 2.60133333,0.0373753244 2.56133333,0.0373753244 L2.50033333,0.0373753244 L2.39933333,0.0373753244 C2.35933333,0.0373753244 2.31833333,0.0573753244 2.25833333,0.0783753244 C2.21733333,0.0983753244 2.17733333,0.139375324 2.15733333,0.160375324 L0.110333333,2.21637532 C0.0893333333,2.25737532 0.0493333333,2.29837532 0.0493333333,2.31937532 C0.00933333333,2.38037532 0.00933333333,2.44137532 0.00933333333,2.50337532 C-0.0116666667,2.56437532 0.00933333333,2.62637532 0.00933333333,2.66737532 C0.0293333333,2.72837532 0.0693333333,2.76937532 0.110333333,2.83037532 C0.150333333,2.87237532 0.190333333,2.91237532 0.271333333,2.93337532 C0.372333333,2.97437532 0.514333333,2.97437532 0.614333333,2.93337532 C0.675333333,2.91237532 0.715333333,2.87237532 0.776333333,2.83037532 L1.99533333,1.57337532 L1.99533333,6.56937532 C1.99533333,6.61037532 2.01533333,6.65137532 2.03633333,6.71337532 C2.05633333,6.77437532 2.09633333,6.81537532 2.13733333,6.85637532 C2.17733333,6.89737532 2.21733333,6.93837532 2.29833333,6.95837532 C2.35933333,6.97937532 2.44033333,6.99937532 2.50033333,6.99937532 C2.56133333,6.99937532 2.64233333,6.97937532 2.68233333,6.95837532 C2.74333333,6.93837532 2.78333333,6.89737532 2.84433333,6.85637532 C2.88433333,6.81537532 2.90433333,6.77437532 2.94533333,6.71337532 C2.96533333,6.65137532 2.98533333,6.59037532 2.98533333,6.52837532 L2.98533333,0.426375324 C2.98533333,0.426375324 2.96533333,0.385375324 2.96533333,0.344375324 L2.96533333,0.344375324 Z M9.97533333,6.31537532 C10.0003333,6.37237532 10.0143333,6.43937532 10.0143333,6.50937532 C10.0143333,6.57737532 10.0003333,6.64137532 9.97333333,6.70237532 C9.95033333,6.75737532 9.91533333,6.80937532 9.87133333,6.85437532 C9.82533333,6.90037532 9.77133333,6.93637532 9.71233333,6.96137532 C9.65133333,6.98637532 9.58733333,6.99937532 9.52233333,6.99937532 L5.49733333,6.99937532 C5.42833333,6.99937532 5.36233333,6.98637532 5.30233333,6.96137532 C5.24333333,6.93637532 5.19033333,6.90137532 5.14433333,6.85637532 C5.10033333,6.81037532 5.06533333,6.75937532 5.04033333,6.70237532 C5.01333333,6.63937532 5.00033333,6.57537532 5.00033333,6.50937532 C5.00033333,6.26737532 5.01833333,6.03937532 5.05233333,5.83037532 C5.08833333,5.61937532 5.14133333,5.41837532 5.21233333,5.23337532 C5.28433333,5.04737532 5.37433333,4.87337532 5.48133333,4.71437532 C5.59033333,4.55337532 5.72033333,4.40537532 5.86833333,4.27537532 C5.98833333,4.16737532 6.12033333,4.06837532 6.26033333,3.98237532 C6.39733333,3.89937532 6.53733333,3.82437532 6.68133333,3.76037532 C6.82033333,3.69737532 6.96333333,3.63937532 7.10833333,3.58737532 C7.24933333,3.53537532 7.39233333,3.48537532 7.53633333,3.43937532 L7.86333333,3.32637532 C7.96733333,3.29037532 8.06633333,3.25137532 8.16333333,3.21037532 C8.25833333,3.16837532 8.34833333,3.12537532 8.43533333,3.07937532 C8.51233333,3.03737532 8.58233333,2.99137532 8.64433333,2.93937532 C8.68333333,2.90537532 8.73033333,2.86037532 8.77933333,2.80737532 C8.81933333,2.76337532 8.85933333,2.70537532 8.89533333,2.63537532 C8.93233333,2.56437532 8.96433333,2.47437532 8.99033333,2.37037532 C9.01633333,2.26637532 9.02933333,2.13837532 9.02933333,1.99237532 C9.02933333,1.89437532 9.02333333,1.80437532 9.01033333,1.72037532 C8.99833333,1.64337532 8.98233333,1.57237532 8.95833333,1.51037532 C8.93833333,1.45337532 8.91333333,1.40537532 8.88233333,1.36137532 C8.85033333,1.32037532 8.81533333,1.28337532 8.77433333,1.25137532 C8.71833333,1.20437532 8.65833333,1.16837532 8.58833333,1.13837532 C8.50733333,1.10337532 8.41733333,1.07437532 8.31633333,1.05237532 C8.20933333,1.02837532 8.08933333,1.01037532 7.95733333,0.998375324 C7.68133333,0.972375324 7.33233333,0.972375324 7.06133333,0.998375324 C6.92833333,1.01037532 6.80833333,1.02837532 6.69933333,1.05237532 C6.59833333,1.07337532 6.50933333,1.10237532 6.43133333,1.13737532 C6.35933333,1.16837532 6.29633333,1.20537532 6.24333333,1.24837532 C6.20033333,1.28237532 6.16533333,1.31837532 6.13733333,1.35937532 C6.10533333,1.40337532 6.07933333,1.45337532 6.05633333,1.51337532 C6.03433333,1.57137532 6.01733333,1.64037532 6.00633333,1.71837532 C5.99433333,1.80137532 5.98933333,1.89337532 5.98933333,1.99237532 C5.98933333,2.06337532 5.97533333,2.13037532 5.94733333,2.19037532 C5.92333333,2.24537532 5.88833333,2.29637532 5.84433333,2.33937532 C5.80033333,2.38337532 5.74633333,2.41937532 5.68733333,2.44437532 C5.56333333,2.49637532 5.42033333,2.49537532 5.30233333,2.44437532 C5.24333333,2.41937532 5.19033333,2.38437532 5.14433333,2.33937532 C5.10233333,2.29737532 5.06733333,2.24737532 5.04233333,2.19237532 C5.01433333,2.12737532 5.00033333,2.06237532 5.00033333,1.99237532 C5.00033333,1.65937532 5.05133333,1.36437532 5.15333333,1.11537532 C5.25833333,0.856375324 5.42333333,0.640375324 5.64133333,0.470375324 C5.85333333,0.306375324 6.12133333,0.184375324 6.43833333,0.108375324 C7.04333333,-0.0366246756 7.98133333,-0.0356246756 8.58133333,0.108375324 C8.89733333,0.184375324 9.16533333,0.306375324 9.37833333,0.470375324 C9.59633333,0.640375324 9.76033333,0.857375324 9.86333333,1.11737532 C9.96333333,1.36637532 10.0143333,1.66037532 10.0143333,1.99237532 C10.0143333,2.17237532 9.99933333,2.34437532 9.97133333,2.50337532 C9.94133333,2.66437532 9.89433333,2.81937532 9.83133333,2.96437532 C9.76833333,3.10737532 9.68933333,3.24037532 9.59533333,3.36237532 C9.50233333,3.48137532 9.39533333,3.59337532 9.27533333,3.69437532 C9.16333333,3.78237532 9.05233333,3.85837532 8.93533333,3.92437532 C8.82233333,3.98837532 8.70333333,4.04737532 8.57933333,4.10137532 C8.45833333,4.15437532 8.33533333,4.20237532 8.21033333,4.24737532 C8.08833333,4.29037532 7.96833333,4.33137532 7.84933333,4.37137532 C7.72333333,4.41337532 7.59733333,4.45737532 7.47133333,4.50237532 C7.34933333,4.54537532 7.23033333,4.59337532 7.11733333,4.64437532 C7.00633333,4.69437532 6.89733333,4.75037532 6.79333333,4.81137532 C6.69833333,4.86737532 6.60733333,4.93337532 6.52233333,5.00837532 C6.44533333,5.07937532 6.37533333,5.16037532 6.31233333,5.24737532 C6.25033333,5.33237532 6.19733333,5.42537532 6.15433333,5.52637532 C6.10933333,5.63037532 6.07333333,5.74337532 6.04733333,5.86437532 C6.03633333,5.91337532 6.02833333,5.96337532 6.02033333,6.01437532 L9.52233333,6.01437532 C9.58733333,6.01437532 9.65133333,6.02737532 9.71233333,6.05337532 C9.77433333,6.08037532 9.82633333,6.11537532 9.86933333,6.15837532 C9.91533333,6.20537532 9.95033333,6.25737532 9.97533333,6.31537532 L9.97533333,6.31537532 Z" id="measure" fill="#00c18d" sketch:type="MSShapeGroup"></path>
    </g>
</svg>