<svg width="166" height="30" viewBox="0 0 166 30" fill="none" xmlns="http://www.w3.org/2000/svg">
<path d="M159.5 0.5H6.5C3.18629 0.5 0.5 3.18629 0.5 6.5V23.5C0.5 26.8137 3.18629 29.5 6.5 29.5H159.5C162.814 29.5 165.5 26.8137 165.5 23.5V6.5C165.5 3.18629 162.814 0.5 159.5 0.5Z" fill="white" fill-opacity="0.85" stroke="#DBE4EC"/>
<path d="M33.0637 19V15.184H34.7677C35.0637 15.184 35.3757 15.148 35.7037 15.076C36.0317 15.004 36.3337 14.88 36.6097 14.704C36.8857 14.528 37.1117 14.288 37.2877 13.984C37.4637 13.68 37.5517 13.296 37.5517 12.832C37.5517 12.392 37.4697 12.022 37.3057 11.722C37.1417 11.422 36.9217 11.182 36.6457 11.002C36.3697 10.822 36.0537 10.694 35.6977 10.618C35.3417 10.542 34.9677 10.504 34.5757 10.504H32.0557V19H33.0637ZM34.7677 14.248H33.0637V11.44H34.7677C35.2717 11.44 35.6817 11.554 35.9977 11.782C36.3137 12.01 36.4717 12.364 36.4717 12.844C36.4717 13.324 36.3137 13.678 35.9977 13.906C35.6817 14.134 35.2717 14.248 34.7677 14.248ZM41.6797 19.144C42.1117 19.144 42.5117 19.072 42.8797 18.928C43.2477 18.784 43.5637 18.582 43.8277 18.322C44.0917 18.062 44.2997 17.752 44.4517 17.392C44.6037 17.032 44.6797 16.632 44.6797 16.192C44.6797 15.752 44.6037 15.352 44.4517 14.992C44.2997 14.632 44.0917 14.322 43.8277 14.062C43.5637 13.802 43.2477 13.6 42.8797 13.456C42.5117 13.312 42.1117 13.24 41.6797 13.24C41.2477 13.24 40.8477 13.312 40.4797 13.456C40.1117 13.6 39.7957 13.802 39.5317 14.062C39.2677 14.322 39.0597 14.632 38.9077 14.992C38.7557 15.352 38.6797 15.752 38.6797 16.192C38.6797 16.632 38.7557 17.032 38.9077 17.392C39.0597 17.752 39.2677 18.062 39.5317 18.322C39.7957 18.582 40.1117 18.784 40.4797 18.928C40.8477 19.072 41.2477 19.144 41.6797 19.144ZM41.6797 18.28C41.3757 18.28 41.1017 18.226 40.8577 18.118C40.6137 18.01 40.4037 17.862 40.2277 17.674C40.0517 17.486 39.9177 17.266 39.8257 17.014C39.7337 16.762 39.6877 16.488 39.6877 16.192C39.6877 15.896 39.7337 15.622 39.8257 15.37C39.9177 15.118 40.0517 14.898 40.2277 14.71C40.4037 14.522 40.6137 14.374 40.8577 14.266C41.1017 14.158 41.3757 14.104 41.6797 14.104C41.9837 14.104 42.2577 14.158 42.5017 14.266C42.7457 14.374 42.9557 14.522 43.1317 14.71C43.3077 14.898 43.4417 15.118 43.5337 15.37C43.6257 15.622 43.6717 15.896 43.6717 16.192C43.6717 16.488 43.6257 16.762 43.5337 17.014C43.4417 17.266 43.3077 17.486 43.1317 17.674C42.9557 17.862 42.7457 18.01 42.5017 18.118C42.2577 18.226 41.9837 18.28 41.6797 18.28ZM48.1957 19L49.6117 14.68H49.6357L51.2317 19H52.1557L53.9677 13.384H52.9597L51.6877 17.704H51.6637L50.1877 13.384H49.2037L47.7517 17.704H47.7277L46.4437 13.384H45.4117L47.2357 19H48.1957ZM57.5437 19.144C58.0717 19.144 58.5357 19.058 58.9357 18.886C59.3357 18.714 59.7037 18.412 60.0397 17.98L59.3317 17.428C59.1077 17.708 58.8557 17.92 58.5757 18.064C58.2957 18.208 57.9517 18.28 57.5437 18.28C57.2877 18.28 57.0517 18.232 56.8357 18.136C56.6197 18.04 56.4317 17.91 56.2717 17.746C56.1117 17.582 55.9817 17.39 55.8817 17.17C55.7817 16.95 55.7237 16.72 55.7077 16.48H60.2437V16.18C60.2437 15.716 60.1797 15.302 60.0517 14.938C59.9237 14.574 59.7417 14.266 59.5057 14.014C59.2697 13.762 58.9877 13.57 58.6597 13.438C58.3317 13.306 57.9717 13.24 57.5797 13.24C57.1637 13.24 56.7797 13.312 56.4277 13.456C56.0757 13.6 55.7717 13.802 55.5157 14.062C55.2597 14.322 55.0597 14.634 54.9157 14.998C54.7717 15.362 54.6997 15.76 54.6997 16.192C54.6997 16.6 54.7657 16.984 54.8977 17.344C55.0297 17.704 55.2177 18.016 55.4617 18.28C55.7057 18.544 56.0037 18.754 56.3557 18.91C56.7077 19.066 57.1037 19.144 57.5437 19.144ZM59.2357 15.688H55.7077C55.7717 15.208 55.9637 14.824 56.2837 14.536C56.6037 14.248 57.0237 14.104 57.5437 14.104C58.0637 14.104 58.4717 14.248 58.7677 14.536C59.0637 14.824 59.2197 15.208 59.2357 15.688ZM62.6317 19V16.264C62.6317 15.616 62.7617 15.106 63.0217 14.734C63.2817 14.362 63.6997 14.176 64.2757 14.176C64.4517 14.176 64.6197 14.2 64.7797 14.248L64.8397 13.3C64.7757 13.276 64.7117 13.26 64.6477 13.252C64.5837 13.244 64.5197 13.24 64.4557 13.24C64.2237 13.24 64.0077 13.27 63.8077 13.33C63.6077 13.39 63.4277 13.47 63.2677 13.57C63.1077 13.67 62.9697 13.784 62.8537 13.912C62.7377 14.04 62.6477 14.172 62.5837 14.308H62.5597C62.5597 14.148 62.5557 13.992 62.5477 13.84C62.5397 13.688 62.5357 13.536 62.5357 13.384H61.6477C61.6477 13.568 61.6557 13.772 61.6717 13.996C61.6877 14.22 61.6957 14.46 61.6957 14.716V19H62.6317ZM68.2237 19.144C68.7517 19.144 69.2157 19.058 69.6157 18.886C70.0157 18.714 70.3837 18.412 70.7197 17.98L70.0117 17.428C69.7877 17.708 69.5357 17.92 69.2557 18.064C68.9757 18.208 68.6317 18.28 68.2237 18.28C67.9677 18.28 67.7317 18.232 67.5157 18.136C67.2997 18.04 67.1117 17.91 66.9517 17.746C66.7917 17.582 66.6617 17.39 66.5617 17.17C66.4617 16.95 66.4037 16.72 66.3877 16.48H70.9237V16.18C70.9237 15.716 70.8597 15.302 70.7317 14.938C70.6037 14.574 70.4217 14.266 70.1857 14.014C69.9497 13.762 69.6677 13.57 69.3397 13.438C69.0117 13.306 68.6517 13.24 68.2597 13.24C67.8437 13.24 67.4597 13.312 67.1077 13.456C66.7557 13.6 66.4517 13.802 66.1957 14.062C65.9397 14.322 65.7397 14.634 65.5957 14.998C65.4517 15.362 65.3797 15.76 65.3797 16.192C65.3797 16.6 65.4457 16.984 65.5777 17.344C65.7097 17.704 65.8977 18.016 66.1417 18.28C66.3857 18.544 66.6837 18.754 67.0357 18.91C67.3877 19.066 67.7837 19.144 68.2237 19.144ZM69.9157 15.688H66.3877C66.4517 15.208 66.6437 14.824 66.9637 14.536C67.2837 14.248 67.7037 14.104 68.2237 14.104C68.7437 14.104 69.1517 14.248 69.4477 14.536C69.7437 14.824 69.8997 15.208 69.9157 15.688ZM74.8597 19.144C75.3637 19.144 75.8057 19.034 76.1857 18.814C76.5657 18.594 76.8437 18.324 77.0197 18.004H77.0437V19H77.9797V9.92798H77.0437V14.2H77.0197C76.7637 13.896 76.4657 13.66 76.1257 13.492C75.7857 13.324 75.4117 13.24 75.0037 13.24C74.5637 13.24 74.1617 13.314 73.7977 13.462C73.4337 13.61 73.1237 13.816 72.8677 14.08C72.6117 14.344 72.4117 14.656 72.2677 15.016C72.1237 15.376 72.0517 15.768 72.0517 16.192C72.0517 16.616 72.1237 17.008 72.2677 17.368C72.4117 17.728 72.6097 18.04 72.8617 18.304C73.1137 18.568 73.4117 18.774 73.7557 18.922C74.0997 19.07 74.4677 19.144 74.8597 19.144ZM75.0517 18.28C74.7477 18.28 74.4737 18.226 74.2297 18.118C73.9857 18.01 73.7757 17.862 73.5997 17.674C73.4237 17.486 73.2897 17.266 73.1977 17.014C73.1057 16.762 73.0597 16.488 73.0597 16.192C73.0597 15.896 73.1057 15.622 73.1977 15.37C73.2897 15.118 73.4237 14.898 73.5997 14.71C73.7757 14.522 73.9857 14.374 74.2297 14.266C74.4737 14.158 74.7477 14.104 75.0517 14.104C75.3557 14.104 75.6297 14.158 75.8737 14.266C76.1177 14.374 76.3277 14.522 76.5037 14.71C76.6797 14.898 76.8137 15.118 76.9057 15.37C76.9977 15.622 77.0437 15.896 77.0437 16.192C77.0437 16.488 76.9977 16.762 76.9057 17.014C76.8137 17.266 76.6797 17.486 76.5037 17.674C76.3277 17.862 76.1177 18.01 75.8737 18.118C75.6297 18.226 75.3557 18.28 75.0517 18.28ZM86.1157 19.144C86.5077 19.144 86.8757 19.07 87.2197 18.922C87.5637 18.774 87.8617 18.568 88.1137 18.304C88.3657 18.04 88.5637 17.728 88.7077 17.368C88.8517 17.008 88.9237 16.616 88.9237 16.192C88.9237 15.768 88.8517 15.376 88.7077 15.016C88.5637 14.656 88.3637 14.344 88.1077 14.08C87.8517 13.816 87.5417 13.61 87.1777 13.462C86.8137 13.314 86.4117 13.24 85.9717 13.24C85.5637 13.24 85.1897 13.324 84.8497 13.492C84.5097 13.66 84.2117 13.896 83.9557 14.2H83.9317V9.92798H82.9957V19H83.9317V18.004H83.9557C84.1317 18.324 84.4097 18.594 84.7897 18.814C85.1697 19.034 85.6117 19.144 86.1157 19.144ZM85.9237 18.28C85.6197 18.28 85.3457 18.226 85.1017 18.118C84.8577 18.01 84.6477 17.862 84.4717 17.674C84.2957 17.486 84.1617 17.266 84.0697 17.014C83.9777 16.762 83.9317 16.488 83.9317 16.192C83.9317 15.896 83.9777 15.622 84.0697 15.37C84.1617 15.118 84.2957 14.898 84.4717 14.71C84.6477 14.522 84.8577 14.374 85.1017 14.266C85.3457 14.158 85.6197 14.104 85.9237 14.104C86.2277 14.104 86.5017 14.158 86.7457 14.266C86.9897 14.374 87.1997 14.522 87.3757 14.71C87.5517 14.898 87.6857 15.118 87.7777 15.37C87.8697 15.622 87.9157 15.896 87.9157 16.192C87.9157 16.488 87.8697 16.762 87.7777 17.014C87.6857 17.266 87.5517 17.486 87.3757 17.674C87.1997 17.862 86.9897 18.01 86.7457 18.118C86.5017 18.226 86.2277 18.28 85.9237 18.28ZM90.5677 21.88C90.8477 21.88 91.0857 21.842 91.2817 21.766C91.4777 21.69 91.6457 21.582 91.7857 21.442C91.9257 21.302 92.0457 21.134 92.1457 20.938C92.2457 20.742 92.3437 20.524 92.4397 20.284L95.1517 13.384H94.1317L92.4637 17.788H92.4397L90.6997 13.384H89.6077L91.9357 19.036L91.5517 20.092C91.4477 20.372 91.3237 20.596 91.1797 20.764C91.0357 20.932 90.8117 21.016 90.5077 21.016C90.3717 21.016 90.2517 21.01 90.1477 20.998C90.0437 20.986 89.9437 20.96 89.8477 20.92L89.7277 21.736C89.8557 21.8 89.9937 21.84 90.1417 21.856C90.2897 21.872 90.4317 21.88 90.5677 21.88ZM103.708 19.216C104.26 19.216 104.806 19.152 105.346 19.024C105.886 18.896 106.4 18.696 106.888 18.424V14.248H103.924V15.184H105.88V17.788C105.568 17.948 105.224 18.07 104.848 18.154C104.472 18.238 104.112 18.28 103.768 18.28C103.248 18.28 102.772 18.192 102.34 18.016C101.908 17.84 101.538 17.594 101.23 17.278C100.922 16.962 100.682 16.588 100.51 16.156C100.338 15.724 100.252 15.256 100.252 14.752C100.252 14.24 100.338 13.768 100.51 13.336C100.682 12.904 100.922 12.532 101.23 12.22C101.538 11.908 101.9 11.664 102.316 11.488C102.732 11.312 103.184 11.224 103.672 11.224C104.104 11.224 104.526 11.308 104.938 11.476C105.35 11.644 105.7 11.884 105.988 12.196L106.744 11.404C106.336 10.996 105.874 10.708 105.358 10.54C104.842 10.372 104.304 10.288 103.744 10.288C103.104 10.288 102.508 10.396 101.956 10.612C101.404 10.828 100.92 11.13 100.504 11.518C100.088 11.906 99.7617 12.374 99.5257 12.922C99.2897 13.47 99.1717 14.08 99.1717 14.752C99.1717 15.416 99.2837 16.022 99.5077 16.57C99.7317 17.118 100.046 17.588 100.45 17.98C100.854 18.372 101.332 18.676 101.884 18.892C102.436 19.108 103.044 19.216 103.708 19.216ZM111.508 19.144C111.94 19.144 112.34 19.072 112.708 18.928C113.076 18.784 113.392 18.582 113.656 18.322C113.92 18.062 114.128 17.752 114.28 17.392C114.432 17.032 114.508 16.632 114.508 16.192C114.508 15.752 114.432 15.352 114.28 14.992C114.128 14.632 113.92 14.322 113.656 14.062C113.392 13.802 113.076 13.6 112.708 13.456C112.34 13.312 111.94 13.24 111.508 13.24C111.076 13.24 110.676 13.312 110.308 13.456C109.94 13.6 109.624 13.802 109.36 14.062C109.096 14.322 108.888 14.632 108.736 14.992C108.584 15.352 108.508 15.752 108.508 16.192C108.508 16.632 108.584 17.032 108.736 17.392C108.888 17.752 109.096 18.062 109.36 18.322C109.624 18.582 109.94 18.784 110.308 18.928C110.676 19.072 111.076 19.144 111.508 19.144ZM111.508 18.28C111.204 18.28 110.93 18.226 110.686 18.118C110.442 18.01 110.232 17.862 110.056 17.674C109.88 17.486 109.746 17.266 109.654 17.014C109.562 16.762 109.516 16.488 109.516 16.192C109.516 15.896 109.562 15.622 109.654 15.37C109.746 15.118 109.88 14.898 110.056 14.71C110.232 14.522 110.442 14.374 110.686 14.266C110.93 14.158 111.204 14.104 111.508 14.104C111.812 14.104 112.086 14.158 112.33 14.266C112.574 14.374 112.784 14.522 112.96 14.71C113.136 14.898 113.27 15.118 113.362 15.37C113.454 15.622 113.5 15.896 113.5 16.192C113.5 16.488 113.454 16.762 113.362 17.014C113.27 17.266 113.136 17.486 112.96 17.674C112.784 17.862 112.574 18.01 112.33 18.118C112.086 18.226 111.812 18.28 111.508 18.28ZM118.636 19.144C119.068 19.144 119.468 19.072 119.836 18.928C120.204 18.784 120.52 18.582 120.784 18.322C121.048 18.062 121.256 17.752 121.408 17.392C121.56 17.032 121.636 16.632 121.636 16.192C121.636 15.752 121.56 15.352 121.408 14.992C121.256 14.632 121.048 14.322 120.784 14.062C120.52 13.802 120.204 13.6 119.836 13.456C119.468 13.312 119.068 13.24 118.636 13.24C118.204 13.24 117.804 13.312 117.436 13.456C117.068 13.6 116.752 13.802 116.488 14.062C116.224 14.322 116.016 14.632 115.864 14.992C115.712 15.352 115.636 15.752 115.636 16.192C115.636 16.632 115.712 17.032 115.864 17.392C116.016 17.752 116.224 18.062 116.488 18.322C116.752 18.582 117.068 18.784 117.436 18.928C117.804 19.072 118.204 19.144 118.636 19.144ZM118.636 18.28C118.332 18.28 118.058 18.226 117.814 18.118C117.57 18.01 117.36 17.862 117.184 17.674C117.008 17.486 116.874 17.266 116.782 17.014C116.69 16.762 116.644 16.488 116.644 16.192C116.644 15.896 116.69 15.622 116.782 15.37C116.874 15.118 117.008 14.898 117.184 14.71C117.36 14.522 117.57 14.374 117.814 14.266C118.058 14.158 118.332 14.104 118.636 14.104C118.94 14.104 119.214 14.158 119.458 14.266C119.702 14.374 119.912 14.522 120.088 14.71C120.264 14.898 120.398 15.118 120.49 15.37C120.582 15.622 120.628 15.896 120.628 16.192C120.628 16.488 120.582 16.762 120.49 17.014C120.398 17.266 120.264 17.486 120.088 17.674C119.912 17.862 119.702 18.01 119.458 18.118C119.214 18.226 118.94 18.28 118.636 18.28ZM125.572 19.144C126.076 19.144 126.518 19.034 126.898 18.814C127.278 18.594 127.556 18.324 127.732 18.004H127.756V19H128.692V9.92798H127.756V14.2H127.732C127.476 13.896 127.178 13.66 126.838 13.492C126.498 13.324 126.124 13.24 125.716 13.24C125.276 13.24 124.874 13.314 124.51 13.462C124.146 13.61 123.836 13.816 123.58 14.08C123.324 14.344 123.124 14.656 122.98 15.016C122.836 15.376 122.764 15.768 122.764 16.192C122.764 16.616 122.836 17.008 122.98 17.368C123.124 17.728 123.322 18.04 123.574 18.304C123.826 18.568 124.124 18.774 124.468 18.922C124.812 19.07 125.18 19.144 125.572 19.144ZM125.764 18.28C125.46 18.28 125.186 18.226 124.942 18.118C124.698 18.01 124.488 17.862 124.312 17.674C124.136 17.486 124.002 17.266 123.91 17.014C123.818 16.762 123.772 16.488 123.772 16.192C123.772 15.896 123.818 15.622 123.91 15.37C124.002 15.118 124.136 14.898 124.312 14.71C124.488 14.522 124.698 14.374 124.942 14.266C125.186 14.158 125.46 14.104 125.764 14.104C126.068 14.104 126.342 14.158 126.586 14.266C126.83 14.374 127.04 14.522 127.216 14.71C127.392 14.898 127.526 15.118 127.618 15.37C127.71 15.622 127.756 15.896 127.756 16.192C127.756 16.488 127.71 16.762 127.618 17.014C127.526 17.266 127.392 17.486 127.216 17.674C127.04 17.862 126.83 18.01 126.586 18.118C126.342 18.226 126.068 18.28 125.764 18.28ZM133.696 19C133.976 19 134.272 18.968 134.584 18.904C134.896 18.84 135.206 18.738 135.514 18.598C135.822 18.458 136.118 18.276 136.402 18.052C136.686 17.828 136.936 17.558 137.152 17.242C137.368 16.926 137.54 16.562 137.668 16.15C137.796 15.738 137.86 15.272 137.86 14.752C137.86 14.232 137.796 13.766 137.668 13.354C137.54 12.942 137.368 12.578 137.152 12.262C136.936 11.946 136.686 11.676 136.402 11.452C136.118 11.228 135.822 11.046 135.514 10.906C135.206 10.766 134.896 10.664 134.584 10.6C134.272 10.536 133.976 10.504 133.696 10.504H130.432V19H133.696ZM133.36 18.064H131.44V11.44H133.36C133.848 11.44 134.3 11.504 134.716 11.632C135.132 11.76 135.492 11.958 135.796 12.226C136.1 12.494 136.34 12.836 136.516 13.252C136.692 13.668 136.78 14.168 136.78 14.752C136.78 15.336 136.692 15.836 136.516 16.252C136.34 16.668 136.1 17.01 135.796 17.278C135.492 17.546 135.132 17.744 134.716 17.872C134.3 18 133.848 18.064 133.36 18.064ZM141.076 19.144C141.508 19.144 141.878 19.052 142.186 18.868C142.494 18.684 142.74 18.448 142.924 18.16H142.948C142.948 18.28 142.95 18.418 142.954 18.574C142.958 18.73 142.976 18.872 143.008 19H143.908C143.884 18.856 143.864 18.698 143.848 18.526C143.832 18.354 143.824 18.188 143.824 18.028V15.616C143.824 14.816 143.64 14.22 143.272 13.828C142.904 13.436 142.304 13.24 141.472 13.24C141.064 13.24 140.662 13.31 140.266 13.45C139.87 13.59 139.528 13.808 139.24 14.104L139.828 14.716C140.052 14.508 140.31 14.354 140.602 14.254C140.894 14.154 141.192 14.104 141.496 14.104C141.936 14.104 142.278 14.208 142.522 14.416C142.766 14.624 142.888 14.932 142.888 15.34V15.508H142.528C142.184 15.508 141.806 15.524 141.394 15.556C140.982 15.588 140.598 15.668 140.242 15.796C139.886 15.924 139.588 16.12 139.348 16.384C139.108 16.648 138.988 17.012 138.988 17.476C138.988 17.748 139.044 17.988 139.156 18.196C139.268 18.404 139.418 18.578 139.606 18.718C139.794 18.858 140.014 18.964 140.266 19.036C140.518 19.108 140.788 19.144 141.076 19.144ZM141.232 18.352C140.88 18.352 140.586 18.278 140.35 18.13C140.114 17.982 139.996 17.732 139.996 17.38C139.996 16.996 140.172 16.72 140.524 16.552C140.876 16.384 141.352 16.3 141.952 16.3H142.888V16.66C142.88 16.892 142.84 17.11 142.768 17.314C142.696 17.518 142.592 17.696 142.456 17.848C142.32 18 142.15 18.122 141.946 18.214C141.742 18.306 141.504 18.352 141.232 18.352ZM147.568 19.144C147.744 19.144 147.93 19.128 148.126 19.096C148.322 19.064 148.5 19.012 148.66 18.94L148.624 18.088C148.496 18.152 148.36 18.2 148.216 18.232C148.072 18.264 147.932 18.28 147.796 18.28C147.588 18.28 147.428 18.246 147.316 18.178C147.204 18.11 147.12 18.018 147.064 17.902C147.008 17.786 146.976 17.65 146.968 17.494C146.96 17.338 146.956 17.168 146.956 16.984V14.176H148.612V13.384H146.956V11.788H146.02V13.384H144.796V14.176H146.02V17.26C146.02 17.548 146.038 17.81 146.074 18.046C146.11 18.282 146.184 18.48 146.296 18.64C146.408 18.8 146.564 18.924 146.764 19.012C146.964 19.1 147.232 19.144 147.568 19.144ZM151.528 19.144C151.96 19.144 152.33 19.052 152.638 18.868C152.946 18.684 153.192 18.448 153.376 18.16H153.4C153.4 18.28 153.402 18.418 153.406 18.574C153.41 18.73 153.428 18.872 153.46 19H154.36C154.336 18.856 154.316 18.698 154.3 18.526C154.284 18.354 154.276 18.188 154.276 18.028V15.616C154.276 14.816 154.092 14.22 153.724 13.828C153.356 13.436 152.756 13.24 151.924 13.24C151.516 13.24 151.114 13.31 150.718 13.45C150.322 13.59 149.98 13.808 149.692 14.104L150.28 14.716C150.504 14.508 150.762 14.354 151.054 14.254C151.346 14.154 151.644 14.104 151.948 14.104C152.388 14.104 152.73 14.208 152.974 14.416C153.218 14.624 153.34 14.932 153.34 15.34V15.508H152.98C152.636 15.508 152.258 15.524 151.846 15.556C151.434 15.588 151.05 15.668 150.694 15.796C150.338 15.924 150.04 16.12 149.8 16.384C149.56 16.648 149.44 17.012 149.44 17.476C149.44 17.748 149.496 17.988 149.608 18.196C149.72 18.404 149.87 18.578 150.058 18.718C150.246 18.858 150.466 18.964 150.718 19.036C150.97 19.108 151.24 19.144 151.528 19.144ZM151.684 18.352C151.332 18.352 151.038 18.278 150.802 18.13C150.566 17.982 150.448 17.732 150.448 17.38C150.448 16.996 150.624 16.72 150.976 16.552C151.328 16.384 151.804 16.3 152.404 16.3H153.34V16.66C153.332 16.892 153.292 17.11 153.22 17.314C153.148 17.518 153.044 17.696 152.908 17.848C152.772 18 152.602 18.122 152.398 18.214C152.194 18.306 151.956 18.352 151.684 18.352Z" fill="black"/>
<circle cx="18" cy="15" r="8" fill="#1C0D3F"/>
<path d="M22.3128 16.3446C22.2817 15.0195 21.5502 13.9676 20.4335 13.5565V11.2502C20.1515 11.07 19.8514 10.921 19.5381 10.8064V15.768C19.5381 16.7509 19.0822 17.1898 18.3494 17.1898C17.636 17.1898 17.0392 16.651 17.0392 15.7499C17.0392 14.7442 17.8231 14.13 18.8495 14.13C18.9446 14.1283 19.0414 14.1333 19.1365 14.1481V13.2701C19.0414 13.2537 18.9463 13.2455 18.8495 13.2473C17.3262 13.2473 16.1325 14.1811 16.1325 15.7519C16.1325 17.2622 17.2098 18.0681 18.4102 18.0681C18.9791 18.0681 19.4711 17.8747 19.8106 17.5422C20.15 17.2096 20.4371 16.7296 20.4371 15.8861V14.5116C21.057 14.8213 21.4308 15.5714 21.4325 16.4298C21.4293 18.0465 19.9288 19.4128 18.1694 19.4128C18.1284 19.4128 18.0971 19.4128 18.0562 19.411C16.8493 19.4095 15.7884 18.9736 14.929 18.1137C14.3107 17.4946 13.8877 16.7066 13.7172 15.8499C13.5467 14.9915 13.6336 14.1037 13.9697 13.2944C14.3043 12.4868 14.8715 11.7955 15.5995 11.309C16.3276 10.8225 17.1837 10.5637 18.0592 10.5637V9.66284C17.359 9.66284 16.6654 9.80046 16.0193 10.0675C15.3731 10.3345 14.7846 10.7276 14.2894 11.2207C13.289 12.2183 12.7266 13.5729 12.7266 14.985C12.7266 16.3969 13.2873 17.7517 14.2859 18.751C15.2845 19.7502 16.6406 20.3121 18.0542 20.3121H18.1674C18.602 20.3121 19.0349 20.2449 19.4515 20.1155C19.4532 20.1155 19.4547 20.1138 19.4564 20.1138C20.0581 19.927 20.6092 19.6092 21.0716 19.1834C21.8702 18.4462 22.3098 17.4717 22.313 16.4348C22.3145 16.4313 22.3128 16.3463 22.3128 16.3446Z" fill="white"/>
</svg>
