<svg width="146" height="16" viewBox="0 0 146 16" fill="none" xmlns="http://www.w3.org/2000/svg">
<path d="M23.0637 12V8.18398H24.7677C25.0637 8.18398 25.3757 8.14798 25.7037 8.07598C26.0317 8.00398 26.3337 7.87998 26.6097 7.70398C26.8857 7.52798 27.1117 7.28798 27.2877 6.98398C27.4637 6.67998 27.5517 6.29598 27.5517 5.83198C27.5517 5.39198 27.4697 5.02198 27.3057 4.72198C27.1417 4.42198 26.9217 4.18198 26.6457 4.00198C26.3697 3.82198 26.0537 3.69398 25.6977 3.61798C25.3417 3.54198 24.9677 3.50398 24.5757 3.50398H22.0557V12H23.0637ZM24.7677 7.24798H23.0637V4.43998H24.7677C25.2717 4.43998 25.6817 4.55398 25.9977 4.78198C26.3137 5.00998 26.4717 5.36398 26.4717 5.84398C26.4717 6.32398 26.3137 6.67798 25.9977 6.90598C25.6817 7.13398 25.2717 7.24798 24.7677 7.24798ZM31.6797 12.144C32.1117 12.144 32.5117 12.072 32.8797 11.928C33.2477 11.784 33.5637 11.582 33.8277 11.322C34.0917 11.062 34.2997 10.752 34.4517 10.392C34.6037 10.032 34.6797 9.63198 34.6797 9.19198C34.6797 8.75198 34.6037 8.35198 34.4517 7.99198C34.2997 7.63198 34.0917 7.32198 33.8277 7.06198C33.5637 6.80198 33.2477 6.59998 32.8797 6.45598C32.5117 6.31198 32.1117 6.23998 31.6797 6.23998C31.2477 6.23998 30.8477 6.31198 30.4797 6.45598C30.1117 6.59998 29.7957 6.80198 29.5317 7.06198C29.2677 7.32198 29.0597 7.63198 28.9077 7.99198C28.7557 8.35198 28.6797 8.75198 28.6797 9.19198C28.6797 9.63198 28.7557 10.032 28.9077 10.392C29.0597 10.752 29.2677 11.062 29.5317 11.322C29.7957 11.582 30.1117 11.784 30.4797 11.928C30.8477 12.072 31.2477 12.144 31.6797 12.144ZM31.6797 11.28C31.3757 11.28 31.1017 11.226 30.8577 11.118C30.6137 11.01 30.4037 10.862 30.2277 10.674C30.0517 10.486 29.9177 10.266 29.8257 10.014C29.7337 9.76198 29.6877 9.48798 29.6877 9.19198C29.6877 8.89598 29.7337 8.62198 29.8257 8.36998C29.9177 8.11798 30.0517 7.89798 30.2277 7.70998C30.4037 7.52198 30.6137 7.37398 30.8577 7.26598C31.1017 7.15798 31.3757 7.10398 31.6797 7.10398C31.9837 7.10398 32.2577 7.15798 32.5017 7.26598C32.7457 7.37398 32.9557 7.52198 33.1317 7.70998C33.3077 7.89798 33.4417 8.11798 33.5337 8.36998C33.6257 8.62198 33.6717 8.89598 33.6717 9.19198C33.6717 9.48798 33.6257 9.76198 33.5337 10.014C33.4417 10.266 33.3077 10.486 33.1317 10.674C32.9557 10.862 32.7457 11.01 32.5017 11.118C32.2577 11.226 31.9837 11.28 31.6797 11.28ZM38.1957 12L39.6117 7.67998H39.6357L41.2317 12H42.1557L43.9677 6.38398H42.9597L41.6877 10.704H41.6637L40.1877 6.38398H39.2037L37.7517 10.704H37.7277L36.4437 6.38398H35.4117L37.2357 12H38.1957ZM47.5437 12.144C48.0717 12.144 48.5357 12.058 48.9357 11.886C49.3357 11.714 49.7037 11.412 50.0397 10.98L49.3317 10.428C49.1077 10.708 48.8557 10.92 48.5757 11.064C48.2957 11.208 47.9517 11.28 47.5437 11.28C47.2877 11.28 47.0517 11.232 46.8357 11.136C46.6197 11.04 46.4317 10.91 46.2717 10.746C46.1117 10.582 45.9817 10.39 45.8817 10.17C45.7817 9.94998 45.7237 9.71998 45.7077 9.47998H50.2437V9.17998C50.2437 8.71598 50.1797 8.30198 50.0517 7.93798C49.9237 7.57398 49.7417 7.26598 49.5057 7.01398C49.2697 6.76198 48.9877 6.56998 48.6597 6.43798C48.3317 6.30598 47.9717 6.23998 47.5797 6.23998C47.1637 6.23998 46.7797 6.31198 46.4277 6.45598C46.0757 6.59998 45.7717 6.80198 45.5157 7.06198C45.2597 7.32198 45.0597 7.63398 44.9157 7.99798C44.7717 8.36198 44.6997 8.75998 44.6997 9.19198C44.6997 9.59998 44.7657 9.98398 44.8977 10.344C45.0297 10.704 45.2177 11.016 45.4617 11.28C45.7057 11.544 46.0037 11.754 46.3557 11.91C46.7077 12.066 47.1037 12.144 47.5437 12.144ZM49.2357 8.68798H45.7077C45.7717 8.20798 45.9637 7.82398 46.2837 7.53598C46.6037 7.24798 47.0237 7.10398 47.5437 7.10398C48.0637 7.10398 48.4717 7.24798 48.7677 7.53598C49.0637 7.82398 49.2197 8.20798 49.2357 8.68798ZM52.6317 12V9.26398C52.6317 8.61598 52.7617 8.10598 53.0217 7.73398C53.2817 7.36198 53.6997 7.17598 54.2757 7.17598C54.4517 7.17598 54.6197 7.19998 54.7797 7.24798L54.8397 6.29998C54.7757 6.27598 54.7117 6.25998 54.6477 6.25198C54.5837 6.24398 54.5197 6.23998 54.4557 6.23998C54.2237 6.23998 54.0077 6.26998 53.8077 6.32998C53.6077 6.38998 53.4277 6.46998 53.2677 6.56998C53.1077 6.66998 52.9697 6.78398 52.8537 6.91198C52.7377 7.03998 52.6477 7.17198 52.5837 7.30798H52.5597C52.5597 7.14798 52.5557 6.99198 52.5477 6.83998C52.5397 6.68798 52.5357 6.53598 52.5357 6.38398H51.6477C51.6477 6.56798 51.6557 6.77198 51.6717 6.99598C51.6877 7.21998 51.6957 7.45998 51.6957 7.71598V12H52.6317ZM58.2237 12.144C58.7517 12.144 59.2157 12.058 59.6157 11.886C60.0157 11.714 60.3837 11.412 60.7197 10.98L60.0117 10.428C59.7877 10.708 59.5357 10.92 59.2557 11.064C58.9757 11.208 58.6317 11.28 58.2237 11.28C57.9677 11.28 57.7317 11.232 57.5157 11.136C57.2997 11.04 57.1117 10.91 56.9517 10.746C56.7917 10.582 56.6617 10.39 56.5617 10.17C56.4617 9.94998 56.4037 9.71998 56.3877 9.47998H60.9237V9.17998C60.9237 8.71598 60.8597 8.30198 60.7317 7.93798C60.6037 7.57398 60.4217 7.26598 60.1857 7.01398C59.9497 6.76198 59.6677 6.56998 59.3397 6.43798C59.0117 6.30598 58.6517 6.23998 58.2597 6.23998C57.8437 6.23998 57.4597 6.31198 57.1077 6.45598C56.7557 6.59998 56.4517 6.80198 56.1957 7.06198C55.9397 7.32198 55.7397 7.63398 55.5957 7.99798C55.4517 8.36198 55.3797 8.75998 55.3797 9.19198C55.3797 9.59998 55.4457 9.98398 55.5777 10.344C55.7097 10.704 55.8977 11.016 56.1417 11.28C56.3857 11.544 56.6837 11.754 57.0357 11.91C57.3877 12.066 57.7837 12.144 58.2237 12.144ZM59.9157 8.68798H56.3877C56.4517 8.20798 56.6437 7.82398 56.9637 7.53598C57.2837 7.24798 57.7037 7.10398 58.2237 7.10398C58.7437 7.10398 59.1517 7.24798 59.4477 7.53598C59.7437 7.82398 59.8997 8.20798 59.9157 8.68798ZM64.8597 12.144C65.3637 12.144 65.8057 12.034 66.1857 11.814C66.5657 11.594 66.8437 11.324 67.0197 11.004H67.0437V12H67.9797V2.92798H67.0437V7.19998H67.0197C66.7637 6.89598 66.4657 6.65998 66.1257 6.49198C65.7857 6.32398 65.4117 6.23998 65.0037 6.23998C64.5637 6.23998 64.1617 6.31398 63.7977 6.46198C63.4337 6.60998 63.1237 6.81598 62.8677 7.07998C62.6117 7.34398 62.4117 7.65598 62.2677 8.01598C62.1237 8.37598 62.0517 8.76798 62.0517 9.19198C62.0517 9.61598 62.1237 10.008 62.2677 10.368C62.4117 10.728 62.6097 11.04 62.8617 11.304C63.1137 11.568 63.4117 11.774 63.7557 11.922C64.0997 12.07 64.4677 12.144 64.8597 12.144ZM65.0517 11.28C64.7477 11.28 64.4737 11.226 64.2297 11.118C63.9857 11.01 63.7757 10.862 63.5997 10.674C63.4237 10.486 63.2897 10.266 63.1977 10.014C63.1057 9.76198 63.0597 9.48798 63.0597 9.19198C63.0597 8.89598 63.1057 8.62198 63.1977 8.36998C63.2897 8.11798 63.4237 7.89798 63.5997 7.70998C63.7757 7.52198 63.9857 7.37398 64.2297 7.26598C64.4737 7.15798 64.7477 7.10398 65.0517 7.10398C65.3557 7.10398 65.6297 7.15798 65.8737 7.26598C66.1177 7.37398 66.3277 7.52198 66.5037 7.70998C66.6797 7.89798 66.8137 8.11798 66.9057 8.36998C66.9977 8.62198 67.0437 8.89598 67.0437 9.19198C67.0437 9.48798 66.9977 9.76198 66.9057 10.014C66.8137 10.266 66.6797 10.486 66.5037 10.674C66.3277 10.862 66.1177 11.01 65.8737 11.118C65.6297 11.226 65.3557 11.28 65.0517 11.28ZM76.1157 12.144C76.5077 12.144 76.8757 12.07 77.2197 11.922C77.5637 11.774 77.8617 11.568 78.1137 11.304C78.3657 11.04 78.5637 10.728 78.7077 10.368C78.8517 10.008 78.9237 9.61598 78.9237 9.19198C78.9237 8.76798 78.8517 8.37598 78.7077 8.01598C78.5637 7.65598 78.3637 7.34398 78.1077 7.07998C77.8517 6.81598 77.5417 6.60998 77.1777 6.46198C76.8137 6.31398 76.4117 6.23998 75.9717 6.23998C75.5637 6.23998 75.1897 6.32398 74.8497 6.49198C74.5097 6.65998 74.2117 6.89598 73.9557 7.19998H73.9317V2.92798H72.9957V12H73.9317V11.004H73.9557C74.1317 11.324 74.4097 11.594 74.7897 11.814C75.1697 12.034 75.6117 12.144 76.1157 12.144ZM75.9237 11.28C75.6197 11.28 75.3457 11.226 75.1017 11.118C74.8577 11.01 74.6477 10.862 74.4717 10.674C74.2957 10.486 74.1617 10.266 74.0697 10.014C73.9777 9.76198 73.9317 9.48798 73.9317 9.19198C73.9317 8.89598 73.9777 8.62198 74.0697 8.36998C74.1617 8.11798 74.2957 7.89798 74.4717 7.70998C74.6477 7.52198 74.8577 7.37398 75.1017 7.26598C75.3457 7.15798 75.6197 7.10398 75.9237 7.10398C76.2277 7.10398 76.5017 7.15798 76.7457 7.26598C76.9897 7.37398 77.1997 7.52198 77.3757 7.70998C77.5517 7.89798 77.6857 8.11798 77.7777 8.36998C77.8697 8.62198 77.9157 8.89598 77.9157 9.19198C77.9157 9.48798 77.8697 9.76198 77.7777 10.014C77.6857 10.266 77.5517 10.486 77.3757 10.674C77.1997 10.862 76.9897 11.01 76.7457 11.118C76.5017 11.226 76.2277 11.28 75.9237 11.28ZM80.5677 14.88C80.8477 14.88 81.0857 14.842 81.2817 14.766C81.4777 14.69 81.6457 14.582 81.7857 14.442C81.9257 14.302 82.0457 14.134 82.1457 13.938C82.2457 13.742 82.3437 13.524 82.4397 13.284L85.1517 6.38398H84.1317L82.4637 10.788H82.4397L80.6997 6.38398H79.6077L81.9357 12.036L81.5517 13.092C81.4477 13.372 81.3237 13.596 81.1797 13.764C81.0357 13.932 80.8117 14.016 80.5077 14.016C80.3717 14.016 80.2517 14.01 80.1477 13.998C80.0437 13.986 79.9437 13.96 79.8477 13.92L79.7277 14.736C79.8557 14.8 79.9937 14.84 80.1417 14.856C80.2897 14.872 80.4317 14.88 80.5677 14.88ZM93.7077 12.216C94.2597 12.216 94.8057 12.152 95.3457 12.024C95.8857 11.896 96.3997 11.696 96.8877 11.424V7.24798H93.9237V8.18398H95.8797V10.788C95.5677 10.948 95.2237 11.07 94.8477 11.154C94.4717 11.238 94.1117 11.28 93.7677 11.28C93.2477 11.28 92.7717 11.192 92.3397 11.016C91.9077 10.84 91.5377 10.594 91.2297 10.278C90.9217 9.96198 90.6817 9.58798 90.5097 9.15598C90.3377 8.72398 90.2517 8.25598 90.2517 7.75198C90.2517 7.23998 90.3377 6.76798 90.5097 6.33598C90.6817 5.90398 90.9217 5.53198 91.2297 5.21998C91.5377 4.90798 91.8997 4.66398 92.3157 4.48798C92.7317 4.31198 93.1837 4.22398 93.6717 4.22398C94.1037 4.22398 94.5257 4.30798 94.9377 4.47598C95.3497 4.64398 95.6997 4.88398 95.9877 5.19598L96.7437 4.40398C96.3357 3.99598 95.8737 3.70798 95.3577 3.53998C94.8417 3.37198 94.3037 3.28798 93.7437 3.28798C93.1037 3.28798 92.5077 3.39598 91.9557 3.61198C91.4037 3.82798 90.9197 4.12998 90.5037 4.51798C90.0877 4.90598 89.7617 5.37398 89.5257 5.92198C89.2897 6.46998 89.1717 7.07998 89.1717 7.75198C89.1717 8.41598 89.2837 9.02198 89.5077 9.56998C89.7317 10.118 90.0457 10.588 90.4497 10.98C90.8537 11.372 91.3317 11.676 91.8837 11.892C92.4357 12.108 93.0437 12.216 93.7077 12.216ZM101.508 12.144C101.94 12.144 102.34 12.072 102.708 11.928C103.076 11.784 103.392 11.582 103.656 11.322C103.92 11.062 104.128 10.752 104.28 10.392C104.432 10.032 104.508 9.63198 104.508 9.19198C104.508 8.75198 104.432 8.35198 104.28 7.99198C104.128 7.63198 103.92 7.32198 103.656 7.06198C103.392 6.80198 103.076 6.59998 102.708 6.45598C102.34 6.31198 101.94 6.23998 101.508 6.23998C101.076 6.23998 100.676 6.31198 100.308 6.45598C99.9397 6.59998 99.6237 6.80198 99.3597 7.06198C99.0957 7.32198 98.8877 7.63198 98.7357 7.99198C98.5837 8.35198 98.5077 8.75198 98.5077 9.19198C98.5077 9.63198 98.5837 10.032 98.7357 10.392C98.8877 10.752 99.0957 11.062 99.3597 11.322C99.6237 11.582 99.9397 11.784 100.308 11.928C100.676 12.072 101.076 12.144 101.508 12.144ZM101.508 11.28C101.204 11.28 100.93 11.226 100.686 11.118C100.442 11.01 100.232 10.862 100.056 10.674C99.8797 10.486 99.7457 10.266 99.6537 10.014C99.5617 9.76198 99.5157 9.48798 99.5157 9.19198C99.5157 8.89598 99.5617 8.62198 99.6537 8.36998C99.7457 8.11798 99.8797 7.89798 100.056 7.70998C100.232 7.52198 100.442 7.37398 100.686 7.26598C100.93 7.15798 101.204 7.10398 101.508 7.10398C101.812 7.10398 102.086 7.15798 102.33 7.26598C102.574 7.37398 102.784 7.52198 102.96 7.70998C103.136 7.89798 103.27 8.11798 103.362 8.36998C103.454 8.62198 103.5 8.89598 103.5 9.19198C103.5 9.48798 103.454 9.76198 103.362 10.014C103.27 10.266 103.136 10.486 102.96 10.674C102.784 10.862 102.574 11.01 102.33 11.118C102.086 11.226 101.812 11.28 101.508 11.28ZM108.636 12.144C109.068 12.144 109.468 12.072 109.836 11.928C110.204 11.784 110.52 11.582 110.784 11.322C111.048 11.062 111.256 10.752 111.408 10.392C111.56 10.032 111.636 9.63198 111.636 9.19198C111.636 8.75198 111.56 8.35198 111.408 7.99198C111.256 7.63198 111.048 7.32198 110.784 7.06198C110.52 6.80198 110.204 6.59998 109.836 6.45598C109.468 6.31198 109.068 6.23998 108.636 6.23998C108.204 6.23998 107.804 6.31198 107.436 6.45598C107.068 6.59998 106.752 6.80198 106.488 7.06198C106.224 7.32198 106.016 7.63198 105.864 7.99198C105.712 8.35198 105.636 8.75198 105.636 9.19198C105.636 9.63198 105.712 10.032 105.864 10.392C106.016 10.752 106.224 11.062 106.488 11.322C106.752 11.582 107.068 11.784 107.436 11.928C107.804 12.072 108.204 12.144 108.636 12.144ZM108.636 11.28C108.332 11.28 108.058 11.226 107.814 11.118C107.57 11.01 107.36 10.862 107.184 10.674C107.008 10.486 106.874 10.266 106.782 10.014C106.69 9.76198 106.644 9.48798 106.644 9.19198C106.644 8.89598 106.69 8.62198 106.782 8.36998C106.874 8.11798 107.008 7.89798 107.184 7.70998C107.36 7.52198 107.57 7.37398 107.814 7.26598C108.058 7.15798 108.332 7.10398 108.636 7.10398C108.94 7.10398 109.214 7.15798 109.458 7.26598C109.702 7.37398 109.912 7.52198 110.088 7.70998C110.264 7.89798 110.398 8.11798 110.49 8.36998C110.582 8.62198 110.628 8.89598 110.628 9.19198C110.628 9.48798 110.582 9.76198 110.49 10.014C110.398 10.266 110.264 10.486 110.088 10.674C109.912 10.862 109.702 11.01 109.458 11.118C109.214 11.226 108.94 11.28 108.636 11.28ZM115.572 12.144C116.076 12.144 116.518 12.034 116.898 11.814C117.278 11.594 117.556 11.324 117.732 11.004H117.756V12H118.692V2.92798H117.756V7.19998H117.732C117.476 6.89598 117.178 6.65998 116.838 6.49198C116.498 6.32398 116.124 6.23998 115.716 6.23998C115.276 6.23998 114.874 6.31398 114.51 6.46198C114.146 6.60998 113.836 6.81598 113.58 7.07998C113.324 7.34398 113.124 7.65598 112.98 8.01598C112.836 8.37598 112.764 8.76798 112.764 9.19198C112.764 9.61598 112.836 10.008 112.98 10.368C113.124 10.728 113.322 11.04 113.574 11.304C113.826 11.568 114.124 11.774 114.468 11.922C114.812 12.07 115.18 12.144 115.572 12.144ZM115.764 11.28C115.46 11.28 115.186 11.226 114.942 11.118C114.698 11.01 114.488 10.862 114.312 10.674C114.136 10.486 114.002 10.266 113.91 10.014C113.818 9.76198 113.772 9.48798 113.772 9.19198C113.772 8.89598 113.818 8.62198 113.91 8.36998C114.002 8.11798 114.136 7.89798 114.312 7.70998C114.488 7.52198 114.698 7.37398 114.942 7.26598C115.186 7.15798 115.46 7.10398 115.764 7.10398C116.068 7.10398 116.342 7.15798 116.586 7.26598C116.83 7.37398 117.04 7.52198 117.216 7.70998C117.392 7.89798 117.526 8.11798 117.618 8.36998C117.71 8.62198 117.756 8.89598 117.756 9.19198C117.756 9.48798 117.71 9.76198 117.618 10.014C117.526 10.266 117.392 10.486 117.216 10.674C117.04 10.862 116.83 11.01 116.586 11.118C116.342 11.226 116.068 11.28 115.764 11.28ZM123.696 12C123.976 12 124.272 11.968 124.584 11.904C124.896 11.84 125.206 11.738 125.514 11.598C125.822 11.458 126.118 11.276 126.402 11.052C126.686 10.828 126.936 10.558 127.152 10.242C127.368 9.92598 127.54 9.56198 127.668 9.14998C127.796 8.73798 127.86 8.27198 127.86 7.75198C127.86 7.23198 127.796 6.76598 127.668 6.35398C127.54 5.94198 127.368 5.57798 127.152 5.26198C126.936 4.94598 126.686 4.67598 126.402 4.45198C126.118 4.22798 125.822 4.04598 125.514 3.90598C125.206 3.76598 124.896 3.66398 124.584 3.59998C124.272 3.53598 123.976 3.50398 123.696 3.50398H120.432V12H123.696ZM123.36 11.064H121.44V4.43998H123.36C123.848 4.43998 124.3 4.50398 124.716 4.63198C125.132 4.75998 125.492 4.95798 125.796 5.22598C126.1 5.49398 126.34 5.83598 126.516 6.25198C126.692 6.66798 126.78 7.16798 126.78 7.75198C126.78 8.33598 126.692 8.83598 126.516 9.25198C126.34 9.66798 126.1 10.01 125.796 10.278C125.492 10.546 125.132 10.744 124.716 10.872C124.3 11 123.848 11.064 123.36 11.064ZM131.076 12.144C131.508 12.144 131.878 12.052 132.186 11.868C132.494 11.684 132.74 11.448 132.924 11.16H132.948C132.948 11.28 132.95 11.418 132.954 11.574C132.958 11.73 132.976 11.872 133.008 12H133.908C133.884 11.856 133.864 11.698 133.848 11.526C133.832 11.354 133.824 11.188 133.824 11.028V8.61598C133.824 7.81598 133.64 7.21998 133.272 6.82798C132.904 6.43598 132.304 6.23998 131.472 6.23998C131.064 6.23998 130.662 6.30998 130.266 6.44998C129.87 6.58998 129.528 6.80798 129.24 7.10398L129.828 7.71598C130.052 7.50798 130.31 7.35398 130.602 7.25398C130.894 7.15398 131.192 7.10398 131.496 7.10398C131.936 7.10398 132.278 7.20798 132.522 7.41598C132.766 7.62398 132.888 7.93198 132.888 8.33998V8.50798H132.528C132.184 8.50798 131.806 8.52398 131.394 8.55598C130.982 8.58798 130.598 8.66798 130.242 8.79598C129.886 8.92398 129.588 9.11998 129.348 9.38398C129.108 9.64798 128.988 10.012 128.988 10.476C128.988 10.748 129.044 10.988 129.156 11.196C129.268 11.404 129.418 11.578 129.606 11.718C129.794 11.858 130.014 11.964 130.266 12.036C130.518 12.108 130.788 12.144 131.076 12.144ZM131.232 11.352C130.88 11.352 130.586 11.278 130.35 11.13C130.114 10.982 129.996 10.732 129.996 10.38C129.996 9.99598 130.172 9.71998 130.524 9.55198C130.876 9.38398 131.352 9.29998 131.952 9.29998H132.888V9.65998C132.88 9.89198 132.84 10.11 132.768 10.314C132.696 10.518 132.592 10.696 132.456 10.848C132.32 11 132.15 11.122 131.946 11.214C131.742 11.306 131.504 11.352 131.232 11.352ZM137.568 12.144C137.744 12.144 137.93 12.128 138.126 12.096C138.322 12.064 138.5 12.012 138.66 11.94L138.624 11.088C138.496 11.152 138.36 11.2 138.216 11.232C138.072 11.264 137.932 11.28 137.796 11.28C137.588 11.28 137.428 11.246 137.316 11.178C137.204 11.11 137.12 11.018 137.064 10.902C137.008 10.786 136.976 10.65 136.968 10.494C136.96 10.338 136.956 10.168 136.956 9.98398V7.17598H138.612V6.38398H136.956V4.78798H136.02V6.38398H134.796V7.17598H136.02V10.26C136.02 10.548 136.038 10.81 136.074 11.046C136.11 11.282 136.184 11.48 136.296 11.64C136.408 11.8 136.564 11.924 136.764 12.012C136.964 12.1 137.232 12.144 137.568 12.144ZM141.528 12.144C141.96 12.144 142.33 12.052 142.638 11.868C142.946 11.684 143.192 11.448 143.376 11.16H143.4C143.4 11.28 143.402 11.418 143.406 11.574C143.41 11.73 143.428 11.872 143.46 12H144.36C144.336 11.856 144.316 11.698 144.3 11.526C144.284 11.354 144.276 11.188 144.276 11.028V8.61598C144.276 7.81598 144.092 7.21998 143.724 6.82798C143.356 6.43598 142.756 6.23998 141.924 6.23998C141.516 6.23998 141.114 6.30998 140.718 6.44998C140.322 6.58998 139.98 6.80798 139.692 7.10398L140.28 7.71598C140.504 7.50798 140.762 7.35398 141.054 7.25398C141.346 7.15398 141.644 7.10398 141.948 7.10398C142.388 7.10398 142.73 7.20798 142.974 7.41598C143.218 7.62398 143.34 7.93198 143.34 8.33998V8.50798H142.98C142.636 8.50798 142.258 8.52398 141.846 8.55598C141.434 8.58798 141.05 8.66798 140.694 8.79598C140.338 8.92398 140.04 9.11998 139.8 9.38398C139.56 9.64798 139.44 10.012 139.44 10.476C139.44 10.748 139.496 10.988 139.608 11.196C139.72 11.404 139.87 11.578 140.058 11.718C140.246 11.858 140.466 11.964 140.718 12.036C140.97 12.108 141.24 12.144 141.528 12.144ZM141.684 11.352C141.332 11.352 141.038 11.278 140.802 11.13C140.566 10.982 140.448 10.732 140.448 10.38C140.448 9.99598 140.624 9.71998 140.976 9.55198C141.328 9.38398 141.804 9.29998 142.404 9.29998H143.34V9.65998C143.332 9.89198 143.292 10.11 143.22 10.314C143.148 10.518 143.044 10.696 142.908 10.848C142.772 11 142.602 11.122 142.398 11.214C142.194 11.306 141.956 11.352 141.684 11.352Z" fill="black"/>
<circle cx="8" cy="8" r="8" fill="#1C0D3F"/>
<path d="M12.3128 9.34455C12.2817 8.01945 11.5502 6.96764 10.4335 6.55652V4.25025C10.1515 4.06999 9.85139 3.92097 9.53814 3.80639V8.76804C9.53814 9.75093 9.08216 10.1898 8.34937 10.1898C7.63598 10.1898 7.03923 9.65101 7.03923 8.74995C7.03923 7.74422 7.82312 7.13002 8.84954 7.13002C8.94462 7.1283 9.04142 7.13325 9.13649 7.14811V6.27009C9.04142 6.25373 8.94634 6.24554 8.84954 6.24727C7.32618 6.24727 6.13246 7.18106 6.13246 8.75189C6.13246 10.2622 7.20976 11.0681 8.41017 11.0681C8.97911 11.0681 9.47109 10.8747 9.81064 10.5422C10.15 10.2096 10.4371 9.72961 10.4371 8.88605V7.51164C11.057 7.82132 11.4308 8.57141 11.4325 9.42983C11.4293 11.0465 9.92879 12.4128 8.16935 12.4128C8.12839 12.4128 8.09713 12.4128 8.05617 12.411C6.8493 12.4095 5.78838 11.9736 4.92903 11.1137C4.31072 10.4946 3.88773 9.70657 3.7172 8.84987C3.54667 7.99145 3.63355 7.10375 3.96966 6.29443C4.30425 5.48684 4.87147 4.79554 5.59952 4.30904C6.32757 3.82255 7.18368 3.56369 8.05919 3.56369V2.66284C7.35895 2.66284 6.6654 2.80046 6.01927 3.0675C5.37315 3.33454 4.78459 3.72757 4.28938 4.22074C3.28904 5.21828 2.72656 6.57289 2.72656 7.98499C2.72656 9.39688 3.28731 10.7517 4.28593 11.751C5.28454 12.7502 6.6406 13.3121 8.05423 13.3121H8.16741C8.60204 13.3121 9.03495 13.2449 9.45147 13.1155C9.45319 13.1155 9.4547 13.1138 9.45643 13.1138C10.0581 12.927 10.6092 12.6092 11.0716 12.1834C11.8702 11.4462 12.3098 10.4717 12.313 9.43479C12.3145 9.43134 12.3128 9.34627 12.3128 9.34455Z" fill="white"/>
</svg>
