<?xml version="1.0" encoding="UTF-8"?>
<svg width="166px" height="30px" viewBox="0 0 166 30" version="1.1" xmlns="http://www.w3.org/2000/svg" xmlns:xlink="http://www.w3.org/1999/xlink">
    <title>6300A1F1-E21B-48CE-9FAF-E7B0C7CC9691</title>
    <g id="Design" stroke="none" stroke-width="1" fill="none" fill-rule="evenodd">
        <g id="Specification" transform="translate(-20.000000, -20.000000)">
            <g id="watermark/large" transform="translate(20.000000, 20.000000)">
                <rect id="Rectangle" stroke="#DBE4EC" fill-opacity="0.85" fill="#FFFFFF" x="0.5" y="0.5" width="165" height="29" rx="6"></rect>
                <path d="M33.064,19 L33.064,15.184 L34.768,15.184 C35.064,15.184 35.376,15.148 35.704,15.076 C36.032,15.004 36.334,14.88 36.61,14.704 C36.886,14.528 37.112,14.288 37.288,13.984 C37.464,13.68 37.552,13.296 37.552,12.832 C37.552,12.392 37.47,12.022 37.306,11.722 C37.142,11.422 36.922,11.182 36.646,11.002 C36.37,10.822 36.054,10.694 35.698,10.618 C35.342,10.542 34.968,10.504 34.576,10.504 L34.576,10.504 L32.056,10.504 L32.056,19 L33.064,19 Z M34.768,14.248 L33.064,14.248 L33.064,11.44 L34.768,11.44 C35.272,11.44 35.682,11.554 35.998,11.782 C36.314,12.01 36.472,12.364 36.472,12.844 C36.472,13.324 36.314,13.678 35.998,13.906 C35.682,14.134 35.272,14.248 34.768,14.248 L34.768,14.248 Z M41.68,19.144 C42.112,19.144 42.512,19.072 42.88,18.928 C43.248,18.784 43.564,18.582 43.828,18.322 C44.092,18.062 44.3,17.752 44.452,17.392 C44.604,17.032 44.68,16.632 44.68,16.192 C44.68,15.752 44.604,15.352 44.452,14.992 C44.3,14.632 44.092,14.322 43.828,14.062 C43.564,13.802 43.248,13.6 42.88,13.456 C42.512,13.312 42.112,13.24 41.68,13.24 C41.248,13.24 40.848,13.312 40.48,13.456 C40.112,13.6 39.796,13.802 39.532,14.062 C39.268,14.322 39.06,14.632 38.908,14.992 C38.756,15.352 38.68,15.752 38.68,16.192 C38.68,16.632 38.756,17.032 38.908,17.392 C39.06,17.752 39.268,18.062 39.532,18.322 C39.796,18.582 40.112,18.784 40.48,18.928 C40.848,19.072 41.248,19.144 41.68,19.144 Z M41.68,18.28 C41.376,18.28 41.102,18.226 40.858,18.118 C40.614,18.01 40.404,17.862 40.228,17.674 C40.052,17.486 39.918,17.266 39.826,17.014 C39.734,16.762 39.688,16.488 39.688,16.192 C39.688,15.896 39.734,15.622 39.826,15.37 C39.918,15.118 40.052,14.898 40.228,14.71 C40.404,14.522 40.614,14.374 40.858,14.266 C41.102,14.158 41.376,14.104 41.68,14.104 C41.984,14.104 42.258,14.158 42.502,14.266 C42.746,14.374 42.956,14.522 43.132,14.71 C43.308,14.898 43.442,15.118 43.534,15.37 C43.626,15.622 43.672,15.896 43.672,16.192 C43.672,16.488 43.626,16.762 43.534,17.014 C43.442,17.266 43.308,17.486 43.132,17.674 C42.956,17.862 42.746,18.01 42.502,18.118 C42.258,18.226 41.984,18.28 41.68,18.28 Z M48.196,19 L49.612,14.68 L49.636,14.68 L51.232,19 L52.156,19 L53.968,13.384 L52.96,13.384 L51.688,17.704 L51.664,17.704 L50.188,13.384 L49.204,13.384 L47.752,17.704 L47.728,17.704 L46.444,13.384 L45.412,13.384 L47.236,19 L48.196,19 Z M57.544,19.144 C58.072,19.144 58.536,19.058 58.936,18.886 C59.336,18.714 59.704,18.412 60.04,17.98 L60.04,17.98 L59.332,17.428 C59.108,17.708 58.856,17.92 58.576,18.064 C58.296,18.208 57.952,18.28 57.544,18.28 C57.288,18.28 57.052,18.232 56.836,18.136 C56.62,18.04 56.432,17.91 56.272,17.746 C56.112,17.582 55.982,17.39 55.882,17.17 C55.782,16.95 55.724,16.72 55.708,16.48 L55.708,16.48 L60.244,16.48 L60.244,16.18 C60.244,15.716 60.18,15.302 60.052,14.938 C59.924,14.574 59.742,14.266 59.506,14.014 C59.27,13.762 58.988,13.57 58.66,13.438 C58.332,13.306 57.972,13.24 57.58,13.24 C57.164,13.24 56.78,13.312 56.428,13.456 C56.076,13.6 55.772,13.802 55.516,14.062 C55.26,14.322 55.06,14.634 54.916,14.998 C54.772,15.362 54.7,15.76 54.7,16.192 C54.7,16.6 54.766,16.984 54.898,17.344 C55.03,17.704 55.218,18.016 55.462,18.28 C55.706,18.544 56.004,18.754 56.356,18.91 C56.708,19.066 57.104,19.144 57.544,19.144 Z M59.236,15.688 L55.708,15.688 C55.772,15.208 55.964,14.824 56.284,14.536 C56.604,14.248 57.024,14.104 57.544,14.104 C58.064,14.104 58.472,14.248 58.768,14.536 C59.064,14.824 59.22,15.208 59.236,15.688 L59.236,15.688 Z M62.632,19 L62.632,16.264 C62.632,15.616 62.762,15.106 63.022,14.734 C63.282,14.362 63.7,14.176 64.276,14.176 C64.452,14.176 64.62,14.2 64.78,14.248 L64.78,14.248 L64.84,13.3 C64.776,13.276 64.712,13.26 64.648,13.252 C64.584,13.244 64.52,13.24 64.456,13.24 C64.224,13.24 64.008,13.27 63.808,13.33 C63.608,13.39 63.428,13.47 63.268,13.57 C63.108,13.67 62.97,13.784 62.854,13.912 C62.738,14.04 62.648,14.172 62.584,14.308 L62.584,14.308 L62.56,14.308 C62.56,14.148 62.556,13.992 62.548,13.84 C62.54,13.688 62.536,13.536 62.536,13.384 L62.536,13.384 L61.648,13.384 C61.648,13.568 61.656,13.772 61.672,13.996 C61.688,14.22 61.696,14.46 61.696,14.716 L61.696,14.716 L61.696,19 L62.632,19 Z M68.224,19.144 C68.752,19.144 69.216,19.058 69.616,18.886 C70.016,18.714 70.384,18.412 70.72,17.98 L70.72,17.98 L70.012,17.428 C69.788,17.708 69.536,17.92 69.256,18.064 C68.976,18.208 68.632,18.28 68.224,18.28 C67.968,18.28 67.732,18.232 67.516,18.136 C67.3,18.04 67.112,17.91 66.952,17.746 C66.792,17.582 66.662,17.39 66.562,17.17 C66.462,16.95 66.404,16.72 66.388,16.48 L66.388,16.48 L70.924,16.48 L70.924,16.18 C70.924,15.716 70.86,15.302 70.732,14.938 C70.604,14.574 70.422,14.266 70.186,14.014 C69.95,13.762 69.668,13.57 69.34,13.438 C69.012,13.306 68.652,13.24 68.26,13.24 C67.844,13.24 67.46,13.312 67.108,13.456 C66.756,13.6 66.452,13.802 66.196,14.062 C65.94,14.322 65.74,14.634 65.596,14.998 C65.452,15.362 65.38,15.76 65.38,16.192 C65.38,16.6 65.446,16.984 65.578,17.344 C65.71,17.704 65.898,18.016 66.142,18.28 C66.386,18.544 66.684,18.754 67.036,18.91 C67.388,19.066 67.784,19.144 68.224,19.144 Z M69.916,15.688 L66.388,15.688 C66.452,15.208 66.644,14.824 66.964,14.536 C67.284,14.248 67.704,14.104 68.224,14.104 C68.744,14.104 69.152,14.248 69.448,14.536 C69.744,14.824 69.9,15.208 69.916,15.688 L69.916,15.688 Z M74.86,19.144 C75.364,19.144 75.806,19.034 76.186,18.814 C76.566,18.594 76.844,18.324 77.02,18.004 L77.02,18.004 L77.044,18.004 L77.044,19 L77.98,19 L77.98,9.928 L77.044,9.928 L77.044,14.2 L77.02,14.2 C76.764,13.896 76.466,13.66 76.126,13.492 C75.786,13.324 75.412,13.24 75.004,13.24 C74.564,13.24 74.162,13.314 73.798,13.462 C73.434,13.61 73.124,13.816 72.868,14.08 C72.612,14.344 72.412,14.656 72.268,15.016 C72.124,15.376 72.052,15.768 72.052,16.192 C72.052,16.616 72.124,17.008 72.268,17.368 C72.412,17.728 72.61,18.04 72.862,18.304 C73.114,18.568 73.412,18.774 73.756,18.922 C74.1,19.07 74.468,19.144 74.86,19.144 Z M75.052,18.28 C74.748,18.28 74.474,18.226 74.23,18.118 C73.986,18.01 73.776,17.862 73.6,17.674 C73.424,17.486 73.29,17.266 73.198,17.014 C73.106,16.762 73.06,16.488 73.06,16.192 C73.06,15.896 73.106,15.622 73.198,15.37 C73.29,15.118 73.424,14.898 73.6,14.71 C73.776,14.522 73.986,14.374 74.23,14.266 C74.474,14.158 74.748,14.104 75.052,14.104 C75.356,14.104 75.63,14.158 75.874,14.266 C76.118,14.374 76.328,14.522 76.504,14.71 C76.68,14.898 76.814,15.118 76.906,15.37 C76.998,15.622 77.044,15.896 77.044,16.192 C77.044,16.488 76.998,16.762 76.906,17.014 C76.814,17.266 76.68,17.486 76.504,17.674 C76.328,17.862 76.118,18.01 75.874,18.118 C75.63,18.226 75.356,18.28 75.052,18.28 Z M86.116,19.144 C86.508,19.144 86.876,19.07 87.22,18.922 C87.564,18.774 87.862,18.568 88.114,18.304 C88.366,18.04 88.564,17.728 88.708,17.368 C88.852,17.008 88.924,16.616 88.924,16.192 C88.924,15.768 88.852,15.376 88.708,15.016 C88.564,14.656 88.364,14.344 88.108,14.08 C87.852,13.816 87.542,13.61 87.178,13.462 C86.814,13.314 86.412,13.24 85.972,13.24 C85.564,13.24 85.19,13.324 84.85,13.492 C84.51,13.66 84.212,13.896 83.956,14.2 L83.956,14.2 L83.932,14.2 L83.932,9.928 L82.996,9.928 L82.996,19 L83.932,19 L83.932,18.004 L83.956,18.004 C84.132,18.324 84.41,18.594 84.79,18.814 C85.17,19.034 85.612,19.144 86.116,19.144 Z M85.924,18.28 C85.62,18.28 85.346,18.226 85.102,18.118 C84.858,18.01 84.648,17.862 84.472,17.674 C84.296,17.486 84.162,17.266 84.07,17.014 C83.978,16.762 83.932,16.488 83.932,16.192 C83.932,15.896 83.978,15.622 84.07,15.37 C84.162,15.118 84.296,14.898 84.472,14.71 C84.648,14.522 84.858,14.374 85.102,14.266 C85.346,14.158 85.62,14.104 85.924,14.104 C86.228,14.104 86.502,14.158 86.746,14.266 C86.99,14.374 87.2,14.522 87.376,14.71 C87.552,14.898 87.686,15.118 87.778,15.37 C87.87,15.622 87.916,15.896 87.916,16.192 C87.916,16.488 87.87,16.762 87.778,17.014 C87.686,17.266 87.552,17.486 87.376,17.674 C87.2,17.862 86.99,18.01 86.746,18.118 C86.502,18.226 86.228,18.28 85.924,18.28 Z M90.568,21.88 C90.848,21.88 91.086,21.842 91.282,21.766 C91.478,21.69 91.646,21.582 91.786,21.442 C91.926,21.302 92.046,21.134 92.146,20.938 C92.246,20.742 92.344,20.524 92.44,20.284 L92.44,20.284 L95.152,13.384 L94.132,13.384 L92.464,17.788 L92.44,17.788 L90.7,13.384 L89.608,13.384 L91.936,19.036 L91.552,20.092 C91.448,20.372 91.324,20.596 91.18,20.764 C91.036,20.932 90.812,21.016 90.508,21.016 C90.372,21.016 90.252,21.01 90.148,20.998 C90.044,20.986 89.944,20.96 89.848,20.92 L89.848,20.92 L89.728,21.736 C89.856,21.8 89.994,21.84 90.142,21.856 C90.29,21.872 90.432,21.88 90.568,21.88 Z M103.708,19.216 C104.26,19.216 104.806,19.152 105.346,19.024 C105.886,18.896 106.4,18.696 106.888,18.424 L106.888,18.424 L106.888,14.248 L103.924,14.248 L103.924,15.184 L105.88,15.184 L105.88,17.788 C105.568,17.948 105.224,18.07 104.848,18.154 C104.472,18.238 104.112,18.28 103.768,18.28 C103.248,18.28 102.772,18.192 102.34,18.016 C101.908,17.84 101.538,17.594 101.23,17.278 C100.922,16.962 100.682,16.588 100.51,16.156 C100.338,15.724 100.252,15.256 100.252,14.752 C100.252,14.24 100.338,13.768 100.51,13.336 C100.682,12.904 100.922,12.532 101.23,12.22 C101.538,11.908 101.9,11.664 102.316,11.488 C102.732,11.312 103.184,11.224 103.672,11.224 C104.104,11.224 104.526,11.308 104.938,11.476 C105.35,11.644 105.7,11.884 105.988,12.196 L105.988,12.196 L106.744,11.404 C106.336,10.996 105.874,10.708 105.358,10.54 C104.842,10.372 104.304,10.288 103.744,10.288 C103.104,10.288 102.508,10.396 101.956,10.612 C101.404,10.828 100.92,11.13 100.504,11.518 C100.088,11.906 99.762,12.374 99.526,12.922 C99.29,13.47 99.172,14.08 99.172,14.752 C99.172,15.416 99.284,16.022 99.508,16.57 C99.732,17.118 100.046,17.588 100.45,17.98 C100.854,18.372 101.332,18.676 101.884,18.892 C102.436,19.108 103.044,19.216 103.708,19.216 Z M111.508,19.144 C111.94,19.144 112.34,19.072 112.708,18.928 C113.076,18.784 113.392,18.582 113.656,18.322 C113.92,18.062 114.128,17.752 114.28,17.392 C114.432,17.032 114.508,16.632 114.508,16.192 C114.508,15.752 114.432,15.352 114.28,14.992 C114.128,14.632 113.92,14.322 113.656,14.062 C113.392,13.802 113.076,13.6 112.708,13.456 C112.34,13.312 111.94,13.24 111.508,13.24 C111.076,13.24 110.676,13.312 110.308,13.456 C109.94,13.6 109.624,13.802 109.36,14.062 C109.096,14.322 108.888,14.632 108.736,14.992 C108.584,15.352 108.508,15.752 108.508,16.192 C108.508,16.632 108.584,17.032 108.736,17.392 C108.888,17.752 109.096,18.062 109.36,18.322 C109.624,18.582 109.94,18.784 110.308,18.928 C110.676,19.072 111.076,19.144 111.508,19.144 Z M111.508,18.28 C111.204,18.28 110.93,18.226 110.686,18.118 C110.442,18.01 110.232,17.862 110.056,17.674 C109.88,17.486 109.746,17.266 109.654,17.014 C109.562,16.762 109.516,16.488 109.516,16.192 C109.516,15.896 109.562,15.622 109.654,15.37 C109.746,15.118 109.88,14.898 110.056,14.71 C110.232,14.522 110.442,14.374 110.686,14.266 C110.93,14.158 111.204,14.104 111.508,14.104 C111.812,14.104 112.086,14.158 112.33,14.266 C112.574,14.374 112.784,14.522 112.96,14.71 C113.136,14.898 113.27,15.118 113.362,15.37 C113.454,15.622 113.5,15.896 113.5,16.192 C113.5,16.488 113.454,16.762 113.362,17.014 C113.27,17.266 113.136,17.486 112.96,17.674 C112.784,17.862 112.574,18.01 112.33,18.118 C112.086,18.226 111.812,18.28 111.508,18.28 Z M118.636,19.144 C119.068,19.144 119.468,19.072 119.836,18.928 C120.204,18.784 120.52,18.582 120.784,18.322 C121.048,18.062 121.256,17.752 121.408,17.392 C121.56,17.032 121.636,16.632 121.636,16.192 C121.636,15.752 121.56,15.352 121.408,14.992 C121.256,14.632 121.048,14.322 120.784,14.062 C120.52,13.802 120.204,13.6 119.836,13.456 C119.468,13.312 119.068,13.24 118.636,13.24 C118.204,13.24 117.804,13.312 117.436,13.456 C117.068,13.6 116.752,13.802 116.488,14.062 C116.224,14.322 116.016,14.632 115.864,14.992 C115.712,15.352 115.636,15.752 115.636,16.192 C115.636,16.632 115.712,17.032 115.864,17.392 C116.016,17.752 116.224,18.062 116.488,18.322 C116.752,18.582 117.068,18.784 117.436,18.928 C117.804,19.072 118.204,19.144 118.636,19.144 Z M118.636,18.28 C118.332,18.28 118.058,18.226 117.814,18.118 C117.57,18.01 117.36,17.862 117.184,17.674 C117.008,17.486 116.874,17.266 116.782,17.014 C116.69,16.762 116.644,16.488 116.644,16.192 C116.644,15.896 116.69,15.622 116.782,15.37 C116.874,15.118 117.008,14.898 117.184,14.71 C117.36,14.522 117.57,14.374 117.814,14.266 C118.058,14.158 118.332,14.104 118.636,14.104 C118.94,14.104 119.214,14.158 119.458,14.266 C119.702,14.374 119.912,14.522 120.088,14.71 C120.264,14.898 120.398,15.118 120.49,15.37 C120.582,15.622 120.628,15.896 120.628,16.192 C120.628,16.488 120.582,16.762 120.49,17.014 C120.398,17.266 120.264,17.486 120.088,17.674 C119.912,17.862 119.702,18.01 119.458,18.118 C119.214,18.226 118.94,18.28 118.636,18.28 Z M125.572,19.144 C126.076,19.144 126.518,19.034 126.898,18.814 C127.278,18.594 127.556,18.324 127.732,18.004 L127.732,18.004 L127.756,18.004 L127.756,19 L128.692,19 L128.692,9.928 L127.756,9.928 L127.756,14.2 L127.732,14.2 C127.476,13.896 127.178,13.66 126.838,13.492 C126.498,13.324 126.124,13.24 125.716,13.24 C125.276,13.24 124.874,13.314 124.51,13.462 C124.146,13.61 123.836,13.816 123.58,14.08 C123.324,14.344 123.124,14.656 122.98,15.016 C122.836,15.376 122.764,15.768 122.764,16.192 C122.764,16.616 122.836,17.008 122.98,17.368 C123.124,17.728 123.322,18.04 123.574,18.304 C123.826,18.568 124.124,18.774 124.468,18.922 C124.812,19.07 125.18,19.144 125.572,19.144 Z M125.764,18.28 C125.46,18.28 125.186,18.226 124.942,18.118 C124.698,18.01 124.488,17.862 124.312,17.674 C124.136,17.486 124.002,17.266 123.91,17.014 C123.818,16.762 123.772,16.488 123.772,16.192 C123.772,15.896 123.818,15.622 123.91,15.37 C124.002,15.118 124.136,14.898 124.312,14.71 C124.488,14.522 124.698,14.374 124.942,14.266 C125.186,14.158 125.46,14.104 125.764,14.104 C126.068,14.104 126.342,14.158 126.586,14.266 C126.83,14.374 127.04,14.522 127.216,14.71 C127.392,14.898 127.526,15.118 127.618,15.37 C127.71,15.622 127.756,15.896 127.756,16.192 C127.756,16.488 127.71,16.762 127.618,17.014 C127.526,17.266 127.392,17.486 127.216,17.674 C127.04,17.862 126.83,18.01 126.586,18.118 C126.342,18.226 126.068,18.28 125.764,18.28 Z M133.696,19 C133.976,19 134.272,18.968 134.584,18.904 C134.896,18.84 135.206,18.738 135.514,18.598 C135.822,18.458 136.118,18.276 136.402,18.052 C136.686,17.828 136.936,17.558 137.152,17.242 C137.368,16.926 137.54,16.562 137.668,16.15 C137.796,15.738 137.86,15.272 137.86,14.752 C137.86,14.232 137.796,13.766 137.668,13.354 C137.54,12.942 137.368,12.578 137.152,12.262 C136.936,11.946 136.686,11.676 136.402,11.452 C136.118,11.228 135.822,11.046 135.514,10.906 C135.206,10.766 134.896,10.664 134.584,10.6 C134.272,10.536 133.976,10.504 133.696,10.504 L133.696,10.504 L130.432,10.504 L130.432,19 L133.696,19 Z M133.36,18.064 L131.44,18.064 L131.44,11.44 L133.36,11.44 C133.848,11.44 134.3,11.504 134.716,11.632 C135.132,11.76 135.492,11.958 135.796,12.226 C136.1,12.494 136.34,12.836 136.516,13.252 C136.692,13.668 136.78,14.168 136.78,14.752 C136.78,15.336 136.692,15.836 136.516,16.252 C136.34,16.668 136.1,17.01 135.796,17.278 C135.492,17.546 135.132,17.744 134.716,17.872 C134.3,18 133.848,18.064 133.36,18.064 L133.36,18.064 Z M141.076,19.144 C141.508,19.144 141.878,19.052 142.186,18.868 C142.494,18.684 142.74,18.448 142.924,18.16 L142.924,18.16 L142.948,18.16 C142.948,18.28 142.95,18.418 142.954,18.574 C142.958,18.73 142.976,18.872 143.008,19 L143.008,19 L143.908,19 C143.884,18.856 143.864,18.698 143.848,18.526 C143.832,18.354 143.824,18.188 143.824,18.028 L143.824,18.028 L143.824,15.616 C143.824,14.816 143.64,14.22 143.272,13.828 C142.904,13.436 142.304,13.24 141.472,13.24 C141.064,13.24 140.662,13.31 140.266,13.45 C139.87,13.59 139.528,13.808 139.24,14.104 L139.24,14.104 L139.828,14.716 C140.052,14.508 140.31,14.354 140.602,14.254 C140.894,14.154 141.192,14.104 141.496,14.104 C141.936,14.104 142.278,14.208 142.522,14.416 C142.766,14.624 142.888,14.932 142.888,15.34 L142.888,15.34 L142.888,15.508 L142.528,15.508 C142.184,15.508 141.806,15.524 141.394,15.556 C140.982,15.588 140.598,15.668 140.242,15.796 C139.886,15.924 139.588,16.12 139.348,16.384 C139.108,16.648 138.988,17.012 138.988,17.476 C138.988,17.748 139.044,17.988 139.156,18.196 C139.268,18.404 139.418,18.578 139.606,18.718 C139.794,18.858 140.014,18.964 140.266,19.036 C140.518,19.108 140.788,19.144 141.076,19.144 Z M141.232,18.352 C140.88,18.352 140.586,18.278 140.35,18.13 C140.114,17.982 139.996,17.732 139.996,17.38 C139.996,16.996 140.172,16.72 140.524,16.552 C140.876,16.384 141.352,16.3 141.952,16.3 L141.952,16.3 L142.888,16.3 L142.888,16.66 C142.88,16.892 142.84,17.11 142.768,17.314 C142.696,17.518 142.592,17.696 142.456,17.848 C142.32,18 142.15,18.122 141.946,18.214 C141.742,18.306 141.504,18.352 141.232,18.352 Z M147.568,19.144 C147.744,19.144 147.93,19.128 148.126,19.096 C148.322,19.064 148.5,19.012 148.66,18.94 L148.66,18.94 L148.624,18.088 C148.496,18.152 148.36,18.2 148.216,18.232 C148.072,18.264 147.932,18.28 147.796,18.28 C147.588,18.28 147.428,18.246 147.316,18.178 C147.204,18.11 147.12,18.018 147.064,17.902 C147.008,17.786 146.976,17.65 146.968,17.494 C146.96,17.338 146.956,17.168 146.956,16.984 L146.956,16.984 L146.956,14.176 L148.612,14.176 L148.612,13.384 L146.956,13.384 L146.956,11.788 L146.02,11.788 L146.02,13.384 L144.796,13.384 L144.796,14.176 L146.02,14.176 L146.02,17.26 C146.02,17.548 146.038,17.81 146.074,18.046 C146.11,18.282 146.184,18.48 146.296,18.64 C146.408,18.8 146.564,18.924 146.764,19.012 C146.964,19.1 147.232,19.144 147.568,19.144 Z M151.528,19.144 C151.96,19.144 152.33,19.052 152.638,18.868 C152.946,18.684 153.192,18.448 153.376,18.16 L153.376,18.16 L153.4,18.16 C153.4,18.28 153.402,18.418 153.406,18.574 C153.41,18.73 153.428,18.872 153.46,19 L153.46,19 L154.36,19 C154.336,18.856 154.316,18.698 154.3,18.526 C154.284,18.354 154.276,18.188 154.276,18.028 L154.276,18.028 L154.276,15.616 C154.276,14.816 154.092,14.22 153.724,13.828 C153.356,13.436 152.756,13.24 151.924,13.24 C151.516,13.24 151.114,13.31 150.718,13.45 C150.322,13.59 149.98,13.808 149.692,14.104 L149.692,14.104 L150.28,14.716 C150.504,14.508 150.762,14.354 151.054,14.254 C151.346,14.154 151.644,14.104 151.948,14.104 C152.388,14.104 152.73,14.208 152.974,14.416 C153.218,14.624 153.34,14.932 153.34,15.34 L153.34,15.34 L153.34,15.508 L152.98,15.508 C152.636,15.508 152.258,15.524 151.846,15.556 C151.434,15.588 151.05,15.668 150.694,15.796 C150.338,15.924 150.04,16.12 149.8,16.384 C149.56,16.648 149.44,17.012 149.44,17.476 C149.44,17.748 149.496,17.988 149.608,18.196 C149.72,18.404 149.87,18.578 150.058,18.718 C150.246,18.858 150.466,18.964 150.718,19.036 C150.97,19.108 151.24,19.144 151.528,19.144 Z M151.684,18.352 C151.332,18.352 151.038,18.278 150.802,18.13 C150.566,17.982 150.448,17.732 150.448,17.38 C150.448,16.996 150.624,16.72 150.976,16.552 C151.328,16.384 151.804,16.3 152.404,16.3 L152.404,16.3 L153.34,16.3 L153.34,16.66 C153.332,16.892 153.292,17.11 153.22,17.314 C153.148,17.518 153.044,17.696 152.908,17.848 C152.772,18 152.602,18.122 152.398,18.214 C152.194,18.306 151.956,18.352 151.684,18.352 Z" id="PoweredbyGoodData" fill="#000000" fill-rule="nonzero"></path>
                <g id="G-logo" transform="translate(10.000000, 7.000000)">
                    <g id="Combined-Shape">
                        <path d="M16,16 L15.7508207,15.9961932 C14.3870897,15.9544697 13.1092518,15.5714442 11.99984,14.9296499 C14.3917256,13.5456688 16,10.9606507 16,8 L16,8 L16,16 Z M10.5,8 C10.5,9.24802459 9.58550346,10.2824571 8.39005746,10.4697504 C9.00222774,12.3635623 10.3043407,13.9488042 11.99984,14.9296499 C10.8915159,15.571214 9.61331995,15.9544571 8.24917933,15.9961932 L8,16 L8,10.5 C8.13268728,10.5 8.26296022,10.489663 8.39005746,10.4697504 C8.13615106,9.69105076 8,8.86142527 8,8 L8,8 Z" fill="#6F6F6E"></path>
                        <path d="M16,8 C16,10.9606507 14.3917256,13.5456688 12.0011597,14.9290715 C10.3043407,13.9488042 9.00222774,12.3635623 8.38810795,10.4685312 C9.58519737,10.2828033 10.5,9.24823344 10.5,8 L16,8 Z" fill="#292627"></path>
                        <path d="M2.05620342,7.71206153 L5.94479272,11.601647 C4.55170823,12.9947315 2.64723441,13.8764266 0.537117797,13.9409859 L0.287938467,13.9447927 L0.287938467,8.44479272 C0.978547746,8.44479272 1.60375311,8.16476527 2.05620342,7.71206153 Z" fill="#8B8B8A" transform="translate(3.116366, 10.828427) rotate(-270.000000) translate(-3.116366, -10.828427) "></path>
                        <path d="M8.28793847,10.0552073 C8.28793847,12.2643463 7.39250797,14.2643463 5.94479272,15.7120615 L2.05520728,11.8234722 C2.50791102,11.3710219 2.78793847,10.7458166 2.78793847,10.0552073 L8.28793847,10.0552073 Z" fill="#3C3C3B" transform="translate(5.171573, 12.883634) rotate(-270.000000) translate(-5.171573, -12.883634) "></path>
                        <path d="M4.1114107,1.55431223e-15 L8,3.88958543 C6.60691551,5.28266992 4.7024417,6.16436507 2.59232508,6.22892436 L2.34314575,6.23273118 L2.34314575,0.732731184 C3.03375503,0.732731184 3.65896039,0.452703741 4.1114107,1.55431223e-15 Z" fill="#292627" transform="translate(5.171573, 3.116366) rotate(-180.000000) translate(-5.171573, -3.116366) "></path>
                        <path d="M6.23273118,2.34314575 C6.23273118,4.55228475 5.33730068,6.55228475 3.88958543,8 L2.49800181e-16,4.1114107 C0.452703741,3.65896039 0.732731184,3.03375503 0.732731184,2.34314575 L6.23273118,2.34314575 Z" fill="#575756" transform="translate(3.116366, 5.171573) rotate(-180.000000) translate(-3.116366, -5.171573) "></path>
                        <path d="M13.9447927,0.287938467 C13.9447927,2.49707747 13.0493622,4.49707747 11.601647,5.94479272 L7.71206153,2.05620342 C8.16476527,1.60375311 8.44479272,0.978547746 8.44479272,0.287938467 L13.9447927,0.287938467 Z" fill="#7C7B7B" transform="translate(10.828427, 3.116366) rotate(-90.000000) translate(-10.828427, -3.116366) "></path>
                    </g>
                </g>
            </g>
        </g>
    </g>
</svg>