<?xml version="1.0" encoding="UTF-8"?>
<svg width="146px" height="16px" viewBox="0 0 146 16" version="1.1" xmlns="http://www.w3.org/2000/svg" xmlns:xlink="http://www.w3.org/1999/xlink">
    <title>D0B673B3-75A5-4D41-AEDB-FA6BA9237378</title>
    <g id="Design" stroke="none" stroke-width="1" fill="none" fill-rule="evenodd">
        <g id="Specification" transform="translate(-30.000000, -70.000000)">
            <g id="watermark/small" transform="translate(30.000000, 70.000000)">
                <path d="M23.064,12 L23.064,8.184 L24.768,8.184 C25.064,8.184 25.376,8.148 25.704,8.076 C26.032,8.004 26.334,7.88 26.61,7.704 C26.886,7.528 27.112,7.288 27.288,6.984 C27.464,6.68 27.552,6.296 27.552,5.832 C27.552,5.392 27.47,5.022 27.306,4.722 C27.142,4.422 26.922,4.182 26.646,4.002 C26.37,3.822 26.054,3.694 25.698,3.618 C25.342,3.542 24.968,3.504 24.576,3.504 L24.576,3.504 L22.056,3.504 L22.056,12 L23.064,12 Z M24.768,7.248 L23.064,7.248 L23.064,4.44 L24.768,4.44 C25.272,4.44 25.682,4.554 25.998,4.782 C26.314,5.01 26.472,5.364 26.472,5.844 C26.472,6.324 26.314,6.678 25.998,6.906 C25.682,7.134 25.272,7.248 24.768,7.248 L24.768,7.248 Z M31.68,12.144 C32.112,12.144 32.512,12.072 32.88,11.928 C33.248,11.784 33.564,11.582 33.828,11.322 C34.092,11.062 34.3,10.752 34.452,10.392 C34.604,10.032 34.68,9.632 34.68,9.192 C34.68,8.752 34.604,8.352 34.452,7.992 C34.3,7.632 34.092,7.322 33.828,7.062 C33.564,6.802 33.248,6.6 32.88,6.456 C32.512,6.312 32.112,6.24 31.68,6.24 C31.248,6.24 30.848,6.312 30.48,6.456 C30.112,6.6 29.796,6.802 29.532,7.062 C29.268,7.322 29.06,7.632 28.908,7.992 C28.756,8.352 28.68,8.752 28.68,9.192 C28.68,9.632 28.756,10.032 28.908,10.392 C29.06,10.752 29.268,11.062 29.532,11.322 C29.796,11.582 30.112,11.784 30.48,11.928 C30.848,12.072 31.248,12.144 31.68,12.144 Z M31.68,11.28 C31.376,11.28 31.102,11.226 30.858,11.118 C30.614,11.01 30.404,10.862 30.228,10.674 C30.052,10.486 29.918,10.266 29.826,10.014 C29.734,9.762 29.688,9.488 29.688,9.192 C29.688,8.896 29.734,8.622 29.826,8.37 C29.918,8.118 30.052,7.898 30.228,7.71 C30.404,7.522 30.614,7.374 30.858,7.266 C31.102,7.158 31.376,7.104 31.68,7.104 C31.984,7.104 32.258,7.158 32.502,7.266 C32.746,7.374 32.956,7.522 33.132,7.71 C33.308,7.898 33.442,8.118 33.534,8.37 C33.626,8.622 33.672,8.896 33.672,9.192 C33.672,9.488 33.626,9.762 33.534,10.014 C33.442,10.266 33.308,10.486 33.132,10.674 C32.956,10.862 32.746,11.01 32.502,11.118 C32.258,11.226 31.984,11.28 31.68,11.28 Z M38.196,12 L39.612,7.68 L39.636,7.68 L41.232,12 L42.156,12 L43.968,6.384 L42.96,6.384 L41.688,10.704 L41.664,10.704 L40.188,6.384 L39.204,6.384 L37.752,10.704 L37.728,10.704 L36.444,6.384 L35.412,6.384 L37.236,12 L38.196,12 Z M47.544,12.144 C48.072,12.144 48.536,12.058 48.936,11.886 C49.336,11.714 49.704,11.412 50.04,10.98 L50.04,10.98 L49.332,10.428 C49.108,10.708 48.856,10.92 48.576,11.064 C48.296,11.208 47.952,11.28 47.544,11.28 C47.288,11.28 47.052,11.232 46.836,11.136 C46.62,11.04 46.432,10.91 46.272,10.746 C46.112,10.582 45.982,10.39 45.882,10.17 C45.782,9.95 45.724,9.72 45.708,9.48 L45.708,9.48 L50.244,9.48 L50.244,9.18 C50.244,8.716 50.18,8.302 50.052,7.938 C49.924,7.574 49.742,7.266 49.506,7.014 C49.27,6.762 48.988,6.57 48.66,6.438 C48.332,6.306 47.972,6.24 47.58,6.24 C47.164,6.24 46.78,6.312 46.428,6.456 C46.076,6.6 45.772,6.802 45.516,7.062 C45.26,7.322 45.06,7.634 44.916,7.998 C44.772,8.362 44.7,8.76 44.7,9.192 C44.7,9.6 44.766,9.984 44.898,10.344 C45.03,10.704 45.218,11.016 45.462,11.28 C45.706,11.544 46.004,11.754 46.356,11.91 C46.708,12.066 47.104,12.144 47.544,12.144 Z M49.236,8.688 L45.708,8.688 C45.772,8.208 45.964,7.824 46.284,7.536 C46.604,7.248 47.024,7.104 47.544,7.104 C48.064,7.104 48.472,7.248 48.768,7.536 C49.064,7.824 49.22,8.208 49.236,8.688 L49.236,8.688 Z M52.632,12 L52.632,9.264 C52.632,8.616 52.762,8.106 53.022,7.734 C53.282,7.362 53.7,7.176 54.276,7.176 C54.452,7.176 54.62,7.2 54.78,7.248 L54.78,7.248 L54.84,6.3 C54.776,6.276 54.712,6.26 54.648,6.252 C54.584,6.244 54.52,6.24 54.456,6.24 C54.224,6.24 54.008,6.27 53.808,6.33 C53.608,6.39 53.428,6.47 53.268,6.57 C53.108,6.67 52.97,6.784 52.854,6.912 C52.738,7.04 52.648,7.172 52.584,7.308 L52.584,7.308 L52.56,7.308 C52.56,7.148 52.556,6.992 52.548,6.84 C52.54,6.688 52.536,6.536 52.536,6.384 L52.536,6.384 L51.648,6.384 C51.648,6.568 51.656,6.772 51.672,6.996 C51.688,7.22 51.696,7.46 51.696,7.716 L51.696,7.716 L51.696,12 L52.632,12 Z M58.224,12.144 C58.752,12.144 59.216,12.058 59.616,11.886 C60.016,11.714 60.384,11.412 60.72,10.98 L60.72,10.98 L60.012,10.428 C59.788,10.708 59.536,10.92 59.256,11.064 C58.976,11.208 58.632,11.28 58.224,11.28 C57.968,11.28 57.732,11.232 57.516,11.136 C57.3,11.04 57.112,10.91 56.952,10.746 C56.792,10.582 56.662,10.39 56.562,10.17 C56.462,9.95 56.404,9.72 56.388,9.48 L56.388,9.48 L60.924,9.48 L60.924,9.18 C60.924,8.716 60.86,8.302 60.732,7.938 C60.604,7.574 60.422,7.266 60.186,7.014 C59.95,6.762 59.668,6.57 59.34,6.438 C59.012,6.306 58.652,6.24 58.26,6.24 C57.844,6.24 57.46,6.312 57.108,6.456 C56.756,6.6 56.452,6.802 56.196,7.062 C55.94,7.322 55.74,7.634 55.596,7.998 C55.452,8.362 55.38,8.76 55.38,9.192 C55.38,9.6 55.446,9.984 55.578,10.344 C55.71,10.704 55.898,11.016 56.142,11.28 C56.386,11.544 56.684,11.754 57.036,11.91 C57.388,12.066 57.784,12.144 58.224,12.144 Z M59.916,8.688 L56.388,8.688 C56.452,8.208 56.644,7.824 56.964,7.536 C57.284,7.248 57.704,7.104 58.224,7.104 C58.744,7.104 59.152,7.248 59.448,7.536 C59.744,7.824 59.9,8.208 59.916,8.688 L59.916,8.688 Z M64.86,12.144 C65.364,12.144 65.806,12.034 66.186,11.814 C66.566,11.594 66.844,11.324 67.02,11.004 L67.02,11.004 L67.044,11.004 L67.044,12 L67.98,12 L67.98,2.928 L67.044,2.928 L67.044,7.2 L67.02,7.2 C66.764,6.896 66.466,6.66 66.126,6.492 C65.786,6.324 65.412,6.24 65.004,6.24 C64.564,6.24 64.162,6.314 63.798,6.462 C63.434,6.61 63.124,6.816 62.868,7.08 C62.612,7.344 62.412,7.656 62.268,8.016 C62.124,8.376 62.052,8.768 62.052,9.192 C62.052,9.616 62.124,10.008 62.268,10.368 C62.412,10.728 62.61,11.04 62.862,11.304 C63.114,11.568 63.412,11.774 63.756,11.922 C64.1,12.07 64.468,12.144 64.86,12.144 Z M65.052,11.28 C64.748,11.28 64.474,11.226 64.23,11.118 C63.986,11.01 63.776,10.862 63.6,10.674 C63.424,10.486 63.29,10.266 63.198,10.014 C63.106,9.762 63.06,9.488 63.06,9.192 C63.06,8.896 63.106,8.622 63.198,8.37 C63.29,8.118 63.424,7.898 63.6,7.71 C63.776,7.522 63.986,7.374 64.23,7.266 C64.474,7.158 64.748,7.104 65.052,7.104 C65.356,7.104 65.63,7.158 65.874,7.266 C66.118,7.374 66.328,7.522 66.504,7.71 C66.68,7.898 66.814,8.118 66.906,8.37 C66.998,8.622 67.044,8.896 67.044,9.192 C67.044,9.488 66.998,9.762 66.906,10.014 C66.814,10.266 66.68,10.486 66.504,10.674 C66.328,10.862 66.118,11.01 65.874,11.118 C65.63,11.226 65.356,11.28 65.052,11.28 Z M76.116,12.144 C76.508,12.144 76.876,12.07 77.22,11.922 C77.564,11.774 77.862,11.568 78.114,11.304 C78.366,11.04 78.564,10.728 78.708,10.368 C78.852,10.008 78.924,9.616 78.924,9.192 C78.924,8.768 78.852,8.376 78.708,8.016 C78.564,7.656 78.364,7.344 78.108,7.08 C77.852,6.816 77.542,6.61 77.178,6.462 C76.814,6.314 76.412,6.24 75.972,6.24 C75.564,6.24 75.19,6.324 74.85,6.492 C74.51,6.66 74.212,6.896 73.956,7.2 L73.956,7.2 L73.932,7.2 L73.932,2.928 L72.996,2.928 L72.996,12 L73.932,12 L73.932,11.004 L73.956,11.004 C74.132,11.324 74.41,11.594 74.79,11.814 C75.17,12.034 75.612,12.144 76.116,12.144 Z M75.924,11.28 C75.62,11.28 75.346,11.226 75.102,11.118 C74.858,11.01 74.648,10.862 74.472,10.674 C74.296,10.486 74.162,10.266 74.07,10.014 C73.978,9.762 73.932,9.488 73.932,9.192 C73.932,8.896 73.978,8.622 74.07,8.37 C74.162,8.118 74.296,7.898 74.472,7.71 C74.648,7.522 74.858,7.374 75.102,7.266 C75.346,7.158 75.62,7.104 75.924,7.104 C76.228,7.104 76.502,7.158 76.746,7.266 C76.99,7.374 77.2,7.522 77.376,7.71 C77.552,7.898 77.686,8.118 77.778,8.37 C77.87,8.622 77.916,8.896 77.916,9.192 C77.916,9.488 77.87,9.762 77.778,10.014 C77.686,10.266 77.552,10.486 77.376,10.674 C77.2,10.862 76.99,11.01 76.746,11.118 C76.502,11.226 76.228,11.28 75.924,11.28 Z M80.568,14.88 C80.848,14.88 81.086,14.842 81.282,14.766 C81.478,14.69 81.646,14.582 81.786,14.442 C81.926,14.302 82.046,14.134 82.146,13.938 C82.246,13.742 82.344,13.524 82.44,13.284 L82.44,13.284 L85.152,6.384 L84.132,6.384 L82.464,10.788 L82.44,10.788 L80.7,6.384 L79.608,6.384 L81.936,12.036 L81.552,13.092 C81.448,13.372 81.324,13.596 81.18,13.764 C81.036,13.932 80.812,14.016 80.508,14.016 C80.372,14.016 80.252,14.01 80.148,13.998 C80.044,13.986 79.944,13.96 79.848,13.92 L79.848,13.92 L79.728,14.736 C79.856,14.8 79.994,14.84 80.142,14.856 C80.29,14.872 80.432,14.88 80.568,14.88 Z M93.708,12.216 C94.26,12.216 94.806,12.152 95.346,12.024 C95.886,11.896 96.4,11.696 96.888,11.424 L96.888,11.424 L96.888,7.248 L93.924,7.248 L93.924,8.184 L95.88,8.184 L95.88,10.788 C95.568,10.948 95.224,11.07 94.848,11.154 C94.472,11.238 94.112,11.28 93.768,11.28 C93.248,11.28 92.772,11.192 92.34,11.016 C91.908,10.84 91.538,10.594 91.23,10.278 C90.922,9.962 90.682,9.588 90.51,9.156 C90.338,8.724 90.252,8.256 90.252,7.752 C90.252,7.24 90.338,6.768 90.51,6.336 C90.682,5.904 90.922,5.532 91.23,5.22 C91.538,4.908 91.9,4.664 92.316,4.488 C92.732,4.312 93.184,4.224 93.672,4.224 C94.104,4.224 94.526,4.308 94.938,4.476 C95.35,4.644 95.7,4.884 95.988,5.196 L95.988,5.196 L96.744,4.404 C96.336,3.996 95.874,3.708 95.358,3.54 C94.842,3.372 94.304,3.288 93.744,3.288 C93.104,3.288 92.508,3.396 91.956,3.612 C91.404,3.828 90.92,4.13 90.504,4.518 C90.088,4.906 89.762,5.374 89.526,5.922 C89.29,6.47 89.172,7.08 89.172,7.752 C89.172,8.416 89.284,9.022 89.508,9.57 C89.732,10.118 90.046,10.588 90.45,10.98 C90.854,11.372 91.332,11.676 91.884,11.892 C92.436,12.108 93.044,12.216 93.708,12.216 Z M101.508,12.144 C101.94,12.144 102.34,12.072 102.708,11.928 C103.076,11.784 103.392,11.582 103.656,11.322 C103.92,11.062 104.128,10.752 104.28,10.392 C104.432,10.032 104.508,9.632 104.508,9.192 C104.508,8.752 104.432,8.352 104.28,7.992 C104.128,7.632 103.92,7.322 103.656,7.062 C103.392,6.802 103.076,6.6 102.708,6.456 C102.34,6.312 101.94,6.24 101.508,6.24 C101.076,6.24 100.676,6.312 100.308,6.456 C99.94,6.6 99.624,6.802 99.36,7.062 C99.096,7.322 98.888,7.632 98.736,7.992 C98.584,8.352 98.508,8.752 98.508,9.192 C98.508,9.632 98.584,10.032 98.736,10.392 C98.888,10.752 99.096,11.062 99.36,11.322 C99.624,11.582 99.94,11.784 100.308,11.928 C100.676,12.072 101.076,12.144 101.508,12.144 Z M101.508,11.28 C101.204,11.28 100.93,11.226 100.686,11.118 C100.442,11.01 100.232,10.862 100.056,10.674 C99.88,10.486 99.746,10.266 99.654,10.014 C99.562,9.762 99.516,9.488 99.516,9.192 C99.516,8.896 99.562,8.622 99.654,8.37 C99.746,8.118 99.88,7.898 100.056,7.71 C100.232,7.522 100.442,7.374 100.686,7.266 C100.93,7.158 101.204,7.104 101.508,7.104 C101.812,7.104 102.086,7.158 102.33,7.266 C102.574,7.374 102.784,7.522 102.96,7.71 C103.136,7.898 103.27,8.118 103.362,8.37 C103.454,8.622 103.5,8.896 103.5,9.192 C103.5,9.488 103.454,9.762 103.362,10.014 C103.27,10.266 103.136,10.486 102.96,10.674 C102.784,10.862 102.574,11.01 102.33,11.118 C102.086,11.226 101.812,11.28 101.508,11.28 Z M108.636,12.144 C109.068,12.144 109.468,12.072 109.836,11.928 C110.204,11.784 110.52,11.582 110.784,11.322 C111.048,11.062 111.256,10.752 111.408,10.392 C111.56,10.032 111.636,9.632 111.636,9.192 C111.636,8.752 111.56,8.352 111.408,7.992 C111.256,7.632 111.048,7.322 110.784,7.062 C110.52,6.802 110.204,6.6 109.836,6.456 C109.468,6.312 109.068,6.24 108.636,6.24 C108.204,6.24 107.804,6.312 107.436,6.456 C107.068,6.6 106.752,6.802 106.488,7.062 C106.224,7.322 106.016,7.632 105.864,7.992 C105.712,8.352 105.636,8.752 105.636,9.192 C105.636,9.632 105.712,10.032 105.864,10.392 C106.016,10.752 106.224,11.062 106.488,11.322 C106.752,11.582 107.068,11.784 107.436,11.928 C107.804,12.072 108.204,12.144 108.636,12.144 Z M108.636,11.28 C108.332,11.28 108.058,11.226 107.814,11.118 C107.57,11.01 107.36,10.862 107.184,10.674 C107.008,10.486 106.874,10.266 106.782,10.014 C106.69,9.762 106.644,9.488 106.644,9.192 C106.644,8.896 106.69,8.622 106.782,8.37 C106.874,8.118 107.008,7.898 107.184,7.71 C107.36,7.522 107.57,7.374 107.814,7.266 C108.058,7.158 108.332,7.104 108.636,7.104 C108.94,7.104 109.214,7.158 109.458,7.266 C109.702,7.374 109.912,7.522 110.088,7.71 C110.264,7.898 110.398,8.118 110.49,8.37 C110.582,8.622 110.628,8.896 110.628,9.192 C110.628,9.488 110.582,9.762 110.49,10.014 C110.398,10.266 110.264,10.486 110.088,10.674 C109.912,10.862 109.702,11.01 109.458,11.118 C109.214,11.226 108.94,11.28 108.636,11.28 Z M115.572,12.144 C116.076,12.144 116.518,12.034 116.898,11.814 C117.278,11.594 117.556,11.324 117.732,11.004 L117.732,11.004 L117.756,11.004 L117.756,12 L118.692,12 L118.692,2.928 L117.756,2.928 L117.756,7.2 L117.732,7.2 C117.476,6.896 117.178,6.66 116.838,6.492 C116.498,6.324 116.124,6.24 115.716,6.24 C115.276,6.24 114.874,6.314 114.51,6.462 C114.146,6.61 113.836,6.816 113.58,7.08 C113.324,7.344 113.124,7.656 112.98,8.016 C112.836,8.376 112.764,8.768 112.764,9.192 C112.764,9.616 112.836,10.008 112.98,10.368 C113.124,10.728 113.322,11.04 113.574,11.304 C113.826,11.568 114.124,11.774 114.468,11.922 C114.812,12.07 115.18,12.144 115.572,12.144 Z M115.764,11.28 C115.46,11.28 115.186,11.226 114.942,11.118 C114.698,11.01 114.488,10.862 114.312,10.674 C114.136,10.486 114.002,10.266 113.91,10.014 C113.818,9.762 113.772,9.488 113.772,9.192 C113.772,8.896 113.818,8.622 113.91,8.37 C114.002,8.118 114.136,7.898 114.312,7.71 C114.488,7.522 114.698,7.374 114.942,7.266 C115.186,7.158 115.46,7.104 115.764,7.104 C116.068,7.104 116.342,7.158 116.586,7.266 C116.83,7.374 117.04,7.522 117.216,7.71 C117.392,7.898 117.526,8.118 117.618,8.37 C117.71,8.622 117.756,8.896 117.756,9.192 C117.756,9.488 117.71,9.762 117.618,10.014 C117.526,10.266 117.392,10.486 117.216,10.674 C117.04,10.862 116.83,11.01 116.586,11.118 C116.342,11.226 116.068,11.28 115.764,11.28 Z M123.696,12 C123.976,12 124.272,11.968 124.584,11.904 C124.896,11.84 125.206,11.738 125.514,11.598 C125.822,11.458 126.118,11.276 126.402,11.052 C126.686,10.828 126.936,10.558 127.152,10.242 C127.368,9.926 127.54,9.562 127.668,9.15 C127.796,8.738 127.86,8.272 127.86,7.752 C127.86,7.232 127.796,6.766 127.668,6.354 C127.54,5.942 127.368,5.578 127.152,5.262 C126.936,4.946 126.686,4.676 126.402,4.452 C126.118,4.228 125.822,4.046 125.514,3.906 C125.206,3.766 124.896,3.664 124.584,3.6 C124.272,3.536 123.976,3.504 123.696,3.504 L123.696,3.504 L120.432,3.504 L120.432,12 L123.696,12 Z M123.36,11.064 L121.44,11.064 L121.44,4.44 L123.36,4.44 C123.848,4.44 124.3,4.504 124.716,4.632 C125.132,4.76 125.492,4.958 125.796,5.226 C126.1,5.494 126.34,5.836 126.516,6.252 C126.692,6.668 126.78,7.168 126.78,7.752 C126.78,8.336 126.692,8.836 126.516,9.252 C126.34,9.668 126.1,10.01 125.796,10.278 C125.492,10.546 125.132,10.744 124.716,10.872 C124.3,11 123.848,11.064 123.36,11.064 L123.36,11.064 Z M131.076,12.144 C131.508,12.144 131.878,12.052 132.186,11.868 C132.494,11.684 132.74,11.448 132.924,11.16 L132.924,11.16 L132.948,11.16 C132.948,11.28 132.95,11.418 132.954,11.574 C132.958,11.73 132.976,11.872 133.008,12 L133.008,12 L133.908,12 C133.884,11.856 133.864,11.698 133.848,11.526 C133.832,11.354 133.824,11.188 133.824,11.028 L133.824,11.028 L133.824,8.616 C133.824,7.816 133.64,7.22 133.272,6.828 C132.904,6.436 132.304,6.24 131.472,6.24 C131.064,6.24 130.662,6.31 130.266,6.45 C129.87,6.59 129.528,6.808 129.24,7.104 L129.24,7.104 L129.828,7.716 C130.052,7.508 130.31,7.354 130.602,7.254 C130.894,7.154 131.192,7.104 131.496,7.104 C131.936,7.104 132.278,7.208 132.522,7.416 C132.766,7.624 132.888,7.932 132.888,8.34 L132.888,8.34 L132.888,8.508 L132.528,8.508 C132.184,8.508 131.806,8.524 131.394,8.556 C130.982,8.588 130.598,8.668 130.242,8.796 C129.886,8.924 129.588,9.12 129.348,9.384 C129.108,9.648 128.988,10.012 128.988,10.476 C128.988,10.748 129.044,10.988 129.156,11.196 C129.268,11.404 129.418,11.578 129.606,11.718 C129.794,11.858 130.014,11.964 130.266,12.036 C130.518,12.108 130.788,12.144 131.076,12.144 Z M131.232,11.352 C130.88,11.352 130.586,11.278 130.35,11.13 C130.114,10.982 129.996,10.732 129.996,10.38 C129.996,9.996 130.172,9.72 130.524,9.552 C130.876,9.384 131.352,9.3 131.952,9.3 L131.952,9.3 L132.888,9.3 L132.888,9.66 C132.88,9.892 132.84,10.11 132.768,10.314 C132.696,10.518 132.592,10.696 132.456,10.848 C132.32,11 132.15,11.122 131.946,11.214 C131.742,11.306 131.504,11.352 131.232,11.352 Z M137.568,12.144 C137.744,12.144 137.93,12.128 138.126,12.096 C138.322,12.064 138.5,12.012 138.66,11.94 L138.66,11.94 L138.624,11.088 C138.496,11.152 138.36,11.2 138.216,11.232 C138.072,11.264 137.932,11.28 137.796,11.28 C137.588,11.28 137.428,11.246 137.316,11.178 C137.204,11.11 137.12,11.018 137.064,10.902 C137.008,10.786 136.976,10.65 136.968,10.494 C136.96,10.338 136.956,10.168 136.956,9.984 L136.956,9.984 L136.956,7.176 L138.612,7.176 L138.612,6.384 L136.956,6.384 L136.956,4.788 L136.02,4.788 L136.02,6.384 L134.796,6.384 L134.796,7.176 L136.02,7.176 L136.02,10.26 C136.02,10.548 136.038,10.81 136.074,11.046 C136.11,11.282 136.184,11.48 136.296,11.64 C136.408,11.8 136.564,11.924 136.764,12.012 C136.964,12.1 137.232,12.144 137.568,12.144 Z M141.528,12.144 C141.96,12.144 142.33,12.052 142.638,11.868 C142.946,11.684 143.192,11.448 143.376,11.16 L143.376,11.16 L143.4,11.16 C143.4,11.28 143.402,11.418 143.406,11.574 C143.41,11.73 143.428,11.872 143.46,12 L143.46,12 L144.36,12 C144.336,11.856 144.316,11.698 144.3,11.526 C144.284,11.354 144.276,11.188 144.276,11.028 L144.276,11.028 L144.276,8.616 C144.276,7.816 144.092,7.22 143.724,6.828 C143.356,6.436 142.756,6.24 141.924,6.24 C141.516,6.24 141.114,6.31 140.718,6.45 C140.322,6.59 139.98,6.808 139.692,7.104 L139.692,7.104 L140.28,7.716 C140.504,7.508 140.762,7.354 141.054,7.254 C141.346,7.154 141.644,7.104 141.948,7.104 C142.388,7.104 142.73,7.208 142.974,7.416 C143.218,7.624 143.34,7.932 143.34,8.34 L143.34,8.34 L143.34,8.508 L142.98,8.508 C142.636,8.508 142.258,8.524 141.846,8.556 C141.434,8.588 141.05,8.668 140.694,8.796 C140.338,8.924 140.04,9.12 139.8,9.384 C139.56,9.648 139.44,10.012 139.44,10.476 C139.44,10.748 139.496,10.988 139.608,11.196 C139.72,11.404 139.87,11.578 140.058,11.718 C140.246,11.858 140.466,11.964 140.718,12.036 C140.97,12.108 141.24,12.144 141.528,12.144 Z M141.684,11.352 C141.332,11.352 141.038,11.278 140.802,11.13 C140.566,10.982 140.448,10.732 140.448,10.38 C140.448,9.996 140.624,9.72 140.976,9.552 C141.328,9.384 141.804,9.3 142.404,9.3 L142.404,9.3 L143.34,9.3 L143.34,9.66 C143.332,9.892 143.292,10.11 143.22,10.314 C143.148,10.518 143.044,10.696 142.908,10.848 C142.772,11 142.602,11.122 142.398,11.214 C142.194,11.306 141.956,11.352 141.684,11.352 Z" id="PoweredbyGoodData" fill="#000000" fill-rule="nonzero"></path>
                <g id="G-logo" transform="translate(0.000000, -0.000000)">
                    <g id="Combined-Shape">
                        <path d="M16,16 L15.7508207,15.9961932 C14.3870897,15.9544697 13.1092518,15.5714442 11.99984,14.9296499 C14.3917256,13.5456688 16,10.9606507 16,8 L16,8 L16,16 Z M10.5,8 C10.5,9.24802459 9.58550346,10.2824571 8.39005746,10.4697504 C9.00222774,12.3635623 10.3043407,13.9488042 11.99984,14.9296499 C10.8915159,15.571214 9.61331995,15.9544571 8.24917933,15.9961932 L8,16 L8,10.5 C8.13268728,10.5 8.26296022,10.489663 8.39005746,10.4697504 C8.13615106,9.69105076 8,8.86142527 8,8 L8,8 Z" fill="#6F6F6E"></path>
                        <path d="M16,8 C16,10.9606507 14.3917256,13.5456688 12.0011597,14.9290715 C10.3043407,13.9488042 9.00222774,12.3635623 8.38810795,10.4685312 C9.58519737,10.2828033 10.5,9.24823344 10.5,8 L16,8 Z" fill="#292627"></path>
                        <path d="M2.05620342,7.71206153 L5.94479272,11.601647 C4.55170823,12.9947315 2.64723441,13.8764266 0.537117797,13.9409859 L0.287938467,13.9447927 L0.287938467,8.44479272 C0.978547746,8.44479272 1.60375311,8.16476527 2.05620342,7.71206153 Z" fill="#8B8B8A" transform="translate(3.116366, 10.828427) rotate(-270.000000) translate(-3.116366, -10.828427) "></path>
                        <path d="M8.28793847,10.0552073 C8.28793847,12.2643463 7.39250797,14.2643463 5.94479272,15.7120615 L2.05520728,11.8234722 C2.50791102,11.3710219 2.78793847,10.7458166 2.78793847,10.0552073 L8.28793847,10.0552073 Z" fill="#3C3C3B" transform="translate(5.171573, 12.883634) rotate(-270.000000) translate(-5.171573, -12.883634) "></path>
                        <path d="M4.1114107,1.55431223e-15 L8,3.88958543 C6.60691551,5.28266992 4.7024417,6.16436507 2.59232508,6.22892436 L2.34314575,6.23273118 L2.34314575,0.732731184 C3.03375503,0.732731184 3.65896039,0.452703741 4.1114107,1.55431223e-15 Z" fill="#292627" transform="translate(5.171573, 3.116366) rotate(-180.000000) translate(-5.171573, -3.116366) "></path>
                        <path d="M6.23273118,2.34314575 C6.23273118,4.55228475 5.33730068,6.55228475 3.88958543,8 L2.49800181e-16,4.1114107 C0.452703741,3.65896039 0.732731184,3.03375503 0.732731184,2.34314575 L6.23273118,2.34314575 Z" fill="#575756" transform="translate(3.116366, 5.171573) rotate(-180.000000) translate(-3.116366, -5.171573) "></path>
                        <path d="M13.9447927,0.287938467 C13.9447927,2.49707747 13.0493622,4.49707747 11.601647,5.94479272 L7.71206153,2.05620342 C8.16476527,1.60375311 8.44479272,0.978547746 8.44479272,0.287938467 L13.9447927,0.287938467 Z" fill="#7C7B7B" transform="translate(10.828427, 3.116366) rotate(-90.000000) translate(-10.828427, -3.116366) "></path>
                    </g>
                </g>
            </g>
        </g>
    </g>
</svg>