<?xml version="1.0" encoding="UTF-8"?>
<svg width="13" height="15" viewBox="0 0 13 15" fill="none" xmlns="http://www.w3.org/2000/svg">
    <path d="M11.5527 2.99609C11.8398 2.99609 12.0859 3.09863 12.291 3.30371C12.4961 3.50879 12.5986 3.75716 12.5986 4.04883V13.1475C12.5986 13.4346 12.4961 13.6807 12.291 13.8857C12.0859 14.0908 11.8398 14.1934 11.5527 14.1934H4.55273C4.26107 14.1934 4.0127 14.0908 3.80762 13.8857C3.60254 13.6807 3.5 13.4346 3.5 13.1475V11.3975H1.75C1.45833 11.3975 1.20996 11.2949 1.00488 11.0898C0.799805 10.8848 0.697266 10.6364 0.697266 10.3447V2.99609C0.697266 2.95052 0.70638 2.90723 0.724609 2.86621C0.742839 2.82064 0.767904 2.7819 0.799805 2.75L3.25391 0.295898C3.28581 0.263997 3.32227 0.238932 3.36328 0.220703C3.40885 0.202474 3.45443 0.193359 3.5 0.193359H8.75C9.04167 0.193359 9.29004 0.295898 9.49512 0.500977C9.7002 0.706055 9.80273 0.954427 9.80273 1.24609V2.99609H11.5527ZM3.5 1.04102L1.54492 2.99609H3.15137C3.24707 2.99609 3.3291 2.96191 3.39746 2.89355C3.46582 2.8252 3.5 2.74316 3.5 2.64746V1.04102ZM1.75 10.6934H3.5V5.79883C3.5 5.7487 3.50911 5.70312 3.52734 5.66211C3.54557 5.62109 3.57064 5.58236 3.60254 5.5459L6.0498 3.09863C6.08626 3.06673 6.125 3.04167 6.16602 3.02344C6.20703 3.00521 6.2526 2.99609 6.30273 2.99609H9.09863V1.24609C9.09863 1.15039 9.06445 1.06836 8.99609 1C8.92773 0.931641 8.8457 0.897461 8.75 0.897461H4.19727V2.64746C4.19727 2.93457 4.09473 3.18066 3.88965 3.38574C3.68457 3.59082 3.43848 3.69336 3.15137 3.69336H1.40137V10.3447C1.40137 10.4404 1.43555 10.5225 1.50391 10.5908C1.57227 10.6592 1.6543 10.6934 1.75 10.6934ZM6.30273 3.84375L4.34766 5.79883H5.94727C6.04753 5.79883 6.13184 5.76465 6.2002 5.69629C6.26855 5.62793 6.30273 5.54362 6.30273 5.44336V3.84375ZM11.9014 13.1475V4.04883C11.9014 3.94857 11.8672 3.86426 11.7988 3.7959C11.7305 3.72754 11.6484 3.69336 11.5527 3.69336H7V5.44336C7 5.73503 6.89746 5.9834 6.69238 6.18848C6.4873 6.39355 6.23893 6.49609 5.94727 6.49609H4.19727V13.1475C4.19727 13.2432 4.23145 13.3252 4.2998 13.3936C4.36816 13.4619 4.45247 13.4961 4.55273 13.4961H11.5527C11.6484 13.4961 11.7305 13.4619 11.7988 13.3936C11.8672 13.3252 11.9014 13.2432 11.9014 13.1475Z" fill="#B0BECA"/>
</svg>