<?xml version="1.0" encoding="UTF-8"?>
<svg width="20px" height="20px" viewBox="0 0 20 20" version="1.1" xmlns="http://www.w3.org/2000/svg" xmlns:xlink="http://www.w3.org/1999/xlink">
    <title>delete</title>
    <g id="delete" stroke="none" stroke-width="1" fill="none" fill-rule="evenodd">
        <g transform="translate(2.500000, 0.500000)" fill="#FFFFFF" fill-rule="nonzero" id="t" stroke="#FFFFFF" stroke-width="0.3">
            <path d="M12.9570312,2.2070312 C13.3203143,2.2070312 13.6337877,2.3388659 13.8974609,2.6025391 C14.1611341,2.8662123 14.2929688,3.1796857 14.2929688,3.5429688 L14.2929688,4.4570312 C14.2929688,4.7500015 14.2109383,5.010741 14.046875,5.2392578 C13.8828117,5.4677746 13.666017,5.6289058 13.3964844,5.7226562 L13.3964844,17.0429688 C13.3964844,17.4179706 13.2646498,17.7373034 13.0009766,18.0009766 C12.7373034,18.2646498 12.4179706,18.3964844 12.0429688,18.3964844 L3.0429688,18.3964844 C2.6796857,18.3964844 2.3662123,18.2646498 2.1025391,18.0009766 C1.8388659,17.7373034 1.7070312,17.4179706 1.7070312,17.0429688 L1.7070312,5.7226562 C1.4374987,5.6289058 1.2177743,5.4677746 1.0478516,5.2392578 C0.8779288,5.010741 0.7929688,4.7500015 0.7929688,4.4570312 L0.7929688,3.5429688 C0.7929688,3.1796857 0.9248034,2.8662123 1.1884766,2.6025391 C1.4521498,2.3388659 1.7714825,2.2070312 2.1464844,2.2070312 L5.2929688,2.2070312 L5.2929688,1.75 C5.2929688,1.3749981 5.4248034,1.0556654 5.6884766,0.7919922 C5.9521498,0.528319 6.2714825,0.3964844 6.6464844,0.3964844 L8.4570312,0.3964844 C8.8203143,0.3964844 9.1337877,0.528319 9.3974609,0.7919922 C9.6611341,1.0556654 9.7929688,1.3749981 9.7929688,1.75 L9.7929688,2.2070312 L12.9570312,2.2070312 Z M6.2070312,1.75 L6.2070312,2.2070312 L8.8964844,2.2070312 L8.8964844,1.75 C8.8964844,1.6210931 8.8525395,1.5126958 8.7646484,1.4248047 C8.6767574,1.3369136 8.5742193,1.2929688 8.4570312,1.2929688 L6.6464844,1.2929688 C6.5292963,1.2929688 6.4267583,1.3369136 6.3388672,1.4248047 C6.2509761,1.5126958 6.2070312,1.6210931 6.2070312,1.75 Z M12.0429688,17.5 C12.1718756,17.5 12.280273,17.4560551 12.3681641,17.3681641 C12.4560551,17.280273 12.5,17.1718756 12.5,17.0429688 L12.5,5.7929688 L2.6035156,5.7929688 L2.6035156,17.0429688 C2.6035156,17.1718756 2.6474605,17.280273 2.7353516,17.3681641 C2.8232426,17.4560551 2.9257807,17.5 3.0429688,17.5 L12.0429688,17.5 Z M13.3964844,4.4570312 L13.3964844,3.5429688 C13.3964844,3.4257807 13.3525395,3.3232426 13.2646484,3.2353516 C13.1767574,3.1474605 13.0742193,3.1035156 12.9570312,3.1035156 L2.1464844,3.1035156 C2.0292963,3.1035156 1.9267583,3.1474605 1.8388672,3.2353516 C1.7509761,3.3232426 1.7070312,3.4257807 1.7070312,3.5429688 L1.7070312,4.4570312 C1.7070312,4.5742193 1.7509761,4.6767574 1.8388672,4.7646484 C1.9267583,4.8525395 2.0292963,4.8964844 2.1464844,4.8964844 L12.9570312,4.8964844 C13.0742193,4.8964844 13.1767574,4.8525395 13.2646484,4.7646484 C13.3525395,4.6767574 13.3964844,4.5742193 13.3964844,4.4570312 Z M9.25,6.7070312 C9.3789069,6.7070312 9.4873042,6.7509761 9.5751953,6.8388672 C9.6630864,6.9267583 9.7070312,7.0292963 9.7070312,7.1464844 L9.7070312,16.1464844 C9.7070312,16.2753913 9.6630864,16.3837886 9.5751953,16.4716797 C9.4873042,16.5595708 9.3789069,16.6035156 9.25,16.6035156 C9.1210931,16.6035156 9.0126958,16.5595708 8.9248047,16.4716797 C8.8369136,16.3837886 8.7929688,16.2753913 8.7929688,16.1464844 L8.7929688,7.1464844 C8.7929688,7.0292963 8.8369136,6.9267583 8.9248047,6.8388672 C9.0126958,6.7509761 9.1210931,6.7070312 9.25,6.7070312 Z M5.8535156,6.7070312 C5.9707037,6.7070312 6.0732417,6.7509761 6.1611328,6.8388672 C6.2490239,6.9267583 6.2929688,7.0292963 6.2929688,7.1464844 L6.2929688,16.1464844 C6.2929688,16.2753913 6.2490239,16.3837886 6.1611328,16.4716797 C6.0732417,16.5595708 5.9707037,16.6035156 5.8535156,16.6035156 C5.7246087,16.6035156 5.6162114,16.5595708 5.5283203,16.4716797 C5.4404292,16.3837886 5.3964844,16.2753913 5.3964844,16.1464844 L5.3964844,7.1464844 C5.3964844,7.0292963 5.4404292,6.9267583 5.5283203,6.8388672 C5.6162114,6.7509761 5.7246087,6.7070312 5.8535156,6.7070312 Z"></path>
        </g>
    </g>
</svg>