<?xml version="1.0" encoding="UTF-8" standalone="no"?>
<svg width="11px" height="11px" viewBox="0 0 11 11" version="1.1" xmlns="http://www.w3.org/2000/svg" xmlns:xlink="http://www.w3.org/1999/xlink" xmlns:sketch="http://www.bohemiancoding.com/sketch/ns">
    <g id="Page-1" stroke="none" stroke-width="1" fill="none" fill-rule="evenodd" sketch:type="MSPage">
        <path d="M9.9765625,0.60546875 L3.63671875,0.60546875 C3.53515574,0.60546875 3.447266,0.640624648 3.37304688,0.7109375 C3.29882775,0.781250352 3.26171875,0.867186992 3.26171875,0.96875 C3.26171875,1.07812555 3.29882775,1.1679684 3.37304688,1.23828125 C3.447266,1.3085941 3.53515574,1.34375 3.63671875,1.34375 L9.07421875,1.34375 L0.4609375,9.95703125 C0.390624648,10.0351566 0.35546875,10.1249995 0.35546875,10.2265625 C0.35546875,10.3281255 0.390624648,10.4140621 0.4609375,10.484375 C0.539062891,10.5625004 0.628905742,10.6015625 0.73046875,10.6015625 C0.832031758,10.6015625 0.917968398,10.5625004 0.98828125,10.484375 L9.6015625,1.87109375 L9.6015625,7.3203125 C9.6015625,7.42187551 9.6386715,7.50976525 9.71289062,7.58398438 C9.78710975,7.6582035 9.87499949,7.6953125 9.9765625,7.6953125 C10.0312503,7.6953125 10.0800779,7.68554697 10.1230469,7.66601562 C10.1660158,7.64648428 10.2070311,7.6171877 10.2460938,7.578125 C10.2773439,7.54687484 10.3027343,7.50781273 10.3222656,7.4609375 C10.341797,7.41406227 10.3515625,7.36718773 10.3515625,7.3203125 L10.3515625,0.96875 C10.3515625,0.867186992 10.3144535,0.781250352 10.2402344,0.7109375 C10.1660153,0.640624648 10.0781255,0.60546875 9.9765625,0.60546875 L9.9765625,0.60546875 Z" id="trend-up" fill="#00c18d" sketch:type="MSShapeGroup"></path>
    </g>
</svg>