<svg width="14" height="17" viewBox="0 0 14 17" fill="none" xmlns="http://www.w3.org/2000/svg">
    <path d="M13.2773 4.62109C13.3138 4.65755 13.3424 4.70182 13.3633 4.75391C13.3841 4.80078 13.3945 4.85026 13.3945 4.90234V14.9023C13.3945 15.2305 13.2773 15.5117 13.043 15.7461C12.8086 15.9805 12.5273 16.0977 12.1992 16.0977H1.79297C1.46484 16.0977 1.18359 15.9805 0.949219 15.7461C0.714844 15.5117 0.597656 15.2305 0.597656 14.9023V2.09766C0.597656 1.76953 0.714844 1.48828 0.949219 1.25391C1.18359 1.01953 1.46484 0.902344 1.79297 0.902344H9.39453C9.44661 0.902344 9.49609 0.91276 9.54297 0.933594C9.59505 0.954427 9.63932 0.983073 9.67578 1.01953L13.2773 4.62109ZM12.4336 4.90234L9.39453 1.86328V4.50391C9.39453 4.61328 9.43359 4.70703 9.51172 4.78516C9.58984 4.86328 9.68359 4.90234 9.79297 4.90234H12.4336ZM12.1992 15.3008C12.3086 15.3008 12.4023 15.2617 12.4805 15.1836C12.5586 15.1055 12.5977 15.0117 12.5977 14.9023V5.69922H9.79297C9.46484 5.69922 9.18359 5.58203 8.94922 5.34766C8.71484 5.11328 8.59766 4.83203 8.59766 4.50391V1.69922H1.79297C1.68359 1.69922 1.58984 1.73828 1.51172 1.81641C1.43359 1.89453 1.39453 1.98828 1.39453 2.09766V14.9023C1.39453 15.0117 1.43359 15.1055 1.51172 15.1836C1.58984 15.2617 1.68359 15.3008 1.79297 15.3008H12.1992ZM10.5977 8.09766C10.707 8.09766 10.8008 8.13672 10.8789 8.21484C10.957 8.29297 10.9961 8.38932 10.9961 8.50391V13.3008C10.9961 13.4102 10.957 13.5039 10.8789 13.582C10.8008 13.6602 10.707 13.6992 10.5977 13.6992H3.39453C3.28516 13.6992 3.19141 13.6602 3.11328 13.582C3.03516 13.5039 2.99609 13.4102 2.99609 13.3008V8.50391C2.99609 8.38932 3.03516 8.29297 3.11328 8.21484C3.19141 8.13672 3.28516 8.09766 3.39453 8.09766H10.5977ZM10.1992 10.5039V8.90234H8.59766V10.5039H10.1992ZM6.19922 10.5039H7.79297V8.90234H6.19922V10.5039ZM7.79297 11.3008H6.19922V12.9023H7.79297V11.3008ZM5.39453 8.90234H3.79297V10.5039H5.39453V8.90234ZM3.79297 11.3008V12.9023H5.39453V11.3008H3.79297ZM8.59766 12.9023H10.1992V11.3008H8.59766V12.9023Z" fill="#6D7680"/>
</svg>