<svg width="14" height="17" viewBox="0 0 14 17" fill="none" xmlns="http://www.w3.org/2000/svg">
    <path fill-rule="evenodd" clip-rule="evenodd" d="M7.18635 5.88191C7.32866 6.07332 7.40568 6.33067 7.43075 6.62639L7.43425 6.62621C7.49428 7.43752 7.34242 8.1182 7.11669 8.73544C7.20094 8.84315 7.29364 8.95491 7.39659 9.07904C7.50384 9.20835 7.62228 9.35116 7.75385 9.51671L7.75448 9.5175C7.99174 9.81761 8.2123 10.0824 8.41787 10.313C8.48519 10.3116 8.55273 10.3109 8.62026 10.3109C9.24655 10.3109 9.92204 10.3752 10.4372 10.5984C10.7067 10.7152 10.9286 10.8854 11.0479 11.1155C11.175 11.3608 11.1616 11.6328 11.025 11.8557C10.769 12.2736 10.1973 12.3947 9.65606 12.2501L9.65493 12.2498C9.26376 12.1441 8.87223 11.8791 8.4724 11.5136C8.34555 11.3976 8.21479 11.2687 8.0798 11.127C7.68188 11.1498 7.30398 11.194 7.0001 11.2406C6.56224 11.3109 6.16887 11.3969 5.81275 11.506C5.75259 11.6155 5.69067 11.7257 5.62753 11.8352C5.28135 12.4358 4.87257 13.0618 4.49607 13.4152C4.27792 13.6248 4.03717 13.7656 3.79228 13.8132C3.54414 13.8616 3.27181 13.8135 3.07627 13.615C2.88139 13.4171 2.83574 13.144 2.88376 12.8931C2.93136 12.6443 3.07117 12.3937 3.28394 12.1576C3.83853 11.5354 4.48943 11.127 5.25878 10.8478C5.4625 10.463 5.63661 10.1045 5.75341 9.84667C5.81254 9.71641 5.87142 9.58984 5.9291 9.46582C6.02826 9.25263 6.12389 9.04702 6.21126 8.84333C6.18872 8.80827 6.16688 8.77302 6.14582 8.73756C5.87166 8.27591 5.71063 7.76056 5.67907 7.00646L5.67894 7.00313C5.66743 6.65977 5.72843 6.35592 5.8479 6.1147C5.96321 5.88188 6.1559 5.66753 6.42494 5.5956C6.72767 5.51467 7.00968 5.64427 7.18635 5.88191ZM6.63882 6.7829L6.64252 6.78278C6.65949 7.11792 6.63413 7.42388 6.57806 7.71456C6.52527 7.50892 6.49085 7.26903 6.47844 6.97473C6.47074 6.73848 6.51464 6.57103 6.5648 6.46975C6.57099 6.45724 6.57703 6.44617 6.58281 6.43637C6.60762 6.50387 6.63305 6.61414 6.63882 6.7829ZM6.6514 9.81164C6.68882 9.73174 6.72645 9.65139 6.7639 9.5704L6.82391 9.64285C6.92374 9.76329 7.02571 9.88632 7.12717 10.014C7.22744 10.1408 7.32563 10.2626 7.42184 10.3792C7.22456 10.4005 7.04067 10.425 6.87734 10.4501L6.87469 10.4505C6.67859 10.4819 6.4884 10.5168 6.3039 10.5558C6.37171 10.416 6.43169 10.2881 6.48198 10.1771C6.53699 10.0559 6.59398 9.93424 6.6514 9.81164ZM9.86313 11.4774C9.70606 11.4348 9.50975 11.331 9.2669 11.1402C9.60097 11.1733 9.8949 11.2353 10.1191 11.3324C10.2347 11.3825 10.2919 11.4298 10.3182 11.4582C10.3019 11.4686 10.2762 11.4814 10.2374 11.492C10.1555 11.5142 10.0288 11.5215 9.86313 11.4774ZM3.88043 12.6907C4.07308 12.4745 4.28104 12.2876 4.50891 12.1255C4.30686 12.428 4.11345 12.6775 3.94722 12.8331L3.94298 12.8371C3.82834 12.9476 3.7354 12.9976 3.67555 13.0181C3.69508 12.9487 3.74922 12.8362 3.87872 12.6927L3.88043 12.6907Z" fill="#EE2227"/>
    <path fill-rule="evenodd" clip-rule="evenodd" d="M13.3652 4.75391C13.3444 4.70182 13.3158 4.65755 13.2793 4.62109L9.67773 1.01953C9.64128 0.983073 9.59701 0.954427 9.54492 0.933594C9.49805 0.91276 9.44857 0.902344 9.39648 0.902344H1.79492C1.4668 0.902344 1.18555 1.01953 0.951172 1.25391C0.716797 1.48828 0.599609 1.76953 0.599609 2.09766V14.9023C0.599609 15.2305 0.716797 15.5117 0.951172 15.7461C1.18555 15.9805 1.4668 16.0977 1.79492 16.0977H12.2012C12.5293 16.0977 12.8105 15.9805 13.0449 15.7461C13.2793 15.5117 13.3965 15.2305 13.3965 14.9023V4.90234C13.3965 4.85026 13.3861 4.80078 13.3652 4.75391ZM9.39648 1.86328L12.4355 4.90234H9.79492C9.68555 4.90234 9.5918 4.86328 9.51367 4.78516C9.43555 4.70703 9.39648 4.61328 9.39648 4.50391V1.86328ZM12.4824 15.1836C12.4043 15.2617 12.3105 15.3008 12.2012 15.3008H1.79492C1.68555 15.3008 1.5918 15.2617 1.51367 15.1836C1.43555 15.1055 1.39648 15.0117 1.39648 14.9023V2.09766C1.39648 1.98828 1.43555 1.89453 1.51367 1.81641C1.5918 1.73828 1.68555 1.69922 1.79492 1.69922H8.59961V4.50391C8.59961 4.83203 8.7168 5.11328 8.95117 5.34766C9.18555 5.58203 9.4668 5.69922 9.79492 5.69922H12.5996V14.9023C12.5996 15.0117 12.5605 15.1055 12.4824 15.1836Z" fill="#EE2227"/>
</svg>