<svg width="14" height="17" viewBox="0 0 14 17" fill="none" xmlns="http://www.w3.org/2000/svg">
    <path d="M13.2773 4.62109C13.3138 4.65755 13.3424 4.70182 13.3633 4.75391C13.3841 4.80078 13.3945 4.85026 13.3945 4.90234V14.9023C13.3945 15.2305 13.2773 15.5117 13.043 15.7461C12.8086 15.9805 12.5273 16.0977 12.1992 16.0977H1.79297C1.46484 16.0977 1.18359 15.9805 0.949219 15.7461C0.714844 15.5117 0.597656 15.2305 0.597656 14.9023V2.09766C0.597656 1.76953 0.714844 1.48828 0.949219 1.25391C1.18359 1.01953 1.46484 0.902344 1.79297 0.902344H9.39453C9.44661 0.902344 9.49609 0.91276 9.54297 0.933594C9.59505 0.954427 9.63932 0.983073 9.67578 1.01953L13.2773 4.62109ZM12.4336 4.90234L9.39453 1.86328V4.50391C9.39453 4.61328 9.43359 4.70703 9.51172 4.78516C9.58984 4.86328 9.68359 4.90234 9.79297 4.90234H12.4336ZM12.1992 15.3008C12.3086 15.3008 12.4023 15.2617 12.4805 15.1836C12.5586 15.1055 12.5977 15.0117 12.5977 14.9023V5.69922H9.79297C9.46484 5.69922 9.18359 5.58203 8.94922 5.34766C8.71484 5.11328 8.59766 4.83203 8.59766 4.50391V1.69922H1.79297C1.68359 1.69922 1.58984 1.73828 1.51172 1.81641C1.43359 1.89453 1.39453 1.98828 1.39453 2.09766V14.9023C1.39453 15.0117 1.43359 15.1055 1.51172 15.1836C1.58984 15.2617 1.68359 15.3008 1.79297 15.3008H12.1992Z" fill="#F04B24"/>
    <path d="M6.61328 12.6195C6.43203 12.6195 6.25391 12.6018 6.07891 12.5664C5.90391 12.5331 5.73516 12.482 5.57266 12.4133C5.41016 12.3466 5.25495 12.2643 5.10703 12.1664C4.95911 12.0664 4.82057 11.9518 4.69141 11.8227C4.56224 11.6956 4.44766 11.5581 4.34766 11.4102C4.24974 11.2602 4.16641 11.1039 4.09766 10.9414C4.03099 10.7789 3.97995 10.6102 3.94453 10.4352C3.9112 10.2602 3.89453 10.082 3.89453 9.90079C3.89453 9.71954 3.9112 9.54141 3.94453 9.36641C3.97995 9.19141 4.03099 9.02266 4.09766 8.86016C4.16641 8.69766 4.24974 8.54245 4.34766 8.39454C4.44766 8.24454 4.56224 8.106 4.69141 7.97891C4.82057 7.84975 4.95911 7.7362 5.10703 7.63829C5.25495 7.53829 5.41016 7.45495 5.57266 7.38829C5.73516 7.31954 5.90391 7.2685 6.07891 7.23516C6.25391 7.19975 6.43203 7.18204 6.61328 7.18204C6.65911 7.18204 6.69766 7.19766 6.72891 7.22891C6.76016 7.26016 6.77578 7.29766 6.77578 7.34141C6.77578 7.38516 6.76016 7.42266 6.72891 7.45391C6.69766 7.48516 6.65911 7.50079 6.61328 7.50079C6.28411 7.50079 5.9737 7.56433 5.68203 7.69141C5.39036 7.81641 5.13516 7.98725 4.91641 8.20391C4.69974 8.42058 4.52786 8.67475 4.40078 8.96641C4.27578 9.25808 4.21328 9.56954 4.21328 9.90079C4.21328 10.232 4.27578 10.5435 4.40078 10.8352C4.52786 11.1268 4.69974 11.381 4.91641 11.5977C5.13516 11.8143 5.39036 11.9862 5.68203 12.1133C5.9737 12.2383 6.28411 12.3008 6.61328 12.3008C6.94453 12.3008 7.25599 12.2383 7.54766 12.1133C7.83932 11.9862 8.09349 11.8143 8.31016 11.5977C8.52891 11.381 8.70078 11.1268 8.82578 10.8352C8.95078 10.5435 9.01328 10.232 9.01328 9.90079C9.01328 9.85704 9.02891 9.81954 9.06016 9.78829C9.09141 9.75704 9.12995 9.74141 9.17578 9.74141C9.21953 9.74141 9.25703 9.75704 9.28828 9.78829C9.31953 9.81954 9.33516 9.85704 9.33516 9.90079C9.33516 10.082 9.31745 10.2602 9.28203 10.4352C9.24661 10.6102 9.19557 10.7789 9.12891 10.9414C9.06224 11.1039 8.97891 11.2602 8.87891 11.4102C8.78099 11.5581 8.66745 11.6956 8.53828 11.8227C8.40911 11.9518 8.27057 12.0664 8.12266 12.1664C7.97474 12.2643 7.81849 12.3466 7.65391 12.4133C7.49141 12.482 7.32266 12.5331 7.14766 12.5664C6.97474 12.6018 6.79661 12.6195 6.61328 12.6195ZM9.81328 9.41954H7.25391C7.21016 9.41954 7.17266 9.40391 7.14141 9.37266C7.11016 9.34141 7.09453 9.30391 7.09453 9.26016V6.70079C7.09453 6.65704 7.11016 6.61954 7.14141 6.58829C7.17266 6.55704 7.21016 6.54141 7.25391 6.54141C7.43516 6.54141 7.61328 6.55912 7.78828 6.59454C7.96328 6.62787 8.13203 6.67891 8.29453 6.74766C8.45911 6.81433 8.61536 6.89766 8.76328 6.99766C8.9112 7.09558 9.04974 7.20912 9.17891 7.33829C9.30599 7.46537 9.41849 7.60391 9.51641 7.75391C9.61641 7.90183 9.69974 8.05704 9.76641 8.21954C9.83516 8.38204 9.88724 8.55079 9.92266 8.72579C9.95807 8.90079 9.97578 9.07891 9.97578 9.26016C9.97578 9.30391 9.96016 9.34141 9.92891 9.37266C9.89766 9.40391 9.85911 9.41954 9.81328 9.41954ZM7.41328 9.10079H9.65078C9.62995 8.80079 9.55807 8.51954 9.43516 8.25704C9.31224 7.99454 9.15078 7.76433 8.95078 7.56641C8.75078 7.36641 8.51953 7.20495 8.25703 7.08204C7.99453 6.95704 7.71328 6.88516 7.41328 6.86641V9.10079Z" fill="#F04B24" stroke="#F04B24" stroke-width="0.5"/>
</svg>