<svg width="14" height="17" viewBox="0 0 14 17" fill="none" xmlns="http://www.w3.org/2000/svg">
    <path d="M9.39258 8.30312C9.66862 8.30312 9.92904 8.25104 10.1738 8.14687C10.4186 8.0427 10.6296 7.89947 10.8066 7.71718C10.9889 7.53489 11.1322 7.32395 11.2363 7.08437C11.3405 6.83958 11.3926 6.57916 11.3926 6.30312C11.3926 6.02708 11.3405 5.76926 11.2363 5.52968C11.1322 5.28489 10.9889 5.07135 10.8066 4.88906C10.6296 4.70676 10.4186 4.56354 10.1738 4.45937C9.92904 4.3552 9.66862 4.30312 9.39258 4.30312C9.11654 4.30312 8.85612 4.3552 8.61133 4.45937C8.37174 4.56354 8.16081 4.70676 7.97852 4.88906C7.80143 5.07135 7.6582 5.28489 7.54883 5.52968C7.44466 5.76926 7.39258 6.02708 7.39258 6.30312C7.39258 6.57916 7.44466 6.83958 7.54883 7.08437C7.6582 7.32395 7.80143 7.53489 7.97852 7.71718C8.16081 7.89947 8.37174 8.0427 8.61133 8.14687C8.85612 8.25104 9.11654 8.30312 9.39258 8.30312ZM9.39258 5.09999C9.72591 5.09999 10.0098 5.21718 10.2441 5.45156C10.4785 5.68593 10.5957 5.96979 10.5957 6.30312C10.5957 6.63645 10.4785 6.92031 10.2441 7.15468C10.0098 7.38906 9.72591 7.50624 9.39258 7.50624C9.06445 7.50624 8.7832 7.38906 8.54883 7.15468C8.31445 6.92031 8.19727 6.63645 8.19727 6.30312C8.19727 5.96979 8.31445 5.68593 8.54883 5.45156C8.7832 5.21718 9.06445 5.09999 9.39258 5.09999ZM12.1926 0.899994C12.5259 0.899994 12.8098 1.01718 13.0441 1.25156C13.2785 1.48593 13.3957 1.76979 13.3957 2.10312V14.9047C13.3957 15.2328 13.2785 15.5141 13.0441 15.7484C12.8098 15.9828 12.5259 16.1 12.1926 16.1H1.79883C1.46549 16.1 1.18164 15.9828 0.947266 15.7484C0.712891 15.5141 0.595703 15.2328 0.595703 14.9047V2.10312C0.595703 1.76979 0.712891 1.48593 0.947266 1.25156C1.18164 1.01718 1.46549 0.899994 1.79883 0.899994H12.1926ZM1.39258 14.9047C1.39258 15.0141 1.43164 15.1078 1.50977 15.1859C1.58789 15.2641 1.68424 15.3031 1.79883 15.3031H10.8613L5.25977 9.35781C5.22331 9.32135 5.18164 9.29531 5.13477 9.27968C5.0931 9.25885 5.04883 9.24843 5.00195 9.24843C4.95508 9.24843 4.91081 9.25885 4.86914 9.27968C4.82747 9.30051 4.78841 9.32916 4.75195 9.36562L1.39258 13.0609V14.9047ZM12.5988 14.9047V2.10312C12.5988 1.99374 12.5598 1.89999 12.4816 1.82187C12.4035 1.74374 12.3072 1.70468 12.1926 1.70468H1.79883C1.68424 1.70468 1.58789 1.74374 1.50977 1.82187C1.43164 1.89999 1.39258 1.99374 1.39258 2.10312V11.8656L4.1582 8.82656C4.26758 8.70676 4.39258 8.61562 4.5332 8.55312C4.67904 8.48541 4.83268 8.44895 4.99414 8.44374C5.1556 8.44374 5.30664 8.47499 5.44727 8.53749C5.5931 8.59999 5.72331 8.68854 5.83789 8.80312L11.9629 15.3031H12.1926C12.3072 15.3031 12.4035 15.2641 12.4816 15.1859C12.5598 15.1078 12.5988 15.0141 12.5988 14.9047Z" fill="#F18600"/>
</svg>