<svg width="14" height="17" viewBox="0 0 14 17" fill="none" xmlns="http://www.w3.org/2000/svg">
    <path d="M13.2773 4.62109C13.3138 4.65755 13.3424 4.70182 13.3633 4.75391C13.3841 4.80078 13.3945 4.85026 13.3945 4.90234V14.9023C13.3945 15.2305 13.2773 15.5117 13.043 15.7461C12.8086 15.9805 12.5273 16.0977 12.1992 16.0977H1.79297C1.46484 16.0977 1.18359 15.9805 0.949219 15.7461C0.714844 15.5117 0.597656 15.2305 0.597656 14.9023V2.09766C0.597656 1.76953 0.714844 1.48828 0.949219 1.25391C1.18359 1.01953 1.46484 0.902344 1.79297 0.902344H9.39453C9.44661 0.902344 9.49609 0.91276 9.54297 0.933594C9.59505 0.954427 9.63932 0.983073 9.67578 1.01953L13.2773 4.62109ZM12.4336 4.90234L9.39453 1.86328V4.50391C9.39453 4.61328 9.43359 4.70703 9.51172 4.78516C9.58984 4.86328 9.68359 4.90234 9.79297 4.90234H12.4336ZM12.1992 15.3008C12.3086 15.3008 12.4023 15.2617 12.4805 15.1836C12.5586 15.1055 12.5977 15.0117 12.5977 14.9023V5.69922H9.79297C9.46484 5.69922 9.18359 5.58203 8.94922 5.34766C8.71484 5.11328 8.59766 4.83203 8.59766 4.50391V1.69922H1.79297C1.68359 1.69922 1.58984 1.73828 1.51172 1.81641C1.43359 1.89453 1.39453 1.98828 1.39453 2.09766V14.9023C1.39453 15.0117 1.43359 15.1055 1.51172 15.1836C1.58984 15.2617 1.68359 15.3008 1.79297 15.3008H12.1992Z" fill="#6D7680"/>
    <path d="M9.49609 8.10156H3.49609C3.44141 8.10156 3.39453 8.08203 3.35547 8.04297C3.31641 8.00391 3.29688 7.95703 3.29688 7.90234C3.29688 7.84505 3.31641 7.79688 3.35547 7.75781C3.39453 7.71875 3.44141 7.69922 3.49609 7.69922H9.49609C9.55078 7.69922 9.59766 7.71875 9.63672 7.75781C9.67578 7.79688 9.69531 7.84505 9.69531 7.90234C9.69531 7.95703 9.67578 8.00391 9.63672 8.04297C9.59766 8.08203 9.55078 8.10156 9.49609 8.10156ZM9.49609 10.1016H3.49609C3.44141 10.1016 3.39453 10.082 3.35547 10.043C3.31641 10.0039 3.29688 9.95703 3.29688 9.90234C3.29688 9.84505 3.31641 9.79688 3.35547 9.75781C3.39453 9.71875 3.44141 9.69922 3.49609 9.69922H9.49609C9.55078 9.69922 9.59766 9.71875 9.63672 9.75781C9.67578 9.79688 9.69531 9.84505 9.69531 9.90234C9.69531 9.95703 9.67578 10.0039 9.63672 10.043C9.59766 10.082 9.55078 10.1016 9.49609 10.1016ZM9.49609 12.1016H3.49609C3.44141 12.1016 3.39453 12.082 3.35547 12.043C3.31641 12.0039 3.29688 11.957 3.29688 11.9023C3.29688 11.8451 3.31641 11.7969 3.35547 11.7578C3.39453 11.7188 3.44141 11.6992 3.49609 11.6992H9.49609C9.55078 11.6992 9.59766 11.7188 9.63672 11.7578C9.67578 11.7969 9.69531 11.8451 9.69531 11.9023C9.69531 11.957 9.67578 12.0039 9.63672 12.043C9.59766 12.082 9.55078 12.1016 9.49609 12.1016Z" fill="#6D7680" stroke="#6D7680" stroke-width="0.5"/>
</svg>
