<svg width="19" height="19" viewBox="0 1 19 20" fill="none" xmlns="http://www.w3.org/2000/svg">
    <path d="M12.7718 7.25002V6.12502C12.7718 6.02561 12.6911 5.94485 12.5917 5.94485H6.64675L9.60339 9.64065C9.74802 9.82143 9.74802 10.0786 9.60339 10.2594L6.64675 13.9552H12.5917C12.6911 13.9552 12.7718 13.8744 12.7718 13.775V12.65C12.7718 12.3766 12.9933 12.1552 13.2667 12.1552C13.5401 12.1552 13.7615 12.3766 13.7615 12.65V13.775C13.7615 14.4212 13.2378 14.9448 12.5917 14.9448H5.61667C5.42639 14.9448 5.25261 14.836 5.17019 14.6645C5.08782 14.493 5.11111 14.2892 5.22995 14.1406L8.5821 9.95002L5.22995 5.7594C5.11111 5.61085 5.08782 5.40705 5.17019 5.23557C5.25261 5.06407 5.42639 4.9552 5.61667 4.9552H12.5917C13.2378 4.9552 13.7615 5.47885 13.7615 6.12502V7.25002C13.7615 7.52341 13.5401 7.74485 13.2667 7.74485C12.9933 7.74485 12.7718 7.52341 12.7718 7.25002Z" fill="#00C18D"/>
</svg>
