<?xml version="1.0" encoding="UTF-8"?>
<svg width="16" height="16" viewBox="0 0 16 16" fill="none" xmlns="http://www.w3.org/2000/svg">
    <path d="M3.04302 11.3331C3.07224 11.1556 3.32745 11.1556 3.35669 11.3331C3.46744 12.0054 3.99439 12.5324 4.66673 12.6432C4.84423 12.6723 4.84423 12.9276 4.66673 12.9569C3.99439 13.0675 3.46744 13.5945 3.35669 14.2669C3.32745 14.4444 3.07224 14.4444 3.04302 14.2669C2.93227 13.5945 2.40531 13.0675 1.73297 12.9569C1.55548 12.9276 1.55548 12.6723 1.73297 12.6432C2.40531 12.5324 2.93227 12.0054 3.04302 11.3331Z" fill="#B0BECA"/>
    <path d="M12.643 1.73313C12.6723 1.55563 12.9274 1.55563 12.9567 1.73313C13.0674 2.40546 13.5944 2.93242 14.2668 3.04317C14.4442 3.0724 14.4442 3.32761 14.2668 3.35684C13.5944 3.46759 13.0674 3.99454 12.9567 4.66689C12.9274 4.84438 12.6723 4.84438 12.643 4.66689C12.5322 3.99454 12.0053 3.46759 11.333 3.35684C11.1555 3.32761 11.1555 3.0724 11.333 3.04317C12.0053 2.93242 12.5322 2.40546 12.643 1.73313Z" fill="#B0BECA"/>
    <path d="M7.59989 14C7.59989 12.57 7.24354 11.5241 6.72958 10.7531C6.21394 9.97968 5.52353 9.45909 4.82098 9.10782C4.11692 8.75579 3.40805 8.57768 2.87176 8.48829C2.60479 8.44379 2.38299 8.42191 2.22958 8.41094C2.15293 8.40547 2.09302 8.40288 2.0538 8.40157C2.03438 8.40092 2.01995 8.40015 2.01083 8.40001H1.99989C1.77898 8.40001 1.59989 8.22092 1.59989 8.00001C1.59989 7.7791 1.77898 7.60001 1.99989 7.60001H2.01083C2.01995 7.59986 2.03438 7.59909 2.0538 7.59844C2.09302 7.59714 2.15293 7.59454 2.22958 7.58907C2.38299 7.5781 2.60479 7.55622 2.87176 7.51172C3.40805 7.42233 4.11693 7.24422 4.82098 6.89219C5.52353 6.54092 6.21394 6.02034 6.72958 5.24688C7.24354 4.47593 7.59989 3.43001 7.59989 2.00001C7.59989 1.77909 7.77898 1.60001 7.99989 1.60001C8.2208 1.60001 8.39989 1.77909 8.39989 2.00001C8.39989 3.43001 8.75623 4.47593 9.2702 5.24688C9.78584 6.02034 10.4762 6.54092 11.1788 6.89219C11.8829 7.24422 12.5917 7.42233 13.128 7.51172C13.395 7.55622 13.6168 7.5781 13.7702 7.58907C13.8468 7.59454 13.9068 7.59714 13.946 7.59844C13.9654 7.59909 13.9798 7.59986 13.989 7.60001H13.9999L14.0804 7.60782C14.2627 7.64504 14.3999 7.80664 14.3999 8.00001C14.3999 8.19337 14.2627 8.35497 14.0804 8.39219L13.9999 8.40001H13.989C13.9798 8.40015 13.9654 8.40092 13.946 8.40157C13.9068 8.40288 13.8468 8.40547 13.7702 8.41094C13.6168 8.42191 13.395 8.44379 13.128 8.48829C12.5917 8.57768 11.8829 8.75579 11.1788 9.10782C10.4763 9.45909 9.78584 9.97968 9.2702 10.7531C8.78831 11.476 8.44477 12.4405 8.4038 13.7367L8.39989 14L8.39208 14.0805C8.35486 14.2628 8.19326 14.4 7.99989 14.4C7.77898 14.4 7.59989 14.2209 7.59989 14Z" fill="#B0BECA"/>
</svg>
