<?xml version="1.0" encoding="UTF-8"?>
<svg width="17px" height="9px" viewBox="0 0 17 9" version="1.1" xmlns="http://www.w3.org/2000/svg" xmlns:xlink="http://www.w3.org/1999/xlink">
    <!-- Generator: Sketch 52.5 (67469) - http://www.bohemiancoding.com/sketch -->
    <title>all</title>
    <desc>Created with Sketch.</desc>
    <g id="Spec" stroke="none" stroke-width="1" fill="none" fill-rule="evenodd">
        <g id="Conditions" transform="translate(-256.000000, -243.000000)" fill="#AFBFCA" fill-rule="nonzero">
            <g id="Group-2" transform="translate(241.000000, 208.000000)">
                <g id="Group-4">
                    <g id="Group" transform="translate(14.000000, 35.000000)">
                        <g id="all" transform="translate(1.000000, 0.000000)">
                            <path d="M12.1429687,0 C12.9335977,0 13.6597623,0.184763777 14.3214844,0.554296875 C14.9832064,0.923829973 15.5117168,1.42655932 15.9070313,2.0625 C16.3023457,2.69844068 16.5,3.3859338 16.5,4.125 C16.5,4.8640662 16.3023457,5.55155932 15.9070313,6.1875 C15.5117168,6.82344068 14.9832064,7.32617003 14.3214844,7.69570313 C13.6597623,8.06523622 12.9335977,8.25 12.1429687,8.25 C10.7507743,8.25 9.45313102,7.57110054 8.25,6.21328125 C7.04686898,7.57110054 5.74922571,8.25 4.35703125,8.25 C3.5664023,8.25 2.84023768,8.06523622 2.17851562,7.69570313 C1.51679357,7.32617003 0.988283227,6.82344068 0.59296875,6.1875 C0.197654273,5.55155932 0,4.8640662 0,4.125 C0,3.3859338 0.197654273,2.69844068 0.59296875,2.0625 C0.988283227,1.42655932 1.51679357,0.923829973 2.17851562,0.554296875 C2.84023768,0.184763777 3.5664023,0 4.35703125,0 C5.74922571,0 7.04686898,0.678899461 8.25,2.03671875 C9.45313102,0.678899461 10.7507743,0 12.1429687,0 Z M4.35703125,5.775 C4.80390848,5.775 5.26796634,5.58593939 5.74921875,5.2078125 C6.11015805,4.93281113 6.45390462,4.57187723 6.78046875,4.125 C6.45390462,3.67812277 6.11015805,3.31718887 5.74921875,3.0421875 C5.26796634,2.66406061 4.80390848,2.475 4.35703125,2.475 C3.84140367,2.475 3.39882997,2.63827962 3.02929688,2.96484375 C2.65976378,3.29140788 2.475,3.67812277 2.475,4.125 C2.475,4.57187723 2.65976378,4.95859212 3.02929688,5.28515625 C3.39882997,5.61172038 3.84140367,5.775 4.35703125,5.775 Z M12.1429688,5.775 C12.6585963,5.775 13.10117,5.61172038 13.4707031,5.28515625 C13.8402362,4.95859212 14.025,4.57187723 14.025,4.125 C14.025,3.67812277 13.8402362,3.29140788 13.4707031,2.96484375 C13.10117,2.63827962 12.6585963,2.475 12.1429688,2.475 C11.6960915,2.475 11.2320337,2.66406061 10.7507812,3.0421875 C10.3898419,3.31718887 10.0460954,3.67812277 9.71953125,4.125 C10.0460954,4.57187723 10.3984356,4.93281113 10.7765625,5.2078125 C11.2406273,5.58593939 11.6960915,5.775 12.1429688,5.775 Z" id="shape" transform="translate(8.250000, 4.125000) rotate(-360.000000) translate(-8.250000, -4.125000) "></path>
                        </g>
                    </g>
                </g>
            </g>
        </g>
    </g>
</svg>