<svg width="13" height="10" viewBox="0 0 13 10" fill="none" xmlns="http://www.w3.org/2000/svg">
<path d="M3.92066 9.24829L3.93654 9.25487L3.9531 9.25951C4.01441 9.27668 4.07751 9.28571 4.14174 9.28571C4.20596 9.28571 4.27005 9.27666 4.33264 9.25719L4.34024 9.25483L4.3477 9.25204C4.42085 9.22473 4.48731 9.18262 4.54318 9.12553L12.5397 1.66727L12.5398 1.66721C12.6505 1.56394 12.7143 1.42703 12.7143 1.27083C12.7143 1.11532 12.6536 0.975417 12.5398 0.869253C12.4297 0.766519 12.2926 0.714286 12.144 0.714286C11.9954 0.714286 11.8582 0.76652 11.7481 0.869252L4.14174 7.96855L1.68044 5.67134C1.57037 5.5686 1.43321 5.51637 1.2846 5.51637C1.13599 5.51637 0.998828 5.5686 0.888758 5.67133C0.778113 5.7746 0.714286 5.91151 0.714286 6.06771C0.714286 6.2239 0.778113 6.36081 0.888757 6.46408L3.74012 9.12536C3.79093 9.17747 3.85136 9.21954 3.92066 9.24829Z" fill="#2CC19F" stroke="#2CC19F" stroke-width="0.571429"/>
</svg>
