<svg width="16" height="16" viewBox="0 0 20 20" xmlns="http://www.w3.org/2000/svg">
    <g fill="#b0beca" fill-rule="nonzero">
        <path d="M18.6533 2.00781C19.4097 2.08461 20 2.72334 20 3.5V16.5C20 17.2767 19.4097 17.9154 18.6533 17.9922L18.5 18H1.5L1.34668 17.9922C0.590277 17.9154 0 17.2767 0 16.5V3.5C0 2.72334 0.590277 2.08461 1.34668 2.00781L1.5 2H18.5L18.6533 2.00781ZM1 16.5C1 16.7761 1.22386 17 1.5 17H18.5C18.7761 17 19 16.7761 19 16.5V6H1V16.5ZM5.15332 10.5078C5.90972 10.5846 6.5 11.2233 6.5 12V13.5L6.49219 13.6533C6.42051 14.3593 5.85931 14.9205 5.15332 14.9922L5 15H3.5L3.34668 14.9922C2.64069 14.9205 2.07949 14.3593 2.00781 13.6533L2 13.5V12C2 11.2233 2.59028 10.5846 3.34668 10.5078L3.5 10.5H5L5.15332 10.5078ZM10.9033 10.5078C11.6597 10.5846 12.25 11.2233 12.25 12V13.5L12.2422 13.6533C12.1705 14.3593 11.6093 14.9205 10.9033 14.9922L10.75 15H9.25L9.09668 14.9922C8.39069 14.9205 7.82949 14.3593 7.75781 13.6533L7.75 13.5V12C7.75 11.2233 8.34028 10.5846 9.09668 10.5078L9.25 10.5H10.75L10.9033 10.5078ZM16.6533 10.5078C17.4097 10.5846 18 11.2233 18 12V13.5L17.9922 13.6533C17.9205 14.3593 17.3593 14.9205 16.6533 14.9922L16.5 15H15L14.8467 14.9922C14.1407 14.9205 13.5795 14.3593 13.5078 13.6533L13.5 13.5V12C13.5 11.2233 14.0903 10.5846 14.8467 10.5078L15 10.5H16.5L16.6533 10.5078ZM3.5 11.5C3.22386 11.5 3 11.7239 3 12V13.5C3 13.7761 3.22386 14 3.5 14H5C5.27614 14 5.5 13.7761 5.5 13.5V12C5.5 11.7239 5.27614 11.5 5 11.5H3.5ZM9.25 11.5C8.97386 11.5 8.75 11.7239 8.75 12V13.5C8.75 13.7761 8.97386 14 9.25 14H10.75C11.0261 14 11.25 13.7761 11.25 13.5V12C11.25 11.7239 11.0261 11.5 10.75 11.5H9.25ZM15 11.5C14.7239 11.5 14.5 11.7239 14.5 12V13.5C14.5 13.7761 14.7239 14 15 14H16.5C16.7761 14 17 13.7761 17 13.5V12C17 11.7239 16.7761 11.5 16.5 11.5H15ZM9 9H2V8H9V9ZM1.5 3C1.22386 3 1 3.22386 1 3.5V5H19V3.5C19 3.22386 18.7761 3 18.5 3H1.5Z" />
    </g>
</svg>
