<?xml version="1.0" encoding="UTF-8" standalone="no"?>
<svg width="12px" height="12px" viewBox="0 0 12 12" version="1.1" xmlns="http://www.w3.org/2000/svg" xmlns:xlink="http://www.w3.org/1999/xlink" xmlns:sketch="http://www.bohemiancoding.com/sketch/ns">
    <!-- Generator: Sketch 3.3.2 (12043) - http://www.bohemiancoding.com/sketch -->
    <title>date</title>
    <desc>Created with Sketch.</desc>
    <defs></defs>
    <g id="Screens" stroke="none" stroke-width="1" fill="none" fill-rule="evenodd" sketch:type="MSPage">
        <path d="M10.869,1.003 L9.47,1.003 L9.47,0.512 C9.47,0.225 9.252,0 8.972,0 C8.703,0 8.475,0.235 8.475,0.512 L8.475,1.003 L3.526,1.003 L3.526,0.512 C3.526,0.225 3.307,0 3.028,0 C2.758,0 2.53,0.235 2.53,0.512 L2.53,1.003 L1.131,1.003 C0.486,1.003 0,1.558 0,2.295 L0,10.91 C0,11.469 0.539,11.979 1.131,11.979 L10.869,11.979 C11.461,11.979 12,11.469 12,10.91 L12,2.295 C12,1.558 11.514,1.003 10.869,1.003 L10.869,1.003 Z M11.004,5.009 L11.004,10.805 C11.004,10.876 10.946,10.954 10.869,10.954 L1.131,10.954 C1.054,10.954 0.996,10.89 0.996,10.805 L0.996,5.009 L11.004,5.009 L11.004,5.009 Z M3.028,2.945 C3.307,2.945 3.526,2.72 3.526,2.432 L3.526,2.028 L8.475,2.028 L8.475,2.432 C8.475,2.72 8.693,2.945 8.972,2.945 C9.252,2.945 9.47,2.72 9.47,2.432 L9.47,2.028 L10.869,2.028 C10.946,2.028 11.004,2.092 11.004,2.176 L11.004,3.971 L0.996,3.971 L0.996,2.176 C0.996,2.106 1.054,2.028 1.131,2.028 L2.53,2.028 L2.53,2.432 C2.53,2.72 2.749,2.945 3.028,2.945 L3.028,2.945 Z M5.832,7.683 C6.01,7.382 6.033,6.952 5.899,6.627 C5.776,6.29 5.442,6.104 5.096,6.035 C4.772,5.965 4.427,5.965 4.103,6 C3.713,6.035 3.323,6.139 3.111,6.476 C3.021,6.615 2.932,6.789 3.021,6.94 C3.088,7.056 3.222,7.068 3.345,7.033 C3.523,6.987 3.512,6.847 3.601,6.708 C3.679,6.58 3.847,6.534 3.992,6.511 C4.259,6.453 4.572,6.464 4.85,6.499 C5.007,6.522 5.185,6.546 5.308,6.65 C5.397,6.755 5.43,6.929 5.442,7.068 C5.442,7.219 5.408,7.405 5.285,7.509 C5.163,7.614 5.025,7.655 4.88,7.678 C4.757,7.702 4.634,7.702 4.501,7.702 C4.378,7.702 4.278,7.702 4.188,7.795 C4.066,7.922 4.11,8.156 4.255,8.225 C4.344,8.272 4.445,8.26 4.534,8.26 C4.779,8.26 5.151,8.218 5.308,8.427 C5.475,8.647 5.486,9.111 5.23,9.274 C4.951,9.448 4.516,9.437 4.204,9.413 C4.059,9.402 3.891,9.39 3.757,9.309 C3.702,9.274 3.646,9.239 3.601,9.181 C3.546,9.111 3.546,9.007 3.479,8.937 C3.39,8.833 3.233,8.833 3.122,8.902 C2.977,8.995 2.988,9.181 3.044,9.32 C3.356,9.982 4.259,10.029 4.906,9.959 C5.252,9.913 5.609,9.808 5.821,9.518 C6.033,9.216 6.044,8.763 5.921,8.427 C5.854,8.229 5.731,8.113 5.598,7.985 C5.687,7.892 5.765,7.799 5.832,7.683 L5.832,7.683 Z M8.975,6.167 C8.964,6.144 8.952,6.12 8.941,6.097 C8.929,6.073 8.917,6.061 8.894,6.05 C8.871,6.026 8.848,6.014 8.802,6.003 C8.778,5.991 8.767,5.991 8.744,5.991 L8.709,5.991 L8.651,5.991 C8.628,5.991 8.605,6.003 8.57,6.014 C8.547,6.026 8.523,6.05 8.512,6.061 L7.054,7.551 C7.042,7.575 7.019,7.598 7.019,7.61 C6.996,7.645 6.996,7.681 6.996,7.716 C6.984,7.751 6.996,7.786 6.996,7.81 C7.008,7.845 7.031,7.868 7.054,7.904 C7.077,7.927 7.1,7.951 7.146,7.962 C7.204,7.986 7.286,7.986 7.343,7.962 C7.378,7.951 7.401,7.927 7.436,7.904 L8.419,6.872 L8.419,9.736 C8.419,9.76 8.431,9.783 8.442,9.819 C8.454,9.854 8.477,9.877 8.5,9.901 C8.523,9.924 8.547,9.948 8.593,9.959 C8.628,9.971 8.674,9.983 8.709,9.983 C8.744,9.983 8.79,9.971 8.813,9.959 C8.848,9.948 8.871,9.924 8.906,9.901 C8.929,9.877 8.941,9.854 8.964,9.819 C8.975,9.783 8.987,9.748 8.987,9.713 L8.987,6.214 C8.987,6.214 8.975,6.191 8.975,6.167 L8.975,6.167 Z" id="date" fill="#b0beca" sketch:type="MSShapeGroup"></path>
    </g>
</svg>