<svg width="14" height="15" viewBox="0 0 14 15" fill="none" xmlns="http://www.w3.org/2000/svg">
<path d="M6.2002 10.9512C6.13184 10.8828 6.04753 10.8486 5.94727 10.8486C5.85156 10.8486 5.76953 10.8828 5.70117 10.9512L3.5 13.1523V1.05273C3.5 0.952474 3.46582 0.868164 3.39746 0.799805C3.3291 0.731445 3.24707 0.697266 3.15137 0.697266C3.05566 0.697266 2.97363 0.731445 2.90527 0.799805C2.83691 0.868164 2.80273 0.952474 2.80273 1.05273V13.1523L0.594727 10.9512C0.526367 10.8828 0.444336 10.8486 0.348633 10.8486C0.25293 10.8486 0.170898 10.8828 0.102539 10.9512C0.0341797 11.0195 0 11.1038 0 11.2041C0 11.2998 0.0341797 11.3818 0.102539 11.4502L2.90527 14.2461C2.93717 14.2826 2.97363 14.3076 3.01465 14.3213C3.06022 14.3395 3.10579 14.3486 3.15137 14.3486C3.19694 14.3486 3.24023 14.3395 3.28125 14.3213C3.32682 14.3076 3.36556 14.2826 3.39746 14.2461L6.2002 11.4502C6.26855 11.3818 6.30273 11.2998 6.30273 11.2041C6.30273 11.1038 6.26855 11.0195 6.2002 10.9512ZM12.25 6.30273H10.8486C10.5889 6.30273 10.3564 6.26172 10.1514 6.17969C9.94629 6.0931 9.77083 5.9974 9.625 5.89258C9.48372 5.78776 9.37435 5.69206 9.29688 5.60547C9.2194 5.51888 9.17611 5.47103 9.16699 5.46191C9.1123 5.38444 9.0918 5.29785 9.10547 5.20215C9.11914 5.10645 9.16471 5.02897 9.24219 4.96973C9.31966 4.91048 9.40625 4.8877 9.50195 4.90137C9.59766 4.91504 9.67285 4.96061 9.72754 5.03809C9.7321 5.04264 9.83464 5.13835 10.0352 5.3252C10.2357 5.50749 10.5068 5.59863 10.8486 5.59863H12.25C12.5417 5.59863 12.79 5.49609 12.9951 5.29102C13.2002 5.08594 13.3027 4.83984 13.3027 4.55273V4.19727H10.8486C10.6071 4.19727 10.3792 4.15169 10.165 4.06055C9.9554 3.9694 9.77083 3.84635 9.61133 3.69141C9.45182 3.5319 9.3265 3.34505 9.23535 3.13086C9.14421 2.91667 9.09863 2.6888 9.09863 2.44727C9.09863 2.20573 9.14421 1.98014 9.23535 1.77051C9.3265 1.55632 9.45182 1.37174 9.61133 1.2168C9.77083 1.05729 9.9554 0.931966 10.165 0.84082C10.3792 0.745117 10.6071 0.697266 10.8486 0.697266H12.25C12.4915 0.697266 12.7171 0.745117 12.9268 0.84082C13.141 0.931966 13.3278 1.05729 13.4873 1.2168C13.6468 1.37174 13.7721 1.55632 13.8633 1.77051C13.9544 1.98014 14 2.20573 14 2.44727V4.55273C14 4.79427 13.9544 5.02214 13.8633 5.23633C13.7721 5.44596 13.6468 5.63053 13.4873 5.79004C13.3278 5.94499 13.141 6.07031 12.9268 6.16602C12.7171 6.25716 12.4915 6.30273 12.25 6.30273ZM10.8486 1.40137C10.5615 1.40137 10.3154 1.50391 10.1104 1.70898C9.90527 1.91406 9.80273 2.16016 9.80273 2.44727C9.80273 2.73893 9.90527 2.9873 10.1104 3.19238C10.3154 3.39746 10.5615 3.5 10.8486 3.5H13.3027V2.44727C13.3027 2.16016 13.2002 1.91406 12.9951 1.70898C12.79 1.50391 12.5417 1.40137 12.25 1.40137H10.8486ZM12.25 9.09863H10.8486C10.6071 9.09863 10.3792 9.14421 10.165 9.23535C9.9554 9.3265 9.77083 9.45182 9.61133 9.61133C9.45182 9.77083 9.3265 9.95768 9.23535 10.1719C9.14421 10.3815 9.09863 10.6071 9.09863 10.8486V12.9473C9.09863 13.1888 9.14421 13.4167 9.23535 13.6309C9.3265 13.8451 9.45182 14.0296 9.61133 14.1846C9.77083 14.3441 9.9554 14.4694 10.165 14.5605C10.3792 14.6517 10.6071 14.6973 10.8486 14.6973H12.25C12.4915 14.6973 12.7171 14.6517 12.9268 14.5605C13.141 14.4694 13.3278 14.3441 13.4873 14.1846C13.6468 14.0296 13.7721 13.8451 13.8633 13.6309C13.9544 13.4167 14 13.1888 14 12.9473V10.8486C14 10.6071 13.9544 10.3815 13.8633 10.1719C13.7721 9.95768 13.6468 9.77083 13.4873 9.61133C13.3278 9.45182 13.141 9.3265 12.9268 9.23535C12.7171 9.14421 12.4915 9.09863 12.25 9.09863ZM9.80273 10.8486C9.80273 10.5615 9.90527 10.3154 10.1104 10.1104C10.3154 9.90527 10.5615 9.80273 10.8486 9.80273H12.25C12.3457 9.80273 12.4368 9.81413 12.5234 9.83691C12.61 9.8597 12.6921 9.89388 12.7695 9.93945L9.87109 13.3232C9.84831 13.264 9.83008 13.2048 9.81641 13.1455C9.80729 13.0817 9.80273 13.0156 9.80273 12.9473V10.8486ZM13.3027 12.9473C13.3027 13.2389 13.2002 13.4873 12.9951 13.6924C12.79 13.8975 12.5417 14 12.25 14H10.8486C10.7529 14 10.6618 13.9886 10.5752 13.9658C10.4886 13.9385 10.4066 13.9043 10.3291 13.8633L13.2344 10.4795C13.2526 10.5342 13.2686 10.5934 13.2822 10.6572C13.2959 10.721 13.3027 10.7848 13.3027 10.8486V12.9473Z" fill="#687581"/>
</svg>
