<svg width="18" height="18" viewBox="0 0 18 18" fill="none" xmlns="http://www.w3.org/2000/svg">
    <path fill-rule="evenodd" clip-rule="evenodd" d="M2 1.5H16C16.2761 1.5 16.5 1.72386 16.5 2V16C16.5 16.2761 16.2761 16.5 16 16.5H2C1.72386 16.5 1.5 16.2761 1.5 16V15.0001V14.9999V2C1.5 1.72386 1.72386 1.5 2 1.5ZM2.5 15.5V15.2071L7 10.707L10.1464 13.8536L10.2157 13.9114C10.4106 14.0464 10.68 14.0271 10.8536 13.8536C11.0488 13.6583 11.0488 13.3417 10.8536 13.1464L9.2071 11.5L12 8.707L15.5 12.2071V15.5H2.5ZM15.5 10.7929V2.5H2.5V13.7929L7 9.29289L8.5 10.7929L12 7.29289L15.5 10.7929Z" fill="#F18600"/>
    <path fill-rule="evenodd" clip-rule="evenodd" d="M4 6.25C4 5.00736 5.00736 4 6.25 4C7.49264 4 8.5 5.00736 8.5 6.25C8.5 7.49264 7.49264 8.5 6.25 8.5C5.00736 8.5 4 7.49264 4 6.25ZM7.5 6.25C7.5 5.55964 6.94036 5 6.25 5C5.55964 5 5 5.55964 5 6.25C5 6.94036 5.55964 7.5 6.25 7.5C6.94036 7.5 7.5 6.94036 7.5 6.25Z" fill="#F18600"/>
</svg>
