<svg width="16" height="16" xmlns="http://www.w3.org/2000/svg"><path d="M7.64900648 5.67078302c.19526215-.19526215.51184464-.19526215.70710678 0 .17356635.17356635.1928515.44299075.05785545.63785889l-.05785545.06924789-4 4c-.19526214.1952621-.51184463.1952621-.70710678 0-.17356635-.1735664-.1928515-.44299075-.05785545-.63785889l.05785545-.06924789 4-4zm.5 2.5c.19526215-.19526215.51184464-.19526215.70710678 0 .17356635.17356635.1928515.44299075.05785545.63785889l-.05785545.06924789-3 3c-.19526214.1952621-.51184463.1952621-.70710678 0-.17356635-.1735664-.1928515-.4429908-.05785545-.6378589l.05785545-.0692479 3-2.99999998zM9.41421107.2218279c.11128351-.11128351.26846715-.16367806.42426407-.14142136l4.94974746.70710679c.2199888.03142696.3928371.20427529.4242641.42426406l.7071068 4.94974747c.0222567.15579692-.0301379.31298056-.1414214.42426407L6.58578394 15.7781771c-.19526214.1952621-.51184463.1952621-.70710678 0L.22182291 10.1213228c-.19526214-.19526211-.19526214-.5118446 0-.70710674L9.41421107.2218279zm.53033009.88388348L1.28248309 9.76776945l4.94974746 4.94974745 8.66205805-8.66205806-.6187184-4.33102903-4.33102904-.61871843zm2.61977314 2.84728307c-.2761423 0-.5-.22385762-.5-.5 0-.27614237.2238577-.5.5-.5.2761424 0 .5.22385763.5.5 0 .27614238-.2238576.5-.5.5z" fill="#94a1ad" fill-rule="nonzero"/></svg>