<?xml version="1.0" encoding="UTF-8" standalone="no"?>
<svg width="15px" height="16px" viewBox="0 0 15 16" version="1.1" xmlns="http://www.w3.org/2000/svg" xmlns:xlink="http://www.w3.org/1999/xlink" xmlns:sketch="http://www.bohemiancoding.com/sketch/ns">
    <!-- Generator: Sketch 3.3.3 (12081) - http://www.bohemiancoding.com/sketch -->
    <title>power</title>
    <desc>Created with Sketch.</desc>
    <defs></defs>
    <g id="Page-1" stroke="none" stroke-width="1" fill="none" fill-rule="evenodd" sketch:type="MSPage">
        <path d="M7.55175781,9.60351562 C7.48730437,9.60351562 7.4287112,9.59179699 7.37597656,9.56835938 C7.32324192,9.54492176 7.27636739,9.51269552 7.23535156,9.47167969 C7.19433573,9.43066386 7.16210949,9.3823245 7.13867188,9.32666016 C7.11523426,9.27099582 7.10351562,9.21093782 7.10351562,9.14648438 L7.10351562,1.05175781 C7.10351562,0.987304365 7.11523426,0.928711201 7.13867188,0.875976562 C7.16210949,0.823241924 7.19433573,0.776367393 7.23535156,0.735351562 C7.27636739,0.694335732 7.32324192,0.662109492 7.37597656,0.638671875 C7.4287112,0.615234258 7.48730437,0.603515625 7.55175781,0.603515625 C7.61035186,0.603515625 7.66748019,0.615234258 7.72314453,0.638671875 C7.77880887,0.662109492 7.82714823,0.694335732 7.86816406,0.735351562 C7.90917989,0.776367393 7.94140613,0.823241924 7.96484375,0.875976562 C7.98828137,0.928711201 8,0.987304365 8,1.05175781 L8,9.14648438 C8,9.21093782 7.98828137,9.27099582 7.96484375,9.32666016 C7.94140613,9.3823245 7.90917989,9.43066386 7.86816406,9.47167969 C7.82714823,9.51269552 7.77880887,9.54492176 7.72314453,9.56835938 C7.66748019,9.59179699 7.61035186,9.60351562 7.55175781,9.60351562 L7.55175781,9.60351562 Z M7.55175781,15.8964844 C7.10058368,15.8964844 6.65820529,15.8540043 6.22460938,15.769043 C5.79101346,15.6840816 5.37207233,15.5581063 4.96777344,15.3911133 C4.56347454,15.2241203 4.17675966,15.0175794 3.80761719,14.7714844 C3.43847472,14.5253894 3.09570471,14.2412125 2.77929688,13.9189453 C2.45702964,13.6025375 2.17285279,13.2597675 1.92675781,12.890625 C1.68066283,12.5214825 1.47412193,12.1347676 1.30712891,11.7304688 C1.14013588,11.3261699 1.01416058,10.9072287 0.929199219,10.4736328 C0.844237856,10.0400369 0.801757812,9.59765851 0.801757812,9.14648438 C0.801757812,8.7773419 0.831054395,8.41259946 0.889648438,8.05224609 C0.94824248,7.69189273 1.0346674,7.34033375 1.14892578,6.99755859 C1.26318417,6.65478344 1.40527259,6.32373207 1.57519531,6.00439453 C1.74511804,5.685057 1.94140514,5.37597806 2.1640625,5.07714844 C2.38086046,4.79589703 2.61816277,4.53076296 2.87597656,4.28173828 C3.13379035,4.0327136 3.40917822,3.80712992 3.70214844,3.60498047 C3.99511865,3.40283102 4.30273276,3.22412187 4.625,3.06884766 C4.94726724,2.91357344 5.27831861,2.78320365 5.61816406,2.67773438 C5.68261751,2.66015616 5.74414033,2.65576167 5.80273438,2.66455078 C5.86132842,2.67333989 5.91552709,2.69091784 5.96533203,2.71728516 C6.01513697,2.74365248 6.05908184,2.7802732 6.09716797,2.82714844 C6.1352541,2.87402367 6.16308585,2.92675752 6.18066406,2.98535156 C6.19824228,3.04394561 6.20410159,3.10253877 6.19824219,3.16113281 C6.19238278,3.21972686 6.17480483,3.27392553 6.14550781,3.32373047 C6.11621079,3.37353541 6.07959006,3.41748028 6.03564453,3.45556641 C5.991699,3.49365253 5.94042998,3.52148429 5.88183594,3.5390625 C5.26659849,3.72656344 4.70263928,4.00341614 4.18994141,4.36962891 C3.67724353,4.73584167 3.23632997,5.1650366 2.8671875,5.65722656 C2.49804503,6.14941652 2.21093853,6.69433295 2.00585938,7.29199219 C1.80078022,7.88965143 1.69824219,8.50780931 1.69824219,9.14648438 C1.69824219,9.95508217 1.85204924,10.7138636 2.15966797,11.4228516 C2.46728669,12.1318395 2.88622782,12.7514622 3.41650391,13.2817383 C3.94678,13.8120144 4.56640271,14.2309555 5.27539062,14.5385742 C5.98437854,14.8461929 6.74316002,15 7.55175781,15 C8.3544962,15 9.11181285,14.8461929 9.82373047,14.5385742 C10.5356481,14.2309555 11.1567356,13.8120144 11.6870117,13.2817383 C12.2172878,12.7514622 12.6347641,12.1318395 12.9394531,11.4228516 C13.2441421,10.7138636 13.3964844,9.95508217 13.3964844,9.14648438 C13.3964844,8.50780931 13.2954112,7.88965143 13.0932617,7.29199219 C12.8911123,6.69433295 12.6054706,6.14941652 12.2363281,5.65722656 C11.8671857,5.1650366 11.4262721,4.73584167 10.9135742,4.36962891 C10.4008763,4.00341614 9.83691714,3.72656344 9.22167969,3.5390625 C9.16308564,3.52148429 9.1103518,3.49365253 9.06347656,3.45556641 C9.01660133,3.41748028 8.9799806,3.37353541 8.95361328,3.32373047 C8.92724596,3.27392553 8.90966801,3.21972686 8.90087891,3.16113281 C8.8920898,3.10253877 8.89941395,3.04394561 8.92285156,2.98535156 C8.94042978,2.92675752 8.96826153,2.87402367 9.00634766,2.82714844 C9.04443378,2.7802732 9.08837866,2.74365248 9.13818359,2.71728516 C9.18798853,2.69091784 9.24218721,2.67333989 9.30078125,2.66455078 C9.35937529,2.65576167 9.41796846,2.66015616 9.4765625,2.67773438 C9.81640795,2.78320365 10.1474593,2.91357344 10.4697266,3.06884766 C10.7919938,3.22412187 11.0996079,3.40283102 11.3925781,3.60498047 C11.6855483,3.80712992 11.962401,4.0327136 12.2231445,4.28173828 C12.483888,4.53076296 12.7197255,4.79589703 12.9306641,5.07714844 C13.1591808,5.37597806 13.3583976,5.685057 13.5283203,6.00439453 C13.698243,6.32373207 13.8403315,6.65478344 13.9545898,6.99755859 C14.0688482,7.34033375 14.1552731,7.69189273 14.2138672,8.05224609 C14.2724612,8.41259946 14.3017578,8.7773419 14.3017578,9.14648438 C14.3017578,9.59765851 14.2578129,10.0400369 14.1699219,10.4736328 C14.0820308,10.9072287 13.9545907,11.3261699 13.7875977,11.7304688 C13.6206046,12.1347676 13.4140637,12.5214825 13.1679688,12.890625 C12.9218738,13.2597675 12.6406266,13.6025375 12.3242188,13.9189453 C12.0019515,14.2412125 11.6577167,14.5253894 11.2915039,14.7714844 C10.9252911,15.0175794 10.5400411,15.2241203 10.1357422,15.3911133 C9.73144329,15.5581063 9.31250217,15.6840816 8.87890625,15.769043 C8.44531033,15.8540043 8.00293194,15.8964844 7.55175781,15.8964844 L7.55175781,15.8964844 Z" id="power" fill="#FFFFFF" sketch:type="MSShapeGroup"></path>
    </g>
</svg>