<?xml version="1.0" encoding="UTF-8" standalone="no"?>
<svg width="14" height="15" viewBox="0 0 14 15" fill="none" xmlns="http://www.w3.org/2000/svg">
<path d="M8 4.99774C8 4.78939 8.1689 4.62048 8.37726 4.62048L11.6227 4.62049C11.8311 4.62049 12 4.78939 12 4.99774C12 5.2061 11.8311 5.375 11.6227 5.375L8.37726 5.375C8.1689 5.375 8 5.2061 8 4.99774Z" fill="#B0BECA"/>
<path d="M8 9.1253C8 8.91695 8.1689 8.74805 8.37726 8.74805H11.6227C11.8311 8.74805 12 8.91695 12 9.1253C12 9.33366 11.8311 9.50256 11.6227 9.50256H8.37726C8.1689 9.50256 8 9.33366 8 9.1253Z" fill="#B0BECA"/>
<path d="M8 10.8753C8 10.667 8.1689 10.498 8.37726 10.498H11.6227C11.8311 10.498 12 10.667 12 10.8753C12 11.0837 11.8311 11.2526 11.6227 11.2526H8.37726C8.1689 11.2526 8 11.0837 8 10.8753Z" fill="#B0BECA"/>
<path d="M4.37707 3.37726C4.37707 3.1689 4.20817 3 3.99982 3C3.79146 3 3.62256 3.1689 3.62256 3.37726V4.62244L2.37726 4.62244C2.1689 4.62244 2 4.79134 2 4.9997C2 5.20805 2.1689 5.37695 2.37726 5.37695H3.62256V6.62274C3.62256 6.8311 3.79146 7 3.99982 7C4.20817 7 4.37707 6.8311 4.37707 6.62274V5.37695H5.62274C5.8311 5.37695 6 5.20805 6 4.9997C6 4.79134 5.8311 4.62244 5.62274 4.62244H4.37707V3.37726Z" fill="#B0BECA"/>
<path d="M5.39888 9.1196C5.54621 8.97228 5.54621 8.73341 5.39888 8.58608C5.25156 8.43875 5.01269 8.43875 4.86536 8.58608L3.98471 9.46673L3.10415 8.58617C2.95682 8.43884 2.71796 8.43884 2.57063 8.58617C2.4233 8.7335 2.4233 8.97236 2.57063 9.11969L3.45119 10.0003L2.57046 10.881C2.42313 11.0283 2.42313 11.2672 2.57046 11.4145C2.71779 11.5618 2.95665 11.5618 3.10398 11.4145L3.98471 10.5338L4.86553 11.4146C5.01286 11.5619 5.25173 11.5619 5.39906 11.4146C5.54639 11.2673 5.54639 11.0284 5.39906 10.8811L4.51824 10.0003L5.39888 9.1196Z" fill="#B0BECA"/>
<path fill-rule="evenodd" clip-rule="evenodd" d="M3 0.5C1.34315 0.5 0 1.84315 0 3.5V11.5C0 13.1569 1.34315 14.5 3 14.5H11C12.6569 14.5 14 13.1569 14 11.5V3.5C14 1.84315 12.6569 0.5 11 0.5H3ZM11 1.25H3C1.75736 1.25 0.75 2.25736 0.75 3.5V11.5C0.75 12.7426 1.75736 13.75 3 13.75H11C12.2426 13.75 13.25 12.7426 13.25 11.5V3.5C13.25 2.25736 12.2426 1.25 11 1.25Z" fill="#B0BECA"/>
</svg>