<svg width="14" height="15" viewBox="0 0 14 15" fill="none" xmlns="http://www.w3.org/2000/svg">
<path d="M6.2002 10.9512C6.13184 10.8828 6.04753 10.8486 5.94727 10.8486C5.85156 10.8486 5.76953 10.8828 5.70117 10.9512L3.5 13.1523V1.05273C3.5 0.952474 3.46582 0.868164 3.39746 0.799805C3.3291 0.731445 3.24707 0.697266 3.15137 0.697266C3.05566 0.697266 2.97363 0.731445 2.90527 0.799805C2.83691 0.868164 2.80273 0.952474 2.80273 1.05273V13.1523L0.594727 10.9512C0.526367 10.8828 0.444336 10.8486 0.348633 10.8486C0.25293 10.8486 0.170898 10.8828 0.102539 10.9512C0.0341797 11.0195 0 11.1038 0 11.2041C0 11.2998 0.0341797 11.3818 0.102539 11.4502L2.90527 14.2461C2.93717 14.2826 2.97363 14.3076 3.01465 14.3213C3.06022 14.3395 3.10579 14.3486 3.15137 14.3486C3.19694 14.3486 3.24023 14.3395 3.28125 14.3213C3.32682 14.3076 3.36556 14.2826 3.39746 14.2461L6.2002 11.4502C6.26855 11.3818 6.30273 11.2998 6.30273 11.2041C6.30273 11.1038 6.26855 11.0195 6.2002 10.9512ZM8.75 11.1973C8.6862 11.1973 8.62467 11.1813 8.56543 11.1494C8.51074 11.1175 8.46745 11.0697 8.43555 11.0059C8.39453 10.9193 8.3877 10.8304 8.41504 10.7393C8.44694 10.6481 8.50618 10.5798 8.59277 10.5342L9.00977 10.3291C8.61784 10.2061 8.25553 10.026 7.92285 9.78906C7.59473 9.55208 7.3099 9.27409 7.06836 8.95508C6.82682 8.63151 6.6377 8.27604 6.50098 7.88867C6.36882 7.49674 6.30273 7.08431 6.30273 6.65137C6.30273 6.11816 6.40299 5.61914 6.60352 5.1543C6.80404 4.6849 7.07747 4.27702 7.42383 3.93066C7.77474 3.57975 8.18262 3.30404 8.64746 3.10352C9.11686 2.90299 9.61816 2.80273 10.1514 2.80273C10.68 2.80273 11.1768 2.90299 11.6416 3.10352C12.111 3.30404 12.5189 3.57975 12.8652 3.93066C13.2161 4.27702 13.4919 4.6849 13.6924 5.1543C13.8975 5.61914 14 6.11816 14 6.65137C14 6.74707 13.9658 6.8291 13.8975 6.89746C13.8291 6.96582 13.7471 7 13.6514 7C13.5557 7 13.4736 6.96582 13.4053 6.89746C13.3369 6.8291 13.3027 6.74707 13.3027 6.65137C13.3027 6.21842 13.2184 5.81055 13.0498 5.42773C12.8857 5.04492 12.6602 4.71224 12.373 4.42969C12.0905 4.14258 11.7578 3.91699 11.375 3.75293C10.9922 3.58431 10.5843 3.5 10.1514 3.5C9.71842 3.5 9.31055 3.58431 8.92773 3.75293C8.54492 3.91699 8.20996 4.14258 7.92285 4.42969C7.6403 4.71224 7.41471 5.04492 7.24609 5.42773C7.08203 5.81055 7 6.21842 7 6.65137C7 7.08431 7.08203 7.49219 7.24609 7.875C7.41471 8.25781 7.6403 8.59277 7.92285 8.87988C8.20996 9.16243 8.54492 9.38802 8.92773 9.55664C9.31055 9.7207 9.71842 9.80273 10.1514 9.80273C10.2334 9.80273 10.3063 9.8278 10.3701 9.87793C10.4339 9.92806 10.4749 9.99186 10.4932 10.0693C10.5114 10.1468 10.5023 10.2243 10.4658 10.3018C10.4339 10.3747 10.3815 10.4294 10.3086 10.4658L8.90723 11.1631C8.87988 11.1768 8.85254 11.1859 8.8252 11.1904C8.80241 11.195 8.77734 11.1973 8.75 11.1973ZM10.1514 7.69727C10.124 7.69727 10.0967 7.69499 10.0693 7.69043C10.042 7.68587 10.0169 7.67676 9.99414 7.66309L8.59277 6.96582C8.50618 6.92025 8.44694 6.85189 8.41504 6.76074C8.3877 6.6696 8.39453 6.58073 8.43555 6.49414C8.48112 6.40755 8.54948 6.35059 8.64062 6.32324C8.73177 6.29134 8.82064 6.2959 8.90723 6.33691L10.083 6.9248L11.2998 5.70117C11.3682 5.63281 11.4502 5.59863 11.5459 5.59863C11.6462 5.59863 11.7305 5.63281 11.7988 5.70117C11.8672 5.76953 11.9014 5.85384 11.9014 5.9541C11.9014 6.0498 11.8672 6.13184 11.7988 6.2002L10.3975 7.59473C10.3656 7.63118 10.3268 7.65853 10.2812 7.67676C10.2402 7.69043 10.1969 7.69727 10.1514 7.69727Z" fill="#687581"/>
</svg>
