<svg width="14" height="15" viewBox="0 0 14 15" fill="none" xmlns="http://www.w3.org/2000/svg">
<path d="M6.2002 10.9512C6.13184 10.8828 6.04753 10.8486 5.94727 10.8486C5.85156 10.8486 5.76953 10.8828 5.70117 10.9512L3.5 13.1523V1.05273C3.5 0.952474 3.46582 0.868164 3.39746 0.799805C3.3291 0.731445 3.24707 0.697266 3.15137 0.697266C3.05566 0.697266 2.97363 0.731445 2.90527 0.799805C2.83691 0.868164 2.80273 0.952474 2.80273 1.05273V13.1523L0.594727 10.9512C0.526367 10.8828 0.444336 10.8486 0.348633 10.8486C0.25293 10.8486 0.170898 10.8828 0.102539 10.9512C0.0341797 11.0195 0 11.1038 0 11.2041C0 11.2998 0.0341797 11.3818 0.102539 11.4502L2.90527 14.2461C2.93717 14.2826 2.97363 14.3076 3.01465 14.3213C3.06022 14.3395 3.10579 14.3486 3.15137 14.3486C3.19694 14.3486 3.24023 14.3395 3.28125 14.3213C3.32682 14.3076 3.36556 14.2826 3.39746 14.2461L6.2002 11.4502C6.26855 11.3818 6.30273 11.2998 6.30273 11.2041C6.30273 11.1038 6.26855 11.0195 6.2002 10.9512ZM12.25 14.6973H10.8486C10.5889 14.6973 10.3564 14.654 10.1514 14.5674C9.94629 14.4854 9.77083 14.3919 9.625 14.2871C9.48372 14.1868 9.37435 14.0911 9.29688 14C9.2194 13.9134 9.17611 13.8678 9.16699 13.8633C9.1123 13.7858 9.0918 13.6992 9.10547 13.6035C9.11914 13.5078 9.16471 13.4303 9.24219 13.3711C9.31966 13.3118 9.40625 13.2891 9.50195 13.3027C9.59766 13.3164 9.67285 13.362 9.72754 13.4395C9.7321 13.444 9.83464 13.5397 10.0352 13.7266C10.2357 13.9089 10.5068 14 10.8486 14H12.25C12.5417 14 12.79 13.8975 12.9951 13.6924C13.2002 13.4873 13.3027 13.2389 13.3027 12.9473V12.5986H10.8486C10.6071 12.5986 10.3792 12.5531 10.165 12.4619C9.9554 12.3708 9.77083 12.2454 9.61133 12.0859C9.45182 11.9264 9.3265 11.7419 9.23535 11.5322C9.14421 11.318 9.09863 11.0902 9.09863 10.8486C9.09863 10.6071 9.14421 10.3815 9.23535 10.1719C9.3265 9.95768 9.45182 9.77311 9.61133 9.61816C9.77083 9.45866 9.9554 9.33333 10.165 9.24219C10.3792 9.14648 10.6071 9.09863 10.8486 9.09863H12.25C12.4915 9.09863 12.7171 9.14648 12.9268 9.24219C13.141 9.33333 13.3278 9.45866 13.4873 9.61816C13.6468 9.77311 13.7721 9.95768 13.8633 10.1719C13.9544 10.3815 14 10.6071 14 10.8486V12.9473C14 13.1888 13.9544 13.4167 13.8633 13.6309C13.7721 13.8451 13.6468 14.0296 13.4873 14.1846C13.3278 14.3441 13.141 14.4694 12.9268 14.5605C12.7171 14.6517 12.4915 14.6973 12.25 14.6973ZM10.8486 9.80273C10.5615 9.80273 10.3154 9.90527 10.1104 10.1104C9.90527 10.3154 9.80273 10.5615 9.80273 10.8486C9.80273 11.1403 9.90527 11.3887 10.1104 11.5938C10.3154 11.7988 10.5615 11.9014 10.8486 11.9014H13.3027V10.8486C13.3027 10.5615 13.2002 10.3154 12.9951 10.1104C12.79 9.90527 12.5417 9.80273 12.25 9.80273H10.8486ZM12.25 0.697266H10.8486C10.6071 0.697266 10.3792 0.745117 10.165 0.84082C9.9554 0.931966 9.77083 1.05729 9.61133 1.2168C9.45182 1.37174 9.3265 1.55632 9.23535 1.77051C9.14421 1.98014 9.09863 2.20573 9.09863 2.44727V4.55273C9.09863 4.79427 9.14421 5.02214 9.23535 5.23633C9.3265 5.44596 9.45182 5.63053 9.61133 5.79004C9.77083 5.94499 9.9554 6.07031 10.165 6.16602C10.3792 6.25716 10.6071 6.30273 10.8486 6.30273H12.25C12.4915 6.30273 12.7171 6.25716 12.9268 6.16602C13.141 6.07031 13.3278 5.94499 13.4873 5.79004C13.6468 5.63053 13.7721 5.44596 13.8633 5.23633C13.9544 5.02214 14 4.79427 14 4.55273V2.44727C14 2.20573 13.9544 1.98014 13.8633 1.77051C13.7721 1.55632 13.6468 1.37174 13.4873 1.2168C13.3278 1.05729 13.141 0.931966 12.9268 0.84082C12.7171 0.745117 12.4915 0.697266 12.25 0.697266ZM9.80273 2.44727C9.80273 2.16016 9.90527 1.91406 10.1104 1.70898C10.3154 1.50391 10.5615 1.40137 10.8486 1.40137H12.25C12.3457 1.40137 12.4368 1.41276 12.5234 1.43555C12.61 1.45833 12.6921 1.49251 12.7695 1.53809L9.87109 4.92188C9.84831 4.86263 9.83008 4.80339 9.81641 4.74414C9.80729 4.68034 9.80273 4.61654 9.80273 4.55273V2.44727ZM13.3027 4.55273C13.3027 4.83984 13.2002 5.08594 12.9951 5.29102C12.79 5.49609 12.5417 5.59863 12.25 5.59863H10.8486C10.7529 5.59863 10.6618 5.58724 10.5752 5.56445C10.4886 5.54167 10.4066 5.50749 10.3291 5.46191L13.2344 2.07812C13.2526 2.13737 13.2686 2.19889 13.2822 2.2627C13.2959 2.32194 13.3027 2.38346 13.3027 2.44727V4.55273Z" fill="#687581"/>
</svg>
