<svg width="15" height="15" viewBox="0 0 15 15" fill="none" xmlns="http://www.w3.org/2000/svg">
<path d="M6.2002 10.9512C6.13184 10.8828 6.04753 10.8486 5.94727 10.8486C5.85156 10.8486 5.76953 10.8828 5.70117 10.9512L3.5 13.1523V1.05273C3.5 0.952474 3.46582 0.868164 3.39746 0.799805C3.3291 0.731445 3.24707 0.697266 3.15137 0.697266C3.05566 0.697266 2.97363 0.731445 2.90527 0.799805C2.83691 0.868164 2.80273 0.952474 2.80273 1.05273V13.1523L0.594727 10.9512C0.526367 10.8828 0.444336 10.8486 0.348633 10.8486C0.25293 10.8486 0.170898 10.8828 0.102539 10.9512C0.0341797 11.0195 0 11.1038 0 11.2041C0 11.2998 0.0341797 11.3818 0.102539 11.4502L2.90527 14.2461C2.93717 14.2826 2.97363 14.3076 3.01465 14.3213C3.06022 14.3395 3.10579 14.3486 3.15137 14.3486C3.19694 14.3486 3.24023 14.3395 3.28125 14.3213C3.32682 14.3076 3.36556 14.2826 3.39746 14.2461L6.2002 11.4502C6.26855 11.3818 6.30273 11.2998 6.30273 11.2041C6.30273 11.1038 6.26855 11.0195 6.2002 10.9512ZM13.9727 5.81055L11.874 0.90918C11.8467 0.845378 11.8034 0.795247 11.7441 0.758789C11.6849 0.717773 11.6211 0.697266 11.5527 0.697266C11.4798 0.697266 11.4137 0.717773 11.3545 0.758789C11.2998 0.795247 11.2588 0.845378 11.2314 0.90918L9.12598 5.81055C9.08952 5.90169 9.08952 5.99284 9.12598 6.08398C9.16243 6.17057 9.22396 6.2321 9.31055 6.26855C9.40169 6.30957 9.49056 6.31185 9.57715 6.27539C9.66829 6.23893 9.7321 6.17741 9.76855 6.09082L10.582 4.19727H12.5166L13.3301 6.09082C13.3574 6.15462 13.4007 6.20703 13.46 6.24805C13.5192 6.28451 13.583 6.30273 13.6514 6.30273C13.6742 6.30273 13.6969 6.30046 13.7197 6.2959C13.7425 6.29134 13.7653 6.28223 13.7881 6.26855C13.8747 6.2321 13.9362 6.17057 13.9727 6.08398C14.0091 5.99284 14.0091 5.90169 13.9727 5.81055ZM10.8828 3.5L11.5527 1.94141L12.2158 3.5H10.8828ZM12.9473 14.6973H10.1514C10.0876 14.6973 10.0283 14.6813 9.97363 14.6494C9.91895 14.6221 9.87793 14.5811 9.85059 14.5264C9.81868 14.4717 9.80273 14.4124 9.80273 14.3486C9.80273 14.2894 9.81641 14.2324 9.84375 14.1777L12.3457 9.80273H10.1514C10.0557 9.80273 9.97363 9.76855 9.90527 9.7002C9.83691 9.63184 9.80273 9.54753 9.80273 9.44727C9.80273 9.35156 9.83691 9.26953 9.90527 9.20117C9.97363 9.13281 10.0557 9.09863 10.1514 9.09863H12.9473C13.0111 9.09863 13.0703 9.11458 13.125 9.14648C13.1797 9.17839 13.223 9.22168 13.2549 9.27637C13.2868 9.33105 13.3027 9.3903 13.3027 9.4541C13.3027 9.51335 13.2868 9.57031 13.2549 9.625L10.7529 14H12.9473C13.0475 14 13.1318 14.0342 13.2002 14.1025C13.2686 14.1709 13.3027 14.2529 13.3027 14.3486C13.3027 14.4443 13.2686 14.5264 13.2002 14.5947C13.1318 14.6631 13.0475 14.6973 12.9473 14.6973Z" fill="#687581"/>
</svg>
