<svg width="15" height="15" viewBox="0 0 15 15" fill="none" xmlns="http://www.w3.org/2000/svg">
<path d="M6.2002 10.9512C6.13184 10.8828 6.04753 10.8486 5.94727 10.8486C5.85156 10.8486 5.76953 10.8828 5.70117 10.9512L3.5 13.1523V1.05273C3.5 0.952474 3.46582 0.868164 3.39746 0.799805C3.3291 0.731445 3.24707 0.697266 3.15137 0.697266C3.05566 0.697266 2.97363 0.731445 2.90527 0.799805C2.83691 0.868164 2.80273 0.952474 2.80273 1.05273V13.1523L0.594727 10.9512C0.526367 10.8828 0.444336 10.8486 0.348633 10.8486C0.25293 10.8486 0.170898 10.8828 0.102539 10.9512C0.0341797 11.0195 0 11.1038 0 11.2041C0 11.2998 0.0341797 11.3818 0.102539 11.4502L2.90527 14.2461C2.93717 14.2826 2.97363 14.3076 3.01465 14.3213C3.06022 14.3395 3.10579 14.3486 3.15137 14.3486C3.19694 14.3486 3.24023 14.3395 3.28125 14.3213C3.32682 14.3076 3.36556 14.2826 3.39746 14.2461L6.2002 11.4502C6.26855 11.3818 6.30273 11.2998 6.30273 11.2041C6.30273 11.1038 6.26855 11.0195 6.2002 10.9512ZM13.9727 14.2119L11.874 9.31055C11.8467 9.24674 11.8034 9.19661 11.7441 9.16016C11.6849 9.11914 11.6211 9.09863 11.5527 9.09863C11.4798 9.09863 11.4137 9.11914 11.3545 9.16016C11.2998 9.19661 11.2588 9.24674 11.2314 9.31055L9.12598 14.2119C9.08952 14.3031 9.08952 14.3919 9.12598 14.4785C9.16243 14.5697 9.22396 14.6335 9.31055 14.6699C9.40169 14.7109 9.49056 14.7132 9.57715 14.6768C9.66829 14.6403 9.7321 14.5765 9.76855 14.4854L10.582 12.5986H12.5166L13.3301 14.4854C13.3574 14.5537 13.4007 14.6061 13.46 14.6426C13.5192 14.679 13.583 14.6973 13.6514 14.6973C13.6742 14.6973 13.6969 14.695 13.7197 14.6904C13.7425 14.6859 13.7653 14.679 13.7881 14.6699C13.8747 14.6335 13.9362 14.5697 13.9727 14.4785C14.0091 14.3919 14.0091 14.3031 13.9727 14.2119ZM10.8828 11.9014L11.5527 10.3359L12.2158 11.9014H10.8828ZM12.9473 6.30273H10.1514C10.0876 6.30273 10.0283 6.28678 9.97363 6.25488C9.91895 6.22298 9.87793 6.17969 9.85059 6.125C9.81868 6.07031 9.80273 6.01335 9.80273 5.9541C9.80273 5.8903 9.81641 5.83105 9.84375 5.77637L12.3457 1.40137H10.1514C10.0557 1.40137 9.97363 1.36719 9.90527 1.29883C9.83691 1.23047 9.80273 1.14844 9.80273 1.05273C9.80273 0.952474 9.83691 0.868164 9.90527 0.799805C9.97363 0.731445 10.0557 0.697266 10.1514 0.697266H12.9473C13.0111 0.697266 13.0703 0.713216 13.125 0.745117C13.1797 0.777018 13.223 0.820312 13.2549 0.875C13.2868 0.929688 13.3027 0.988932 13.3027 1.05273C13.3027 1.11198 13.2868 1.16895 13.2549 1.22363L10.7529 5.59863H12.9473C13.0475 5.59863 13.1318 5.63281 13.2002 5.70117C13.2686 5.76953 13.3027 5.85156 13.3027 5.94727C13.3027 6.04753 13.2686 6.13184 13.2002 6.2002C13.1318 6.26855 13.0475 6.30273 12.9473 6.30273Z" fill="#687581"/>
</svg>
