<svg width="16" height="16" viewBox="0 0 11 14" xmlns="http://www.w3.org/2000/svg"><g fill="#b0beca" fill-rule="nonzero"><path d="M10.475 5.54c0 1.524-2.311 2.695-5.15 2.718h-.087C2.359 8.259 0 7.08 0 5.54h.403c0 1.228 2.104 2.294 4.747 2.317h.088c2.684 0 4.834-1.075 4.834-2.317h.403zM10.475 8.662c0 1.524-2.311 2.695-5.15 2.719h-.087C2.359 11.381 0 10.201 0 8.661h.403c0 1.229 2.104 2.294 4.747 2.317h.088c2.684 0 4.834-1.075 4.834-2.316h.403zM10.475 2.72c0 1.539-2.36 2.719-5.237 2.719C2.359 5.439 0 4.259 0 2.719 0 1.195 2.311.024 5.15 0h.175c2.839.024 5.15 1.195 5.15 2.72zm-10.072 0c0 1.24 2.15 2.316 4.835 2.316 2.684 0 4.834-1.075 4.834-2.317 0-1.228-2.104-2.293-4.747-2.316H5.15C2.507.426.403 1.49.403 2.719z"/><path d="M1.474 6.039a6.62 6.62 0 001.687.609.201.201 0 00.24-.156.205.205 0 00-.153-.245c-.6-.135-1.14-.33-1.585-.57a.2.2 0 00-.272.085.207.207 0 00.083.277zM1.474 9.048a6.62 6.62 0 001.687.609.201.201 0 00.24-.156.205.205 0 00-.153-.245c-.6-.135-1.14-.33-1.585-.57a.2.2 0 00-.272.085.207.207 0 00.083.277zM.403 2.57H0v8.96h.403z"/><path d="M10.475 11.28c0 1.525-2.311 2.696-5.15 2.72h-.087C2.359 14 0 12.82 0 11.28h.403c0 1.228 2.104 2.294 4.747 2.317h.088c2.684 0 4.834-1.075 4.834-2.316h.403z"/><path d="M1.474 12.07a6.62 6.62 0 001.687.608.201.201 0 00.24-.156.205.205 0 00-.153-.244c-.6-.135-1.14-.33-1.585-.57a.2.2 0 00-.272.084.207.207 0 00.083.278zM10.475 2.57h-.403v8.96h.403z"/></g></svg>