<svg width="20" height="20" viewBox="0 0 20 20" fill="none" xmlns="http://www.w3.org/2000/svg">
    <g fill="#b0beca" fill-rule="nonzero">
        <path d="M5.10254 10.0049C5.60667 10.0562 6 10.4823 6 11V17C6 17.5523 5.55228 18 5 18H3L2.89746 17.9951C2.39333 17.9438 2 17.5177 2 17V11C2 10.4477 2.44772 10 3 10H5L5.10254 10.0049ZM11.1025 6.00488C11.6067 6.05621 12 6.48232 12 7V17L11.9951 17.1025C11.9438 17.6067 11.5177 18 11 18H9L8.89746 17.9951C8.42703 17.9472 8.05278 17.573 8.00488 17.1025L8 17V7C8 6.44772 8.44772 6 9 6H11L11.1025 6.00488ZM17.1025 2.00488C17.6067 2.05621 18 2.48232 18 3V17L17.9951 17.1025C17.9438 17.6067 17.5177 18 17 18H15L14.8975 17.9951C14.427 17.9472 14.0528 17.573 14.0049 17.1025L14 17V3C14 2.44772 14.4477 2 15 2H17L17.1025 2.00488ZM3 17H5V11H3V17ZM9 17H11V7H9V17ZM15 17H17V3H15V17Z" />
    </g>
</svg>
