<svg width="138" height="34" viewBox="0 0 138 34" fill="none" xmlns="http://www.w3.org/2000/svg">
<g clip-path="url(#clip0_155_1888)">
<path d="M112.101 24.8432L112.328 24.5678C110.324 24.3936 110.113 23.1306 110.155 21.5844C110.225 19.0739 110.171 16.5583 110.181 14.0479C110.21 13.675 110.263 13.3043 110.34 12.9382C110.784 13.4449 111.072 13.762 111.35 14.0894C114.245 17.5354 117.149 20.9788 120.062 24.4196C120.386 24.7555 120.734 25.069 121.101 25.3578L121.343 25.1915V23.3905C121.343 19.5781 121.343 15.7656 121.343 11.9558C121.343 11.1528 121.501 10.5057 122.341 10.1912C124.111 9.52335 125.371 10.3576 125.379 12.2443C125.379 15.407 125.394 18.5697 125.379 21.7325C125.379 22.4134 125.413 23.2008 125.093 23.7387C124.802 24.2299 124.053 24.4456 123.45 24.8146H136.889C137.18 23.2996 137.453 21.8806 137.723 20.4643L137.359 20.3317C136.608 21.8468 135.704 23.2502 134.074 23.8635C132.531 24.443 130.932 24.812 129.186 24.0038C128.713 21.8416 128.965 19.6742 129.009 17.4938C130.205 17.2755 131.229 17.4627 131.886 18.2605C132.476 18.9778 132.775 19.9341 133.211 20.8047V13.5411C132.156 16.3686 131.187 17.0962 129.079 16.5427C128.708 14.3779 128.858 11.3763 129.477 10.3056C130.366 10.3056 131.346 10.2874 132.336 10.3056C133.409 10.3316 134.456 10.5863 135.129 11.4517C135.693 12.1819 136.055 13.0707 136.603 14.066V9.76244H118.536C120.316 10.1834 120.563 11.4283 120.485 12.9538C120.412 14.3363 120.47 15.7267 120.47 17.1118V19.1181L120.145 19.222L112.239 9.75205H107.561L107.442 9.96514L109.277 11.3737C109.277 15.4304 109.277 19.1129 109.277 22.7954C109.277 23.6556 108.871 24.1727 108.068 24.417C107.808 24.4924 107.564 24.5782 107.315 24.6613L107.369 24.8406L112.101 24.8432ZM83.7279 24.7731H91.0305C89.6557 24.2533 89.2529 24.0688 89.2113 23.2788C89.1256 21.5662 89.1853 19.8458 89.1853 17.8941C90.2093 17.8941 91.1214 17.9928 91.9998 17.8681C93.0212 17.7511 94.0206 17.4885 94.9677 17.0884C96.4957 16.3816 97.1195 15.0536 97.0181 13.3644C96.9193 11.7219 95.9916 10.724 94.5285 10.2224C93.6754 9.91932 92.7821 9.74417 91.8777 9.70267C89.4114 9.6273 86.94 9.66368 84.4711 9.66628C84.1318 9.70134 83.795 9.75775 83.4628 9.8352C85.282 10.4147 85.5262 10.7162 85.5418 12.5587C85.5704 15.6357 85.5418 18.7127 85.5548 21.7923C85.547 23.1566 85.4015 24.4248 83.7279 24.7731ZM29.2806 16.4569C28.9427 10.6044 23.3293 6.74784 19.1739 7.52488V16.4569H29.2806ZM29.2156 17.8239H19.0803V26.6598C24.1661 27.0548 29.6184 22.2133 29.2234 17.8369L29.2156 17.8239ZM61.0716 24.6457L61.1028 24.7835H67.2515C66.7474 23.9726 66.1159 23.2034 65.7494 22.325C64.12 18.4268 62.5711 14.4792 60.978 10.5577C60.8013 10.1237 60.5336 9.72866 60.1672 9.06077C59.8216 9.856 59.6007 10.3108 59.4214 10.7838C58.0232 14.4117 56.6311 18.0413 55.2451 21.6727C54.8007 22.8344 54.4161 24.0246 52.9868 24.7575H57.2202L55.401 23.8895L56.425 20.511H61.464C62.4412 22.377 62.5737 22.9331 62.3216 24.2065L61.0716 24.6457ZM52.1863 21.9378L51.9005 21.7559C51.6273 22.0644 51.3215 22.3424 50.9883 22.5849C49.9202 23.2034 48.8781 23.9518 47.719 24.3079C46.8137 24.5652 45.8447 24.4723 45.0049 24.0476C44.1651 23.6228 43.5159 22.8974 43.1867 22.0157C41.9765 18.8302 42.0034 15.307 43.2621 12.1403C44.208 9.72345 46.7601 9.05816 48.8001 10.6798C49.7513 11.4361 50.4114 12.5587 51.1858 13.5385C51.4382 13.9052 51.6707 14.2851 51.8823 14.6768V9.4142L50.6374 10.4745C49.8578 10.1912 49.1821 9.92357 48.4882 9.69487C44.8499 8.49683 41.1259 10.1627 39.5276 13.6502C38.7792 15.2875 38.7012 16.9949 38.8519 18.7309C38.9771 20.1841 39.5413 21.565 40.4696 22.6901C41.3979 23.8152 42.6465 24.6314 44.0495 25.0303C47.1109 25.9191 50.0657 25.0044 51.9446 22.5719C52.0571 22.3779 52.1412 22.1687 52.1941 21.9508L52.1863 21.9378ZM82.0724 19.9809C81.0095 21.2803 80.1935 22.6784 79.0033 23.6062C77.7247 24.6093 76.0692 24.7549 74.3696 24.0454C74.2312 23.6011 74.1381 23.144 74.0916 22.681C74.0682 19.2169 74.0604 15.7527 74.0916 12.2859C74.1045 10.5941 74.3748 10.3212 76.025 9.94696C76.0614 9.94696 76.0692 9.80402 76.0796 9.77283H69.1746C70.6767 10.3498 70.8145 10.5135 70.8171 12.0702C70.8171 15.3187 70.8171 18.5663 70.8171 21.813C70.8171 22.4523 70.8794 23.1852 70.5988 23.705C70.3389 24.1727 69.6632 24.4092 69.1123 24.7861H81.2746C81.5553 23.1566 81.8178 21.6155 82.0932 19.9939L82.0724 19.9809ZM106.007 24.7965C103.962 24.035 103.928 24.0038 103.928 21.6935C103.928 18.6183 103.928 15.5456 103.928 12.4756C103.928 10.5707 104.076 10.3965 105.922 9.94955C105.953 9.94955 105.95 9.80662 105.958 9.77023H98.3747C100.056 10.3368 100.389 10.6148 100.399 11.909C100.43 15.5006 100.412 19.0921 100.399 22.6836C100.399 23.627 99.9521 24.2429 99.014 24.4482L98.3305 24.6041L98.3513 24.7965H106.007ZM18.6177 33.9988V28.2425H5.02344C8.93202 32.0601 13.4175 33.7467 18.6177 33.9988ZM33.2099 28.2347H27.5082V33.926H33.2099V28.2347Z" fill="#94A1AD"/>
<path d="M0.564941 15.6058C0.691121 15.2458 0.796118 14.8788 0.879395 14.5065C1.3341 11.8908 2.43262 9.42945 4.07591 7.34424H18.1562C16.8802 7.72626 15.4846 8.01733 14.1956 8.55788C9.40083 10.5693 7.18926 15.2758 8.88107 19.8678C10.1649 23.3502 12.8182 25.3435 16.311 26.3128C16.9633 26.4947 17.6416 26.5883 18.3017 26.8326H4.0915C2.43449 24.6654 1.33425 22.125 0.887191 19.4338C0.811826 19.018 0.674091 18.6126 0.564941 18.202V15.6058Z" fill="#94A1AD"/>
<path d="M18.7565 0V5.82389H5.4845C5.66844 5.56308 5.87264 5.31717 6.09521 5.08843C8.95388 2.50783 12.2647 0.839403 16.1084 0.293657C16.395 0.224989 16.6738 0.126574 16.94 0H18.7565Z" fill="#94A1AD"/>
<path d="M33.3096 0V5.85767H27.4623C27.4182 3.91377 27.3766 1.95949 27.3324 0H33.3096Z" fill="#94A1AD"/>
<path d="M112.101 24.8442H107.377L107.322 24.6649C107.582 24.5817 107.821 24.496 108.076 24.4206C108.879 24.1763 109.287 23.6592 109.284 22.799C109.284 19.1165 109.284 15.434 109.284 11.3773L107.45 9.96872L107.569 9.75562H112.247L120.152 19.2256L120.477 19.1217V17.1154C120.477 15.7276 120.42 14.3373 120.493 12.9573C120.571 11.4318 120.324 10.187 118.544 9.76601H136.592V14.0618C136.044 13.0665 135.683 12.1777 135.119 11.4474C134.446 10.582 133.399 10.3274 132.325 10.3014C131.348 10.2806 130.368 10.3014 129.467 10.3014C128.848 11.3721 128.687 14.3737 129.069 16.5385C131.177 17.092 132.146 16.3643 133.201 13.5369V20.8135C132.764 19.9429 132.466 18.9943 131.876 18.2693C131.218 17.4714 130.194 17.2843 128.999 17.5026C128.955 19.683 128.702 21.8504 129.175 24.0126C130.922 24.8208 132.52 24.4518 134.064 23.8723C135.693 23.2589 136.598 21.8556 137.349 20.3405L137.712 20.473C137.453 21.8894 137.169 23.3083 136.878 24.8234H123.445C124.048 24.4544 124.797 24.2387 125.088 23.7475C125.407 23.2096 125.368 22.4221 125.373 21.7412C125.397 18.5785 125.392 15.4158 125.373 12.2531C125.373 10.3663 124.105 9.53212 122.335 10.2C121.496 10.5145 121.332 11.1616 121.338 11.9646C121.353 15.7796 121.338 19.592 121.338 23.3993V25.2002L121.096 25.3666C120.729 25.0777 120.381 24.7643 120.056 24.4284C117.147 20.9824 114.245 17.5355 111.35 14.0878C111.072 13.7604 110.784 13.4433 110.339 12.9365C110.263 13.3027 110.21 13.6733 110.181 14.0462C110.181 16.5593 110.225 19.0749 110.155 21.5827C110.113 23.129 110.324 24.392 112.328 24.5661L112.101 24.8442Z" fill="#94A1AD"/>
<path d="M83.7251 24.776C85.391 24.4278 85.5443 23.1648 85.5443 21.7952C85.5443 18.7157 85.5599 15.6387 85.5313 12.5617C85.5157 10.7192 85.2714 10.4177 83.4523 9.83818C83.7845 9.76073 84.1213 9.70431 84.4606 9.66926C86.932 9.66926 89.3983 9.63028 91.8671 9.70564C92.7715 9.74715 93.6648 9.9223 94.5179 10.2254C95.981 10.727 96.9088 11.7249 97.0076 13.3673C97.1089 15.0566 96.4878 16.3845 94.9571 17.0914C94.0101 17.4915 93.0107 17.754 91.9893 17.871C91.1109 17.9958 90.1987 17.897 89.1748 17.897C89.1748 19.8487 89.115 21.5691 89.2008 23.2817C89.2398 24.0614 89.6426 24.2667 91.0199 24.776H83.7251ZM89.1826 17.2395C91.4799 17.606 92.9041 16.8003 93.1146 15.0306C93.2238 14.1717 93.2185 13.3022 93.099 12.4448C92.8209 10.4567 90.9056 9.64587 89.1826 10.7659V17.2395Z" fill="#94A1AD"/>
<path d="M29.2863 16.4718H19.1796V7.53977C23.335 6.76273 28.9484 10.6193 29.2863 16.4718Z" fill="#94A1AD"/>
<path d="M29.2216 17.8391C29.6166 22.2155 24.1643 27.044 19.0863 26.675V17.8391H29.2216Z" fill="#94A1AD"/>
<path d="M61.0777 24.66L62.3329 24.2156C62.5928 22.9422 62.4524 22.3964 61.4753 20.5201H56.4388L55.4149 23.8985L57.2341 24.7665H52.998C54.4274 24.0337 54.8172 22.8434 55.2564 21.6818C56.6424 18.0434 58.0345 14.4138 59.4327 10.7928C59.612 10.3198 59.8329 9.86505 60.1785 9.06982C60.5449 9.73771 60.8126 10.1327 60.9893 10.5667C62.5824 14.4883 64.1313 18.4281 65.7607 22.334C66.1271 23.2124 66.7586 23.9817 67.2628 24.7925H61.1167L61.0777 24.66ZM61.2492 19.6651C60.5008 17.7498 59.8017 15.9644 59.1052 14.179L58.7648 14.2336C58.1281 15.9878 57.4888 17.7446 56.7923 19.6651H61.2492Z" fill="#94A1AD"/>
<path d="M52.1919 21.9507C52.1414 22.1683 52.06 22.3774 51.9502 22.5719C50.0713 25.0043 47.1165 25.9191 44.0551 25.0303C42.6521 24.6314 41.4035 23.8152 40.4752 22.6901C39.5469 21.5649 38.9827 20.1841 38.8575 18.7308C38.7068 16.9949 38.7847 15.2874 39.5332 13.6502C41.1314 10.1626 44.8529 8.4968 48.4938 9.69485C49.1877 9.92354 49.8686 10.1912 50.643 10.4745L51.8878 9.41417V14.6585C51.6763 14.2669 51.4438 13.8869 51.1914 13.5203C50.4117 12.5483 49.7568 11.4256 48.8057 10.6616C46.7656 9.03995 44.2136 9.70524 43.2677 12.1221C42.009 15.2888 41.9821 18.812 43.1923 21.9975C43.5191 22.8833 44.1684 23.613 45.0103 24.0404C45.8522 24.4678 46.8244 24.5615 47.7324 24.3027C48.8914 23.9466 49.9336 23.1982 51.0017 22.5797C51.3349 22.3372 51.6407 22.0592 51.9138 21.7506L52.1919 21.9507Z" fill="#94A1AD"/>
<path d="M82.0915 19.995C81.816 21.6167 81.5535 23.1681 81.2728 24.8106H69.1105C69.6614 24.4338 70.3449 24.1973 70.597 23.7295C70.8777 23.2097 70.8127 22.4769 70.8153 21.8376C70.8309 18.5908 70.8309 15.3432 70.8153 12.0947C70.8153 10.5354 70.6749 10.3743 69.1728 9.79736H76.0908C76.0908 9.82855 76.0727 9.96369 76.0363 9.97149C74.386 10.3405 74.1158 10.6134 74.1028 12.3104C74.0742 15.772 74.082 19.2362 74.1028 22.7056C74.1493 23.1686 74.2425 23.6257 74.3808 24.0699C76.0805 24.7794 77.7359 24.6339 79.0145 23.6307C80.2125 22.6926 81.0286 21.2892 82.0915 19.995Z" fill="#94A1AD"/>
<path d="M106.026 24.8121H98.3566L98.3358 24.6198L99.0193 24.4639C99.9575 24.2508 100.402 23.6427 100.404 22.6993C100.404 19.1078 100.428 15.5162 100.404 11.9247C100.404 10.6253 100.061 10.3654 98.38 9.78589H105.997C105.997 9.82227 105.997 9.95741 105.961 9.96521C104.116 10.407 103.967 10.5863 103.967 12.4912C103.967 15.563 103.967 18.6356 103.967 21.7092C103.957 24.0195 103.98 24.0507 106.026 24.8121Z" fill="#94A1AD"/>
<path d="M18.6177 34.0002C13.4201 33.7403 8.93202 32.0615 5.02344 28.2439H18.6177V34.0002Z" fill="#94A1AD"/>
<path d="M33.2097 28.2346V33.926H27.5079V28.2346H33.2097Z" fill="#94A1AD"/>
<path d="M89.1837 17.2273V10.7641C90.8989 9.63627 92.822 10.4549 93.1001 12.4326C93.2196 13.29 93.2249 14.1595 93.1157 15.0184C92.913 16.7881 91.4888 17.5938 89.1837 17.2273Z" fill="white"/>
<path d="M61.25 19.6638H56.7931C57.4896 17.7433 58.1289 15.9865 58.7656 14.2323L59.106 14.1777C59.8025 15.9631 60.5016 17.7485 61.25 19.6638Z" fill="white"/>
</g>
<defs>
<clipPath id="clip0_155_1888">
<rect width="137.151" height="34" fill="white" transform="translate(0.564941)"/>
</clipPath>
</defs>
</svg>
