<svg width="16" height="14" viewBox="0 0 16 14" fill="none" xmlns="http://www.w3.org/2000/svg">
<path d="M7.935 0.333374C9.4906 0.333374 10.7518 1.58939 10.7518 3.13896C10.7518 3.2557 10.7447 3.37156 10.7305 3.48607L10.7147 3.58604L10.8768 3.6882C12.1552 4.52398 13.0156 5.86538 13.2364 7.37658L13.2615 7.57463L13.2727 7.69737L13.3384 7.7174C14.387 8.06342 15.1404 8.99566 15.2523 10.0956L15.2632 10.24L15.2667 10.3802C15.2667 11.9297 14.0055 13.1857 12.4499 13.1857C11.8842 13.1857 11.3437 13.0191 10.8853 12.7135L10.808 12.6587L10.782 12.6756C10.0528 13.1307 9.23527 13.4035 8.38417 13.4747L8.15126 13.4891L7.935 13.4934C6.95615 13.4934 6.01436 13.2344 5.19352 12.7441L5.06269 12.662L4.97429 12.7213C4.63009 12.9358 4.24334 13.0737 3.83656 13.1244L3.66107 13.1408L3.48352 13.1463C1.92792 13.1463 0.666687 11.8903 0.666687 10.3407C0.666687 9.14298 1.42693 8.09278 2.53393 7.69854L2.59735 7.67671C2.73909 6.08617 3.58409 4.65388 4.89174 3.75618L5.05087 3.65104L5.15535 3.58671L5.1398 3.48647L5.13035 3.4005L5.12359 3.3139L5.11817 3.13896C5.11817 1.58939 6.3794 0.333374 7.935 0.333374ZM10.5774 4.11004L10.5402 4.2079C10.1106 5.24653 9.08937 5.94455 7.935 5.94455C6.79401 5.94455 5.78535 5.26275 5.34719 4.24908L5.29202 4.11071L5.23827 4.14542C4.08969 4.91086 3.32365 6.12969 3.13733 7.49777L3.13002 7.55737L3.15802 7.55383C3.21156 7.54761 3.2655 7.54293 3.31977 7.53981L3.48352 7.53513C5.03912 7.53513 6.30035 8.79114 6.30035 10.3407C6.30035 11.0311 6.04878 11.6821 5.60151 12.1902L5.48402 12.3154L5.5514 12.3554C6.2128 12.7298 6.95251 12.9408 7.72388 12.9734L7.935 12.9779C8.77803 12.9779 9.59565 12.7604 10.3264 12.3466L10.3994 12.3027L10.3849 12.2882C9.93998 11.811 9.67304 11.1945 9.63717 10.5335L9.63302 10.3802C9.63302 8.83058 10.8943 7.57457 12.4499 7.57457L12.591 7.57803L12.7414 7.58937L12.7359 7.53218C12.558 6.14847 11.787 4.91336 10.6261 4.14091L10.5774 4.11004ZM12.4499 8.09009C11.1795 8.09009 10.1499 9.11548 10.1499 10.3802C10.1499 11.6448 11.1795 12.6702 12.4499 12.6702C13.7202 12.6702 14.7499 11.6448 14.7499 10.3802C14.7499 9.11548 13.7202 8.09009 12.4499 8.09009ZM3.48352 8.05065C2.21317 8.05065 1.18352 9.07604 1.18352 10.3407C1.18352 11.6054 2.21317 12.6308 3.48352 12.6308C4.75387 12.6308 5.78352 11.6054 5.78352 10.3407C5.78352 9.07604 4.75387 8.05065 3.48352 8.05065ZM7.935 0.848894C6.66466 0.848894 5.635 1.87429 5.635 3.13896C5.635 4.40364 6.66466 5.42903 7.935 5.42903C9.20535 5.42903 10.235 4.40364 10.235 3.13896C10.235 1.87429 9.20535 0.848894 7.935 0.848894Z" fill="#B0BECA" stroke="#B0BECA" stroke-width="0.33"/>
</svg>
