<?xml version="1.0" encoding="UTF-8"?>
<svg width="18px" height="18px" viewBox="0 0 18 18" version="1.1" xmlns="http://www.w3.org/2000/svg" xmlns:xlink="http://www.w3.org/1999/xlink">
    <title>ddatabase</title>
    <defs>
        <filter x="-4.3%" y="-14.8%" width="108.5%" height="129.6%" filterUnits="objectBoundingBox" id="filter-1">
            <feOffset dx="0" dy="1" in="SourceAlpha" result="shadowOffsetOuter1"></feOffset>
            <feGaussianBlur stdDeviation="0.5" in="shadowOffsetOuter1" result="shadowBlurOuter1"></feGaussianBlur>
            <feColorMatrix values="0 0 0 0 0.0784313725   0 0 0 0 0.223529412   0 0 0 0 0.364705882  0 0 0 0.1 0" type="matrix" in="shadowBlurOuter1" result="shadowMatrixOuter1"></feColorMatrix>
            <feMerge>
                <feMergeNode in="shadowMatrixOuter1"></feMergeNode>
                <feMergeNode in="SourceGraphic"></feMergeNode>
            </feMerge>
        </filter>
    </defs>
    <g id="Page-1" stroke="none" stroke-width="1" fill="none" fill-rule="evenodd">
        <g id="Segmented-controls" transform="translate(-387.000000, -589.000000)" fill="#6D7680" fill-rule="nonzero">
            <g id="Group-8" transform="translate(377.000000, 584.000000)" filter="url(#filter-1)">
                <path d="M18.6015625,20.203125 C19.0911458,20.203125 19.5716146,20.1901042 20.0429688,20.1640625 C20.5143229,20.1380208 20.9700521,20.0989583 21.4101562,20.046875 C21.8502604,19.9947917 22.2708333,19.9309896 22.671875,19.8554688 C23.0729167,19.7799479 23.4479167,19.6953125 23.796875,19.6015625 C24.1458333,19.5026042 24.4596354,19.3958333 24.7382812,19.28125 C25.0169271,19.1666667 25.2552083,19.0442708 25.453125,18.9140625 C25.703125,18.7526042 25.890625,18.578125 26.015625,18.390625 C26.140625,18.203125 26.203125,18.0052083 26.203125,17.796875 L26.203125,8.203125 C26.203125,7.99479167 26.140625,7.796875 26.015625,7.609375 C25.890625,7.421875 25.703125,7.24739583 25.453125,7.0859375 C25.2552083,6.95572917 25.0169271,6.83333333 24.7382812,6.71875 C24.4596354,6.60416667 24.1458333,6.49739583 23.796875,6.3984375 C23.4479167,6.3046875 23.0729167,6.22005208 22.671875,6.14453125 C22.2708333,6.06901042 21.8502604,6.00520833 21.4101562,5.953125 C20.9700521,5.90104167 20.5143229,5.86197917 20.0429688,5.8359375 C19.5716146,5.80989583 19.0911458,5.796875 18.6015625,5.796875 C18.1119792,5.796875 17.6315104,5.80989583 17.1601562,5.8359375 C16.6888021,5.86197917 16.2317708,5.90104167 15.7890625,5.953125 C15.3463542,6.00520833 14.9244792,6.06901042 14.5234375,6.14453125 C14.1223958,6.22005208 13.7473958,6.3046875 13.3984375,6.3984375 C13.0494792,6.49739583 12.7369792,6.60416667 12.4609375,6.71875 C12.1848958,6.83333333 11.9479167,6.95572917 11.75,7.0859375 C11.5,7.24739583 11.3125,7.421875 11.1875,7.609375 C11.0625,7.796875 11,7.99479167 11,8.203125 L11,17.796875 C11,18.0052083 11.0625,18.203125 11.1875,18.390625 C11.3125,18.578125 11.5,18.7526042 11.75,18.9140625 C11.9479167,19.0442708 12.1848958,19.1666667 12.4609375,19.28125 C12.7369792,19.3958333 13.0494792,19.5026042 13.3984375,19.6015625 C13.7473958,19.6953125 14.1223958,19.7799479 14.5234375,19.8554688 C14.9244792,19.9309896 15.3463542,19.9947917 15.7890625,20.046875 C16.2317708,20.0989583 16.6888021,20.1380208 17.1601562,20.1640625 C17.6315104,20.1901042 18.1119792,20.203125 18.6015625,20.203125 Z M18.6015625,9.796875 C18.1276042,9.796875 17.6640625,9.78515625 17.2109375,9.76171875 C16.7578125,9.73828125 16.3203125,9.70182292 15.8984375,9.65234375 C15.4765625,9.60286458 15.0729167,9.54296875 14.6875,9.47265625 C14.3020833,9.40234375 13.9453125,9.3203125 13.6171875,9.2265625 C12.8984375,9.02864583 12.4153646,8.83072917 12.1679688,8.6328125 C11.9205729,8.43489583 11.796875,8.29166667 11.796875,8.203125 C11.796875,8.109375 11.9205729,7.96354167 12.1679688,7.765625 C12.4153646,7.56770833 12.8984375,7.36979167 13.6171875,7.171875 C13.9453125,7.078125 14.3020833,6.99609375 14.6875,6.92578125 C15.0729167,6.85546875 15.4765625,6.79557292 15.8984375,6.74609375 C16.3203125,6.69661458 16.7578125,6.66015625 17.2109375,6.63671875 C17.6640625,6.61328125 18.1276042,6.6015625 18.6015625,6.6015625 C19.0703125,6.6015625 19.5325521,6.61328125 19.9882812,6.63671875 C20.4440104,6.66015625 20.8828125,6.69661458 21.3046875,6.74609375 C21.7265625,6.79557292 22.1289062,6.85546875 22.5117188,6.92578125 C22.8945312,6.99609375 23.2526042,7.078125 23.5859375,7.171875 C24.3046875,7.36979167 24.7864583,7.56770833 25.03125,7.765625 C25.2760417,7.96354167 25.3984375,8.109375 25.3984375,8.203125 C25.3984375,8.29166667 25.2760417,8.43489583 25.03125,8.6328125 C24.7864583,8.83072917 24.3046875,9.02864583 23.5859375,9.2265625 C23.2526042,9.3203125 22.8945312,9.40234375 22.5117188,9.47265625 C22.1289062,9.54296875 21.7265625,9.60286458 21.3046875,9.65234375 C20.8828125,9.70182292 20.4440104,9.73828125 19.9882812,9.76171875 C19.5325521,9.78515625 19.0703125,9.796875 18.6015625,9.796875 Z M18.6015625,13 C18.1276042,13 17.6640625,12.9869792 17.2109375,12.9609375 C16.7578125,12.9348958 16.3203125,12.8984375 15.8984375,12.8515625 C15.4765625,12.8046875 15.0729167,12.7460938 14.6875,12.6757812 C14.3020833,12.6054688 13.9453125,12.5234375 13.6171875,12.4296875 C12.8984375,12.2317708 12.4153646,12.0338542 12.1679688,11.8359375 C11.9205729,11.6380208 11.796875,11.4921875 11.796875,11.3984375 L11.796875,9.34375 C11.9947917,9.46875 12.2278646,9.5859375 12.4960938,9.6953125 C12.7643229,9.8046875 13.0651042,9.90625 13.3984375,10 C13.7473958,10.0989583 14.1223958,10.1848958 14.5234375,10.2578125 C14.9244792,10.3307292 15.3463542,10.3932292 15.7890625,10.4453125 C16.2317708,10.4973958 16.6888021,10.5364583 17.1601562,10.5625 C17.6315104,10.5885417 18.1119792,10.6015625 18.6015625,10.6015625 C19.0911458,10.6015625 19.5716146,10.5885417 20.0429688,10.5625 C20.5143229,10.5364583 20.9700521,10.4973958 21.4101562,10.4453125 C21.8502604,10.3932292 22.2708333,10.3307292 22.671875,10.2578125 C23.0729167,10.1848958 23.4479167,10.0989583 23.796875,10 C24.1354167,9.90625 24.4375,9.8046875 24.703125,9.6953125 C24.96875,9.5859375 25.2005208,9.46875 25.3984375,9.34375 L25.3984375,11.3984375 C25.3984375,11.4921875 25.2760417,11.6380208 25.03125,11.8359375 C24.7864583,12.0338542 24.3046875,12.2317708 23.5859375,12.4296875 C23.2526042,12.5234375 22.8945312,12.6054688 22.5117188,12.6757812 C22.1289062,12.7460938 21.7265625,12.8046875 21.3046875,12.8515625 C20.8828125,12.8984375 20.4440104,12.9348958 19.9882812,12.9609375 C19.5325521,12.9869792 19.0703125,13 18.6015625,13 Z M18.6015625,16.203125 C18.1276042,16.203125 17.6640625,16.1901042 17.2109375,16.1640625 C16.7578125,16.1380208 16.3203125,16.1002604 15.8984375,16.0507812 C15.4765625,16.0013021 15.0729167,15.9414062 14.6875,15.8710938 C14.3020833,15.8007812 13.9453125,15.71875 13.6171875,15.625 C12.8984375,15.4270833 12.4153646,15.2291667 12.1679688,15.03125 C11.9205729,14.8333333 11.796875,14.6901042 11.796875,14.6015625 L11.796875,12.546875 C11.9947917,12.671875 12.2278646,12.7890625 12.4960938,12.8984375 C12.7643229,13.0078125 13.0651042,13.109375 13.3984375,13.203125 C13.7473958,13.296875 14.1223958,13.3815104 14.5234375,13.4570312 C14.9244792,13.5325521 15.3463542,13.5950521 15.7890625,13.6445312 C16.2317708,13.6940104 16.6888021,13.7317708 17.1601562,13.7578125 C17.6315104,13.7838542 18.1119792,13.796875 18.6015625,13.796875 C19.0911458,13.796875 19.5716146,13.7838542 20.0429688,13.7578125 C20.5143229,13.7317708 20.9700521,13.6940104 21.4101562,13.6445312 C21.8502604,13.5950521 22.2708333,13.5325521 22.671875,13.4570312 C23.0729167,13.3815104 23.4479167,13.296875 23.796875,13.203125 C24.1354167,13.109375 24.4375,13.0078125 24.703125,12.8984375 C24.96875,12.7890625 25.2005208,12.671875 25.3984375,12.546875 L25.3984375,14.6015625 C25.3984375,14.6901042 25.2760417,14.8333333 25.03125,15.03125 C24.7864583,15.2291667 24.3046875,15.4270833 23.5859375,15.625 C23.2526042,15.71875 22.8945312,15.8007812 22.5117188,15.8710938 C22.1289062,15.9414062 21.7265625,16.0013021 21.3046875,16.0507812 C20.8828125,16.1002604 20.4440104,16.1380208 19.9882812,16.1640625 C19.5325521,16.1901042 19.0703125,16.203125 18.6015625,16.203125 Z M18.6015625,19.3984375 C18.1276042,19.3984375 17.6640625,19.3867188 17.2109375,19.3632812 C16.7578125,19.3398438 16.3203125,19.3033854 15.8984375,19.2539062 C15.4765625,19.2044271 15.0729167,19.1445312 14.6875,19.0742188 C14.3020833,19.0039062 13.9453125,18.921875 13.6171875,18.828125 C12.8984375,18.6302083 12.4153646,18.4322917 12.1679688,18.234375 C11.9205729,18.0364583 11.796875,17.890625 11.796875,17.796875 L11.796875,15.75 C11.9947917,15.8697917 12.2278646,15.984375 12.4960938,16.09375 C12.7643229,16.203125 13.0651042,16.3046875 13.3984375,16.3984375 C13.7473958,16.4973958 14.1223958,16.5833333 14.5234375,16.65625 C14.9244792,16.7291667 15.3463542,16.7916667 15.7890625,16.84375 C16.2317708,16.8958333 16.6888021,16.9348958 17.1601562,16.9609375 C17.6315104,16.9869792 18.1119792,17 18.6015625,17 C19.0911458,17 19.5716146,16.9869792 20.0429688,16.9609375 C20.5143229,16.9348958 20.9700521,16.8958333 21.4101562,16.84375 C21.8502604,16.7916667 22.2708333,16.7291667 22.671875,16.65625 C23.0729167,16.5833333 23.4479167,16.4973958 23.796875,16.3984375 C24.1354167,16.3046875 24.4375,16.203125 24.703125,16.09375 C24.96875,15.984375 25.2005208,15.8697917 25.3984375,15.75 L25.3984375,17.796875 C25.3984375,17.890625 25.2760417,18.0364583 25.03125,18.234375 C24.7864583,18.4322917 24.3046875,18.6302083 23.5859375,18.828125 C23.2526042,18.921875 22.8945312,19.0039062 22.5117188,19.0742188 C22.1289062,19.1445312 21.7265625,19.2044271 21.3046875,19.2539062 C20.8828125,19.3033854 20.4440104,19.3398438 19.9882812,19.3632812 C19.5325521,19.3867188 19.0703125,19.3984375 18.6015625,19.3984375 Z" id="ddatabase"></path>
            </g>
        </g>
    </g>
</svg>