<svg width="14" height="15" viewBox="0 0 14 15" fill="none" xmlns="http://www.w3.org/2000/svg">
<path d="M12.1 0.333374L12.2 0.433374V7.41747C12.2 7.45207 12.1922 7.49673 12.1677 7.54341C12.1248 7.62534 12.0443 7.67656 11.9333 7.67656C11.777 7.67656 11.6979 7.58819 11.674 7.47762L11.6666 7.41782L11.6501 2.76001L1.81665 2.76065C1.51158 2.76065 1.30369 2.73895 1.10995 2.66806L1.02754 2.63458L0.933614 2.58833L0.888989 2.56101L0.865475 2.54401L0.84998 12.4925C0.84998 13.0211 1.12864 13.3101 1.7038 13.3679L1.81512 13.3761L1.93331 13.3788L11.6668 13.3787L11.6675 13.1795L11.6747 13.1462L11.6892 13.1093L11.7126 13.0704C11.7598 13.0049 11.8351 12.9652 11.9333 12.9652C12.0686 12.9652 12.1484 13.0333 12.1835 13.1226L12.1973 13.1688L12.2 13.1925V13.797L12.1 13.897H1.93331C1.02327 13.897 0.442309 13.4813 0.346964 12.778L0.336663 12.6756L0.333313 12.572V1.54247L0.338234 1.43878C0.389511 0.878716 0.838378 0.440452 1.41765 0.350164L1.52773 0.337368L1.63331 0.333374H12.1ZM7.09998 5.53565C7.17484 5.53565 7.24502 5.54693 7.31816 5.57109L7.39256 5.59961L7.48087 5.64313L12.633 8.42842C12.7701 8.5069 12.8259 8.54539 12.8786 8.6125C12.9444 8.69618 12.9833 8.79711 12.9833 8.89701C12.9833 9.02589 12.9258 9.12199 12.8107 9.23103C12.7647 9.2661 12.718 9.2936 12.6641 9.31725L12.577 9.35031L12.4908 9.37587L11.7263 9.56621C11.6545 9.58581 11.5905 9.60599 11.5323 9.62824L11.4635 9.65734L12.9127 11.2067L12.9685 11.2797C13.0825 11.4441 13.1319 11.6236 13.1166 11.8243C13.1166 12.0764 13.0038 12.3106 12.8024 12.4853C12.6399 12.6403 12.4197 12.7197 12.1833 12.7197C12.0013 12.7197 11.8139 12.6607 11.6523 12.5514L11.5738 12.4926L11.4938 12.4178L10.0935 10.9313L10.0037 11.0607L9.85245 11.287L9.3219 12.173C9.26423 12.2831 9.20438 12.3578 9.12486 12.4147C9.03848 12.4765 8.93499 12.5129 8.83331 12.5129C8.70237 12.5129 8.60331 12.4589 8.49 12.3499C8.453 12.3057 8.42391 12.2606 8.39885 12.2085L8.36379 12.1243L8.33712 12.0425L6.68554 6.22934L6.66939 6.15405C6.65605 6.09039 6.64998 6.04751 6.64998 6.00156C6.64998 5.87234 6.67897 5.77549 6.75667 5.68278C6.83953 5.58391 6.96312 5.53565 7.09998 5.53565ZM7.20414 6.05668L7.21284 6.1015L8.87547 11.952L9.43209 11.0232L9.50837 10.9023C9.56094 10.8214 9.62043 10.7337 9.68325 10.6446L9.87806 10.3779C9.91363 10.31 9.99978 10.2606 10.0833 10.2606C10.116 10.2606 10.1484 10.2654 10.1825 10.277L10.2353 10.2997L10.2895 10.3398L11.9077 12.0597C11.9802 12.1405 12.0967 12.1856 12.2166 12.1856C12.3063 12.1856 12.4017 12.1486 12.4809 12.086C12.5627 12.008 12.6166 11.8903 12.6166 11.7925C12.6166 11.7432 12.6032 11.6917 12.5785 11.6427L12.5502 11.5947L12.5103 11.5426L10.8476 9.7648C10.8034 9.72265 10.7888 9.68368 10.7847 9.61899L10.7833 9.56519L10.7868 9.52287C10.7938 9.48398 10.8118 9.4539 10.8433 9.41948L10.8793 9.38312L10.8993 9.36761C11.0685 9.26824 11.208 9.19623 11.3428 9.14326L11.4434 9.10696L11.5758 9.07043L12.3755 8.87001L7.20414 6.05668ZM5.99785 6.53787C6.01809 6.63445 5.97179 6.73003 5.88444 6.78917L5.83747 6.81553L5.78289 6.83205L4.81873 6.99069C4.68251 7.0167 4.54682 6.91955 4.51877 6.7857C4.49854 6.68912 4.54484 6.59354 4.63219 6.5344L4.67916 6.50803L4.73374 6.49152L5.69789 6.33288C5.83412 6.30687 5.96981 6.40401 5.99785 6.53787ZM8.35398 3.79443L8.43048 3.83065C8.48596 3.86607 8.52377 3.92217 8.538 3.98843L8.54416 4.03987L8.54093 4.09413L8.52554 4.14702L8.15888 5.02202C8.10428 5.1523 7.94783 5.20732 7.81431 5.15634C7.71838 5.11972 7.65892 5.03063 7.6558 4.92461L7.65903 4.87034L7.67442 4.81745L8.04108 3.94245C8.09221 3.82044 8.22991 3.75383 8.35398 3.79443ZM5.69825 3.94188L5.74281 3.96613L5.79312 4.01212L6.40236 4.73604C6.51288 4.84153 6.49439 5.02684 6.38569 5.10344C6.31023 5.17547 6.2058 5.189 6.10681 5.14738L6.05793 5.12198L6.00684 5.07963L5.3976 4.35571C5.28708 4.25022 5.30557 4.06491 5.41427 3.98831C5.49008 3.91594 5.60496 3.90221 5.69825 3.94188ZM11.6661 0.851344L1.68331 0.851556C1.28431 0.851556 0.961289 1.06805 0.884701 1.38696L0.871479 1.46232L0.866646 1.54701L0.868186 1.63427C0.868775 1.642 0.869569 1.64936 0.870623 1.65691L0.881013 1.70069C0.940787 1.97456 1.17568 2.17462 1.48077 2.22805L1.56563 2.23893L1.64998 2.24246L11.6661 2.24201V0.851344Z" fill="#B0BECA" stroke="#B0BECA" stroke-width="0.33"/>
</svg>
