<svg width="141" height="30" viewBox="0 0 141 30" fill="none" xmlns="http://www.w3.org/2000/svg">
<path fill-rule="evenodd" clip-rule="evenodd" d="M134.284 25.5257C133.949 25.5257 133.761 25.3182 133.761 25.0349C133.761 24.7517 133.949 24.5441 134.284 24.5441C135.122 24.5441 135.494 24.2796 136.034 22.8455L136.387 21.9392L133.24 13.7661C133.222 13.7094 133.203 13.6153 133.203 13.5207C133.203 13.2756 133.408 13.0489 133.706 13.0489C133.93 13.0489 134.097 13.1621 134.19 13.4265L136.89 20.5426H136.909L139.535 13.4265C139.628 13.1621 139.795 13.0489 140.018 13.0489C140.316 13.0489 140.502 13.2756 140.502 13.5207C140.502 13.6153 140.484 13.7094 140.465 13.7661L136.965 22.9962C136.182 25.0915 135.549 25.5257 134.432 25.5257H134.284ZM128.516 21.6564V12.0486C128.516 9.89682 129.204 9.29274 130.993 9.29274H131.253C131.588 9.29274 131.775 9.50024 131.775 9.78355C131.775 10.0667 131.588 10.2744 131.253 10.2744C129.782 10.2744 129.522 10.5008 129.522 11.9164V13.0113C129.522 13.0868 129.559 13.1244 129.633 13.1244H131.309C131.625 13.1244 131.775 13.3133 131.775 13.5776C131.775 13.8418 131.625 14.0307 131.309 14.0307H129.633C129.559 14.0307 129.522 14.0683 129.522 14.1436V21.6564C129.522 22.0149 129.316 22.2038 129.02 22.2038C128.721 22.2038 128.516 22.0149 128.516 21.6564ZM125.451 21.6564V13.5963C125.451 13.2378 125.656 13.0489 125.954 13.0489C126.252 13.0489 126.457 13.2378 126.457 13.5963V21.6564C126.457 22.0149 126.252 22.2038 125.954 22.2038C125.656 22.2038 125.451 22.0149 125.451 21.6564ZM125.172 10.0104C125.172 9.5759 125.525 9.21753 125.954 9.21753C126.382 9.21753 126.736 9.5759 126.736 10.0104C126.736 10.4443 126.382 10.8029 125.954 10.8029C125.525 10.8029 125.172 10.4443 125.172 10.0104ZM118.846 21.6564V13.5963C118.846 13.2378 119.051 13.0489 119.349 13.0489C119.646 13.0489 119.852 13.2378 119.852 13.5963V14.4647H119.871C120.206 13.5586 121.044 12.936 122.199 12.936C122.906 12.936 123.371 13.1244 123.724 13.3324C123.949 13.4642 124.022 13.6153 124.022 13.7851C124.022 14.0683 123.817 14.2948 123.52 14.2948C123.445 14.2948 123.352 14.2757 123.259 14.2382C122.85 14.0496 122.458 13.9174 122.011 13.9174C120.447 13.9174 119.852 15.2763 119.852 16.9565V21.6564C119.852 22.0149 119.646 22.2038 119.349 22.2038C119.051 22.2038 118.846 22.0149 118.846 21.6564ZM115.992 16.9753C116.067 16.9753 116.104 16.9375 116.104 16.8619C116.104 16.3334 116.048 15.9367 115.937 15.5782C115.583 14.4647 114.707 13.8797 113.553 13.8797C112.398 13.8797 111.542 14.4647 111.188 15.5782C111.077 15.9367 111.02 16.3334 111.02 16.8619C111.02 16.9375 111.058 16.9753 111.132 16.9753H115.992ZM110.275 19.9576C110.09 19.3911 109.997 18.7684 109.997 17.6171C109.997 16.4841 110.09 15.8617 110.275 15.2763C110.759 13.7661 111.97 12.936 113.553 12.936C115.154 12.936 116.364 13.7661 116.849 15.2763C117.036 15.8426 117.129 16.522 117.129 17.4282C117.129 17.7112 116.942 17.8999 116.663 17.8999H111.132C111.058 17.8999 111.02 17.9376 111.02 18.0132C111.02 18.7494 111.058 19.127 111.207 19.5797C111.597 20.7689 112.511 21.3354 113.72 21.3354C114.726 21.3354 115.452 21.0142 116.123 20.316C116.215 20.2217 116.346 20.1274 116.495 20.1274C116.756 20.1274 116.942 20.316 116.942 20.5617C116.942 20.6935 116.904 20.8068 116.83 20.9012C116.197 21.7131 115.136 22.317 113.665 22.317C111.951 22.317 110.778 21.505 110.275 19.9576ZM99.9771 16.9753C100.052 16.9753 100.089 16.9375 100.089 16.8619C100.089 16.3334 100.033 15.9367 99.9214 15.5782C99.5676 14.4647 98.6923 13.8797 97.5379 13.8797C96.383 13.8797 95.5265 14.4647 95.1731 15.5782C95.0614 15.9367 95.0054 16.3334 95.0054 16.8619C95.0054 16.9375 95.0428 16.9753 95.117 16.9753H99.9771ZM94.2606 19.9576C94.0745 19.3911 93.9814 18.7684 93.9814 17.6171C93.9814 16.4841 94.0745 15.8617 94.2606 15.2763C94.7443 13.7661 95.9549 12.936 97.5379 12.936C99.1388 12.936 100.349 13.7661 100.834 15.2763C101.02 15.8426 101.113 16.522 101.113 17.4282C101.113 17.7112 100.927 17.8999 100.648 17.8999H95.117C95.0428 17.8999 95.0054 17.9376 95.0054 18.0132C95.0054 18.7494 95.0428 19.127 95.1913 19.5797C95.5821 20.7689 96.4954 21.3354 97.7055 21.3354C98.7111 21.3354 99.4371 21.0142 100.108 20.316C100.2 20.2217 100.33 20.1274 100.48 20.1274C100.74 20.1274 100.927 20.316 100.927 20.5617C100.927 20.6935 100.89 20.8068 100.815 20.9012C100.182 21.7131 99.12 22.317 97.6497 22.317C95.9361 22.317 94.7631 21.505 94.2606 19.9576ZM104.861 21.6184L100.894 9.97247C100.875 9.89682 100.857 9.80242 100.857 9.72692C100.857 9.42474 101.08 9.21753 101.378 9.21753C101.602 9.21753 101.788 9.3684 101.881 9.63268L105.512 20.335H105.549L109.125 9.63268C109.218 9.3684 109.404 9.21753 109.628 9.21753C109.925 9.21753 110.148 9.42474 110.148 9.72692C110.148 9.80242 110.13 9.91584 110.112 9.97247L106.145 21.6184C106.015 22.0149 105.847 22.2038 105.493 22.2038C105.158 22.2038 104.991 22.0149 104.861 21.6184ZM92.2774 22.2038C90.9186 22.2038 90.4341 21.562 90.4341 20.0896V9.78385C90.4341 9.42533 90.6388 9.2364 90.9371 9.2364C91.2344 9.2364 91.4392 9.42533 91.4392 9.78385V20.0518C91.4392 20.9391 91.6814 21.2219 92.4637 21.2219C92.7987 21.2219 92.9849 21.4297 92.9849 21.7131C92.9849 21.9958 92.7987 22.2038 92.4637 22.2038H92.2774ZM87.5288 19.712C87.715 19.127 87.7712 18.5231 87.7712 17.6171C87.7712 16.7296 87.715 16.1256 87.5288 15.5406C87.1941 14.5213 86.3931 13.9174 85.257 13.9174C84.1397 13.9174 83.3206 14.4271 82.9665 15.484C82.8185 15.9746 82.7436 16.7296 82.7436 17.6171C82.7436 18.5231 82.8185 19.2779 82.9665 19.7687C83.3206 20.8258 84.1397 21.3354 85.257 21.3354C86.3931 21.3354 87.1941 20.7313 87.5288 19.712ZM82.7623 20.9957H82.7436V21.6564C82.7436 22.0149 82.539 22.2038 82.2407 22.2038C81.9429 22.2038 81.738 22.0149 81.738 21.6564V9.76482C81.738 9.4063 81.9429 9.21753 82.2407 9.21753C82.539 9.21753 82.7436 9.4063 82.7436 9.76482V14.2569H82.7623C83.19 13.4832 83.9728 12.936 85.4251 12.936C86.9333 12.936 88.0133 13.7475 88.479 15.1632C88.7019 15.8992 88.795 16.5977 88.795 17.6171C88.795 18.6551 88.7019 19.3535 88.479 20.0896C88.0133 21.505 86.9333 22.317 85.4251 22.317C83.9728 22.317 83.19 21.7696 82.7623 20.9957ZM78.7774 21.6564V21.0333H78.7592C78.2565 21.8449 77.4188 22.317 76.1709 22.317C74.2157 22.317 73.0983 21.0712 73.0983 18.8815V13.5963C73.0983 13.2378 73.303 13.0489 73.6014 13.0489C73.8992 13.0489 74.1034 13.2378 74.1034 13.5963V18.6362C74.1034 20.4293 74.8487 21.3354 76.3944 21.3354C77.7348 21.3354 78.7774 20.3727 78.7774 18.825V13.5963C78.7774 13.2378 78.9827 13.0489 79.2803 13.0489C79.5784 13.0489 79.7836 13.2378 79.7836 13.5963V21.6564C79.7836 22.0149 79.5784 22.2038 79.2803 22.2038C78.9827 22.2038 78.7774 22.0149 78.7774 21.6564ZM70.4066 19.6554C70.5743 19.1457 70.6487 18.5984 70.6487 17.6171C70.6487 16.6542 70.5743 16.1069 70.4066 15.5972C70.0531 14.5213 69.1965 13.9174 68.0417 13.9174C66.906 13.9174 66.0495 14.5213 65.6957 15.5972C65.5283 16.1069 65.4541 16.6542 65.4541 17.6171C65.4541 18.5984 65.5283 19.1457 65.6957 19.6554C66.0495 20.7313 66.906 21.3354 68.0417 21.3354C69.1965 21.3354 70.0531 20.7313 70.4066 19.6554ZM64.7273 19.9767C64.5414 19.3725 64.4301 18.7118 64.4301 17.6171C64.4301 16.5407 64.5414 15.8804 64.7273 15.2763C65.2117 13.7851 66.4223 12.936 68.0417 12.936C69.681 12.936 70.8909 13.7851 71.3752 15.2763C71.5614 15.8804 71.6731 16.5407 71.6731 17.6171C71.6731 18.7118 71.5614 19.3725 71.3752 19.9767C70.8909 21.4675 69.681 22.317 68.0417 22.317C66.4223 22.317 65.2117 21.4675 64.7273 19.9767ZM55.646 21.1846H58.1786C60.0779 21.1846 61.0835 20.5429 61.6048 18.9382C61.8464 18.1646 61.94 17.4282 61.94 15.7861C61.94 14.144 61.8464 13.4081 61.6048 12.6338C61.0835 11.0296 60.0779 10.3878 58.1786 10.3878H55.646C55.5716 10.3878 55.5343 10.4255 55.5343 10.501V21.0712C55.5343 21.1469 55.5716 21.1846 55.646 21.1846ZM54.4729 9.87809C54.4729 9.55702 54.6784 9.3684 54.9942 9.3684H58.3273C60.6548 9.3684 62.0331 10.4065 62.6292 12.2753C62.9088 13.1625 63.0014 13.9363 63.0014 15.7861C63.0014 17.6361 62.9088 18.4098 62.6292 19.2969C62.0331 21.1656 60.6548 22.2038 58.3273 22.2038H54.9942C54.6784 22.2038 54.4729 22.0148 54.4729 21.694V9.87809Z" fill="#94A1AD"/>
<path fill-rule="evenodd" clip-rule="evenodd" d="M1.81554 25.5259C0.9963 25.5259 0.332275 24.8337 0.332275 23.9795V6.31636C0.332275 5.46228 0.9963 4.77002 1.81554 4.77002C2.6348 4.77002 3.29882 5.46228 3.29882 6.31636V23.9795C3.29882 24.8337 2.6348 25.5259 1.81554 25.5259Z" fill="#94A1AD"/>
<path fill-rule="evenodd" clip-rule="evenodd" d="M8.37954 25.5259H6.34545C5.48212 25.5259 4.78223 24.8339 4.78223 23.98C4.78223 23.1261 5.48212 22.4343 6.34545 22.4343H8.37954C12.442 22.4343 15.747 19.1655 15.747 15.1483C15.747 11.1306 12.442 7.86191 8.37954 7.86191H6.34545C5.48212 7.86191 4.78223 7.16972 4.78223 6.31589C4.78223 5.46207 5.48212 4.77002 6.34545 4.77002H8.37954C14.1658 4.77002 18.8734 9.42568 18.8734 15.1483C18.8734 20.8704 14.1658 25.5259 8.37954 25.5259Z" fill="#94A1AD"/>
<path fill-rule="evenodd" clip-rule="evenodd" d="M29.963 25.5259C29.3909 25.5259 28.8433 25.1954 28.5856 24.6324L20.4989 6.96994C20.1445 6.19595 20.4735 5.27602 21.2337 4.91515C21.9937 4.55443 22.8971 4.88925 23.2516 5.66338L31.3383 23.3258C31.6926 24.0999 31.3637 25.0196 30.6036 25.3808C30.3962 25.4792 30.1778 25.5259 29.963 25.5259Z" fill="#94A1AD"/>
<path fill-rule="evenodd" clip-rule="evenodd" d="M32.8346 19.5955C32.6257 19.5955 32.414 19.5488 32.2124 19.45C31.4744 19.0885 31.1551 18.1668 31.4992 17.3916L36.7075 5.66464C37.052 4.88941 37.9292 4.55374 38.6671 4.91579C39.4053 5.27724 39.7244 6.1988 39.3801 6.97403L34.1719 18.7011C33.9217 19.2645 33.3899 19.5955 32.8346 19.5955Z" fill="#94A1AD"/>
<path fill-rule="evenodd" clip-rule="evenodd" d="M47.0554 29.9734H47.4262V0.322266H47.0554V29.9734Z" fill="#94A1AD"/>
</svg>
