<svg width="14" height="14" viewBox="0 0 14 14" fill="white" xmlns="http://www.w3.org/2000/svg">
<path d="M3.67723 6.20342C3.85219 6.12172 3.92218 5.91163 3.84053 5.73656C3.8172 5.6782 3.78221 5.61984 3.75888 5.56148C3.57225 5.14131 3.4906 4.67445 3.4906 4.19591C3.4906 3.71738 3.58391 3.26219 3.75888 2.84202C3.9455 2.42184 4.19045 2.03668 4.50538 1.73322C4.83198 1.41809 5.20523 1.16132 5.62514 0.974573C6.4533 0.612755 7.50307 0.612755 8.33122 0.974573C8.75113 1.16132 9.13605 1.41809 9.45098 1.73322C9.76591 2.04835 10.0225 2.42184 10.1975 2.84202L10.2558 2.98208C10.3258 3.16882 10.5241 3.25052 10.7107 3.19216C10.8973 3.13381 10.979 2.92372 10.9207 2.73697L10.8507 2.5619C10.6291 2.04835 10.3258 1.60484 9.95254 1.23135C9.56762 0.857857 9.12438 0.554398 8.62283 0.332639C7.60805 -0.11088 6.35998 -0.11088 5.35687 0.332639C4.85531 0.554398 4.41207 0.857857 4.02715 1.23135C3.64224 1.60484 3.33897 2.06003 3.12901 2.5619C2.90739 3.07545 2.80242 3.62401 2.80242 4.18424C2.80242 4.74448 2.90739 5.31638 3.12901 5.81826C3.15234 5.88829 3.18733 5.95832 3.22233 6.02835C3.2665 6.11675 3.47153 6.29947 3.67723 6.20342ZM4.5637 13.2997H1.04113C0.936153 13.2997 0.866168 13.2764 0.784519 13.1947C0.70287 13.113 0.691206 12.8212 0.784519 12.471C0.889497 12.1092 1.05279 11.8291 1.41438 11.4439C1.62434 11.2105 1.89261 11.0121 2.18422 10.8253C2.39417 10.697 2.62745 10.5802 2.8724 10.4752C3.04736 10.4052 3.12901 10.1951 3.05903 10.02C2.97738 9.84494 2.77909 9.75156 2.60413 9.83326C2.32419 9.94998 2.06758 10.09 1.82263 10.2301C1.4727 10.4519 1.15777 10.697 0.901161 10.9654C0.457923 11.4323 0.236304 11.8058 0.0963345 12.2843C0.0146854 12.5761 -0.136949 13.2997 0.271297 13.6965C0.481251 13.895 0.726199 14 1.0178 14H4.5637C4.76199 14 4.91363 13.8483 4.91363 13.6499C4.91363 13.4514 4.76199 13.2997 4.5637 13.2997ZM11.5972 8.73614H9.5093V6.64694C9.5093 6.42518 9.32268 6.23843 9.10106 6.23843C8.87944 6.23843 8.69281 6.42518 8.69281 6.64694V8.73614H6.60493C6.38331 8.73614 6.19668 8.92288 6.19668 9.14464C6.19668 9.3664 6.38331 9.55315 6.60493 9.55315H8.69281V11.6424C8.69281 11.8641 8.87944 12.0509 9.10106 12.0509C9.32268 12.0509 9.5093 11.8641 9.5093 11.6424V9.55315H11.5972C11.8188 9.55315 12.0054 9.3664 12.0054 9.14464C12.0054 8.92288 11.8188 8.73614 11.5972 8.73614ZM9.10106 4.19591C6.39497 4.19591 4.20211 6.39016 4.20211 9.09796C4.20211 11.8058 6.39497 14 9.10106 14C11.8071 14 14 11.8058 14 9.09796C14 6.39016 11.8071 4.19591 9.10106 4.19591ZM9.10106 13.3114C6.77989 13.3114 4.90196 11.4206 4.90196 9.10963C4.90196 6.79867 6.79156 4.90788 9.10106 4.90788C11.4106 4.90788 13.3002 6.79867 13.3002 9.10963C13.3002 11.4206 11.4106 13.3114 9.10106 13.3114Z" fill="white" fill-opacity="0.8"/>
</svg>
