<svg width="16" height="16" viewBox="0 0 16 16" fill="none" xmlns="http://www.w3.org/2000/svg">
<path fill-rule="evenodd" clip-rule="evenodd" d="M9.72771 4.24083C10.5313 4.24024 11.1824 3.58932 11.1818 2.78721C11.1824 1.98488 10.5313 1.33397 9.72738 1.33337C8.96039 1.33451 8.32925 1.92867 8.27682 2.68705L8.27422 2.73673L8.27338 2.7871V4.24083H9.72771ZM6.27299 7.72611C7.04023 7.72498 7.6713 7.13056 7.72321 6.37175L7.72577 6.32203L7.72658 6.27173V2.78732C7.72717 1.98493 7.076 1.33397 6.27203 1.33337C5.50479 1.33451 4.87372 1.92893 4.82181 2.68773L4.81925 2.73745L4.81844 2.78775V6.27269C4.81786 7.05865 5.44196 7.69893 6.22273 7.72527L6.27299 7.72611ZM9.72749 3.94639H8.56778V2.78963L8.56854 2.74447C8.59052 2.12349 9.10252 1.6287 9.72749 1.62778C10.3686 1.62825 10.8879 2.14737 10.8874 2.78719C10.8879 3.41156 10.393 3.92112 9.77307 3.94547L9.72749 3.94639ZM6.27256 7.43166L6.22718 7.43079C5.6225 7.40748 5.13721 6.92273 5.11375 6.31942L5.11285 6.27278V2.79017L5.11357 2.74497C5.1351 2.12364 5.64698 1.6287 6.27213 1.62778C6.89803 1.62824 7.40783 2.12299 7.43131 2.74171L7.43217 2.7872V6.26928L7.43145 6.31448C7.41046 6.92027 6.92333 7.40591 6.31925 7.43067L6.27256 7.43166ZM13.2132 7.7267C14.0169 7.72551 14.6678 7.07441 14.6666 6.27254C14.6672 5.50668 14.0729 4.87574 13.3129 4.82229L13.2631 4.81963L13.2124 4.81871H9.72749C8.9239 4.8193 8.27332 5.47022 8.27391 6.27286C8.27335 7.03872 8.86768 7.66966 9.62764 7.72311L9.67743 7.72577L9.72814 7.7267H13.2132ZM4.24199 7.7266V6.27286C4.24258 5.47047 3.59141 4.8195 2.78754 4.81891C1.98389 4.8195 1.33272 5.47047 1.33331 6.27264C1.33275 7.03856 1.92712 7.66955 2.68715 7.72301L2.73694 7.72567L2.78765 7.7266H4.24199ZM13.2127 7.43217L9.7309 7.4322L9.68559 7.43137C9.06274 7.4085 8.56789 6.89675 8.56835 6.27276C8.56788 5.64782 9.06226 5.13829 9.68204 5.11395L9.72761 5.11303L13.2097 5.11301L13.255 5.11383C13.8778 5.1367 14.3727 5.64846 14.3722 6.27255C14.3732 6.91196 13.854 7.43122 13.2127 7.43217ZM2.79041 7.43228L2.7451 7.43145C2.12218 7.40858 1.62728 6.89677 1.62775 6.27273C1.62727 5.63306 2.14661 5.11389 2.78755 5.11342C3.41344 5.11388 3.92324 5.60863 3.94672 6.22735L3.94757 6.27283L3.94741 7.43225L2.79041 7.43228ZM6.27194 11.1817C7.07562 11.1811 7.72664 10.53 7.72605 9.72739C7.72662 8.96147 7.13229 8.33048 6.37232 8.27702L6.32253 8.27436L6.27183 8.27344H2.78679C1.98307 8.27462 1.33213 8.92577 1.33331 9.7277C1.33275 10.4936 1.92708 11.1246 2.68704 11.1781L2.73684 11.1807L2.78754 11.1817H6.27194ZM13.2124 11.1817C14.0161 11.1811 14.6672 10.5301 14.6666 9.72792C14.6672 8.96158 14.0729 8.33049 13.3128 8.27702L13.263 8.27436L13.2123 8.27344H11.758V9.7277C11.7574 10.5134 12.3817 11.1539 13.1622 11.1808L13.2124 11.1817ZM9.72793 14.6667C10.4949 14.6656 11.1257 14.0714 11.1781 13.3129L11.1807 13.2632L11.1815 13.2129V9.72792C11.1821 8.92509 10.531 8.27403 9.72696 8.27344C8.95973 8.27457 8.32865 8.86899 8.27675 9.6278L8.27419 9.67751L8.27338 9.72781V13.2128C8.2728 13.9984 8.89711 14.6389 9.67758 14.6658L9.72793 14.6667ZM6.27172 10.8872L2.7903 10.8873L2.745 10.8864C2.12214 10.8636 1.62729 10.3518 1.62775 9.7276C1.62682 9.10335 2.12151 8.59361 2.74143 8.56881L2.78701 8.56787L6.26908 8.56784L6.31438 8.56867C6.93724 8.59154 7.43209 9.10334 7.43163 9.72739C7.43209 10.3523 6.93732 10.862 6.31731 10.8863L6.27172 10.8872ZM13.2122 10.8872L13.1668 10.8863C12.5623 10.8626 12.0768 10.3775 12.0533 9.77444L12.0524 9.72782L12.0523 8.56787L13.2096 8.56784L13.2549 8.56867C13.8778 8.59154 14.3727 9.10343 14.3722 9.72793C14.3727 10.3524 13.8778 10.862 13.2578 10.8863L13.2122 10.8872ZM9.72763 14.3725L9.68224 14.3714C9.07773 14.3476 8.59216 13.8626 8.56869 13.2595L8.56778 13.2128V9.73023L8.56851 9.68503C8.59004 9.0637 9.10192 8.56877 9.72707 8.56784C10.353 8.5683 10.8628 9.06313 10.8862 9.68227L10.8871 9.72779V13.2103L10.8864 13.2555C10.8649 13.8611 10.378 14.3465 9.77417 14.3713L9.72763 14.3725ZM6.27468 14.6666L6.32531 14.6656C7.07009 14.6378 7.67151 14.0524 7.72307 13.3133L7.72573 13.2627L7.72658 13.2123V11.759H6.27225C5.46866 11.7596 4.81754 12.4105 4.81813 13.2127C4.81755 13.9985 5.44138 14.6389 6.2217 14.6658L6.27468 14.6666ZM6.27043 14.3725L6.22636 14.3714C5.63758 14.3483 5.16192 13.8874 5.11617 13.3057L5.11341 13.2583L5.11256 13.2128C5.1121 12.5884 5.60694 12.0787 6.22679 12.0544L6.27236 12.0535H7.43195L7.43218 13.2098L7.43142 13.255C7.41056 13.8449 6.94733 14.323 6.36447 14.3687L6.31695 14.3714L6.27043 14.3725Z" fill="#B0BECA"/>
<path d="M9.72771 4.24083V4.40583H9.72783L9.72771 4.24083ZM11.1818 2.78721L11.0168 2.78709V2.78733L11.1818 2.78721ZM9.72738 1.33337L9.7275 1.16837L9.72714 1.16837L9.72738 1.33337ZM8.27682 2.68705L8.11219 2.67566L8.11204 2.67844L8.27682 2.68705ZM8.27422 2.73673L8.10935 2.72812L8.10925 2.73395L8.27422 2.73673ZM8.27338 2.7871L8.10838 2.78432V2.7871H8.27338ZM8.27338 4.24083H8.10838V4.40583H8.27338V4.24083ZM6.27299 7.72611L6.27023 7.89111L6.27324 7.89111L6.27299 7.72611ZM7.72321 6.37175L7.88785 6.38301L7.88799 6.38023L7.72321 6.37175ZM7.72577 6.32203L7.89065 6.33052L7.89075 6.3247L7.72577 6.32203ZM7.72658 6.27173L7.89158 6.2744V6.27173H7.72658ZM7.72658 2.78732L7.56158 2.7872V2.78732H7.72658ZM6.27203 1.33337L6.27215 1.16837L6.27178 1.16837L6.27203 1.33337ZM4.82181 2.68773L4.65717 2.67647L4.65703 2.67925L4.82181 2.68773ZM4.81925 2.73745L4.65437 2.72896L4.65427 2.73478L4.81925 2.73745ZM4.81844 2.78775L4.65344 2.78508V2.78775H4.81844ZM4.81844 6.27269L4.98344 6.27281V6.27269H4.81844ZM6.22273 7.72527L6.21717 7.8902L6.21997 7.89024L6.22273 7.72527ZM9.72749 3.94639V4.11143L9.73082 4.11136L9.72749 3.94639ZM8.56778 3.94639H8.40278V4.11139H8.56778V3.94639ZM8.56778 2.78963L8.40278 2.78686V2.78963H8.56778ZM8.56854 2.74447L8.40361 2.73863L8.40356 2.7417L8.56854 2.74447ZM9.72749 1.62778L9.72761 1.46278L9.72725 1.46278L9.72749 1.62778ZM10.8874 2.78719L10.7224 2.78707V2.78731L10.8874 2.78719ZM9.77307 3.94547L9.7764 4.11047L9.77955 4.11035L9.77307 3.94547ZM6.27256 7.43166L6.26937 7.59677L6.27606 7.59663L6.27256 7.43166ZM6.22718 7.43079L6.22082 7.59569L6.22399 7.59575L6.22718 7.43079ZM5.11375 6.31942L4.94875 6.32263L4.94888 6.32583L5.11375 6.31942ZM5.11285 6.27278H4.94781L4.94788 6.27599L5.11285 6.27278ZM5.11285 2.79017L4.94785 2.78752V2.79017H5.11285ZM5.11357 2.74497L4.94864 2.73925L4.94859 2.74232L5.11357 2.74497ZM6.27213 1.62778L6.27226 1.46278L6.27189 1.46278L6.27213 1.62778ZM7.43131 2.74171L7.59631 2.73857L7.59619 2.73545L7.43131 2.74171ZM7.43217 2.7872H7.5972L7.59714 2.78406L7.43217 2.7872ZM7.43217 6.26928L7.59717 6.27192V6.26928H7.43217ZM7.43145 6.31448L7.59638 6.32019L7.59643 6.31712L7.43145 6.31448ZM6.31925 7.43067L6.32275 7.59567L6.32601 7.59553L6.31925 7.43067ZM13.2132 7.7267V7.8917L13.2134 7.89169L13.2132 7.7267ZM14.6666 6.27254L14.5016 6.27242L14.5016 6.27279L14.6666 6.27254ZM13.3129 4.82229L13.3245 4.65767L13.3217 4.65753L13.3129 4.82229ZM13.2631 4.81963L13.2719 4.65476L13.2661 4.65466L13.2631 4.81963ZM13.2124 4.81871L13.2154 4.65371H13.2124V4.81871ZM9.72749 4.81871V4.65371H9.72737L9.72749 4.81871ZM8.27391 6.27286L8.43891 6.27298V6.27274L8.27391 6.27286ZM9.62764 7.72311L9.61606 7.88773L9.61883 7.88787L9.62764 7.72311ZM9.67743 7.72577L9.66862 7.89064L9.67443 7.89075L9.67743 7.72577ZM9.72814 7.7267L9.72513 7.8917H9.72814V7.7267ZM4.24199 7.7266V7.8916H4.40699V7.7266H4.24199ZM4.24199 6.27286L4.07699 6.27274V6.27286H4.24199ZM2.78754 4.81891L2.78766 4.65391L2.78742 4.65391L2.78754 4.81891ZM1.33331 6.27264L1.49831 6.27277L1.49831 6.27252L1.33331 6.27264ZM2.68715 7.72301L2.67557 7.88763L2.67834 7.88778L2.68715 7.72301ZM2.73694 7.72567L2.72813 7.89054L2.73394 7.89065L2.73694 7.72567ZM2.78765 7.7266L2.78465 7.8916H2.78765V7.7266ZM13.2127 7.43217L13.2128 7.59717L13.213 7.59717L13.2127 7.43217ZM9.7309 7.4322L9.7279 7.5972H9.7309L9.7309 7.4322ZM9.68559 7.43137L9.67954 7.59629L9.6826 7.59635L9.68559 7.43137ZM8.56835 6.27276L8.73335 6.27288V6.27264L8.56835 6.27276ZM9.68204 5.11395L9.67874 4.94895L9.67556 4.94907L9.68204 5.11395ZM9.72761 5.11303L9.72761 4.948L9.72431 4.94807L9.72761 5.11303ZM13.2097 5.11301L13.2127 4.94801H13.2097L13.2097 5.11301ZM13.255 5.11383L13.261 4.94892L13.258 4.94886L13.255 5.11383ZM14.3722 6.27255L14.2072 6.27243V6.2728L14.3722 6.27255ZM2.79041 7.43228L2.78741 7.59728H2.79041L2.79041 7.43228ZM2.7451 7.43145L2.73905 7.59637L2.7421 7.59642L2.7451 7.43145ZM1.62775 6.27273L1.79275 6.27285L1.79275 6.2726L1.62775 6.27273ZM2.78755 5.11342L2.78767 4.94842L2.78743 4.94842L2.78755 5.11342ZM3.94672 6.22735L4.11172 6.22428L4.1116 6.22109L3.94672 6.22735ZM3.94757 6.27283L4.11259 6.27286L4.11254 6.26977L3.94757 6.27283ZM3.94741 7.43225L3.94741 7.59725L4.11239 7.59725L4.11241 7.43227L3.94741 7.43225ZM6.27194 11.1817V11.3467H6.27206L6.27194 11.1817ZM7.72605 9.72739L7.56105 9.72726V9.72751L7.72605 9.72739ZM6.37232 8.27702L6.3839 8.1124L6.38114 8.11226L6.37232 8.27702ZM6.32253 8.27436L6.33135 8.10949L6.32553 8.10939L6.32253 8.27436ZM6.27183 8.27344L6.27483 8.10844H6.27183V8.27344ZM2.78679 8.27344V8.10844H2.78655L2.78679 8.27344ZM1.33331 9.7277L1.49831 9.72782L1.49831 9.72746L1.33331 9.7277ZM2.68704 11.1781L2.67546 11.3427L2.67823 11.3428L2.68704 11.1781ZM2.73684 11.1807L2.72802 11.3456L2.73384 11.3457L2.73684 11.1807ZM2.78754 11.1817L2.78454 11.3467H2.78754V11.1817ZM13.2124 11.1817L13.2095 11.3467L13.2125 11.3467L13.2124 11.1817ZM14.6666 9.72792L14.5016 9.7278L14.5016 9.72804L14.6666 9.72792ZM13.3128 8.27702L13.3244 8.11241L13.3216 8.11226L13.3128 8.27702ZM13.263 8.27436L13.2718 8.10949L13.266 8.10939L13.263 8.27436ZM13.2123 8.27344L13.2153 8.10844H13.2123V8.27344ZM11.758 8.27344V8.10844H11.593V8.27344H11.758ZM11.758 9.7277L11.923 9.72782V9.7277H11.758ZM13.1622 11.1808L13.1565 11.3457L13.1593 11.3457L13.1622 11.1808ZM9.72793 14.6667L9.72505 14.8317L9.72817 14.8317L9.72793 14.6667ZM11.1781 13.3129L11.3427 13.3243L11.3429 13.3215L11.1781 13.3129ZM11.1807 13.2632L11.3455 13.2718L11.3456 13.266L11.1807 13.2632ZM11.1815 13.2129L11.3465 13.2156V13.2129H11.1815ZM11.1815 9.72792L11.0165 9.7278V9.72792H11.1815ZM9.72696 8.27344L9.72708 8.10844L9.72672 8.10844L9.72696 8.27344ZM8.27675 9.6278L8.11211 9.61654L8.11197 9.61932L8.27675 9.6278ZM8.27419 9.67751L8.1093 9.66903L8.10921 9.67485L8.27419 9.67751ZM8.27338 9.72781L8.10838 9.72514V9.72781H8.27338ZM8.27338 13.2128L8.43838 13.2129V13.2128H8.27338ZM9.67758 14.6658L9.6719 14.8308L9.6747 14.8308L9.67758 14.6658ZM6.27172 10.8872L6.27173 11.0523L6.27502 11.0522L6.27172 10.8872ZM2.7903 10.8873L2.7873 11.0523H2.7903L2.7903 10.8873ZM2.745 10.8864L2.73894 11.0513L2.742 11.0514L2.745 10.8864ZM1.62775 9.7276L1.79275 9.72772L1.79275 9.72735L1.62775 9.7276ZM2.74143 8.56881L2.73802 8.40382L2.73484 8.40394L2.74143 8.56881ZM2.78701 8.56787L2.78701 8.40283L2.78359 8.4029L2.78701 8.56787ZM6.26908 8.56784L6.27208 8.40284H6.26908L6.26908 8.56784ZM6.31438 8.56867L6.32044 8.40375L6.31738 8.40369L6.31438 8.56867ZM7.43163 9.72739L7.26663 9.72727V9.72751L7.43163 9.72739ZM6.31731 10.8863L6.32061 11.0513L6.32379 11.0512L6.31731 10.8863ZM13.2122 10.8872L13.2089 11.0523L13.2155 11.0522L13.2122 10.8872ZM13.1668 10.8863L13.1604 11.0512L13.1635 11.0513L13.1668 10.8863ZM12.0533 9.77444L11.8883 9.77758L11.8884 9.78085L12.0533 9.77444ZM12.0524 9.72782L11.8874 9.72782L11.8874 9.73096L12.0524 9.72782ZM12.0523 8.56787L12.0523 8.40287L11.8873 8.40287L11.8873 8.56788L12.0523 8.56787ZM13.2096 8.56784L13.2126 8.40284H13.2096L13.2096 8.56784ZM13.2549 8.56867L13.2609 8.40375L13.2579 8.40369L13.2549 8.56867ZM14.3722 9.72793L14.2072 9.7278V9.72805L14.3722 9.72793ZM13.2578 10.8863L13.2611 11.0513L13.2643 11.0512L13.2578 10.8863ZM9.72763 14.3725L9.72356 14.5376L9.73188 14.5374L9.72763 14.3725ZM9.68224 14.3714L9.67576 14.5362L9.67817 14.5363L9.68224 14.3714ZM8.56869 13.2595L8.40369 13.2627L8.40382 13.2659L8.56869 13.2595ZM8.56778 13.2128H8.40275L8.40281 13.2161L8.56778 13.2128ZM8.56778 9.73023L8.40278 9.72758V9.73023H8.56778ZM8.56851 9.68503L8.40358 9.67931L8.40353 9.68239L8.56851 9.68503ZM9.72707 8.56784L9.72719 8.40284L9.72683 8.40284L9.72707 8.56784ZM10.8862 9.68227L11.0512 9.67913L11.0511 9.67602L10.8862 9.68227ZM10.8871 9.72779H11.0521L11.0521 9.72465L10.8871 9.72779ZM10.8871 13.2103L11.0521 13.2131V13.2103H10.8871ZM10.8864 13.2555L11.0513 13.2613L11.0513 13.2582L10.8864 13.2555ZM9.77417 14.3713L9.77842 14.5362L9.78093 14.5361L9.77417 14.3713ZM6.27468 14.6666L6.27202 14.8317L6.27796 14.8316L6.27468 14.6666ZM6.32531 14.6656L6.32859 14.8306L6.33147 14.8305L6.32531 14.6656ZM7.72307 13.3133L7.88769 13.3248L7.88784 13.322L7.72307 13.3133ZM7.72573 13.2627L7.8906 13.2713L7.8907 13.2655L7.72573 13.2627ZM7.72658 13.2123L7.89158 13.2151V13.2123H7.72658ZM7.72658 11.759H7.89158V11.594H7.72658V11.759ZM6.27225 11.759V11.594H6.27212L6.27225 11.759ZM4.81813 13.2127L4.98313 13.2128V13.2126L4.81813 13.2127ZM6.2217 14.6658L6.21601 14.8307L6.21904 14.8308L6.2217 14.6658ZM6.27043 14.3725L6.26623 14.5377L6.27438 14.5375L6.27043 14.3725ZM6.22636 14.3714L6.21989 14.5363L6.22217 14.5364L6.22636 14.3714ZM5.11617 13.3057L4.95141 13.3153L4.95168 13.3187L5.11617 13.3057ZM5.11341 13.2583L4.94831 13.2614L4.94869 13.2679L5.11341 13.2583ZM5.11256 13.2128L4.94754 13.2129L4.94759 13.2159L5.11256 13.2128ZM6.22679 12.0544L6.22349 11.8894L6.22031 11.8895L6.22679 12.0544ZM6.27236 12.0535V11.8885L6.26906 11.8885L6.27236 12.0535ZM7.43195 12.0535L7.59695 12.0535L7.59691 11.8885H7.43195V12.0535ZM7.43218 13.2098L7.59718 13.2126L7.59718 13.2098L7.43218 13.2098ZM7.43142 13.255L7.59635 13.2609L7.5964 13.2578L7.43142 13.255ZM6.36447 14.3687L6.374 14.5334L6.37736 14.5332L6.36447 14.3687ZM6.31695 14.3714L6.32091 14.5365L6.32648 14.5361L6.31695 14.3714ZM9.72783 4.40583C10.6223 4.40517 11.3475 3.68061 11.3468 2.78709L11.0168 2.78733C11.0173 3.49803 10.4403 4.0753 9.72758 4.07583L9.72783 4.40583ZM11.3468 2.78733C11.3475 1.89359 10.6222 1.16903 9.7275 1.16837L9.72726 1.49837C10.4403 1.4989 11.0173 2.07618 11.0168 2.78709L11.3468 2.78733ZM9.72714 1.16837C8.87336 1.16963 8.17061 1.83105 8.11221 2.67567L8.44143 2.69843C8.4879 2.02629 9.04742 1.49938 9.72762 1.49837L9.72714 1.16837ZM8.11204 2.67844L8.10945 2.72813L8.439 2.74534L8.44159 2.69565L8.11204 2.67844ZM8.10925 2.73395L8.1084 2.78432L8.43835 2.78988L8.4392 2.73952L8.10925 2.73395ZM8.10838 2.7871V4.24083H8.43837V2.7871H8.10838ZM8.27338 4.40583H9.72771V4.07583H8.27338V4.40583ZM6.27324 7.89111C7.1273 7.88985 7.83002 7.22812 7.88782 6.38301L7.55859 6.36049C7.51259 7.033 6.95316 7.56011 6.27275 7.56111L6.27324 7.89111ZM7.88799 6.38023L7.89055 6.33051L7.56099 6.31355L7.55843 6.36327L7.88799 6.38023ZM7.89075 6.3247L7.89156 6.2744L7.5616 6.26907L7.56079 6.31937L7.89075 6.3247ZM7.89158 6.27173V2.78732H7.56158V6.27173H7.89158ZM7.89158 2.78745C7.89224 1.89364 7.16696 1.16903 6.27215 1.16837L6.2719 1.49837C6.98504 1.4989 7.56211 2.07623 7.56158 2.7872L7.89158 2.78745ZM6.27178 1.16837C5.41772 1.16963 4.715 1.83137 4.6572 2.67647L4.98643 2.69899C5.03243 2.02648 5.59186 1.49938 6.27227 1.49837L6.27178 1.16837ZM4.65703 2.67925L4.65447 2.72897L4.98403 2.74593L4.98659 2.69622L4.65703 2.67925ZM4.65427 2.73478L4.65346 2.78508L4.98342 2.79042L4.98423 2.74012L4.65427 2.73478ZM4.65344 2.78775V6.27269H4.98344V2.78775H4.65344ZM4.65344 6.27257C4.65279 7.14802 5.34792 7.86085 6.21717 7.89017L6.2283 7.56036C5.53599 7.53701 4.98293 6.96927 4.98344 6.27281L4.65344 6.27257ZM6.21997 7.89024L6.27023 7.89109L6.27576 7.56113L6.2255 7.56029L6.21997 7.89024ZM9.72749 3.78139H8.56778V4.11139H9.72749V3.78139ZM8.73278 3.94639V2.78963H8.40278V3.94639H8.73278ZM8.73276 2.79239L8.73352 2.74723L8.40356 2.7417L8.40281 2.78686L8.73276 2.79239ZM8.73344 2.7503C8.75226 2.21839 9.19117 1.79357 9.72773 1.79278L9.72725 1.46278C9.01387 1.46383 8.42877 2.02859 8.40364 2.73863L8.73344 2.7503ZM9.72737 1.79278C10.2776 1.79319 10.7228 2.23867 10.7224 2.78707L11.0524 2.78731C11.0529 2.05607 10.4595 1.46332 9.72761 1.46278L9.72737 1.79278ZM10.7224 2.78731C10.7228 3.32239 10.2986 3.7597 9.76659 3.7806L9.77955 4.11035C10.4874 4.08254 11.0529 3.50074 11.0524 2.78707L10.7224 2.78731ZM9.76974 3.78051L9.72416 3.78143L9.73082 4.11136L9.7764 4.11044L9.76974 3.78051ZM6.27575 7.26669L6.23037 7.26582L6.22399 7.59575L6.26937 7.59663L6.27575 7.26669ZM6.23353 7.26591C5.71478 7.24592 5.29873 6.83001 5.27863 6.31301L4.94888 6.32583C4.97569 7.01544 5.53022 7.56905 6.22083 7.59566L6.23353 7.26591ZM5.27872 6.31621L5.27781 6.26957L4.94788 6.27599L4.94878 6.32263L5.27872 6.31621ZM5.27785 6.27278V2.79017H4.94785V6.27278H5.27785ZM5.27782 2.79281L5.27855 2.74761L4.94859 2.74232L4.94787 2.78752L5.27782 2.79281ZM5.27847 2.75068C5.29691 2.21847 5.73567 1.79357 6.27238 1.79278L6.27189 1.46278C5.55829 1.46383 4.97329 2.0288 4.94867 2.73925L5.27847 2.75068ZM6.27201 1.79278C6.8092 1.79318 7.2463 2.21777 7.26643 2.74797L7.59619 2.73545C7.56935 2.02822 6.98686 1.46331 6.27226 1.46278L6.27201 1.79278ZM7.26634 2.74484L7.2672 2.79033L7.59714 2.78406L7.59628 2.73857L7.26634 2.74484ZM7.26717 2.7872V6.26928H7.59717V2.7872H7.26717ZM7.26719 6.26663L7.26647 6.31183L7.59643 6.31712L7.59715 6.27192L7.26719 6.26663ZM7.26655 6.30876C7.24857 6.82761 6.83106 7.24456 6.31249 7.26581L6.32601 7.59553C7.01559 7.56727 7.57234 7.01294 7.59635 6.32019L7.26655 6.30876ZM6.31575 7.26571L6.26906 7.2667L6.27606 7.59663L6.32275 7.59564L6.31575 7.26571ZM13.2134 7.89169C14.1079 7.89038 14.833 7.16569 14.8316 6.2723L14.5016 6.27279C14.5027 6.98313 13.9259 7.56064 13.2129 7.5617L13.2134 7.89169ZM14.8316 6.27266C14.8323 5.41939 14.1702 4.71718 13.3245 4.6577L13.3013 4.98688C13.9756 5.03431 14.5021 5.59398 14.5016 6.27242L14.8316 6.27266ZM13.3217 4.65753L13.2719 4.65486L13.2543 4.98439L13.3041 4.98706L13.3217 4.65753ZM13.2661 4.65466L13.2154 4.65373L13.2094 4.98368L13.2601 4.9846L13.2661 4.65466ZM13.2124 4.65371H9.72749V4.98371H13.2124V4.65371ZM9.72737 4.65371C8.83281 4.65437 8.10825 5.37906 8.10891 6.27298L8.43891 6.27274C8.43839 5.56139 9.01499 4.98423 9.72762 4.98371L9.72737 4.65371ZM8.10891 6.27274C8.10828 7.12601 8.77037 7.82822 9.61606 7.8877L9.63922 7.55852C8.96498 7.51109 8.43841 6.95142 8.43891 6.27298L8.10891 6.27274ZM9.61883 7.88787L9.66862 7.89054L9.68624 7.56101L9.63645 7.55835L9.61883 7.88787ZM9.67443 7.89075L9.72514 7.89167L9.73114 7.56172L9.68044 7.5608L9.67443 7.89075ZM9.72814 7.8917H13.2132V7.5617H9.72814V7.8917ZM4.40699 7.7266V6.27286H4.07699V7.7266H4.40699ZM4.40699 6.27298C4.40765 5.37918 3.68237 4.65457 2.78766 4.65391L2.78742 4.98391C3.50044 4.98444 4.07751 5.56176 4.07699 6.27274L4.40699 6.27298ZM2.78742 4.65391C1.89293 4.65457 1.16765 5.37918 1.16831 6.27277L1.49831 6.27252C1.49779 5.56176 2.07486 4.98444 2.78766 4.98391L2.78742 4.65391ZM1.16831 6.27252C1.16768 7.12586 1.82981 7.82812 2.67557 7.88761L2.69872 7.55842C2.02443 7.51099 1.49781 6.95127 1.49831 6.27277L1.16831 6.27252ZM2.67834 7.88778L2.72813 7.89044L2.74575 7.56091L2.69596 7.55825L2.67834 7.88778ZM2.73394 7.89065L2.78465 7.89157L2.79065 7.56162L2.73994 7.5607L2.73394 7.89065ZM2.78765 7.8916H4.24199V7.5616H2.78765V7.8916ZM13.2127 7.26717L9.73089 7.2672L9.7309 7.5972L13.2128 7.59717L13.2127 7.26717ZM9.73389 7.26722L9.68859 7.2664L9.6826 7.59635L9.7279 7.59717L9.73389 7.26722ZM9.69165 7.26648C9.15725 7.24686 8.73295 6.80775 8.73335 6.27288L8.40335 6.27264C8.40282 6.98574 8.96822 7.57015 9.67954 7.59626L9.69165 7.26648ZM8.73335 6.27264C8.73295 5.73684 9.15683 5.29971 9.68852 5.27882L9.67556 4.94907C8.96769 4.97688 8.40282 5.5588 8.40335 6.27288L8.73335 6.27264ZM9.68534 5.27891L9.7309 5.278L9.72431 4.94807L9.67875 4.94898L9.68534 5.27891ZM9.72761 5.27803L13.2097 5.27801L13.2097 4.94801L9.72761 4.94803L9.72761 5.27803ZM13.2067 5.27798L13.252 5.27881L13.258 4.94886L13.2127 4.94804L13.2067 5.27798ZM13.2489 5.27872C13.7833 5.29834 14.2076 5.73744 14.2072 6.27243L14.5372 6.27268C14.5378 5.55948 13.9724 4.97506 13.261 4.94894L13.2489 5.27872ZM14.2072 6.2728C14.208 6.82064 13.7631 7.26636 13.2125 7.26717L13.213 7.59717C13.945 7.59609 14.5383 7.00328 14.5372 6.27231L14.2072 6.2728ZM2.79341 7.2673L2.7481 7.26648L2.7421 7.59642L2.78741 7.59725L2.79341 7.2673ZM2.75116 7.26656C2.2167 7.24694 1.79235 6.80778 1.79275 6.27285L1.46275 6.2726C1.46222 6.98576 2.02767 7.57022 2.73905 7.59634L2.75116 7.26656ZM1.79275 6.2726C1.79234 5.72436 2.23756 5.27883 2.78767 5.27842L2.78743 4.94842C2.05565 4.94896 1.4622 5.54176 1.46275 6.27285L1.79275 6.2726ZM2.78743 5.27842C3.32461 5.27882 3.76172 5.70341 3.78184 6.2336L4.1116 6.22109C4.08476 5.51386 3.50227 4.94895 2.78767 4.94842L2.78743 5.27842ZM3.78175 6.23041L3.78259 6.2759L4.11254 6.26977L4.11169 6.22428L3.78175 6.23041ZM3.78257 6.27281L3.78241 7.43223L4.11241 7.43227L4.11257 6.27286L3.78257 6.27281ZM3.94741 7.26725L2.7904 7.26728L2.79041 7.59728L3.94741 7.59725L3.94741 7.26725ZM6.27206 11.3467C7.16665 11.346 7.89171 10.6212 7.89105 9.72727L7.56105 9.72751C7.56158 10.4388 6.98458 11.0161 6.27181 11.0167L6.27206 11.3467ZM7.89105 9.72751C7.89168 8.87419 7.22961 8.17192 6.3839 8.11243L6.36075 8.44161C7.03497 8.48904 7.56155 9.04876 7.56105 9.72726L7.89105 9.72751ZM6.38114 8.11226L6.33134 8.10959L6.31372 8.43912L6.36351 8.44179L6.38114 8.11226ZM6.32553 8.10939L6.27483 8.10846L6.26883 8.43841L6.31953 8.43933L6.32553 8.10939ZM6.27183 8.10844H2.78679V8.43844H6.27183V8.10844ZM2.78655 8.10844C1.89208 8.10976 1.16699 8.83451 1.16831 9.72795L1.49831 9.72746C1.49726 9.01704 2.07405 8.43949 2.78703 8.43844L2.78655 8.10844ZM1.16831 9.72758C1.16769 10.5809 1.82976 11.2832 2.67547 11.3427L2.69862 11.0135C2.0244 10.966 1.49781 10.4063 1.49831 9.72782L1.16831 9.72758ZM2.67823 11.3428L2.72803 11.3455L2.74565 11.016L2.69585 11.0133L2.67823 11.3428ZM2.73384 11.3457L2.78454 11.3466L2.79054 11.0167L2.73984 11.0158L2.73384 11.3457ZM2.78754 11.3467H6.27194V11.0167H2.78754V11.3467ZM13.2125 11.3467C14.107 11.346 14.8323 10.6214 14.8316 9.7278L14.5016 9.72804C14.5022 10.4388 13.9251 11.0161 13.2123 11.0167L13.2125 11.3467ZM14.8316 9.72804C14.8323 8.87433 14.1703 8.17193 13.3244 8.11243L13.3012 8.44162C13.9756 8.48905 14.5021 9.04882 14.5016 9.7278L14.8316 9.72804ZM13.3216 8.11226L13.2718 8.10959L13.2542 8.43912L13.304 8.44179L13.3216 8.11226ZM13.266 8.10939L13.2153 8.10846L13.2093 8.43841L13.26 8.43933L13.266 8.10939ZM13.2123 8.10844H11.758V8.43844H13.2123V8.10844ZM11.593 8.27344V9.7277H11.923V8.27344H11.593ZM11.593 9.72758C11.5923 10.6028 12.2877 11.3157 13.1565 11.3457L13.1679 11.0159C12.4757 10.992 11.9224 10.424 11.923 9.72782L11.593 9.72758ZM13.1593 11.3457L13.2095 11.3466L13.2153 11.0167L13.1651 11.0158L13.1593 11.3457ZM9.72817 14.8317C10.582 14.8304 11.2843 14.169 11.3427 13.3243L11.0135 13.3016C10.967 13.9739 10.4078 14.5007 9.72769 14.5017L9.72817 14.8317ZM11.3429 13.3215L11.3454 13.2718L11.0159 13.2546L11.0133 13.3043L11.3429 13.3215ZM11.3456 13.266L11.3465 13.2156L11.0165 13.2101L11.0157 13.2605L11.3456 13.266ZM11.3465 13.2129V9.72792H11.0165V13.2129H11.3465ZM11.3465 9.72804C11.3472 8.83385 10.622 8.1091 9.72708 8.10844L9.72684 8.43844C10.44 8.43896 11.017 9.01633 11.0165 9.7278L11.3465 9.72804ZM9.72672 8.10844C8.87266 8.1097 8.16994 8.77143 8.11213 9.61654L8.44136 9.63906C8.48736 8.96655 9.0468 8.43944 9.72721 8.43844L9.72672 8.10844ZM8.11197 9.61932L8.10941 9.66903L8.43897 9.686L8.44153 9.63628L8.11197 9.61932ZM8.10921 9.67485L8.1084 9.72514L8.43835 9.73048L8.43917 9.68018L8.10921 9.67485ZM8.10838 9.72781V13.2128H8.43838V9.72781H8.10838ZM8.10838 13.2126C8.10773 14.0878 8.80307 14.8008 9.6719 14.8307L9.68326 14.5009C8.99114 14.4771 8.43786 13.909 8.43838 13.2129L8.10838 13.2126ZM9.6747 14.8308L9.72505 14.8317L9.73081 14.5017L9.68046 14.5009L9.6747 14.8308ZM6.27172 10.7222L2.7903 10.7223L2.7903 11.0523L6.27173 11.0522L6.27172 10.7222ZM2.7933 10.7223L2.74799 10.7215L2.742 11.0514L2.7873 11.0522L2.7933 10.7223ZM2.75105 10.7215C2.21668 10.7019 1.79235 10.2628 1.79275 9.72772L1.46275 9.72748C1.46222 10.4407 2.0276 11.0252 2.73894 11.0513L2.75105 10.7215ZM1.79275 9.72735C1.79196 9.19249 2.21597 8.75497 2.74803 8.73368L2.73484 8.40394C2.02706 8.43226 1.46169 9.01421 1.46275 9.72784L1.79275 9.72735ZM2.74485 8.73378L2.79043 8.73283L2.78359 8.4029L2.73802 8.40385L2.74485 8.73378ZM2.78701 8.73287L6.26908 8.73284L6.26908 8.40284L2.78701 8.40287L2.78701 8.73287ZM6.26608 8.73282L6.31138 8.73364L6.31738 8.40369L6.27208 8.40287L6.26608 8.73282ZM6.30833 8.73356C6.8427 8.75318 7.26702 9.19232 7.26663 9.72727L7.59663 9.72751C7.59716 9.01436 7.03177 8.4299 6.32044 8.40378L6.30833 8.73356ZM7.26663 9.72751C7.26702 10.2632 6.84282 10.7005 6.31083 10.7214L6.32379 11.0512C7.03182 11.0234 7.59716 10.4414 7.59663 9.72727L7.26663 9.72751ZM6.31401 10.7214L6.26843 10.7223L6.27502 11.0522L6.32061 11.0513L6.31401 10.7214ZM13.2155 10.7223L13.1701 10.7214L13.1635 11.0513L13.2089 11.0522L13.2155 10.7223ZM13.1733 10.7214C12.6546 10.7011 12.2383 10.2848 12.2182 9.76802L11.8884 9.78085C11.9152 10.4703 12.47 11.0241 13.1604 11.0512L13.1733 10.7214ZM12.2183 9.77129L12.2174 9.72467L11.8874 9.73096L11.8883 9.77758L12.2183 9.77129ZM12.2174 9.72781L12.2173 8.56786L11.8873 8.56788L11.8874 9.72782L12.2174 9.72781ZM12.0523 8.73287L13.2096 8.73284L13.2096 8.40284L12.0523 8.40287L12.0523 8.73287ZM13.2066 8.73282L13.2519 8.73364L13.2579 8.40369L13.2126 8.40287L13.2066 8.73282ZM13.2488 8.73356C13.7833 8.75318 14.2076 9.19236 14.2072 9.7278L14.5372 9.72805C14.5377 9.0145 13.9724 8.4299 13.2609 8.40378L13.2488 8.73356ZM14.2072 9.72805C14.2076 10.2632 13.7834 10.7006 13.2513 10.7214L13.2643 11.0512C13.9722 11.0234 14.5377 10.4415 14.5372 9.7278L14.2072 9.72805ZM13.2545 10.7214L13.2089 10.7223L13.2155 11.0522L13.2611 11.0513L13.2545 10.7214ZM9.73171 14.2075L9.68631 14.2064L9.67817 14.5363L9.72356 14.5374L9.73171 14.2075ZM9.68871 14.2065C9.17001 14.1861 8.75368 13.7698 8.73357 13.253L8.40382 13.2659C8.43065 13.9553 8.98545 14.5091 9.67576 14.5362L9.68871 14.2065ZM8.73366 13.2563L8.73275 13.2096L8.40281 13.2161L8.40372 13.2627L8.73366 13.2563ZM8.73278 13.2128V9.73023H8.40278V13.2128H8.73278ZM8.73276 9.73287L8.73349 9.68767L8.40353 9.68239L8.4028 9.72758L8.73276 9.73287ZM8.73341 9.69075C8.75185 9.15853 9.19061 8.73363 9.72731 8.73284L9.72683 8.40284C9.01323 8.4039 8.42823 8.96887 8.40361 9.67932L8.73341 9.69075ZM9.72695 8.73284C10.2641 8.73324 10.7012 9.15784 10.7214 9.68852L11.0511 9.67602C11.0243 8.96841 10.4419 8.40337 9.72719 8.40284L9.72695 8.73284ZM10.7213 9.68541L10.7221 9.73093L11.0521 9.72465L11.0512 9.67913L10.7213 9.68541ZM10.7221 9.72779V13.2103H11.0521V9.72779H10.7221ZM10.7221 13.2075L10.7214 13.2527L11.0513 13.2582L11.0521 13.2131L10.7221 13.2075ZM10.7215 13.2496C10.7031 13.7684 10.2857 14.1852 9.76742 14.2064L9.78093 14.5361C10.4703 14.5079 11.0268 13.9538 11.0513 13.2613L10.7215 13.2496ZM9.76992 14.2063L9.72338 14.2075L9.73188 14.5374L9.77842 14.5362L9.76992 14.2063ZM6.27796 14.8316L6.32859 14.8306L6.32203 14.5007L6.2714 14.5017L6.27796 14.8316ZM6.33147 14.8305C7.16066 14.7995 7.83025 14.1478 7.88767 13.3248L7.55847 13.3018C7.51277 13.957 6.97953 14.476 6.31914 14.5007L6.33147 14.8305ZM7.88784 13.322L7.8905 13.2713L7.56095 13.254L7.5583 13.3047L7.88784 13.322ZM7.8907 13.2655L7.89155 13.2151L7.5616 13.2095L7.56075 13.2599L7.8907 13.2655ZM7.89158 13.2123V11.759H7.56158V13.2123H7.89158ZM7.72658 11.594H6.27225V11.924H7.72658V11.594ZM6.27212 11.594C5.37768 11.5946 4.65247 12.3193 4.65313 13.2128L4.98313 13.2126C4.98261 12.5018 5.55964 11.9245 6.27237 11.924L6.27212 11.594ZM4.65313 13.2126C4.65248 14.0878 5.34726 14.8007 6.21601 14.8307L6.22738 14.5009C5.53549 14.477 4.98262 13.9091 4.98313 13.2128L4.65313 13.2126ZM6.21904 14.8308L6.27203 14.8316L6.27733 14.5016L6.22435 14.5008L6.21904 14.8308ZM6.27463 14.2076L6.23056 14.2065L6.22217 14.5364L6.26624 14.5375L6.27463 14.2076ZM6.23284 14.2065C5.72779 14.1867 5.31987 13.7912 5.28066 13.2928L4.95168 13.3187C5.00398 13.9835 5.54737 14.5099 6.21989 14.5363L6.23284 14.2065ZM5.28089 13.2961L5.27813 13.2487L4.94869 13.2679L4.95145 13.3153L5.28089 13.2961ZM5.27838 13.2552L5.27753 13.2097L4.94759 13.2159L4.94844 13.2614L5.27838 13.2552ZM5.27756 13.2127C5.27717 12.6775 5.70139 12.2402 6.23326 12.2193L6.22031 11.8895C5.5125 11.9173 4.94704 12.4992 4.94756 13.2129L5.27756 13.2127ZM6.23008 12.2194L6.27566 12.2185L6.26906 11.8885L6.22349 11.8894L6.23008 12.2194ZM6.27236 12.2185H7.43195V11.8885H6.27236V12.2185ZM7.26695 12.0535L7.26718 13.2099L7.59718 13.2098L7.59695 12.0535L7.26695 12.0535ZM7.2672 13.2071L7.26644 13.2523L7.5964 13.2578L7.59715 13.2126L7.2672 13.2071ZM7.26652 13.2492C7.24864 13.7547 6.85131 14.165 6.35158 14.2042L6.37736 14.5332C7.04335 14.481 7.57247 13.9351 7.59632 13.2609L7.26652 13.2492ZM6.35494 14.2039L6.30742 14.2067L6.32648 14.5361L6.374 14.5334L6.35494 14.2039ZM6.313 14.2065L6.26648 14.2076L6.27438 14.5375L6.3209 14.5364L6.313 14.2065Z" fill="#B0BECA"/>
</svg>
