<svg width="14" height="13" viewBox="0 0 14 13" fill="none" xmlns="http://www.w3.org/2000/svg">
  <path d="M10.8486 12.5C10.8213 12.5 10.7917 12.4977 10.7598 12.4932C10.7324 12.484 10.7074 12.4727 10.6846 12.459L7 10.4492L3.31543 12.459C3.25618 12.4909 3.19238 12.5046 3.12402 12.5C3.06022 12.4954 3.00098 12.4749 2.94629 12.4385C2.8916 12.3975 2.85059 12.3473 2.82324 12.2881C2.80046 12.2243 2.79362 12.1582 2.80273 12.0898L3.47266 8.07031L0.799805 5.39746C0.754232 5.35189 0.722331 5.2972 0.704102 5.2334C0.69043 5.1696 0.694987 5.10579 0.717773 5.04199C0.736003 4.97819 0.770182 4.92578 0.820312 4.88477C0.870443 4.84375 0.927409 4.81641 0.991211 4.80273L5.01758 4.13281L6.68555 0.796875C6.71745 0.733073 6.76074 0.685221 6.81543 0.65332C6.87012 0.616862 6.93164 0.598633 7 0.598633C7.06836 0.598633 7.12988 0.616862 7.18457 0.65332C7.23926 0.685221 7.28255 0.733073 7.31445 0.796875L8.98242 4.13281L13.0088 4.80273C13.0726 4.81641 13.1296 4.84375 13.1797 4.88477C13.2298 4.92578 13.264 4.97819 13.2822 5.04199C13.305 5.10579 13.3073 5.1696 13.2891 5.2334C13.2754 5.2972 13.2458 5.35189 13.2002 5.39746L10.5273 8.07031L11.1973 12.0898C11.2064 12.1582 11.1973 12.2243 11.1699 12.2881C11.1471 12.3473 11.1084 12.3975 11.0537 12.4385C11.0218 12.4567 10.9876 12.4727 10.9512 12.4863C10.9193 12.4954 10.8851 12.5 10.8486 12.5ZM7 9.69727C7.02734 9.69727 7.05469 9.70182 7.08203 9.71094C7.11393 9.72005 7.14355 9.73145 7.1709 9.74512L10.3838 11.502L9.80273 8.00879C9.79362 7.9541 9.79818 7.89941 9.81641 7.84473C9.83464 7.79004 9.86426 7.74219 9.90527 7.70117L12.2227 5.38379L8.69531 4.7959C8.63607 4.78678 8.58366 4.76628 8.53809 4.73438C8.49707 4.69792 8.46289 4.65462 8.43555 4.60449L7 1.7334L5.56445 4.60449C5.53711 4.65462 5.50065 4.69792 5.45508 4.73438C5.41406 4.76628 5.36393 4.78678 5.30469 4.7959L1.77734 5.38379L4.09473 7.70117C4.13574 7.74219 4.16536 7.79004 4.18359 7.84473C4.20182 7.89941 4.20638 7.9541 4.19727 8.00879L3.61621 11.502L6.8291 9.74512C6.85645 9.73145 6.88379 9.72005 6.91113 9.71094C6.94303 9.70182 6.97266 9.69727 7 9.69727Z" fill="white"/>
</svg>
