<svg width="12" height="14" viewBox="0 0 12 14" fill="none" xmlns="http://www.w3.org/2000/svg">
<path d="M10.9969 13.0879L11.0969 13.1879V13.4733L10.9969 13.5733H0.785054L0.685053 13.4733V13.1879L0.785054 13.0879H10.9969ZM3.11038 5.56335L3.21038 5.66335V5.96301L3.11038 6.06301L2.36469 6.06267V11.9493L3.11038 11.9499L3.21038 12.0499V12.3495L3.11038 12.4495H0.801917L0.701917 12.3495V12.0499L0.801917 11.9499L1.69802 11.9493V6.06267L0.801917 6.06301L0.701917 5.96301V5.66335L0.801917 5.56335H3.11038ZM7.34909 5.56335L7.44909 5.66335V5.96301L7.34909 6.06301L6.16469 6.06267V11.9493L7.34909 11.9499L7.44909 12.0499V12.3495L7.34909 12.4495H4.37396L4.27396 12.3495V12.0499L4.37396 11.9499L5.49802 11.9493V6.06267L4.37396 6.06301L4.27396 5.96301V5.66335L4.37396 5.56335H7.34909ZM10.9496 5.56335L11.0496 5.66335V5.96301L10.9496 6.06301L10.1647 6.06267V11.9493L10.9496 11.9499L11.0496 12.0499V12.3495L10.9496 12.4495H8.6411L8.5411 12.3495V12.0499L8.6411 11.9499L9.49802 11.9493V6.06267L8.6411 6.06301L8.5411 5.96301V5.66335L8.6411 5.56335H10.9496ZM5.99424 1.00983L6.06331 1.0331L6.12202 1.06474L10.9262 4.24547C11.207 4.43137 11.1393 4.85308 10.8396 4.95805L10.7766 4.97466L10.7117 4.98006H1.05885C0.720356 4.98006 0.553071 4.58358 0.752389 4.33052L0.794105 4.28488L0.845776 4.24456L5.69448 1.06383C5.78414 1.00501 5.89235 0.98641 5.99424 1.00983ZM5.90662 1.51867L1.39395 4.48001H10.3793L5.90662 1.51867Z" fill="#B0BECA" stroke="#B0BECA" stroke-width="0.33"/>
</svg>
