<svg width="56" height="18" viewBox="0 0 56 18" fill="none" xmlns="http://www.w3.org/2000/svg">
<path fill-rule="evenodd" clip-rule="evenodd" d="M27.5012 0.379326L23.7898 17.7285H19.3011L23.014 0.379326H27.5012ZM46.3837 11.5812L48.7463 5.06704L50.1063 11.5812H46.3837ZM51.3918 17.7285H55.5428L51.9194 0.379326H48.0888C47.2271 0.379326 46.5007 0.879983 46.1782 1.65167L39.4439 17.7285H44.1555L45.0918 15.1365H50.8495L51.3918 17.7285ZM39.6771 12.0636C39.6972 7.48521 33.3458 7.23244 33.3895 5.18661C33.4034 4.56458 33.9958 3.90321 35.2931 3.73375C35.9352 3.64993 37.7087 3.58487 39.7178 4.50981L40.5064 0.831126C39.4256 0.438983 38.0368 0.0620117 36.3073 0.0620117C31.8716 0.0620117 28.7488 2.42053 28.7239 5.79655C28.6943 8.29547 30.9523 9.6879 32.6535 10.5187C34.4013 11.3688 34.9876 11.9142 34.9812 12.6746C34.9681 13.8392 33.5865 14.3525 32.2948 14.3725C30.0384 14.4078 28.7288 13.7626 27.6853 13.2763L26.8727 17.0782C27.9203 17.5596 29.8561 17.9792 31.8636 17.9998C36.5788 17.9998 39.6625 15.6716 39.6771 12.0636ZM21.088 0.379326L13.8163 17.7285H9.07226L5.49386 3.88264C5.27657 3.03021 5.08808 2.71727 4.42748 2.35881C3.34877 1.77278 1.56729 1.22353 0 0.882297L0.105686 0.379326H7.74308C8.71586 0.379326 9.59168 1.02655 9.81257 2.14795L11.7026 12.1876L16.3738 0.379326H21.088Z" fill="#94A1AD"/>
</svg>
