<svg width="110" height="22" viewBox="0 0 110 22" fill="none" xmlns="http://www.w3.org/2000/svg">
<path fill-rule="evenodd" clip-rule="evenodd" d="M36.6276 18.3201H27.188C26.8734 18.3195 26.6352 18.0801 26.6346 17.7638V16.6058C26.6278 16.3215 26.7188 16.1952 26.8924 15.9787L34.4063 7.19809H27.0442C26.729 7.19752 26.4908 6.95809 26.4902 6.64181V5.82124C26.4908 5.50495 26.729 5.26552 27.0442 5.26495H36.5795C36.8948 5.26552 37.1329 5.50495 37.1329 5.82124V7.00324C37.1378 7.21724 37.0636 7.39838 36.8942 7.58867L29.3622 16.387H36.6276C36.9422 16.3875 37.1804 16.627 37.181 16.9432V17.7632C37.1804 18.0801 36.9422 18.3195 36.6276 18.3201ZM55.2358 18.5615H55.2366C55.9134 18.5478 56.4131 18.4135 56.6092 18.1927C56.6783 18.1144 56.7107 18.0244 56.7019 17.935C56.6973 17.8612 56.6973 17.8612 56.5114 16.9875L56.5074 16.967C56.4674 16.7387 56.3045 16.635 56.1709 16.635L56.1527 16.6364C56.1527 16.6364 55.983 16.6281 55.8156 16.6281H55.8142C55.3321 16.6127 54.9328 16.5424 54.9245 15.8335V1.00324C54.9239 0.75638 54.7761 0.502094 54.4913 0.496094L54.4072 0.496665L53.0895 0.835522C52.8649 0.858665 52.631 1.01952 52.6412 1.31752V15.8818C52.6432 17.607 53.565 18.5581 55.2343 18.5615H55.2358ZM81.8799 18.3201H80.704C80.3888 18.3195 80.1515 18.0801 80.15 17.7638V8.83695C80.129 7.32695 79.6799 6.90695 78.062 6.88467C76.2324 6.88467 74.3797 7.34524 73.7695 7.51295V17.7632C73.7686 18.0855 73.5463 18.3195 73.2397 18.3201H72.0393C71.7241 18.3195 71.4862 18.0801 71.4862 17.7638V7.75152C71.4686 6.82467 71.5547 6.18381 72.8662 5.75695C74.1219 5.32152 76.5246 4.95209 78.1121 4.95067C81.1375 4.95467 82.4293 6.05209 82.4333 8.61924V17.7632C82.4325 18.0801 82.1951 18.3195 81.8799 18.3201ZM93.7005 7.24981C93.2611 7.13752 92.0357 6.86009 90.6552 6.86009C88.1201 6.88381 87.0562 7.57581 87.0297 11.8047C87.0596 16.449 88.4347 16.6998 90.6773 16.7244L90.6793 16.8218V16.7244C92.0744 16.7244 93.2719 16.4318 93.6991 16.3141L93.7005 7.24981ZM94.3184 18.1464L94.1786 18.1818C93.4299 18.3727 92.4052 18.6338 90.6083 18.6338H90.6043C85.6523 18.6261 84.6799 16.1155 84.6751 11.7804C84.6814 6.80895 86.2486 4.95752 90.4596 4.95067C91.9456 4.95067 92.9689 5.14409 93.7039 5.32209L93.6991 1.31809C93.6931 1.14209 93.7724 0.911808 94.1854 0.832665L95.5003 0.496094H95.5722C95.8746 0.503522 95.9818 0.774094 95.9826 1.00324V16.051C96.0028 17.0004 95.8917 17.8158 94.3184 18.1464ZM103.921 16.7004C100.675 16.6861 100.513 15.0112 100.49 11.8055C100.513 8.58124 100.675 6.89809 103.921 6.88467C107.167 6.89809 107.329 8.58124 107.352 11.8035C107.329 15.0112 107.166 16.6861 103.921 16.7004ZM103.921 4.95067C98.5703 4.95809 98.1167 8.49267 98.1113 11.8047C98.1167 15.1047 98.5703 18.6261 103.921 18.6338C109.268 18.6261 109.724 15.1144 109.731 11.8041C109.726 8.34067 109.272 4.95809 103.921 4.95067ZM66.8341 11.8744C66.2983 11.8804 63.6989 11.9227 62.6643 12.145L62.5827 12.1627C61.4191 12.4244 60.5001 12.6304 60.4888 14.3624C60.4907 16.5404 62.1496 16.7358 63.8482 16.749L63.8496 16.8464V16.749C64.9129 16.749 65.9166 16.5975 66.8341 16.2975V11.8744ZM69.1296 8.69238V15.6167C69.1526 17.3378 68.7126 17.8878 66.9887 18.2901C66.2338 18.4475 65.0769 18.6338 63.8237 18.6338C61.9773 18.6295 58.135 18.6221 58.1335 14.4578C58.1213 11.1784 60.0812 10.6084 62.45 10.2424C64.0014 9.99238 65.5795 9.95467 66.3819 9.95467C66.5987 9.95467 66.7391 9.95667 66.8224 9.95809V8.78838C66.815 8.00724 66.8102 7.53409 66.084 7.25809C65.6357 7.06781 64.9678 6.98067 63.9738 6.98067C62.3352 6.98067 60.8676 7.34952 59.8967 7.59409L59.5258 7.68152C59.4857 7.69152 59.443 7.70181 59.3873 7.70467H59.3868C59.2159 7.70467 59.0281 7.60295 58.9587 7.37609L58.9533 7.35495L58.7344 6.24095L58.7336 6.18324C58.737 5.92067 58.9263 5.76667 59.1034 5.71009C59.8859 5.41695 61.9549 4.95209 64.1838 4.95067C65.8128 4.95209 66.9887 5.16467 67.78 5.60238C69.135 6.32209 69.1316 7.63638 69.1296 8.69238ZM47.6279 16.2975C46.7103 16.5975 45.7067 16.749 44.6434 16.749V16.8464L44.6419 16.749C42.9439 16.7358 41.2845 16.5404 41.2825 14.3624C41.2933 12.6304 42.2128 12.4244 43.3765 12.1627L43.4572 12.145C44.4927 11.9227 47.0921 11.8804 47.6279 11.8744V16.2975ZM48.5738 5.60238C47.7825 5.16467 46.6057 4.95209 44.9771 4.95067C42.7486 4.95209 40.6788 5.41695 39.8963 5.71009C39.7192 5.76667 39.5302 5.92067 39.5274 6.18324V6.24095L39.7471 7.35495L39.7525 7.37609C39.821 7.60295 40.0097 7.70467 40.1805 7.70467H40.1811C40.236 7.70181 40.2795 7.69152 40.3195 7.68152L40.6896 7.59409C41.6609 7.34952 43.1284 6.98067 44.7667 6.98067C45.761 6.98067 46.4289 7.06781 46.8772 7.25809C47.604 7.53409 47.6088 8.00724 47.6162 8.78838V9.95809C47.5329 9.95667 47.3925 9.95467 47.1753 9.95467C46.3732 9.95467 44.7951 9.99238 43.2429 10.2424C40.8749 10.6084 38.9151 11.1784 38.9273 14.4578C38.9279 18.6221 42.7702 18.6295 44.6169 18.6338C45.8707 18.6338 47.027 18.4475 47.7825 18.2901C49.5055 17.8878 49.9455 17.3378 49.9234 15.6167V8.69238C49.9253 7.63638 49.9288 6.32209 48.5738 5.60238Z" fill="#94A1AD"/>
<path fill-rule="evenodd" clip-rule="evenodd" d="M4.37186 21.9988C3.57173 21.9988 3.1269 21.8106 2.88956 21.6723C2.5607 21.4823 1.95385 20.9968 1.40982 19.5577C0.537778 17.2537 0.0230232 14.44 0 11.1331V11.1208C0.0230232 7.81341 0.537778 5.00027 1.40982 2.69541C1.95385 1.25713 2.5607 0.771127 2.88956 0.581127C3.1269 0.442556 3.57116 0.255127 4.37129 0.255127C4.67656 0.255127 5.03385 0.282556 5.45082 0.349984C7.87253 0.743984 10.554 1.70227 13.4143 3.33627L13.4251 3.3417C16.2624 5.01513 18.4291 6.86998 19.9793 8.78141C20.9463 9.97427 21.0609 10.7454 21.0609 11.1271C21.0609 11.508 20.9463 12.2797 19.9793 13.472C18.4291 15.3834 16.2624 17.2388 13.4251 18.9123L13.4143 18.9186C10.554 20.5517 7.87253 21.51 5.45082 21.904C5.03385 21.9717 4.67713 21.9988 4.37186 21.9988Z" fill="#94A1AD"/>
</svg>
