<svg width="116" height="22" viewBox="0 0 116 22" fill="none" xmlns="http://www.w3.org/2000/svg">
<path d="M76.9326 19.0009C78.4593 19.0377 79.9308 18.4674 81.0345 17.4006L83.0578 19.5895C81.7151 20.969 79.8573 21.9991 76.9694 21.9991C72.0031 21.9991 68.8026 18.7066 68.8026 14.2553C68.8026 9.84072 72.1686 6.51143 76.5096 6.51143C81.4391 6.51143 84.2166 10.2638 83.9775 15.4509H72.3526C72.7572 17.6213 74.2839 19.0009 76.9326 19.0009ZM80.4643 12.9861C80.1516 10.9811 78.956 9.49124 76.5464 9.49124C74.3023 9.49124 72.7572 10.7604 72.3526 12.9861H80.4643ZM0.542847 18.8353L9.50067 9.73036H0.745179V6.87931H13.6393V9.80393L4.69986 18.8905H13.768V21.7416H0.542847V18.8353ZM23.8111 19.0009C25.3378 19.0377 26.8093 18.4674 27.9129 17.4006L29.9363 19.5895C28.5935 20.969 26.7357 21.9991 23.8479 21.9991C18.8999 21.9991 15.681 18.7066 15.681 14.2553C15.681 9.84072 19.0471 6.51143 23.388 6.51143C28.3176 6.51143 31.0951 10.2638 30.856 15.4509H19.231C19.6541 17.6213 21.1624 19.0009 23.8111 19.0009ZM27.3611 12.9861C27.0484 10.9811 25.8528 9.49124 23.4432 9.49124C21.1992 9.49124 19.6541 10.7604 19.2494 12.9861H27.3611ZM50.2063 14.2736C50.2063 9.50963 53.7564 6.54822 57.6742 6.54822C59.6424 6.54822 61.5186 7.41273 62.6222 8.77388V0H65.7859V21.7048H62.6222V19.6447C61.4818 21.0978 59.6056 21.9991 57.6375 21.9991C53.8483 21.9991 50.2063 19.0009 50.2063 14.2736ZM62.8061 14.2369C62.8061 11.5881 60.8012 9.41766 58.0973 9.41766C55.4486 9.41766 53.3885 11.533 53.3885 14.2369C53.3885 16.9408 55.4486 19.0744 58.0973 19.0744C60.8012 19.0928 62.8061 16.9224 62.8061 14.2369ZM86.0376 18.541L88.9071 17.0511C89.6796 18.4307 91.1511 19.2584 92.733 19.2216C94.5172 19.2216 95.4553 18.3019 95.4553 17.2535C95.4553 16.0579 93.7263 15.8003 91.8501 15.4141C89.3117 14.8806 86.6814 14.0529 86.6814 10.9811C86.6814 8.62673 88.9255 6.45625 92.4387 6.49304C95.2162 6.49304 97.2763 7.59667 98.4351 9.38087L95.768 10.8524C95.0874 9.80393 93.9102 9.16015 92.4203 9.16015C90.7097 9.16015 89.8451 9.98787 89.8451 10.9444C89.8451 12.0112 91.2247 12.3055 93.3768 12.7837C95.8232 13.3172 98.6006 14.1265 98.6006 17.2167C98.6006 19.2768 96.8164 22.0359 92.5674 21.9991C89.4773 21.9991 87.2884 20.7483 86.0376 18.541ZM107.191 15.1014L104.689 17.8421V21.7048H101.525V0H104.689V14.2001L111.403 6.84252H115.247L109.435 13.2068L115.413 21.7048H111.826L107.191 15.1014ZM40.6415 6.52982C36.8708 6.52982 33.7254 8.97621 33.7254 13.0045V21.7048H36.9627V13.4275C36.9627 10.9811 38.3607 9.52803 40.7519 9.52803C43.1431 9.52803 44.3387 10.9811 44.3387 13.4275V21.7048H47.5576V13.0229C47.5576 8.97621 44.4123 6.52982 40.6415 6.52982Z" fill="#94A1AD"/>
</svg>
