<svg width="16" height="16" xmlns="http://www.w3.org/2000/svg">
  <g fill="#B1BECA">
    <path d="M12.2058094 8.22507155c.0387293-.82426177-.1831778-1.68156247-.6832749-2.51078583-.0281623-.04669675-.0564715-.09201568-.0849372-.1360124-.2464679-.34568107-.5442889-.65257455-.8824016-.90967574-.2595752-.19738117-.5428979-.36541523-.84496293-.49912268-.40246702-.1652429-.55568885-.20728428-.89033219-.28055465-.26528891-.0520893-.53952658-.07939643-.82017502-.07939643-2.3262541 0-4.21205565 1.8761401-4.21205565 4.19047619 0 2.31433609 1.88580155 4.19047619 4.21205565 4.19047619 1.92801427 0 3.55347294-1.2887582 4.05350424-3.04761905h-.0022718c.0259024-.08774021.048676-.17617218.0682965-.26521234-.0191698.08949502-.0412116.17793247-.0660247.26521234h3.9062599C15.4020858 13.0197648 12.0507336 16 7.99972556 16 3.55869501 16-.04147159 12.418278-.04147159 8.00000001-.04147159 3.58172201 3.55869501 0 7.99972556 0c.72416986 0 1.42598137.0952369 2.09347084.27380818-.18443934.50453236-.62377142 1.70632173-1.31799616 3.60536811.01526645.00331544.03015478.0065592.04470034.00974396.15833188.03108836.3134762.07100422.46489345.1192108.14540941.04629388.28738157.10023363.42543874.16134385.01653505.0067889.03349092.01378576.0508973.02100129.63980013.25789738 1.18175943.62317251 1.67646723 1.38779713.4875772.68384616.7741839 1.5194876.7741839 2.42172669 0 .07550692-.0020074.15054742-.0059718.22507154z"/>
    <path d="M11.5044907 5.71428572c.2448228.38251302.3927646.77936626.4955866 1.12374388.1987327.6656082.1987327 1.16197041.1987327 1.16197041H16c0-3.80952382-1.9048764-6.32380968-4.9526784-7.46666682-.5805803 1.62552685-1.0160154 2.84467201-1.30630547 3.65743543 0-.00029243 1.03200267.38065996 1.76347457 1.5235171z"/>
  </g>
</svg>
