<svg width="102" height="40" viewBox="0 0 102 40" fill="none" xmlns="http://www.w3.org/2000/svg">
    <g clip-path="url(#clip0_9_1307)">
        <g clip-path="url(#clip1_9_1307)">
            <path d="M19.1856 22.7322C19.1235 20.0644 17.6595 17.9468 15.4244 17.1191V12.4759C14.86 12.113 14.2594 11.813 13.6325 11.5823V21.5715C13.6325 23.5503 12.7199 24.434 11.2533 24.434C9.82557 24.434 8.63125 23.3492 8.63125 21.5351C8.63125 19.5103 10.2001 18.2737 12.2544 18.2737C12.4446 18.2702 12.6384 18.2802 12.8286 18.3101V16.5424C12.6384 16.5095 12.4481 16.493 12.2544 16.4965C9.20554 16.4965 6.81646 18.3765 6.81646 21.539C6.81646 24.5797 8.97255 26.2021 11.375 26.2021C12.5137 26.2021 13.4983 25.8128 14.1779 25.1433C14.857 24.4739 15.4317 23.5074 15.4317 21.8091V19.042C16.6722 19.6655 17.4204 21.1756 17.4239 22.9039C17.4174 26.1588 14.4143 28.9094 10.893 28.9094C10.8111 28.9094 10.7485 28.9094 10.6665 28.9059C8.25112 28.9029 6.12782 28.0253 4.40796 26.294C3.17049 25.0475 2.32393 23.461 1.98263 21.7363C1.64134 20.008 1.81522 18.2208 2.48789 16.5914C3.15754 14.9655 4.29276 13.5737 5.74985 12.5943C7.20695 11.6148 8.92034 11.0937 10.6726 11.0937V9.28C9.27113 9.28 7.88307 9.55705 6.58993 10.0947C5.2968 10.6323 4.11887 11.4236 3.12777 12.4165C1.12572 14.4248 0 17.152 0 19.995C0 22.8375 1.12227 25.5652 3.12087 27.577C5.11946 29.5888 7.83345 30.72 10.6626 30.72H10.8892C11.759 30.72 12.6254 30.5847 13.459 30.3241C13.4625 30.3241 13.4655 30.3207 13.469 30.3207C14.6732 29.9448 15.7761 29.3048 16.7016 28.4476C18.2998 26.9635 19.1795 25.0015 19.186 22.9139C19.189 22.9069 19.1856 22.7357 19.1856 22.7322Z" fill="#1C0D3F"/>
            <path d="M22.0408 19.8055C22.0408 16.8143 24.2335 14.4066 27.3121 14.1729C27.4718 14.1582 27.6314 14.1582 27.8057 14.1582C27.9654 14.1582 28.1397 14.1582 28.2851 14.1729C30.4196 14.3334 31.8284 15.5153 32.3656 16.2303L30.9426 17.3831C30.3035 16.5368 29.3017 15.8947 27.8062 15.8804C25.5992 15.8804 24.0596 17.573 24.0596 19.7908C24.0596 22.0233 25.5987 23.745 27.8062 23.745C28.997 23.7303 29.9264 23.3947 30.565 22.9134V21.0165H27.7332V19.3529H32.467V23.7741C31.5811 24.6057 30.0274 25.4668 27.8057 25.4668C24.4514 25.4525 22.0408 22.9429 22.0408 19.8055Z" fill="#1C0D3F"/>
            <path d="M72.0068 15.2356C70.9614 14.5792 69.7998 14.404 68.4636 14.404H64.7024V25.2456H68.4636C69.7994 25.2456 70.9614 25.0705 72.0068 24.414C73.5317 23.4511 74.4753 21.7584 74.4753 19.8177C74.4753 17.8913 73.5317 16.1986 72.0068 15.2356ZM70.8742 22.9546C70.1045 23.4506 69.3205 23.5239 68.3911 23.5239H66.6919V16.0967H68.3764C69.3205 16.0967 70.1045 16.1843 70.8742 16.6803C71.8472 17.3224 72.4426 18.5044 72.4426 19.8029C72.4422 21.1305 71.8472 22.3125 70.8742 22.9546Z" fill="#1C0D3F"/>
            <path d="M38.3081 16.9895C35.796 16.9895 33.9519 18.8864 33.9519 21.2212C33.9519 23.5703 35.7814 25.4676 38.3081 25.4676C40.8495 25.4676 42.6789 23.556 42.6789 21.2212C42.6794 18.8864 40.8495 16.9895 38.3081 16.9895ZM38.3081 23.7893C36.8562 23.7893 35.8832 22.6511 35.8832 21.2502C35.8832 19.8055 36.8562 18.6527 38.3081 18.6527C39.7893 18.6527 40.733 19.8055 40.733 21.2502C40.7334 22.6511 39.7893 23.7893 38.3081 23.7893Z" fill="#1C0D3F"/>
            <path d="M84.2897 17.2492H82.4744L82.3873 18.1831H82.3726C81.879 17.57 80.9785 17.0159 79.6716 17.0159C77.2467 17.0159 75.6636 18.9128 75.6636 21.2476C75.6636 23.5824 77.232 25.4937 79.7005 25.4937C80.9927 25.4937 81.9368 24.9101 82.4015 24.2389L82.4304 24.2536L82.5176 25.2604H84.3039L84.2897 17.2492ZM80.0055 23.8157C78.5825 23.8157 77.5949 22.6776 77.5949 21.2476C77.5949 19.8177 78.5825 18.6795 80.0055 18.6795C81.4868 18.6795 82.4162 19.8177 82.4162 21.2476C82.4162 22.6776 81.4868 23.8157 80.0055 23.8157Z" fill="#1C0D3F"/>
            <path d="M87.5401 24.2241C87.1336 23.6843 87.0171 23.0422 87.0171 22.1958V18.869H85.5359V17.2492H87.0171V14.2579C87.0754 14.2726 87.119 14.287 87.1768 14.3164C87.4672 14.4331 87.7722 14.5497 88.0479 14.6958C88.353 14.8562 88.6434 15.0167 88.9338 15.1918V17.2492H91.388V18.869H88.9338V22.0792C88.9338 22.6047 89.0062 23.0131 89.2241 23.2759C89.4274 23.5529 89.7613 23.7138 90.1824 23.7138C90.6618 23.7138 91.0394 23.5534 91.2568 23.393L91.9683 24.7648C91.6197 25.0419 90.8504 25.3922 89.921 25.3922C88.9484 25.3913 88.0484 25.0414 87.5401 24.2241Z" fill="#1C0D3F"/>
            <path d="M48.3464 16.9895C45.8197 16.9895 43.9902 18.8864 43.9902 21.2212C43.9902 23.5703 45.8055 25.4676 48.3464 25.4676C50.8731 25.4676 52.7173 23.556 52.7173 21.2212C52.7173 18.8864 50.8731 16.9895 48.3464 16.9895ZM48.3464 23.7893C46.8798 23.7893 45.9215 22.6511 45.9215 21.2502C45.9215 19.8055 46.8798 18.6527 48.3464 18.6527C49.813 18.6527 50.7713 19.8055 50.7713 21.2502C50.7713 22.6511 49.813 23.7893 48.3464 23.7893Z" fill="#1C0D3F"/>
            <path d="M101.007 17.2492H99.1919L99.1048 18.1831H99.0901C98.5965 17.57 97.696 17.0159 96.3891 17.0159C93.9642 17.0159 92.3811 18.9128 92.3811 21.2476C92.3811 23.5824 93.9495 25.4937 96.418 25.4937C97.7103 25.4937 98.6543 24.9101 99.119 24.2389L99.1479 24.2536L99.2351 25.2604H101.021L101.007 17.2492ZM96.7235 23.8157C95.3005 23.8157 94.3128 22.6776 94.3128 21.2476C94.3128 19.8177 95.3 18.6795 96.7235 18.6795C98.2047 18.6795 99.1341 19.8177 99.1341 21.2476C99.1341 22.6776 98.2047 23.8157 96.7235 23.8157Z" fill="#1C0D3F"/>
            <path d="M61.9276 13.9804C61.6372 13.82 61.3321 13.6886 61.0128 13.5572L60.7371 13.4549V18.1562H60.7224C60.2288 17.5431 59.3283 16.989 58.0214 16.989C55.5965 16.989 54.0134 18.8859 54.0134 21.2207C54.0134 23.0739 55.0006 24.6646 56.6415 25.2335C57.0627 25.3796 57.542 25.4672 58.0503 25.4672C58.5439 25.4672 58.9944 25.3796 59.3862 25.2335C59.9958 25.0002 60.4605 24.6209 60.7509 24.212L60.7798 24.2267L60.867 25.2335H62.6533V14.4036C62.4212 14.2432 62.1744 14.1118 61.9276 13.9804ZM58.3554 23.7893C56.9324 23.7893 55.9447 22.6511 55.9447 21.2212C55.9447 19.7912 56.9319 18.6531 58.3554 18.6531C59.8366 18.6531 60.766 19.7912 60.766 21.2212C60.766 22.6511 59.8366 23.7893 58.3554 23.7893Z" fill="#1C0D3F"/>
        </g>
    </g>
    <defs>
        <clipPath id="clip0_9_1307">
            <rect width="101.12" height="40" fill="white"/>
        </clipPath>
        <clipPath id="clip1_9_1307">
            <rect width="101.12" height="21.44" fill="white" transform="translate(0 9.28)"/>
        </clipPath>
    </defs>
</svg>
