<svg width="49" height="48" fill="none" xmlns="http://www.w3.org/2000/svg"><path fill-rule="evenodd" clip-rule="evenodd" d="M36.0689 17.5133c.4312.1245.8499.2561 1.2541.3952 4.2077 1.4485 6.9269 3.7175 6.9269 6.0637 0 2.4466-2.9059 4.8389-7.3722 6.3187-.236.0782-.478.1534-.7245.2263.088.3537.1664.7012.2337 1.0413.8817 4.4537.2026 8.1143-1.8871 9.324-2.0231 1.1712-5.2933.0207-8.6043-2.8285-.3496-.301-.7012-.6219-1.0532-.9609-.2716.2625-.5428.513-.813.7492-3.4182 2.988-6.9287 4.2278-9.0204 3.0216-2.025-1.168-2.6614-4.5756-1.8465-8.8671.0859-.4527.1882-.9169.3059-1.3906-.3625-.1041-.7143-.2136-1.0533-.3295-4.29619-1.4684-7.12398-3.8901-7.12398-6.3045 0-2.3378 2.63418-4.5915 6.75878-6.0296.4611-.1606.9429-.3117 1.442-.4533-.1091-.438-.2056-.8688-.2881-1.2906-.8546-4.3673-.2533-7.85738 1.7772-9.0328 2.1175-1.22583 5.6439.09056 9.162 3.2143.2147.1907.43.39.6456.5962.3235-.3117.6472-.6091.97-.8901 3.357-2.92137 6.6808-4.14339 8.7132-2.97137 2.1196 1.2223 2.7403 4.93477 1.7909 9.54297-.0578.2807-.1229.5662-.1937.8554Zm.2854 11.1978c-.213.0705-.4316.1387-.6543.2048-.4931-1.561-1.1585-3.2208-1.9729-4.9356.7771-1.674 1.4168-3.3126 1.8961-4.8634.3985.1153.7853.2369 1.1581.3653 3.6052 1.2411 5.8043 3.0761 5.8043 4.49 0 1.506-2.375 3.4611-6.2313 4.7389Zm-1.6001 3.1706c.3899 1.9694.4456 3.7499.1873 5.1418-.232 1.2508-.6986 2.0847-1.2756 2.4186-1.2278.7107-3.8534-.2131-6.685-2.6498-.3246-.2793-.6516-.5775-.9796-.8932 1.0978-1.2006 2.1949-2.5963 3.2657-4.1464 1.8834-.1672 3.6627-.4404 5.2763-.8134.0795.3206.1501.635.2109.9424ZM18.573 39.3193c-1.1996.4237-2.155.4358-2.7325.1028-1.2289-.7088-1.7397-3.4448-1.0429-7.1149.0798-.4203.1749-.852.2843-1.2933 1.596.3529 3.3623.6068 5.2502.7599 1.078 1.5168 2.2068 2.911 3.3443 4.1317-.2485.24-.4961.4684-.7422.6837-1.5116 1.3212-3.0263 2.2586-4.3612 2.7301Zm-5.6198-10.6174c-1.8996-.6493-3.46846-1.4932-4.54381-2.4141-.96627-.8275-1.45412-1.649-1.45412-2.3156 0-1.4187 2.11499-3.2281 5.64243-4.458.428-.1492.876-.2898 1.341-.4219.4875 1.5858 1.127 3.2438 1.8988 4.9204-.7818 1.7014-1.4304 3.3859-1.9226 4.9903-.3315-.0953-.6527-.1956-.9617-.3011ZM14.837 15.879c-.7321-3.7417-.2459-6.56441.9777-7.27272 1.3034-.75455 4.1855.32129 7.2231 3.01852.1942.1724.3891.3528.5846.5395-1.1319 1.2154-2.2504 2.5992-3.3188 4.107-1.8323.1699-3.5862.4427-5.1988.808-.1014-.4078-.1912-.8085-.2678-1.2003Zm16.8051 4.1496c-.3855-.6658-.7813-1.3159-1.1847-1.9483 1.243.1571 2.434.3657 3.5524.621-.3358 1.0761-.7543 2.2012-1.2469 3.3547-.3534-.6709-.7272-1.3474-1.1208-2.0274Zm-6.8531-6.6749c.7677.8317 1.5365 1.7602 2.2926 2.7677-.762-.036-1.5334-.0547-2.3112-.0547-.7704 0-1.5361.0183-2.2934.0537.7569-.9981 1.5324-1.9254 2.312-2.7667Zm-6.8969 6.6865c-.3851.6677-.752 1.3405-1.0998 2.0145-.4847-1.1494-.8993-2.2797-1.238-3.371 1.1116-.2488 2.2969-.4522 3.532-.6063-.4091.6382-.8081 1.2931-1.1942 1.9626v.0002Zm1.2298 9.9455c-1.2761-.1424-2.4792-.3353-3.5905-.5772.3441-1.1109.7679-2.2653 1.2628-3.4394.3487.6735.717 1.3466 1.1045 2.0158.3947.6817.8035 1.3495 1.2232 2.0008Zm5.7132 4.7222c-.7888-.8511-1.5756-1.7925-2.3441-2.8052.746.0293 1.5065.0443 2.2794.0443.7941 0 1.5791-.0179 2.3518-.0523-.7587 1.0309-1.5247 1.9738-2.2871 2.8132Zm7.9437-8.7987c.5207 1.1869.9596 2.3352 1.3082 3.4272-1.1296.2577-2.3492.4652-3.6342.6194.4044-.6409.8037-1.3021 1.196-1.9824.3968-.6882.7737-1.3774 1.13-2.0642Zm-2.5717 1.2328c-.609 1.0559-1.2342 2.0639-1.8689 3.0154-1.1561.0827-2.3505.1253-3.5678.1253-1.2123 0-2.3916-.0377-3.5272-.1114-.6604-.964-1.2992-1.975-1.9043-3.0202h.0001c-.6035-1.0424-1.1589-2.0937-1.6623-3.139.5032-1.0477 1.0572-2.1001 1.6573-3.1407l-.0002.0002c.6017-1.0433 1.2349-2.0494 1.8891-3.0073 1.1586-.0876 2.3467-.1333 3.5475-.1333 1.2062 0 2.3958.046 3.5541.1344.6442.9509 1.2731 1.9538 1.8771 2.9972.6109 1.0552 1.1721 2.1006 1.6795 3.1259-.5059 1.0429-1.0658 2.0988-1.674 3.1535Zm3.4333-18.58523c1.3046.75234 1.8119 3.78653.9923 7.76523-.0523.2539-.1112.5125-.1751.7745-1.6164-.3729-3.3715-.6504-5.2091-.8228-1.0705-1.5244-2.1799-2.9103-3.2933-4.1102.2993-.288.5983-.5626.896-.8217 2.8762-2.50307 5.5644-3.49132 6.7892-2.78503ZM24.7712 20.4932c1.9213 0 3.4788 1.5576 3.4788 3.4789 0 1.9213-1.5575 3.4789-3.4788 3.4789-1.9214 0-3.4789-1.5576-3.4789-3.4789 0-1.9213 1.5575-3.4789 3.4789-3.4789Z" fill="#00D8FF"/></svg>