<svg width="44" height="47" viewBox="0 0 44 47" fill="none" xmlns="http://www.w3.org/2000/svg">
<path d="M40 30V46H4V30" stroke="#1B127D" stroke-width="2" stroke-miterlimit="10"/>
<path d="M4 21L2 30H42L40 21H4Z" stroke="#1B127D" stroke-width="2" stroke-miterlimit="10"/>
<path d="M14 10C15.6569 10 17 8.65685 17 7C17 5.34315 15.6569 4 14 4C12.3431 4 11 5.34315 11 7C11 8.65685 12.3431 10 14 10Z" stroke="#1B127D" stroke-width="2" stroke-miterlimit="10"/>
<path d="M28 14C28 15.7 26.7 17 25 17C23.3 17 22 15.7 22 14C22 12.3 23.3 11 25 11C26.7 11 28 12.3 28 14Z" stroke="#1B127D" stroke-width="2" stroke-miterlimit="10"/>
<path d="M34 7C35.6569 7 37 5.65685 37 4C37 2.34315 35.6569 1 34 1C32.3431 1 31 2.34315 31 4C31 5.65685 32.3431 7 34 7Z" stroke="#1B127D" stroke-width="2" stroke-miterlimit="10"/>
<path d="M11.9001 12.3999L11.1001 14.1999" stroke="#1B127D" stroke-width="2" stroke-miterlimit="10"/>
<path d="M10.3 16.0999L9.5 17.8998" stroke="#1B127D" stroke-width="2" stroke-miterlimit="10"/>
<path d="M18.6001 10L20.3001 11" stroke="#1B127D" stroke-width="2" stroke-miterlimit="10"/>
<path d="M28.7998 9.70004L30.1998 8.30005" stroke="#1B127D" stroke-width="2" stroke-miterlimit="10"/>
</svg>
