<svg width="16" height="16" xmlns="http://www.w3.org/2000/svg">
  <g fill="none">
    <path d="M11.4896717 5.71428572c.2436293.38251302.3908499.77936626.4931705 1.12374388.1977638.6656082.1977638 1.16197041.1977638 1.16197041h3.7826579c0-3.80952382-1.8955894-6.32380968-4.9285324-7.46666682-.5777497 1.62552685-1.011062 2.84467201-1.29993674 3.65743543 0-.00029243 1.02697134.38065996 1.75487694 1.5235171z" fill="#B1BECA"/>
    <path d="M12.1875714 8.22507155c.0385405-.82426177-.1822848-1.68156247-.6799438-2.51078583-.028025-.04669675-.0561962-.09201568-.0845231-.1360124-.2452663-.34568107-.5416353-.65257455-.8780996-.90967574-.2583097-.19738117-.5402511-.36541523-.84084347-.49912268-.40050479-.1652429-.55297962-.20728428-.88599149-.28055465-.26399554-.0520893-.53689619-.07939643-.81617637-.07939643-2.31491283 0-4.19152044 1.8761401-4.19152044 4.19047619 0 2.31433609 1.87660761 4.19047619 4.19152044 4.19047619 1.91861454 0 3.53614843-1.2887582 4.03374203-3.04761905h-.0022608c.0257762-.08774021.0484387-.17617218.0679635-.26521234-.0190763.08949502-.0410106.17793247-.0657027.26521234h3.8872155C15.3682648 13.0197648 12.0332515 16 8.00199357 16 3.58261455 16 0 12.418278 0 8.00000001 0 3.58172201 3.58261455 0 8.00199357 0c.72063927 0 1.41902925.0952369 2.08326443.27380818-.18354012.50453236-.62073029 1.70632173-1.31157046 3.60536811.01519201.00331544.03000775.0065592.0444824.00974396.15755998.03108836.31194792.07100422.46262691.1192108.14470052.04629388.28598054.10023363.42336458.16134385.01645449.0067889.03332766.01378576.05064919.02100129.63668098.25789738 1.17599798.62317251 1.66829388 1.38779713.4852.68384616.7704095 1.5194876.7704095 2.42172669 0 .07550692-.0019976.15054742-.0059426.22507154z" fill="#D7DCE1"/>
  </g>
</svg>
