<svg width="20" height="20" viewBox="0 0 20 20" fill="none" xmlns="http://www.w3.org/2000/svg">
<g clip-path="url(#clip0_1027_4269)">
<path fill-rule="evenodd" clip-rule="evenodd" d="M10.2831 0.240328C10.2303 -0.0801093 9.76964 -0.0801093 9.71686 0.240328L9.17943 3.50312C8.69958 6.41631 6.41631 8.69958 3.50312 9.17943L0.240328 9.71686C-0.0801094 9.76964 -0.0801094 10.2303 0.240328 10.2832L3.50312 10.8206C6.41631 11.3005 8.69958 13.5837 9.17943 16.4969L9.71686 19.7597C9.76964 20.0801 10.2303 20.0801 10.2831 19.7597L10.8206 16.4969C11.3005 13.5837 13.5837 11.3005 16.4969 10.8206L19.7597 10.2832C20.0801 10.2303 20.0801 9.76964 19.7597 9.71686L16.4969 9.17943C13.5837 8.69958 11.3005 6.41631 10.8206 3.50312L10.2831 0.240328ZM10 4.43418C10.7291 7.14667 12.8533 9.27095 15.5658 10C12.8533 10.7291 10.7291 12.8534 10 15.5659C9.27095 12.8534 7.14666 10.7291 4.43418 10C7.14667 9.27095 9.27095 7.14667 10 4.43418Z" fill="#1C0D3F"/>
<path d="M1.99248 15.7624C2.03283 15.5175 2.38509 15.5175 2.42545 15.7624C2.57831 16.6904 3.30566 17.4178 4.2337 17.5707C4.47869 17.611 4.47869 17.9633 4.2337 18.0037C3.30566 18.1565 2.57831 18.8838 2.42545 19.812C2.38509 20.0569 2.03283 20.0569 1.99248 19.812C1.83962 18.8838 1.11225 18.1565 0.184232 18.0037C-0.0607598 17.9633 -0.0607598 17.611 0.184232 17.5707C1.11225 17.4178 1.83962 16.6904 1.99248 15.7624Z" fill="#6D7680"/>
<path d="M18.0085 0.184232C17.968 -0.0607596 17.6159 -0.0607596 17.5755 0.184232C17.4226 1.11226 16.6952 1.83962 15.7672 1.99249C15.5223 2.03283 15.5223 2.38509 15.7672 2.42545C16.6952 2.57831 17.4226 3.30567 17.5755 4.2337C17.6159 4.47869 17.968 4.47869 18.0085 4.2337C18.1612 3.30567 18.8886 2.57831 19.8167 2.42545C20.0616 2.38509 20.0616 2.03283 19.8167 1.99249C18.8886 1.83962 18.1612 1.11226 18.0085 0.184232Z" fill="#6D7680"/>
</g>
<defs>
<clipPath id="clip0_1027_4269">
<rect width="20" height="20" fill="white"/>
</clipPath>
</defs>
</svg>