<svg fill="none" height="350" viewBox="0 0 1440 350" width="1440" xmlns="http://www.w3.org/2000/svg" xmlns:xlink="http://www.w3.org/1999/xlink"><mask id="a" height="350" maskUnits="userSpaceOnUse" width="1440" x="0" y="0"><path d="m0 0h1440v350h-1440z" fill="#bfc9d1"/></mask><mask id="b" height="113" maskUnits="userSpaceOnUse" width="136" x="397" y="63"><path d="m526.511 106.87 4.895-7.5643.89-4.0048v-31.5936h-134.829v111.6897h129.489l.89-28.923s-.267-14.24-.267-16.465c0-2.224 0-2.669 1.157-4.004s2.67-1.958 2.67-1.958-.445-6.052-.89-8.277-4.005-3.56-4.005-3.56l-.89-.445z" fill="#c4c4c4"/></mask><mask id="c" fill="#fff"><path d="m449.407 115.717v-7.189l43.132.435v8.868c-2.114 1.692-5.297 5.996-19.029 6.343-13.731.347-22.196-5.128-24.103-8.457z" fill="#fff"/></mask><mask id="d" fill="#fff"><path d="m1032.55 23.0528-124.388-74.9437c-2.472-1.4896-2.575 1.9547-2.318 3.863v172.2929c0 4.327 1.546 6.439 2.318 6.954 39.404 23.178 119.448 70.463 124.388 74.171 4.95 3.709 5.67 0 5.41-2.318v-172.2931c0-4.9447-3.6-7.211-5.41-7.7261z" fill="#fff"/></mask><path d="m0 0h1440v350h-1440z" fill="#1b127d"/><g mask="url(#a)"><g opacity=".3"><path d="m716.831 338.098-132.604-12.904 242.069-236.2851h122.815l90.329 57.8471 132.16-47.1675 53.4 99.6755-215.37 261.204-66.749-105.461-121.035 44.054z" fill="#1b127d" stroke="#dfe4e8"/><path d="m823.627 396.836 218.933-242.96" stroke="#dfe4e8" stroke-dasharray="2.67 5.34"/><path d="m718.611 338.098 218.931-242.9596" stroke="#dfe4e8" stroke-dasharray="2.67 5.34"/><path clip-rule="evenodd" d="m402.985 184.667 4.503 9.751-137.14 35.913-4.914-9.565z" fill="#1b127d" fill-rule="evenodd" stroke="#dfe4e8" stroke-miterlimit="10"/><path clip-rule="evenodd" d="m262.96 218.841 2.495 1.953 137.53-36.127-7.662-.479z" fill="#1b127d" fill-rule="evenodd" stroke="#dfe4e8" stroke-miterlimit="10"/><path clip-rule="evenodd" d="m407.509 194.447-1.849 8.497s-28.113 7.685-138.347 36.166c1.187-1.097 2.086-2.469 2.619-3.994.533-1.526.683-3.159.437-4.756z" fill="#1b127d" fill-rule="evenodd" stroke="#dfe4e8" stroke-miterlimit="10"/><path clip-rule="evenodd" d="m431.775 182.857-28.768 1.839 4.503 9.751-1.857 8.487 27.927-15.183.539-2.503z" fill="#1b127d" fill-rule="evenodd" stroke="#dfe4e8" stroke-linejoin="round"/><path clip-rule="evenodd" d="m431.774 182.857-34.632 1.025 5.864.814z" fill="#1b127d" fill-rule="evenodd" stroke="#dfe4e8" stroke-miterlimit="10"/><path clip-rule="evenodd" d="m431.794 182.843 1.805 4.894 5.571-4.04z" fill="#1b127d" fill-rule="evenodd" stroke="#dfe4e8" stroke-miterlimit="10"/><path clip-rule="evenodd" d="m262.401 219.388c-9.79 2.041-22.858 5.184-22.858 5.184l3.365 20.939s12.428-3.248 23.119-5.836c6.864-6.745 3.642-16.789-3.626-20.287z" fill="#1b127d" fill-rule="evenodd" stroke="#dfe4e8" stroke-miterlimit="10"/><path d="m247.694 222.642s13.996 9.056 3.933 20.402z" fill="#1b127d"/><path d="m247.694 222.642s13.996 9.056 3.933 20.402" stroke="#dfe4e8"/><path d="m255.641 220.555s13.997 9.055 3.933 20.401z" fill="#1b127d"/><path d="m255.641 220.555s13.997 9.055 3.933 20.401" stroke="#dfe4e8"/><path clip-rule="evenodd" d="m241.863 244.859c1.73.576 7.187-3.499 5.536-10.271s-5.369-10.06-7.866-9.506c-2.496.554-4.346 6.842-3.767 10.818s4.384 8.386 6.097 8.959z" fill="#1b127d" fill-rule="evenodd" stroke="#dfe4e8" stroke-miterlimit="10"/><path clip-rule="evenodd" d="m240.395 244.877c1.713.573 7.186-3.499 5.536-10.271-1.651-6.772-5.376-10.07-7.866-9.506-2.49.563-13.376 4.392-12.797 8.368.422 2.92 3.131 10.764 7.519 13.172 1.64.835 7.185-1.955 7.608-1.763z" fill="#1b127d" fill-rule="evenodd" stroke="#dfe4e8" stroke-miterlimit="10"/><path clip-rule="evenodd" d="m231.284 246.593c1.589.546 6.537-3.093 4.947-9.361-1.59-6.269-5.074-9.3-7.343-8.84-2.27.461-3.887 6.221-3.308 9.856.579 3.634 4.098 7.796 5.704 8.345z" fill="#1b127d" fill-rule="evenodd" stroke="#dfe4e8" stroke-miterlimit="10"/><path d="m607.952 337.03-135.823-114.372c-2.027-1.703-2.09-3.793-.199-4.67l183.434-84.157c1.912-.878 5.109-.209 7.126 1.494l135.822 114.33c2.027 1.703 2.09 3.803.209 4.68l-183.444 84.199c-1.912.878-5.099.199-7.125-1.504z" fill="#1b127d" stroke="#dfe4e8"/><path d="m607.952 295.124-135.823-114.407c-2.027-1.703-2.09-3.792-.199-4.67l183.434-84.1306c1.912-.8775 5.109-.2089 7.126 1.494l135.822 114.3646c2.027 1.714 2.09 3.803.209 4.681l-183.444 84.162c-1.912.878-5.099.209-7.125-1.494z" fill="#1b127d" stroke="#dfe4e8"/><path d="m607.961 295.585v41.421l2.361 1.346c2.083 1.142 4.282 2.065 6.56 2.754 12.857 4.619 18.42-3.666 12.427-18.505-3.747-9.267-13.204-20.016-21.348-27.068l123.343-52.418 42.108 34.669-146.822 64.202" fill="#1b127d"/><path d="m607.961 295.585v41.421l2.361 1.346c2.083 1.142 4.282 2.065 6.56 2.754 12.857 4.619 18.42-3.666 12.427-18.505-3.747-9.267-13.204-20.016-21.348-27.068l123.343-52.418 42.108 34.669-146.822 64.202" stroke="#dfe4e8"/><path d="m474.024 181.977v38.523l134.252 114.637v-39.624z" fill="#1b127d" stroke="#dfe4e8"/><path d="m608.276 295.351s21.911 20.842 23.853 35.827c0 0 .098 19.769-23.853 3.727" fill="#1b127d"/><path d="m608.276 295.351s21.911 20.842 23.853 35.827c0 0 .098 19.769-23.853 3.727" stroke="#dfe4e8"/><path d="m787.53 307.038 154.981-76.375c2.269-1.157 2.299-3.232-.022-4.799l-222.461-145.3792c-2.443-1.53-5.626-1.7941-8.38-.6955l-154.971 75.8637c-2.27 1.157-2.311 3.232.009 4.789l222.465 145.441c2.456 1.506 5.634 2.261 8.379 1.155z" fill="#1b127d" stroke="#dfe4e8"/><path d="m785.16 261.941 154.983-75.868c2.269-1.158 2.298-3.233-.022-4.789l-222.462-145.4018c-2.444-1.5301-5.626-1.7943-8.381-.6956l-154.97 75.8684c-2.269 1.157-2.311 3.233.009 4.789l222.463 145.402c2.446 1.524 5.625 1.788 8.38.695z" fill="#1b127d" stroke="#dfe4e8"/><path d="m754.304 222.999 127.96-61.897c1.597-.654 3.443-.493 4.862.422l5.88 3.96c1.353.906 1.353 2.187.017 2.859l-127.968 61.879c-1.597.654-3.443.493-4.862-.423l-5.88-3.959c-1.346-.913-1.353-2.188-.009-2.841z" fill="#ed26b7" opacity=".7"/><path d="m783.412 262.491 3.716 39.946 4.805 2.937-5.265 1.875c-2.642.585-7.404 1.244-10.118 1.276-14.846.788-22.954-10.582-16.732-24.318 3.891-8.546 14.396-16.912 23.581-21.757 0 0-143.382-93.34-230.401-149.418-25.287 13.559-34.979 35.655 2.477 54.624 98.787 65.132 205.545 135.159 205.545 135.159" fill="#1b127d"/><path d="m783.412 262.491 3.716 39.946 4.805 2.937-5.265 1.875c-2.642.585-7.404 1.244-10.118 1.276-14.846.788-22.954-10.582-16.732-24.318 3.891-8.546 14.396-16.912 23.581-21.757 0 0-143.382-93.34-230.401-149.418-25.287 13.559-34.979 35.655 2.477 54.624 98.787 65.132 205.545 135.159 205.545 135.159" stroke="#dfe4e8"/><path d="m934.673 228.14-148.178 74.311-1.376-40.808 150.941-74.78z" fill="#1b127d" stroke="#dfe4e8"/><path d="m785.129 261.811s-25.648 11.996-27.067 28.802c0 0-6.281 23.001 28.328 11.701" fill="#1b127d"/><path d="m785.129 261.811s-25.648 11.996-27.067 28.802c0 0-6.281 23.001 28.328 11.701" stroke="#dfe4e8"/><path clip-rule="evenodd" d="m562.304 28.4436c-3.356-.8764-7.029-.4029-9.317 1.0176-.72.4463-1.302.985-1.694 1.6084l-6.001 9.4272c-1.647 2.5968.616 5.6567 5.029 6.8096l4.906 1.2799c-.403 2.9436-.221 5.8921.513 8.7881l-4.763 1.1363c-1.069.2546-1.993.6334-2.742 1.098-2.255 1.3994-2.958 3.5839-1.495 5.57l7.107 9.6282c1.955 2.6477 7.061 3.9785 11.343 2.9604l4.762-1.1378c3.128 2.33 6.704 4.4725 10.683 6.3699l-1.832 2.8821c-1.652 2.5982.613 5.6587 5.024 6.8082l16.044 4.1872c3.356.8777 7.035.4022 9.324-1.0189.719-.4457 1.302-.9851 1.692-1.6057l1.828-2.8883c4.925.4252 9.811.492 14.588.2223l2.175 2.9417c1.954 2.6525 7.056 3.9799 11.342 2.961l15.586-3.7096c1.066-.256 1.987-.6327 2.739-1.0994 2.254-1.3987 2.962-3.5838 1.494-5.5707l-2.176-2.9472c1.99-.939 3.878-1.9659 5.651-3.0665 1.519-.9429 2.956-1.9383 4.3-2.9905l4.901 1.2743c3.363.8792 7.037.4036 9.326-1.0175.719-.4456 1.299-.9837 1.695-1.6015l5.99-9.4321c1.649-2.5941-.609-5.6559-5.024-6.8089l-4.905-1.2799c.4-2.9408.218-5.8894-.517-8.7888l4.768-1.1349c1.071-.2532 1.99-.6313 2.74-1.0966 2.256-1.4001 2.961-3.5859 1.496-5.572l-7.106-9.6276c-1.956-2.6443-7.069-3.9793-11.344-2.9541l-4.766 1.1328c-3.125-2.3313-6.699-4.4697-10.675-6.3698l1.83-2.8855c1.644-2.5921-.608-5.6559-5.029-6.8041l-16.039-4.1872c-3.359-.8743-7.033-.4001-9.326 1.0231-.717.4449-1.302.9836-1.693 1.6035l-1.835 2.8807c-4.911-.4161-9.801-.4891-14.581-.2175l-2.167-2.9423c-1.963-2.6491-7.063-3.97849-11.349-2.9583l-15.585 3.709c-1.069.2566-1.99.6334-2.742 1.1-2.254 1.3988-2.958 3.5811-1.493 5.5714l2.172 2.9423c-1.989.9411-3.877 1.9653-5.65 3.0658-1.517.9416-2.951 1.9384-4.296 2.9927zm76.614 4.1602c4.735 2.7838 7.85 6.1764 9.312 9.7188-1.241 2.9138-3.682 5.6467-7.343 7.9226-11.807 7.3406-31.832 7.1458-44.727-.4351-4.735-2.7837-7.85-6.1763-9.312-9.7187 1.241-2.9138 3.682-5.6468 7.343-7.9226 11.807-7.3406 31.832-7.1458 44.727.435z" fill="#1b127d" fill-rule="evenodd"/><path d="m552.987 29.4612.263.4248zm9.317-1.0176-.127.4838.001.0001zm-11.011 2.626.421.2685.002-.002zm-6.001 9.4272-.422-.2685v.0007zm5.029 6.8096-.126.4838zm4.906 1.2799.495.0678.061-.4396-.43-.112zm.513 8.7881.116.4863.494-.1176-.125-.4916zm-4.763 1.1363.115.4864h.001zm-2.742 1.098-.264-.4248zm-1.495 5.57-.403.2965.001.0004zm7.107 9.6282-.402.297v.0001zm11.343 2.9604.116.4864.001-.0001zm4.762-1.1378.299-.4009-.188-.1397-.227.0543zm10.683 6.3699.422.2682.303-.4765-.51-.243zm-1.832 2.8821-.422-.2683v.0001zm5.024 6.8082.127-.4838h-.001zm16.044 4.1872.127-.4838zm9.324-1.0189.264.4248zm1.692-1.6057-.422-.2674-.001.0011zm1.828-2.8883.043-.4982-.303-.0261-.162.2569zm14.588.2223.402-.2972-.16-.2172-.27.0152zm2.175 2.9417.402-.2966v-.0006zm11.342 2.961.116.4865v-.0001zm15.586-3.7096.115.4864.001-.0002zm2.739-1.0994.263.4248zm1.494-5.5707-.403.2969.001.0004zm-2.176-2.9472-.213-.4522-.55.2597.361.4894zm5.651-3.0665.264.4249zm4.3-2.9905.126-.4839-.239-.0623-.195.1524zm4.901 1.2743.126-.4838v-.0001zm9.326-1.0175-.263-.4249zm1.695-1.6015.421.2695.001-.0014zm5.99-9.4321-.422-.2683v.0002zm-5.024-6.8089.127-.4838zm-4.905-1.2799-.496-.0675-.06.4393.429.112zm-.517-8.7888-.116-.4864-.494.1175.125.4919zm4.768-1.1349-.115-.4866-.001.0002zm2.74-1.0966.263.4248zm1.496-5.572.402-.2969v-.0001zm-7.106-9.6276.402-.2969v-.0005zm-11.344-2.9541.115.4864.001-.0002zm-4.766 1.1328-.299.4008.188.1397.227-.054zm-10.675-6.3698-.423-.2678-.302.4759.509.2431zm1.83-2.8855.422.2678zm-5.029-6.8041-.126.4837.001.0002zm-16.039-4.1872.126-.4838zm-9.326 1.0231.263.4248zm-1.693 1.6035.421.2686.001-.0014zm-1.835 2.8807-.042.4982.301.0256.163-.2552zm-14.581-.2175-.403.2965.161.2181.27-.0154zm-2.167-2.9423.402-.2965v-.0011zm-11.349-2.9583.116.4864zm-15.585 3.709-.115-.4864-.001.0002zm-2.742 1.1.264.4249zm-1.493 5.5714-.402.2965v.0004zm2.172 2.9423.213.452.55-.2599-.361-.489zm-5.65 3.0658-.263-.4248zm-4.296 2.9927-.126.4839.239.0624.195-.1527zm81.02 12.6005.46.196.082-.1929-.08-.1938zm-9.312-9.7188-.253.4311zm1.969 17.6414-.264-.4247zm-44.727-.4351-.254.4311zm-9.312-9.7187-.46-.196-.082.1929.08.1938zm7.343-7.9226.264.4246zm-40.941-2.2828c2.151-1.3351 5.678-1.8072 8.927-.9586l.253-.9676c-3.462-.9042-7.281-.4292-9.707 1.0766zm-1.534 1.4501c.343-.5451.864-1.0339 1.534-1.4501l-.527-.8496c-.768.4765-1.411 1.0651-1.853 1.7667zm-6.002 9.4292 6-9.4272-.843-.537-6.001 9.4272zm4.734 6.0574c-2.133-.5571-3.687-1.5612-4.512-2.6768-.807-1.0931-.919-2.2827-.222-3.3813l-.844-.5356c-.951 1.4982-.753 3.137.262 4.5112.999 1.3518 2.782 2.4541 5.063 3.05zm4.905 1.2798-4.906-1.2799-.252.9676 4.906 1.2799zm.872 9.149c-.719-2.8357-.897-5.7195-.503-8.5974l-.99-.1356c-.412 3.0093-.226 6.0226.524 8.9788zm-5.132 1.7456 4.763-1.1364-.232-.9727-4.763 1.1363zm-2.594 1.0364c.696-.4323 1.569-.7924 2.593-1.0364l-.231-.9728c-1.113.2651-2.089.6626-2.89 1.1596zm-1.356 4.8486c-.651-.8836-.796-1.7685-.569-2.5721.232-.8181.872-1.6231 1.925-2.2765l-.528-.8496c-1.202.746-2.041 1.733-2.359 2.8534-.321 1.135-.087 2.3355.725 3.4379zm7.106 9.6279-7.107-9.6283-.804.5939 7.107 9.6283zm10.826 2.7708c-2.056.4887-4.319.4146-6.303-.1028-1.993-.5201-3.638-1.4696-4.523-2.6681l-.804.5941c1.07 1.4491 2.956 2.4889 5.075 3.0416 2.128.5553 4.559.6376 6.786.1081zm4.761-1.1376-4.762 1.1377.233.9727 4.761-1.1378zm11.014 6.4049c-3.952-1.8847-7.5-4.0108-10.599-6.3195l-.598.8019c3.157 2.3512 6.761 4.5101 10.766 6.4202zm-1.625 3.6016 1.832-2.8821-.844-.5364-1.832 2.882zm4.728 6.0562c-2.131-.5554-3.686-1.5588-4.509-2.6741-.807-1.0928-.918-2.2826-.219-3.3821l-.844-.5364c-.953 1.4987-.757 3.1382.258 4.5126.999 1.3519 2.782 2.4535 5.062 3.0476zm16.045 4.1872-16.044-4.1872-.253.9676 16.044 4.1872zm8.934-.96c-2.153 1.3359-5.685 1.8099-8.934.96l-.253.9675c3.463.9057 7.287.4286 9.714-1.0778zm1.532-1.4471c-.341.542-.863 1.0315-1.532 1.4471l.527.8497c.767-.4757 1.411-1.065 1.851-1.7641zm1.829-2.8894-1.828 2.8883.845.5348 1.828-2.8883zm14.982-.0095c-4.753.2683-9.616.2019-14.517-.2213l-.086.9963c4.949.4273 9.859.4944 14.659.2234zm2.605 3.1437-2.175-2.9417-.804.5945 2.175 2.9417zm10.825 2.7718c-2.058.489-4.321.4159-6.304-.1011-1.993-.5197-3.636-1.4694-4.521-2.6701l-.805.5932c1.07 1.4519 2.955 2.4921 5.073 3.0445 2.129.555 4.559.6362 6.788.1064zm15.585-3.7096-15.586 3.7096.232.9728 15.585-3.7096zm2.591-1.0379c-.7.4344-1.57.7926-2.592 1.0381l.233.9724c1.11-.2665 2.082-.6617 2.886-1.1608zm1.356-4.8485c.653.8837.798 1.7685.57 2.572-.233.8183-.873 1.6234-1.926 2.2765l.527.8497c1.202-.7455 2.042-1.7324 2.361-2.853.322-1.1355.087-2.3366-.728-3.4397zm-2.176-2.9476 2.175 2.9472.805-.5938-2.175-2.9472zm5.789-3.7882c-1.756 1.0902-3.627 2.1081-5.6 3.0391l.427.9044c2.007-.947 3.911-1.983 5.701-3.0938zm4.256-2.9595c-1.329 1.0401-2.75 2.0253-4.256 2.9595l.528.8497c1.533-.9516 2.984-1.9573 4.344-3.0217zm5.335 1.1842-4.901-1.2743-.252.9678 4.901 1.2743zm8.937-.9585c-2.153 1.3359-5.68 1.81-8.937.9586l-.252.9675c3.469.9071 7.289.4301 9.716-1.0764zm1.537-1.4461c-.347.5419-.868 1.0309-1.537 1.4461l.527.8497c.767-.476 1.408-1.0631 1.852-1.7568zm5.989-9.4307-5.99 9.4321.844.5362 5.99-9.4322zm-4.728-6.0571c2.133.5572 3.687 1.5617 4.51 2.6771.806 1.093.916 2.2823.218 3.3798l.844.5366c.951-1.4966.757-3.1353-.257-4.51-.998-1.3522-2.78-2.4551-5.062-3.051zm-4.906-1.2798 4.906 1.2799.253-.9676-4.906-1.2799zm-.875-9.1496c.72 2.8391.898 5.723.506 8.5983l.991.135c.41-3.0064.223-6.0196-.528-8.9793zm5.137-1.7443-4.768 1.1349.231.9728 4.769-1.1349zm2.592-1.0351c-.698.4333-1.565.7925-2.591 1.0349l.23.9732c1.116-.2639 2.087-.661 2.888-1.1584zm1.357-4.8503c.652.8835.797 1.7685.569 2.5724-.232.8187-.873 1.6241-1.926 2.2779l.527.8497c1.203-.7463 2.043-1.7338 2.361-2.8546.322-1.1355.087-2.3365-.726-3.4391zm-7.105-9.6275 7.105 9.6276.805-.5939-7.106-9.6275zm-10.826-2.7648c2.051-.4918 4.315-.4186 6.299.0986 1.995.5199 3.641 1.4697 4.527 2.6667l.804-.5948c-1.071-1.4473-2.959-2.4871-5.078-3.0395-2.13-.5551-4.561-.6368-6.785-.1035zm-4.766 1.1331 4.765-1.1329-.231-.9729-4.765 1.1329zm-11.007-6.4051c3.95 1.8875 7.496 4.0095 10.592 6.3194l.598-.8016c-3.154-2.3527-6.756-4.5075-10.759-6.4201zm1.624-3.6046-1.831 2.8856.845.5357 1.83-2.8856zm-4.732-6.0523c2.135.5547 3.689 1.5586 4.511 2.6735.807 1.0928.916 2.2823.221 3.3789l.844.5356c.949-1.4955.754-3.1339-.26-4.5082-.998-1.352-2.78-2.4542-5.065-3.0477zm-16.041-4.1873 16.04 4.1871.253-.9675-16.04-4.1872zm-8.936.9641c2.156-1.3379 5.684-1.8107 8.937-.964l.252-.9677c-3.466-.90208-7.285-.4264-9.716 1.082zm-1.534 1.4459c.343-.5416.865-1.0307 1.534-1.4459l-.527-.8497c-.765.4748-1.411 1.0631-1.852 1.7613zm-1.835 2.8821 1.834-2.8807-.843-.5371-1.835 2.8806zm-14.975.0131c4.756-.2703 9.622-.1977 14.511.2165l.084-.9964c-4.934-.4181-9.847-.4915-14.652-.2185zm-2.598-3.145 2.167 2.9423.805-.593-2.167-2.9423zm-10.83-2.7684c2.057-.4896 4.32-.4164 6.304.1006 1.993.5196 3.638 1.4691 4.527 2.6689l.804-.5952c-1.074-1.4493-2.96-2.4891-5.079-3.04136-2.129-.55491-4.559-.63629-6.788-.10572zm-15.585 3.709 15.585-3.709-.232-.97279-15.584 3.70899zm-2.594 1.0385c.699-.4343 1.569-.7925 2.595-1.0387l-.233-.9724c-1.113.2671-2.086.6623-2.89 1.1614zm-1.354 4.85c-.653-.886-.798-1.7714-.57-2.5747.232-.8179.871-1.6222 1.924-2.2753l-.528-.8497c-1.201.7456-2.041 1.7319-2.358 2.8524-.322 1.1352-.087 2.336.727 3.4403zm2.171 2.9419-2.171-2.9423-.805.5938 2.171 2.9423zm-5.788 3.7876c1.756-1.09 3.627-2.1053 5.599-3.0387l-.427-.9039c-2.005.9487-3.909 1.9819-5.699 3.0929zm-4.252 2.9614c1.33-1.0423 2.749-2.0288 4.252-2.9614l-.527-.8497c-1.532.9505-2.981 1.9577-4.342 3.024zm-5.34-1.1882 4.906 1.2785.252-.9677-4.906-1.2785zm86.514 13.2044c-1.514-3.6694-4.72-7.1365-9.521-9.9591l-.506.8621c4.669 2.7449 7.693 6.063 9.103 9.4784zm-7.541 8.5379c3.726-2.3168 6.248-5.1221 7.539-8.1512l-.92-.392c-1.192 2.7985-3.552 5.4591-7.147 7.6939zm-45.245-.4286c6.538 3.8432 14.857 5.8026 23.02 5.882 8.161.0794 16.22-1.7199 22.225-5.4534l-.528-.8493c-5.802 3.6072-13.66 5.3808-21.687 5.3027-8.025-.078-16.165-2.0064-22.523-5.7441zm-9.52-9.9591c1.514 3.6694 4.719 7.1365 9.52 9.9591l.507-.8621c-4.669-2.7449-7.694-6.0631-9.103-9.4785zm7.541-8.5379c-3.727 2.3168-6.249 5.1221-7.539 8.1512l.92.392c1.192-2.7985 3.552-5.4591 7.147-7.694zm45.244.4286c-6.537-3.8432-14.856-5.8026-23.019-5.882-8.161-.0794-16.22 1.7199-22.225 5.4534l.528.8492c5.802-3.6071 13.66-5.3807 21.687-5.3027 8.025.0781 16.165 2.0065 22.523 5.7442z" fill="#dfe4e8"/><path clip-rule="evenodd" d="m544.754 23.2661v18.3856c0 2.1255.598 2.8518 1.16 3.3773.562.5256 9.791 4.4612 9.791 4.4612v-11.0687s-.944-4.1467-.478-8.6573c-2.788-.7476-4.998-1.3784-6.306-1.747-3.658-1.4449-4.167-4.7511-4.167-4.7511z" fill="#1b127d" fill-rule="evenodd" stroke="#dfe4e8"/><path clip-rule="evenodd" d="m689.688 25.8174v17.207c0 2.1255-.375 1.4791-.937 2.0046-.561.5255-9.791 4.4612-9.791 4.4612v-11.0687s1.386-2.2823.919-6.7929c2.788-.7476 4.653-1.1746 5.961-1.5432 3.659-1.445 3.848-4.268 3.848-4.268z" fill="#1b127d" fill-rule="evenodd" stroke="#dfe4e8"/><path clip-rule="evenodd" d="m574.212-.267822v10.812022l3.228-1.6731-.284-4.02933-2.171-2.94234s-.505-.5091-.773-2.167252z" fill="#1b127d" fill-rule="evenodd" stroke="#dfe4e8"/><path clip-rule="evenodd" d="m657.376.872803v10.811997l-3.075-1.6731.283-4.02931 2.172-2.94233s.352-.5091.62-2.167257z" fill="#1b127d" fill-rule="evenodd" stroke="#dfe4e8"/><path clip-rule="evenodd" d="m562.304 9.62184c-3.356-.8764-7.029-.40287-9.317 1.01756-.72.4463-1.302.9851-1.694 1.6084l-6.001 9.4272c-1.647 2.5969.616 5.6567 5.029 6.8097l4.906 1.2798c-.403 2.9436-.221 5.8922.513 8.7881l-4.763 1.1363c-1.069.2546-1.993.6334-2.742 1.098-2.255 1.3994-2.958 3.5839-1.495 5.57l7.107 9.6283c1.955 2.6477 7.061 3.9785 11.343 2.9603l4.762-1.1377c3.128 2.3299 6.704 4.4725 10.683 6.3698l-1.832 2.8821c-1.652 2.5982.613 5.6587 5.024 6.8082l16.044 4.1872c3.356.8778 7.035.4022 9.324-1.0189.719-.4457 1.302-.9851 1.692-1.6057l1.828-2.8883c4.925.4252 9.811.492 14.588.2224l2.175 2.9416c1.954 2.6526 7.056 3.9799 11.342 2.9611l15.586-3.7097c1.066-.2559 1.987-.6327 2.739-1.0994 2.254-1.3987 2.962-3.5838 1.494-5.5706l-2.176-2.9472c1.99-.9391 3.878-1.966 5.651-3.0665 1.519-.9429 2.956-1.9384 4.3-2.9906l4.901 1.2743c3.363.8792 7.037.4037 9.326-1.0175.719-.4456 1.299-.9837 1.695-1.6015l5.99-9.4321c1.649-2.5941-.609-5.6559-5.024-6.8089l-4.905-1.2799c.4-2.9408.218-5.8894-.517-8.7888l4.768-1.1349c1.071-.2531 1.99-.6313 2.74-1.0966 2.256-1.4001 2.961-3.5859 1.496-5.572l-7.106-9.6276c-1.956-2.6443-7.069-3.9793-11.344-2.9541l-4.766 1.1328c-3.125-2.3313-6.699-4.46965-10.675-6.36975l1.83-2.88554c1.644-2.592053-.608-5.65592-5.029-6.80414l-16.039-4.18712c-3.359-.87435-7.033-.40015-9.326 1.02303-.717.44496-1.302.98366-1.693 1.60357l-1.835 2.88067c-4.911-.41612-9.801-.48912-14.581-.21747l-2.167-2.94229c-1.963-2.64915-7.063-3.97853-11.349-2.95831l-15.585 3.70896c-1.069.25663-1.99.63337-2.742 1.10006-2.254 1.39873-2.958 3.5811012-1.493 5.57135l2.172 2.94234c-1.989.9411-3.877 1.96529-5.65 3.06579-1.517.94155-2.951 1.9384-4.296 2.99265zm33.856 40.18806c-12.895-7.5809-13.777-19.6772-1.969-27.0178 11.807-7.3406 31.832-7.1458 44.727.4351 12.895 7.5808 13.776 19.6771 1.969 27.0177-11.808 7.3406-31.833 7.1458-44.727-.435z" fill="#1b127d" fill-rule="evenodd"/><path d="m552.987 10.6394-.264-.4248zm9.317-1.01756-.127.48376.001.0001zm-11.011 2.62596.421.2685.002-.002zm-6.001 9.4272-.422-.2685v.0007zm5.029 6.8097-.126.4837v.0001zm4.906 1.2798.495.0679.061-.4396-.43-.1121zm.513 8.7881.116.4864.494-.1177-.125-.4916zm-4.763 1.1363.115.4864h.001zm-2.742 1.098-.264-.4248zm-1.495 5.57-.403.2965.001.0004zm7.107 9.6283-.402.2969v.0001zm11.343 2.9603.116.4864.001-.0001zm4.762-1.1377.299-.401-.188-.1397-.227.0543zm10.683 6.3698.422.2682.303-.4764-.51-.2431zm-1.832 2.8821-.422-.2682zm5.024 6.8082.127-.4838h-.001zm16.044 4.1872.127-.4837v-.0001zm9.324-1.0189.264.4248zm1.692-1.6057-.422-.2674-.001.0011zm1.828-2.8883.043-.4981-.303-.0262-.162.2569zm14.588.2224.402-.2973-.16-.2172-.27.0153zm2.175 2.9416.402-.2966v-.0006zm11.342 2.9611.116.4864zm15.586-3.7097.115.4864.001-.0002zm2.739-1.0994.263.4249zm1.494-5.5706-.403.2969.001.0003zm-2.176-2.9472-.213-.4522-.55.2596.361.4895zm5.651-3.0665-.264-.4249zm4.3-2.9906.126-.4839-.239-.0622-.195.1524zm4.901 1.2743.126-.4837v-.0002zm9.326-1.0175.264.4249zm1.695-1.6015.421.2696.001-.0015zm5.99-9.4321-.422-.2683v.0003zm-5.024-6.8089.127-.4838zm-4.905-1.2799-.496-.0675-.06.4394.429.1119zm-.517-8.7888-.116-.4864-.494.1175.125.4919zm4.768-1.1349-.115-.4866-.001.0002zm2.74-1.0966-.264-.4248zm1.496-5.572.402-.2969zm-7.106-9.6276.402-.2969v-.0005zm-11.344-2.9541.115.4864.001-.0002zm-4.766 1.1328-.299.4008.188.1397.227-.054zm-10.675-6.36975-.423-.26785-.302.47596.509.24303zm1.83-2.88554.422.26785v-.00007zm-5.029-6.80414-.126.48379.001.00015zm-16.039-4.18712.126-.48378v-.00009zm-9.326 1.02303-.264-.42483zm-1.693 1.60357.421.26857.001-.00142zm-1.835 2.88067-.042.49822.301.02554.163-.25519zm-14.581-.21747-.403.29649.161.21807.27-.01536zm-2.167-2.94229.402-.29649v-.00112zm-11.349-2.95831.116.48641zm-15.585 3.70896-.115-.48642-.001.00022zm-2.742 1.10006.264.42484zm-1.493 5.57135-.402.2965v.0004zm2.172 2.94234.213.45194.55-.25992-.361-.48892zm-5.65 3.06579-.263-.42483zm-4.296 2.99265-.126.4839.239.0624.195-.1527zm26.981 11.8918-.264-.4246zm1.969 27.0178.253-.4311zm42.758-26.5827.253-.4311zm-85.668-12.1629c2.151-1.33515 5.678-1.80727 8.927-.9587l.253-.96754c-3.462-.9042-7.281-.42927-9.707 1.07654zm-1.534 1.45c.343-.5451.864-1.0339 1.534-1.45l-.527-.8497c-.768.4765-1.411 1.0651-1.853 1.7667zm-6.002 9.4292 6-9.4272-.843-.537-6.001 9.4272zm4.734 6.0574c-2.133-.5571-3.687-1.5612-4.512-2.6768-.807-1.0931-.919-2.2826-.222-3.3813l-.844-.5356c-.951 1.4982-.753 3.137.262 4.5112.999 1.3519 2.782 2.4542 5.063 3.05zm4.905 1.2798-4.906-1.2798-.252.9676 4.906 1.2799zm.872 9.149c-.719-2.8357-.897-5.7195-.503-8.5973l-.99-.1357c-.412 3.0093-.226 6.0226.524 8.9788zm-5.132 1.7456 4.763-1.1363-.232-.9727-4.763 1.1363zm-2.594 1.0365c.696-.4324 1.569-.7925 2.593-1.0365l-.231-.9728c-1.113.2652-2.089.6626-2.89 1.1596zm-1.356 4.8485c-.651-.8836-.796-1.7685-.569-2.572.232-.8182.872-1.6231 1.925-2.2765l-.528-.8497c-1.202.746-2.041 1.733-2.359 2.8534-.321 1.1351-.087 2.3355.725 3.4379zm7.106 9.6279-7.107-9.6283-.804.5939 7.107 9.6283zm10.826 2.7708c-2.056.4887-4.319.4147-6.303-.1028-1.993-.5201-3.638-1.4695-4.523-2.6681l-.804.5941c1.07 1.4492 2.956 2.4889 5.075 3.0416 2.128.5554 4.559.6377 6.786.1081zm4.761-1.1376-4.762 1.1378.233.9726 4.761-1.1377zm11.014 6.4049c-3.952-1.8846-7.5-4.0107-10.599-6.3195l-.598.8019c3.157 2.3512 6.761 4.5102 10.766 6.4202zm-1.625 3.6016 1.832-2.8821-.844-.5364-1.832 2.8821zm4.728 6.0562c-2.131-.5554-3.686-1.5588-4.509-2.6741-.807-1.0928-.918-2.2826-.219-3.3821l-.844-.5364c-.953 1.4987-.757 3.1382.258 4.5126.999 1.3519 2.782 2.4536 5.062 3.0477zm16.045 4.1872-16.044-4.1872-.253.9676 16.044 4.1872zm8.934-.9599c-2.153 1.3358-5.685 1.8098-8.934.96l-.253.9674c3.463.9057 7.287.4286 9.714-1.0778zm1.532-1.4472c-.341.542-.863 1.0316-1.532 1.4472l.527.8496c.767-.4757 1.411-1.065 1.851-1.7641zm1.829-2.8894-1.828 2.8883.845.5348 1.828-2.8883zm14.982-.0094c-4.753.2682-9.616.2018-14.517-.2213l-.086.9963c4.949.4272 9.859.4943 14.659.2234zm2.605 3.1436-2.175-2.9417-.804.5945 2.175 2.9417zm10.825 2.7718c-2.058.489-4.321.416-6.304-.1011-1.993-.5197-3.636-1.4694-4.521-2.6701l-.805.5933c1.07 1.4518 2.955 2.492 5.073 3.0444 2.129.555 4.559.6362 6.788.1064zm15.585-3.7096-15.586 3.7096.232.9729 15.585-3.7097zm2.591-1.0378c-.7.4343-1.57.7925-2.592 1.038l.233.9724c1.11-.2664 2.082-.6617 2.886-1.1607zm1.356-4.8486c.653.8838.798 1.7686.57 2.572-.233.8184-.873 1.6234-1.926 2.2766l.527.8497c1.202-.7456 2.042-1.7325 2.361-2.8531.322-1.1355.087-2.3366-.728-3.4397zm-2.176-2.9475 2.175 2.9472.805-.5939-2.175-2.9472zm5.789-3.7883c-1.756 1.0902-3.627 2.1081-5.6 3.0392l.427.9043c2.007-.9469 3.911-1.983 5.701-3.0938zm4.256-2.9594c-1.329 1.04-2.75 2.0252-4.256 2.9594l.528.8497c1.533-.9515 2.984-1.9573 4.344-3.0217zm5.335 1.1841-4.901-1.2743-.252.9678 4.901 1.2743zm8.937-.9584c-2.153 1.3358-5.68 1.8099-8.937.9586l-.252.9675c3.469.9071 7.289.43 9.716-1.0764zm1.537-1.4462c-.347.542-.868 1.0309-1.537 1.4462l.527.8497c.767-.476 1.408-1.0632 1.852-1.7568zm5.989-9.4306-5.99 9.4321.844.5361 5.99-9.4321zm-4.728-6.0571c2.133.5571 3.687 1.5616 4.51 2.6771.806 1.093.916 2.2822.218 3.3797l.844.5366c.951-1.4966.757-3.1353-.257-4.51-.998-1.3522-2.78-2.4551-5.062-3.051zm-4.906-1.2799 4.906 1.2799.253-.9676-4.906-1.2799zm-.875-9.1496c.72 2.8392.898 5.723.506 8.5983l.991.1351c.41-3.0065.223-6.0197-.528-8.9793zm5.137-1.7443-4.768 1.1349.231.9728 4.769-1.1349zm2.592-1.035c-.698.4332-1.565.7924-2.591 1.0348l.23.9732c1.116-.2639 2.087-.6609 2.888-1.1584zm1.357-4.8504c.652.8835.797 1.7686.569 2.5724-.232.8187-.873 1.6242-1.926 2.278l.527.8496c1.203-.7463 2.043-1.7337 2.361-2.8546.322-1.1355.087-2.3365-.726-3.4391zm-7.105-9.6275 7.105 9.6276.805-.5938-7.106-9.6276zm-10.826-2.7648c2.051-.4918 4.315-.4186 6.299.0987 1.995.5198 3.641 1.4696 4.527 2.6666l.804-.5948c-1.071-1.4473-2.959-2.4871-5.078-3.0395-2.13-.5551-4.561-.6368-6.785-.1034zm-4.766 1.1331 4.765-1.1329-.231-.9729-4.765 1.1329zm-11.007-6.40511c3.95 1.88756 7.495 4.00951 10.592 6.31941l.598-.8016c-3.154-2.35271-6.756-4.50746-10.759-6.42009zm1.624-3.60453-1.831 2.88554.845.5357 1.83-2.88554zm-4.732-6.05235c2.135.55475 3.689 1.55857 4.511 2.67356.807 1.092734.916 2.28225.221 3.37886l.844.53556c.949-1.49544.754-3.133884-.26-4.50815-.998-1.35201-2.78-2.45424-5.065-3.04771zm-16.041-4.18727 16.04 4.18712.253-.96757-16.04-4.18712zm-8.936.96408c2.156-1.3379 5.684-1.81066 8.937-.96399l.252-.96775c-3.466-.90204-7.285-.42639-9.716 1.08207zm-1.534 1.44588c.343-.5416.865-1.03071 1.534-1.44588l-.527-.84967c-.765.47474-1.411 1.06303-1.852 1.76125zm-1.835 2.88209 1.834-2.88067-.843-.53714-1.835 2.88068zm-14.975.01316c4.756-.27028 9.622-.1977 14.511.21649l.084-.99643c-4.934-.41805-9.847-.49149-14.652-.21845zm-2.598-3.145 2.167 2.94229.805-.59298-2.167-2.94229zm-10.83-2.76839c2.057-.48965 4.32-.41645 6.304.10057 1.993.51961 3.638 1.46912 4.527 2.66894l.804-.59522c-1.074-1.44933-2.96-2.48908-5.079-3.04139-2.129-.55491-4.559-.63629-6.788-.10572zm-15.585 3.70896 15.585-3.70896-.232-.97282-15.584 3.70896zm-2.594 1.03849c.699-.43431 1.569-.79253 2.595-1.0387l-.233-.9724c-1.113.26709-2.086.66235-2.89 1.16143zm-1.354 4.85002c-.653-.885965-.798-1.771421-.57-2.574683.232-.817947.871-1.622197 1.924-2.275337l-.528-.84967c-1.201.74558-2.041 1.73188-2.358 2.85236-.322 1.135174-.087 2.33603.727 3.44032zm2.171 2.94193-2.171-2.94233-.805.59379 2.171 2.94233zm-5.788 3.78753c1.756-1.09 3.627-2.10523 5.599-3.03869l-.427-.90389c-2.005.94875-3.909 1.9819-5.699 3.09291zm-4.252 2.96141c1.33-1.0423 2.749-2.02879 4.252-2.96141l-.527-.84967c-1.532.95046-2.981 1.95767-4.342 3.02398zm-5.34-1.1882 4.906 1.2785.252-.9677-4.906-1.2785zm31.749 12.2618c-6.012 3.7374-8.887 8.7531-8.514 13.8797.373 5.109 3.961 10.1531 10.493 13.9937l.507-.8621c-6.362-3.7402-9.662-8.5347-10.002-13.2042-.339-4.6519 2.248-9.3546 8.044-12.9578zm45.244.4286c-6.537-3.8432-14.856-5.8026-23.02-5.882-8.16-.0794-16.219 1.7199-22.224 5.4534l.528.8493c5.802-3.6071 13.659-5.3808 21.687-5.3027 8.025.078 16.165 2.0064 22.522 5.7441zm1.98 27.8734c6.011-3.7374 8.887-8.7531 8.513-13.8797-.372-5.109-3.96-10.1531-10.493-13.9937l-.507.8621c6.362 3.7403 9.663 8.5347 10.003 13.2043.339 4.6518-2.249 9.3546-8.044 12.9578zm-45.245-.4286c6.537 3.8432 14.857 5.8026 23.02 5.882 8.161.0794 16.219-1.7198 22.225-5.4534l-.528-.8492c-5.802 3.6071-13.66 5.3807-21.687 5.3027-8.025-.0781-16.165-2.0065-22.523-5.7442z" fill="#dfe4e8"/><path clip-rule="evenodd" d="m589.649 44.5415c-6.197-7.1676-4.794-15.9451 4.543-21.7493 11.807-7.3407 31.832-7.1459 44.727.435 10.915 6.4172 13.222 16.07 6.511 23.3348-1.64-1.8973-3.813-3.6817-6.511-5.2684-12.895-7.5809-32.92-7.7757-44.728-.435-1.812 1.1267-3.325 2.3655-4.542 3.6829z" fill="#1b127d" fill-rule="evenodd"/><path d="m594.192 22.7922.264.4246zm-4.543 21.7493-.379.327.366.4232.38-.4109zm49.27-21.3143-.254.431zm6.511 23.3348-.378.327.366.4233.379-.411zm-6.511-5.2684-.254.431zm-44.728-.435.264.4246zm-.263-18.4911c-4.752 2.9542-7.547 6.705-8.323 10.6925-.778 3.9941.487 8.1316 3.665 11.8085l.757-.654c-3.018-3.4908-4.149-7.3258-3.441-10.9634.71-3.6442 3.285-7.1843 7.87-10.0343zm45.244.4287c-6.537-3.8433-14.857-5.8027-23.02-5.8821-8.161-.0793-16.219 1.7199-22.224 5.4534l.528.8493c5.802-3.6071 13.659-5.3808 21.686-5.3027 8.025.078 16.166 2.0065 22.523 5.7441zm6.625 24.1051c3.459-3.7436 4.622-8.146 3.47-12.4537-1.146-4.288-4.563-8.3991-10.095-11.6514l-.507.862c5.383 3.1649 8.578 7.0888 9.636 11.0477 1.053 3.9392.015 7.9956-3.238 11.5168zm.011-.6663c-1.681-1.9447-3.898-3.7626-6.636-5.3724l-.507.862c2.66 1.5635 4.788 3.3146 6.387 5.1644zm-6.636-5.3724c-6.537-3.8433-14.857-5.8027-23.02-5.8821-8.161-.0793-16.219 1.7199-22.225 5.4534l.528.8493c5.802-3.6071 13.66-5.3808 21.687-5.3027 8.025.078 16.166 2.0065 22.523 5.7441zm-45.245-.4287c-1.845 1.1475-3.395 2.4141-4.646 3.7683l.735.6786c1.183-1.2805 2.66-2.4915 4.439-3.5976z" fill="#dfe4e8"/><g fill="#1b127d"><path clip-rule="evenodd" d="m546.106 62.1848s-.168 1.3677.465 2.5315c.634 1.1638 7.874 10.9061 7.874 10.9061s4.115 3.6039 9.571 2.4527c5.456-1.1511 5.935-1.4456 5.935-1.4456v-18.8218l-5.935 1.366s-6.279.3935-9.228-2.2137c-2.949-2.6073-8.875-11.9307-8.875-11.9307z" fill-rule="evenodd" stroke="#dfe4e8"/><path clip-rule="evenodd" d="m578.408 69.0095v17.8468s-.5 3.7733 2.999 4.9836 20.174 5.4281 20.174 5.4281 6.36.5643 8.799-2.6103c.569-.7409 1.417-1.7049 2.336-3.2936 0-9.6229 0-18.8217 0-18.8217l-2.336 3.6155s-3.103 2.8652-8.799 2.1961-20.174-5.1846-20.174-5.1846-2.999-1.8314-2.999-4.1599z" fill-rule="evenodd" stroke="#dfe4e8"/><path clip-rule="evenodd" d="m627.303 72.7642v18.8218s1.07 1.4663 2.699 3.6165c1.63 2.1502 7.295 3.1083 9.724 2.6292 2.43-.479 14.813-3.482 17.84-4.3317 3.026-.8496 3.932-3.4508 3.932-4.1119 0-.6612 0-19.3239 0-19.3239s-.711 3.4936-3.638 4.3463c-2.928.8528-15.468 3.6377-18.134 4.3253s-7.658-.6876-8.543-1.4525c-.884-.7649-3.88-4.5191-3.88-4.5191z" fill-rule="evenodd" stroke="#dfe4e8"/><path clip-rule="evenodd" d="m668.414 59.2832v18.8218s2.924.9053 6.293 1.7363c1.886.4157 7.592.008 9.345-2.6169s6.576-10.4478 6.576-10.4478.238-.7584.238-2.1156 0-17.8758 0-17.8758.223.6208-.54 1.7212c-.763 1.1005-6.6 9.9791-6.6 9.9791s-4.492 3.2061-8.541 2.3097c-4.049-.8963-6.771-1.512-6.771-1.512z" fill-rule="evenodd" stroke="#dfe4e8"/><path d="m535.507 114.007c2.289-1.42 5.961-1.894 9.317-1.017l4.906 1.278c1.345-1.054 2.78-2.051 4.297-2.993 1.773-1.1 3.661-2.124 5.649-3.065l-2.171-2.943c-1.466-1.99-.761-4.172 1.492-5.5712.752-.4666 1.673-.8434 2.743-1.1l15.584-3.709c4.286-1.0202 9.387.3092 11.349 2.9583l2.167 2.9419c4.78-.271 9.67-.198 14.582.218l1.834-2.8808c.392-.6199.976-1.1586 1.693-1.6035 2.293-1.4232 5.967-1.8974 9.326-1.0231l16.04 4.1871c4.42 1.1483 6.672 4.2123 5.029 6.8043l-1.831 2.885c3.976 1.901 7.55 4.039 10.676 6.37l4.765-1.133c4.276-1.025 9.388.31 11.344 2.954l7.106 9.628c1.465 1.986.76 4.172-1.496 5.572-.75.465-1.668.844-2.739 1.097l-4.769 1.135c.736 2.899.918 5.848.517 8.788l4.906 1.28c4.415 1.153 6.673 4.215 5.024 6.809l-5.991 9.432c-.395.618-.976 1.156-1.694 1.602-2.29 1.421-5.964 1.897-9.326 1.017l-4.901-1.274c-1.345 1.052-2.781 2.048-4.301 2.991-1.773 1.1-3.66 2.127-5.65 3.066l2.175 2.947c1.469 1.987.76 4.172-1.494 5.571-.752.467-1.673.843-2.739 1.099l-15.585 3.71c-4.287 1.019-9.388-.309-11.343-2.961l-2.174-2.942c-4.777.27-9.663.203-14.588-.222l-1.828 2.888c-.391.621-.974 1.16-1.692 1.606-2.29 1.421-5.968 1.897-9.324 1.019l-16.044-4.187c-4.412-1.15-6.676-4.21-5.025-6.809l1.832-2.882c-3.978-1.897-7.555-4.04-10.683-6.37l-4.761 1.138c-4.283 1.018-9.388-.312-11.343-2.96l-7.107-9.628c-1.464-1.987-.76-4.171 1.495-5.57.748-.465 1.673-.844 2.741-1.098l4.764-1.137c-.734-2.896-.916-5.844-.513-8.788l-4.906-1.28c-4.413-1.153-6.677-4.212-5.03-6.809l6.001-9.428c.393-.623.975-1.162 1.694-1.608z" stroke="#dfe4e8"/><path clip-rule="evenodd" d="m527.274 107.812v18.386c0 2.126.598 2.852 1.16 3.377.562.526 9.791 4.462 9.791 4.462v-11.069s-.944-4.147-.477-8.657c-2.788-.748-4.998-1.379-6.306-1.747-3.659-1.445-4.168-4.752-4.168-4.752z" fill-rule="evenodd" stroke="#dfe4e8"/><path clip-rule="evenodd" d="m672.209 110.364v17.207c0 2.125-.375 1.479-.937 2.004-.562.526-9.791 4.462-9.791 4.462v-11.069s1.385-2.282.919-6.793c2.788-.748 4.652-1.175 5.96-1.543 3.659-1.445 3.849-4.268 3.849-4.268z" fill-rule="evenodd" stroke="#dfe4e8"/><path clip-rule="evenodd" d="m556.732 84.2786v10.8119l3.228-1.673-.283-4.0293-2.171-2.9424s-.506-.5091-.774-2.1672z" fill-rule="evenodd" stroke="#dfe4e8"/><path clip-rule="evenodd" d="m639.896 85.4192v10.812l-3.075-1.6731.284-4.0293 2.171-2.9424s.353-.5091.62-2.1672z" fill-rule="evenodd" stroke="#dfe4e8"/><path clip-rule="evenodd" d="m544.824 94.1685c-3.356-.8764-7.028-.4029-9.317 1.0176-.719.4463-1.301.985-1.694 1.6084l-6.001 9.4275c-1.647 2.596.617 5.656 5.03 6.809l4.906 1.28c-.403 2.944-.221 5.892.513 8.788l-4.764 1.137c-1.068.254-1.993.633-2.741 1.098-2.255 1.399-2.959 3.583-1.495 5.57l7.107 9.628c1.955 2.647 7.06 3.978 11.343 2.96l4.761-1.138c3.128 2.33 6.705 4.473 10.683 6.37l-1.832 2.882c-1.651 2.599.613 5.659 5.025 6.809l16.044 4.187c3.356.877 7.034.402 9.324-1.019.718-.446 1.301-.985 1.692-1.606l1.828-2.888c4.925.425 9.811.492 14.588.222l2.174 2.942c1.955 2.652 7.056 3.98 11.343 2.961l15.585-3.71c1.066-.256 1.987-.632 2.739-1.099 2.254-1.399 2.963-3.584 1.494-5.571l-2.175-2.947c1.99-.939 3.877-1.966 5.65-3.066 1.52-.943 2.956-1.939 4.301-2.991l4.901 1.274c3.362.879 7.036.404 9.326-1.017.718-.446 1.299-.984 1.694-1.602l5.991-9.432c1.649-2.594-.609-5.656-5.024-6.809l-4.906-1.28c.401-2.94.219-5.889-.517-8.788l4.769-1.135c1.071-.254 1.989-.632 2.739-1.097 2.256-1.4 2.961-3.586 1.496-5.572l-7.106-9.6276c-1.956-2.6442-7.068-3.9792-11.344-2.9541l-4.765 1.1329c-3.126-2.3314-6.7-4.4697-10.676-6.3698l1.831-2.8856c1.643-2.592-.609-5.6559-5.029-6.8041l-16.04-4.1871c-3.359-.8744-7.033-.4002-9.326 1.023-.717.445-1.301.9837-1.693 1.6036l-1.834 2.8807c-4.912-.4162-9.802-.4892-14.582-.2175l-2.167-2.9423c-1.962-2.6492-7.063-3.9785-11.349-2.9583l-15.584 3.7089c-1.07.2567-1.991.6334-2.743 1.1001-2.253 1.3987-2.958 3.5811-1.492 5.5714l2.171 2.9423c-1.988.9411-3.876 1.9653-5.649 3.0658-1.517.9415-2.952 1.9384-4.297 2.9927zm33.857 40.1885c-12.894-7.581-13.776-19.677-1.968-27.018 11.807-7.3406 31.832-7.146 44.727.435 12.894 7.581 13.776 19.677 1.968 27.018-11.807 7.34-31.832 7.146-44.727-.435z" fill-rule="evenodd"/></g><path d="m535.507 95.1861-.264-.4249zm9.317-1.0176-.126.4837v.0001zm-11.011 2.626.422.2684.001-.0019zm-6.001 9.4275-.421-.269-.001.001zm5.03 6.809-.127.484zm4.906 1.28.495.068.06-.44-.429-.112zm.513 8.788.116.487.493-.118-.124-.492zm-4.764 1.137.116.486zm-2.741 1.098-.264-.425zm-1.495 5.57-.403.296zm7.107 9.628-.403.297zm11.343 2.96.116.487v-.001zm4.761-1.138.299-.401-.187-.139-.228.054zm10.683 6.37.422.268.303-.476-.51-.243zm-1.832 2.882-.422-.268zm5.025 6.809.126-.484zm16.044 4.187.126-.484zm9.324-1.019.264.425zm1.692-1.606-.423-.267v.001zm1.828-2.888.043-.498-.303-.026-.163.256zm14.588.222.402-.297-.161-.217-.27.015zm2.174 2.942.403-.297h-.001zm11.343 2.961.115.486zm15.585-3.71.116.487.001-.001zm2.739-1.099.264.425zm1.494-5.571-.402.297zm-2.175-2.947-.213-.452-.551.259.362.49zm5.65-3.066-.263-.425zm4.301-2.991.125-.484-.239-.062-.195.152zm4.901 1.274.126-.483-.001-.001zm9.326-1.017.264.425zm1.694-1.602.421.27.001-.002zm5.991-9.432-.422-.268h-.001zm-5.024-6.809.126-.484zm-4.906-1.28-.495-.067-.06.439.429.112zm-.517-8.788-.116-.487-.493.118.125.492zm4.769-1.135-.115-.487h-.001zm2.739-1.097-.264-.425zm1.496-5.572.402-.297zm-7.106-9.6276.403-.2969-.001-.0004zm-11.344-2.9541.116.4865.001-.0003zm-4.765 1.1329-.299.4008.187.1397.228-.0541zm-10.676-6.3698-.422-.2679-.302.476.508.243zm1.831-2.8856.422.2679v-.0001zm-5.029-6.8041-.127.4838.001.0001zm-16.04-4.1871.126-.4838v-.0001zm-9.326 1.023-.264-.4248zm-1.693 1.6036.422.2686.001-.0015zm-1.834 2.8807-.043.4982.302.0255.162-.2552zm-14.582-.2175-.402.2965.16.218.27-.0153zm-2.167-2.9423.403-.2965-.001-.0011zm-11.349-2.9583.116.4864zm-15.584 3.7089-.116-.4864-.001.0002zm-2.743 1.1001.264.4248zm-1.492 5.5714-.403.2964v.0004zm2.171 2.9423.214.4519.549-.2599-.361-.4889zm-5.649 3.0658-.264-.4249zm-4.297 2.9927-.126.4838.24.0625.195-.1528zm26.983 11.892-.264-.425zm44.727.435-.254.431zm1.968 27.018-.264-.425zm-87.637-39.1811c2.151-1.3351 5.678-1.8072 8.927-.9587l.253-.9675c-3.463-.9042-7.281-.4293-9.708 1.0765zm-1.535 1.4501c.344-.5451.864-1.034 1.535-1.4501l-.528-.8497c-.767.4765-1.411 1.0651-1.853 1.7667zm-6.002 9.429 6.001-9.4271-.844-.5369-6 9.427zm4.734 6.058c-2.132-.558-3.687-1.562-4.511-2.677-.808-1.093-.919-2.283-.222-3.382l-.845-.535c-.95 1.498-.753 3.137.263 4.511.998 1.352 2.782 2.454 5.062 3.05zm4.906 1.279-4.906-1.28-.253.968 4.906 1.28zm.872 9.149c-.719-2.835-.897-5.719-.503-8.597l-.991-.136c-.412 3.01-.225 6.023.524 8.979zm-5.133 1.746 4.764-1.136-.232-.973-4.764 1.136zm-2.594 1.036c.697-.432 1.57-.792 2.594-1.036l-.232-.973c-1.113.265-2.088.663-2.889 1.16zm-1.356 4.849c-.651-.884-.796-1.769-.568-2.572.232-.818.871-1.623 1.924-2.277l-.527-.849c-1.202.746-2.042 1.733-2.359 2.853-.322 1.135-.087 2.336.725 3.438zm7.107 9.628-7.107-9.628-.805.593 7.107 9.629zm10.825 2.771c-2.055.488-4.319.414-6.302-.103-1.994-.52-3.638-1.47-4.523-2.668l-.805.594c1.071 1.449 2.957 2.489 5.075 3.041 2.129.556 4.559.638 6.787.109zm4.761-1.138-4.761 1.138.232.972 4.762-1.137zm11.014 6.405c-3.951-1.885-7.499-4.011-10.599-6.32l-.597.802c3.156 2.352 6.761 4.51 10.766 6.421zm-1.625 3.602 1.832-2.883-.844-.536-1.832 2.882zm4.729 6.056c-2.132-.556-3.686-1.559-4.51-2.674-.807-1.093-.918-2.283-.219-3.382l-.844-.537c-.952 1.499-.756 3.138.259 4.513.998 1.352 2.782 2.453 5.062 3.047zm16.044 4.187-16.044-4.187-.252.967 16.044 4.188zm8.934-.96c-2.152 1.336-5.684 1.81-8.934.96l-.253.967c3.463.906 7.287.429 9.715-1.077zm1.533-1.447c-.342.542-.863 1.031-1.533 1.447l.528.85c.766-.476 1.411-1.065 1.851-1.764zm1.828-2.89-1.828 2.889.845.535 1.828-2.889zm14.982-.009c-4.753.268-9.615.202-14.516-.221l-.086.996c4.948.427 9.858.494 14.659.223zm2.605 3.144-2.174-2.942-.805.594 2.175 2.942zm10.825 2.771c-2.057.489-4.321.416-6.304-.101-1.993-.519-3.635-1.469-4.52-2.67l-.805.593c1.07 1.452 2.955 2.493 5.073 3.045 2.128.555 4.558.636 6.787.106zm15.585-3.709-15.585 3.709.231.973 15.586-3.709zm2.592-1.038c-.7.434-1.57.793-2.593 1.038l.234.972c1.11-.266 2.082-.661 2.886-1.16zm1.355-4.849c.653.884.798 1.769.57 2.572-.232.819-.873 1.624-1.925 2.277l.527.85c1.201-.746 2.042-1.733 2.36-2.853.323-1.136.088-2.337-.728-3.44zm-2.175-2.947 2.175 2.947.804-.594-2.175-2.947zm5.789-3.788c-1.757 1.09-3.627 2.108-5.6 3.039l.426.904c2.007-.947 3.911-1.983 5.701-3.094zm4.255-2.96c-1.328 1.04-2.75 2.025-4.255 2.96l.527.849c1.533-.951 2.985-1.957 4.345-3.021zm5.335 1.184-4.901-1.274-.251.968 4.901 1.274zm8.937-.958c-2.152 1.336-5.68 1.81-8.936.959l-.253.967c3.47.907 7.289.43 9.717-1.076zm1.537-1.446c-.347.542-.867 1.031-1.537 1.446l.528.85c.767-.476 1.408-1.064 1.851-1.757zm5.989-9.431-5.99 9.432.844.536 5.991-9.432zm-4.727-6.057c2.133.557 3.687 1.562 4.51 2.677.806 1.093.915 2.282.218 3.38l.843.536c.952-1.496.757-3.135-.257-4.51-.997-1.352-2.78-2.455-5.062-3.051zm-4.906-1.28 4.906 1.28.252-.968-4.906-1.279zm-.875-9.149c.72 2.839.898 5.723.506 8.598l.99.135c.41-3.007.224-6.02-.527-8.979zm5.137-1.745-4.769 1.135.232.973 4.769-1.135zm2.591-1.035c-.698.433-1.565.793-2.59 1.035l.23.973c1.116-.264 2.086-.661 2.888-1.158zm1.358-4.85c.652.883.797 1.768.569 2.572-.233.819-.873 1.624-1.927 2.278l.528.85c1.202-.746 2.043-1.734 2.361-2.855.322-1.135.087-2.336-.727-3.439zm-7.106-9.6276 7.106 9.6276.804-.594-7.105-9.6275zm-10.825-2.7649c2.051-.4918 4.314-.4186 6.299.0987 1.995.5199 3.641 1.4696 4.526 2.6666l.804-.5947c-1.07-1.4473-2.959-2.4872-5.078-3.0396-2.13-.555-4.56-.6367-6.784-.1034zm-4.766 1.1331 4.765-1.1328-.231-.9729-4.766 1.1328zm-11.008-6.4051c3.951 1.8876 7.496 4.0096 10.593 6.3195l.598-.8016c-3.155-2.3528-6.757-4.5075-10.759-6.4202zm1.624-3.6045-1.83 2.8855.844.5357 1.831-2.8855zm-4.732-6.0524c2.136.5548 3.689 1.5586 4.512 2.6736.806 1.0927.916 2.2822.22 3.3789l.845.5355c.948-1.4954.754-3.1339-.26-4.5081-.998-1.352-2.781-2.4543-5.066-3.0477zm-16.04-4.1872 16.039 4.1871.253-.9676-16.04-4.1871zm-8.936.9641c2.156-1.338 5.683-1.8107 8.936-.964l.252-.9678c-3.465-.902-7.285-.4264-9.716 1.0821zm-1.534 1.4458c.342-.5416.865-1.0307 1.534-1.4458l-.528-.8497c-.764.4747-1.41 1.063-1.852 1.7612zm-1.836 2.8821 1.835-2.8807-.844-.5371-1.834 2.8807zm-14.975.0132c4.756-.2703 9.623-.1977 14.511.2165l.085-.9965c-4.934-.418-9.848-.4914-14.652-.2184zm-2.597-3.145 2.167 2.9423.805-.593-2.167-2.9423zm-10.831-2.7684c2.057-.4897 4.321-.4165 6.304.1006 1.994.5196 3.639 1.4691 4.528 2.6689l.803-.5952c-1.073-1.4493-2.96-2.4891-5.079-3.0414-2.129-.5549-4.559-.6363-6.787-.1057zm-15.584 3.709 15.584-3.709-.231-.9728-15.585 3.7089zm-2.595 1.0384c.7-.4343 1.57-.7925 2.596-1.0387l-.234-.9724c-1.113.2671-2.085.6624-2.889 1.1615zm-1.354 4.8501c-.652-.886-.797-1.7715-.57-2.5747.232-.818.872-1.6222 1.924-2.2754l-.527-.8496c-1.202.7456-2.041 1.7319-2.359 2.8523-.321 1.1352-.086 2.3361.727 3.4403zm2.171 2.9419-2.171-2.9423-.805.5937 2.172 2.9424zm-5.788 3.7875c1.757-1.09 3.628-2.1052 5.6-3.0387l-.428-.9039c-2.004.9488-3.909 1.9819-5.699 3.0929zm-4.251 2.9614c1.33-1.0423 2.749-2.0288 4.251-2.9614l-.527-.8497c-1.531.9505-2.981 1.9577-4.341 3.024zm-5.341-1.1882 4.906 1.2785.252-.9677-4.906-1.2785zm31.751 12.2617c-6.012 3.738-8.888 8.754-8.514 13.88.372 5.109 3.96 10.153 10.493 13.994l.507-.862c-6.362-3.74-9.662-8.535-10.003-13.205-.339-4.651 2.249-9.354 8.045-12.957zm45.244.429c-6.537-3.843-14.857-5.803-23.02-5.882-8.161-.079-16.219 1.72-22.224 5.453l.528.85c5.802-3.607 13.659-5.381 21.686-5.303 8.025.078 16.166 2.006 22.523 5.744zm1.979 27.873c6.012-3.737 8.888-8.753 8.514-13.879-.372-5.109-3.96-10.153-10.493-13.994l-.507.862c6.362 3.74 9.662 8.535 10.003 13.204.339 4.652-2.249 9.355-8.045 12.958zm-45.244-.428c6.537 3.843 14.857 5.802 23.02 5.882 8.161.079 16.219-1.72 22.224-5.454l-.528-.849c-5.802 3.607-13.659 5.381-21.686 5.303-8.025-.078-16.166-2.007-22.523-5.744z" fill="#dfe4e8"/><path clip-rule="evenodd" d="m572.168 129.089c-6.196-7.168-4.793-15.946 4.543-21.75 11.807-7.3406 31.832-7.146 44.727.435 10.916 6.417 13.223 16.07 6.512 23.335-1.641-1.897-3.813-3.682-6.512-5.268-12.895-7.581-32.92-7.776-44.727-.435-1.812 1.126-3.326 2.365-4.543 3.683z" fill="#1b127d" fill-rule="evenodd"/><path d="m576.711 107.339.264.425zm-4.543 21.75-.378.326.366.424.38-.411zm49.27-21.315.253-.431zm6.512 23.335-.379.327.366.423.38-.411zm-6.512-5.268.253-.431zm-44.727-.435-.264-.425zm-.264-18.492c-4.752 2.955-7.546 6.705-8.323 10.693-.778 3.994.488 8.132 3.666 11.808l.757-.653c-3.018-3.491-4.15-7.326-3.441-10.964.71-3.644 3.285-7.184 7.869-10.034zm45.244.429c-6.537-3.843-14.856-5.803-23.019-5.882-8.161-.079-16.22 1.72-22.225 5.453l.528.85c5.802-3.607 13.66-5.381 21.687-5.303 8.025.078 16.165 2.006 22.523 5.744zm6.626 24.105c3.458-3.743 4.621-8.146 3.47-12.453-1.147-4.288-4.563-8.4-10.096-11.652l-.506.862c5.383 3.165 8.577 7.089 9.636 11.048 1.053 3.939.014 7.995-3.239 11.517zm.011-.666c-1.681-1.945-3.898-3.763-6.637-5.372l-.506.862c2.659 1.563 4.787 3.314 6.386 5.164zm-6.637-5.372c-6.537-3.844-14.856-5.803-23.019-5.882-8.161-.08-16.22 1.72-22.225 5.453l.528.849c5.802-3.607 13.66-5.38 21.687-5.302 8.025.078 16.165 2.006 22.523 5.744zm-45.244-.429c-1.846 1.147-3.395 2.414-4.646 3.768l.735.679c1.182-1.281 2.66-2.492 4.439-3.598z" fill="#dfe4e8"/><path clip-rule="evenodd" d="m528.627 146.731s-.168 1.368.465 2.532 7.874 10.906 7.874 10.906 4.115 3.604 9.571 2.453c5.456-1.152 5.935-1.446 5.935-1.446v-18.822l-5.935 1.366s-6.28.394-9.229-2.214c-2.949-2.607-8.874-11.93-8.874-11.93z" fill="#1b127d" fill-rule="evenodd" stroke="#dfe4e8"/><path clip-rule="evenodd" d="m560.928 153.556v17.847s-.5 3.773 2.998 4.983c3.499 1.211 20.175 5.428 20.175 5.428s6.36.565 8.798-2.61c.569-.741 1.417-1.705 2.336-3.293 0-9.623 0-18.822 0-18.822l-2.336 3.615s-3.102 2.866-8.798 2.196c-5.697-.669-20.175-5.184-20.175-5.184s-2.998-1.832-2.998-4.16z" fill="#1b127d" fill-rule="evenodd" stroke="#dfe4e8"/><path clip-rule="evenodd" d="m609.824 157.311v18.822s1.07 1.466 2.7 3.616c1.629 2.151 7.294 3.109 9.724 2.63s14.813-3.482 17.839-4.332c3.027-.85 3.932-3.451 3.932-4.112s0-19.324 0-19.324-.711 3.494-3.638 4.346c-2.927.853-15.467 3.638-18.133 4.326-2.666.687-7.658-.688-8.543-1.453s-3.881-4.519-3.881-4.519z" fill="#1b127d" fill-rule="evenodd" stroke="#dfe4e8"/><path clip-rule="evenodd" d="m650.934 143.83v18.821s2.923.906 6.292 1.737c1.887.415 7.593.008 9.345-2.617 1.753-2.625 6.577-10.448 6.577-10.448s.237-.758.237-2.116c0-1.357 0-17.875 0-17.875s.223.62-.539 1.721c-.763 1.1-6.601 9.979-6.601 9.979s-4.492 3.206-8.54 2.31c-4.049-.897-6.771-1.512-6.771-1.512z" fill="#1b127d" fill-rule="evenodd" stroke="#dfe4e8"/><g mask="url(#b)"><g fill="#1b127d"><path d="m419.63 102.789c1.831-1.137 4.769-1.515 7.453-.814l3.925 1.022c1.076-.843 2.223-1.64 3.437-2.394 1.418-.88 2.928-1.6993 4.519-2.4522l-1.737-2.3537c-1.172-1.5922-.609-3.338 1.194-4.4569.602-.3734 1.339-.6747 2.194-.88l12.467-2.9671c3.429-.8161 7.509.2474 9.079 2.3666l1.733 2.3537c3.824-.2173 7.736-.1589 11.665.174l1.467-2.3045c.314-.4959.781-.9268 1.355-1.2827 1.834-1.1385 4.773-1.5179 7.46-.8184l12.831 3.3495c3.537.9185 5.338 3.3695 4.023 5.4431l-1.464 2.3083c3.181 1.5203 6.04 3.2303 8.54 5.0953l3.812-.906c3.421-.82 7.51.248 9.075 2.363l5.685 7.702c1.172 1.589.608 3.337-1.197 4.457-.6.373-1.335.675-2.191.878l-3.815.908c.588 2.319.734 4.678.413 7.03l3.925 1.024c3.532.922 5.338 3.372 4.019 5.447l-4.792 7.545c-.317.495-.781.925-1.356 1.282-1.832 1.136-4.77 1.517-7.461.813l-3.92-1.019c-1.076.842-2.225 1.638-3.44 2.392-1.419.881-2.929 1.702-4.52 2.454l1.74 2.357c1.175 1.59.608 3.338-1.195 4.456-.602.374-1.339.675-2.192.88l-12.467 2.968c-3.429.815-7.51-.247-9.074-2.369l-1.74-2.353c-3.821.215-7.73.162-11.669-.178l-1.463 2.31c-.312.497-.779.928-1.353 1.285-1.832 1.137-4.774 1.517-7.459.815l-12.835-3.35c-3.529-.919-5.34-3.368-4.019-5.446l1.465-2.306c-3.182-1.517-6.043-3.231-8.545-5.095l-3.81.91c-3.426.814-7.51-.25-9.074-2.368l-5.685-7.703c-1.171-1.588-.608-3.336 1.196-4.455.599-.372 1.338-.675 2.193-.879l3.811-.909c-.588-2.316-.733-4.675-.411-7.03l-3.924-1.024c-3.53-.922-5.341-3.37-4.024-5.447l4.801-7.542c.314-.498.779-.929 1.355-1.286z" stroke="#dfe4e8"/><path clip-rule="evenodd" d="m413.044 97.8335v14.7075c0 1.701.478 2.282.928 2.702.449.42 7.832 3.569 7.832 3.569v-8.855s-.755-3.317-.382-6.925c-2.23-.598-3.998-1.103-5.044-1.398-2.927-1.156-3.334-3.8005-3.334-3.8005z" fill-rule="evenodd" stroke="#dfe4e8"/><path clip-rule="evenodd" d="m528.986 99.8743v13.7647c0 1.701-.3 1.184-.749 1.604-.45.42-7.833 3.569-7.833 3.569v-8.855s1.109-1.826.735-5.434c2.231-.598 3.722-.94 4.769-1.234 2.927-1.156 3.078-3.4147 3.078-3.4147z" fill-rule="evenodd" stroke="#dfe4e8"/><path clip-rule="evenodd" d="m436.608 79.0068v8.6492l2.583-1.3383-.227-3.2234-1.737-2.3537s-.404-.4073-.619-1.7338z" fill-rule="evenodd" stroke="#dfe4e8"/><path clip-rule="evenodd" d="m503.138 79.9192v8.6492l-2.46-1.3384.226-3.2233 1.737-2.3538s.282-.4072.497-1.7337z" fill-rule="evenodd" stroke="#dfe4e8"/><path clip-rule="evenodd" d="m427.084 86.9178c-2.684-.7011-5.622-.3223-7.453.814-.576.357-1.041.788-1.355 1.2867l-4.801 7.5414c-1.317 2.0774.494 4.5251 4.024 5.4471l3.924 1.024c-.322 2.355-.177 4.714.411 7.03l-3.811.909c-.855.204-1.594.507-2.193.879-1.804 1.119-2.367 2.867-1.196 4.456l5.685 7.702c1.564 2.118 5.648 3.182 9.074 2.368l3.809-.91c2.503 1.864 5.364 3.578 8.546 5.095l-1.465 2.306c-1.321 2.078.49 4.527 4.019 5.446l12.835 3.35c2.685.702 5.627.322 7.459-.815.574-.357 1.041-.788 1.353-1.285l1.463-2.31c3.939.34 7.848.393 11.669.178l1.74 2.353c1.564 2.122 5.645 3.184 9.074 2.369l12.467-2.968c.853-.205 1.59-.506 2.192-.879 1.803-1.119 2.37-2.867 1.195-4.457l-1.74-2.357c1.591-.752 3.101-1.573 4.52-2.453 1.215-.755 2.364-1.551 3.44-2.393l3.92 1.02c2.69.703 5.629.322 7.461-.814.575-.357 1.039-.787 1.356-1.282l4.791-7.545c1.32-2.075-.486-4.524-4.018-5.447l-3.925-1.024c.321-2.352.175-4.711-.413-7.03l3.814-.908c.857-.203 1.592-.505 2.192-.877 1.805-1.121 2.369-2.8691 1.197-4.4579l-5.685-7.7017c-1.565-2.1153-5.655-3.1833-9.075-2.3632l-3.812.9062c-2.5-1.865-5.359-3.5756-8.54-5.0956l1.464-2.3083c1.315-2.0736-.486-4.5245-4.023-5.4431l-12.831-3.3495c-2.687-.6995-5.626-.3201-7.46.8184-.574.3559-1.041.7869-1.355 1.2828l-1.467 2.3044c-3.929-.3329-7.841-.3913-11.665-.174l-1.733-2.3537c-1.57-2.1192-5.65-3.1827-9.079-2.3665l-12.467 2.967c-.855.2053-1.592.5067-2.194.88-1.803 1.1189-2.366 2.8648-1.194 4.4569l1.737 2.3538c-1.591.7528-3.101 1.5721-4.519 2.4525-1.214.7532-2.361 1.5506-3.437 2.394zm27.084 32.1492c-10.315-6.064-11.021-15.741-1.575-21.6131 9.445-5.8722 25.465-5.7164 35.78.348 10.315 6.0641 11.02 15.7411 1.575 21.6131s-25.465 5.717-35.78-.348z" fill-rule="evenodd"/></g><path d="m419.631 87.7318-.264-.4248zm7.453-.814-.126.4837v.0001zm-8.808 2.1007.421.2685.002-.002zm-4.801 7.5414-.422-.2685v.0007zm4.024 5.4471-.127.484zm3.924 1.024.495.068.061-.44-.43-.112zm.411 7.03.116.487.493-.118-.125-.492zm-3.811.909.116.487zm-2.193.879-.264-.425zm-1.196 4.456-.403.296zm5.685 7.702-.402.297zm9.074 2.368.116.486h.001zm3.809-.91.299-.401-.187-.14-.228.055zm8.546 5.095.422.269.303-.477-.509-.243zm-1.465 2.306-.422-.268zm4.019 5.446.126-.483zm12.835 3.35.127-.484h-.001zm7.459-.815-.264-.425zm1.353-1.285-.422-.267-.001.001zm1.463-2.31.043-.498-.303-.026-.163.256zm11.669.178.402-.298-.16-.217-.27.016zm1.74 2.353.403-.297h-.001zm9.074 2.369.115.486zm12.467-2.968.116.487.001-.001zm2.192-.879-.264-.425zm1.195-4.457-.403.297.001.001zm-1.74-2.357-.214-.453-.55.26.361.49zm4.52-2.453-.264-.425zm3.44-2.393.126-.484-.24-.062-.195.152zm3.92 1.02.127-.484h-.001zm7.461-.814-.264-.425zm1.356-1.282.421.27.001-.001zm4.791-7.545-.421-.268h-.001zm-4.018-5.447.126-.484zm-3.925-1.024-.495-.067-.06.439.429.112zm-.413-7.03-.116-.487-.494.118.125.492zm3.814-.908-.115-.487zm2.192-.877.263.424zm1.197-4.4579.402-.2969zm-5.685-7.7017.403-.2969-.001-.0005zm-9.075-2.3632.116.4864.001-.0002zm-3.812.9062-.299.4008.188.1397.227-.054zm-8.54-5.0956-.422-.2678-.302.4759.508.2431zm1.464-2.3083.423.2678zm-4.023-5.4431-.126.4838.001.0002zm-12.831-3.3495.127-.4838-.001-.0001zm-7.46.8184-.264-.4249zm-1.355 1.2828.422.2685.001-.0014zm-1.467 2.3044-.042.4982.301.0256.163-.2552zm-11.665-.174-.402.2965.16.2181.271-.0154zm-1.733-2.3537.402-.2965v-.0011zm-9.079-2.3665.116.4864zm-12.467 2.967-.116-.4864-.001.0002zm-2.194.88-.263-.4248zm-1.194 4.4569-.402.2965v.0004zm1.737 2.3538.214.4519.549-.2599-.361-.4889zm-4.519 2.4525.263.4248zm-3.437 2.394-.126.4839.239.0624.195-.1527zm21.584 9.5134.264.4246zm1.575 21.6131-.253.431zm35.78.348.264.425zm-70.054-31.2584c1.694-1.0509 4.486-1.4283 7.064-.7551l.253-.9675c-2.791-.7289-5.875-.3487-7.844.873zm-1.195 1.1284c.265-.4204.669-.8015 1.195-1.1284l-.527-.8496c-.624.3872-1.151.868-1.514 1.4449zm-4.802 7.5434 4.8-7.5414-.843-.537-4.801 7.5414zm3.728 4.6956c-1.691-.442-2.912-1.236-3.554-2.1044-.625-.8463-.706-1.753-.174-2.5919l-.844-.5356c-.785 1.2384-.619 2.5943.214 3.7219.817 1.105 2.266 1.997 4.105 2.477zm3.924 1.023-3.924-1.023-.253.967 3.925 1.024zm.769 7.391c-.572-2.256-.713-4.55-.4-6.839l-.99-.136c-.332 2.421-.182 4.844.421 7.221zm-4.179 1.519 3.811-.909-.232-.973-3.811.909zm-2.046.817c.547-.34 1.235-.624 2.046-.817l-.232-.973c-.899.214-1.69.536-2.341.94zm-1.057 3.734c-.504-.685-.611-1.361-.439-1.971.177-.624.669-1.25 1.496-1.763l-.527-.85c-.976.606-1.668 1.414-1.931 2.34-.266.941-.07 1.933.596 2.837zm5.685 7.702-5.685-7.702-.805.593 5.686 7.703zm8.557 2.179c-1.627.386-3.421.328-4.994-.082-1.582-.413-2.873-1.164-3.563-2.097l-.804.594c.875 1.184 2.408 2.025 4.115 2.47 1.717.448 3.678.515 5.477.087zm3.808-.91-3.809.91.233.972 3.809-.91zm8.878 5.13c-3.156-1.505-5.989-3.202-8.463-5.045l-.597.802c2.53 1.885 5.42 3.615 8.629 5.146zm-1.259 3.025 1.465-2.305-.844-.537-1.465 2.306zm3.723 4.695c-1.69-.441-2.911-1.234-3.552-2.102-.625-.846-.705-1.753-.171-2.593l-.844-.536c-.788 1.239-.622 2.595.211 3.723.816 1.105 2.265 1.996 4.104 2.475zm12.835 3.349-12.835-3.349-.252.967 12.835 3.35zm7.069-.756c-1.694 1.052-4.491 1.43-7.068.756l-.254.968c2.792.73 5.88.348 7.85-.874zm1.194-1.126c-.263.418-.668.8-1.194 1.126l.528.85c.622-.387 1.151-.868 1.512-1.443zm1.463-2.312-1.462 2.311.845.535 1.462-2.311zm12.064-.053c-3.797.214-7.682.161-11.598-.177l-.086.996c3.963.342 7.896.396 11.74.179zm2.17 2.555-1.74-2.354-.804.595 1.74 2.353zm8.556 2.179c-1.629.387-3.423.33-4.994-.08-1.582-.413-2.872-1.163-3.561-2.099l-.805.594c.874 1.186 2.406 2.027 4.113 2.472 1.717.448 3.678.514 5.478.086zm12.468-2.967-12.468 2.967.231.973 12.468-2.967zm2.043-.818c-.55.341-1.235.624-2.044.818l.233.972c.897-.215 1.685-.535 2.338-.941zm1.057-3.734c.506.685.613 1.361.44 1.97-.177.625-.67 1.25-1.497 1.764l.527.849c.976-.605 1.669-1.413 1.932-2.34.267-.941.07-1.934-.598-2.838zm-1.741-2.358 1.74 2.357.805-.594-1.74-2.357zm4.659-3.175c-1.402.87-2.895 1.682-4.47 2.425l.427.905c1.609-.759 3.135-1.59 4.57-2.481zm3.395-2.362c-1.059.83-2.193 1.616-3.395 2.362l.527.849c1.23-.763 2.394-1.569 3.485-2.423zm4.355.93-3.92-1.02-.252.968 3.92 1.02zm7.071-.755c-1.694 1.051-4.487 1.43-7.07.755l-.253.967c2.797.732 5.881.35 7.851-.873zm1.198-1.126c-.267.418-.672.8-1.198 1.126l.528.849c.623-.386 1.148-.866 1.513-1.436zm4.791-7.544-4.791 7.545.844.537 4.792-7.546zm-3.722-4.695c1.691.442 2.911 1.236 3.552 2.104.624.846.703 1.753.171 2.591l.843.536c.787-1.237.623-2.593-.209-3.72-.816-1.106-2.265-1.998-4.105-2.479zm-3.925-1.024 3.925 1.024.252-.968-3.925-1.023zm-.772-7.391c.573 2.259.715 4.553.403 6.84l.991.135c.329-2.418.179-4.842-.425-7.221zm4.184-1.518-3.815.908.232.973 3.814-.908zm2.043-.815c-.548.34-1.231.623-2.043.815l.231.973c.902-.213 1.688-.534 2.339-.939zm1.058-3.736c.506.6848.613 1.3612.44 1.971-.178.625-.67 1.251-1.498 1.765l.527.849c.977-.606 1.67-1.414 1.933-2.341.267-.9415.07-1.9338-.597-2.8378zm-5.684-7.7017 5.684 7.7017.805-.5938-5.684-7.7017zm-8.556-2.1739c1.623-.3893 3.417-.3315 4.99.0784 1.584.4127 2.876 1.1635 3.566 2.096l.804-.5948c-.875-1.1828-2.409-2.0237-4.117-2.4688-1.719-.4478-3.68-.514-5.476-.0832zm-3.813.9065 3.812-.9063-.231-.9729-3.812.9063zm-8.872-5.1309c3.155 1.5074 5.986 3.2017 8.457 5.0452l.598-.8016c-2.529-1.8864-5.416-3.6134-8.623-5.1459zm1.258-3.0274-1.464 2.3084.844.5357 1.465-2.3084zm-3.726-4.6912c1.693.4399 2.913 1.233 3.554 2.1013.624.846.703 1.7527.172 2.59l.845.5356c.784-1.2362.619-2.5918-.213-3.7193-.815-1.1053-2.264-1.9969-4.107-2.4755zm-12.832-3.3497 12.831 3.3495.253-.9676-12.831-3.3495zm-7.071.7594c1.698-1.0532 4.491-1.4311 7.071-.7593l.252-.9678c-2.793-.7271-5.878-.3463-7.85.8774zm-1.195 1.1251c.264-.4176.67-.7989 1.195-1.1251l-.527-.8497c-.621.3858-1.15.8663-1.513 1.4405zm-1.468 2.3059 1.467-2.3045-.843-.5371-1.468 2.3044zm-12.058.0566c3.799-.2159 7.687-.1579 11.594.173l.084-.9964c-3.952-.3348-7.887-.3937-11.735-.175zm-2.165-2.5564 1.734 2.3537.805-.593-1.734-2.3537zm-8.56-2.1766c1.628-.3876 3.422-.3299 4.994.0799 1.583.4124 2.875 1.163 3.567 2.0978l.804-.5952c-.878-1.1844-2.411-2.0252-4.118-2.4703-1.718-.4477-3.678-.5136-5.479-.0851zm-12.467 2.967 12.467-2.967-.232-.9729-12.467 2.9671zm-2.046.8184c.549-.3409 1.235-.6238 2.047-.8186l-.234-.9724c-.899.2157-1.687.5356-2.34.9414zm-1.055 3.7356c-.506-.6869-.613-1.3637-.441-1.9731.177-.6241.669-1.2492 1.496-1.7625l-.527-.8496c-.976.6057-1.668 1.4129-1.931 2.3395-.266.9413-.069 1.9335.598 2.8387zm1.736 2.3534-1.737-2.3538-.804.5938 1.737 2.3537zm-4.658 3.1742c1.402-.8698 2.895-1.6802 4.47-2.4254l-.428-.9039c-1.607.7605-3.133 1.5888-4.569 2.4796zm-3.392 2.3628c1.061-.8314 2.193-1.6185 3.392-2.3628l-.527-.8497c-1.228.7622-2.39 1.57-3.482 2.4254zm-4.359-.9325 3.925 1.0228.252-.9677-3.925-1.0228zm25.371 9.6277c-4.831 3.0027-7.16 7.0467-6.858 11.1957.301 4.131 3.201 8.191 8.444 11.273l.506-.862c-5.072-2.982-7.683-6.792-7.952-10.484-.268-3.674 1.773-7.404 6.388-10.2735zm36.297.3416c-5.247-3.085-11.92-4.6556-18.464-4.7192-6.542-.0636-13.009 1.3783-17.833 4.3776l.528.8492c4.621-2.8729 10.887-4.2892 17.295-4.2269 6.406.0623 12.9 1.6019 17.968 4.5814zm1.586 22.4691c4.831-3.003 7.16-7.047 6.857-11.196-.301-4.131-3.2-8.191-8.443-11.2731l-.506.8621c5.072 2.982 7.683 6.792 7.952 10.484.268 3.674-1.773 7.405-6.388 10.274zm-36.297-.342c5.247 3.085 11.92 4.656 18.464 4.719 6.542.064 13.009-1.378 17.833-4.377l-.528-.849c-4.621 2.872-10.887 4.289-17.295 4.226-6.406-.062-12.9-1.601-17.968-4.581z" fill="#dfe4e8"/><path clip-rule="evenodd" d="m448.957 114.853c-4.957-5.734-3.835-12.755 3.634-17.3986 9.445-5.8722 25.465-5.7164 35.78.348 8.732 5.1336 10.577 12.8556 5.209 18.6676-1.312-1.518-3.05-2.946-5.209-4.215-10.315-6.064-26.335-6.22-35.78-.348-1.45.901-2.661 1.892-3.634 2.946z" fill="#1b127d" fill-rule="evenodd"/><path d="m452.591 97.4544.264.4246zm-3.634 17.3986-.378.327.365.423.38-.411zm39.414-17.0506.253-.431zm5.209 18.6676-.378.327.365.423.38-.411zm-5.209-4.215.253-.431zm-35.78-.348.264.425zm-.264-14.8772c-3.818 2.3736-6.076 5.3952-6.704 8.6192-.629 3.231.397 6.571 2.956 9.531l.756-.654c-2.398-2.774-3.29-5.811-2.73-8.686.561-2.881 2.599-5.691 6.25-7.961zm36.297.3416c-5.247-3.085-11.92-4.6556-18.464-4.7192-6.542-.0637-13.009 1.3782-17.833 4.3776l.528.8492c4.621-2.8729 10.887-4.2892 17.295-4.2269 6.406.0623 12.9 1.6019 17.967 4.5813zm5.323 19.4376c2.787-3.017 3.73-6.574 2.799-10.056-.926-3.464-3.681-6.7711-8.122-9.3816l-.507.862c4.292 2.5226 6.825 5.6436 7.663 8.7776.833 3.114.014 6.325-2.567 9.119zm.011-.666c-1.353-1.566-3.135-3.027-5.334-4.319l-.507.862c2.12 1.246 3.814 2.64 5.085 4.111zm-5.334-4.319c-5.247-3.085-11.92-4.655-18.464-4.719-6.542-.064-13.009 1.378-17.833 4.377l.528.85c4.621-2.873 10.887-4.29 17.295-4.227 6.406.062 12.9 1.602 17.967 4.581zm-36.297-.342c-1.483.922-2.73 1.941-3.737 3.032l.734.678c.94-1.016 2.114-1.98 3.531-2.86z" fill="#dfe4e8"/><path clip-rule="evenodd" d="m414.126 128.966s-.134 1.095.372 2.026c.507.931 6.299 8.724 6.299 8.724s3.292 2.883 7.657 1.962c4.364-.921 4.747-1.156 4.747-1.156v-15.057l-4.747 1.093s-5.024.315-7.383-1.771-7.099-9.544-7.099-9.544z" fill="#1b127d" fill-rule="evenodd" stroke="#dfe4e8"/><path clip-rule="evenodd" d="m439.965 134.426v14.277s-.4 3.018 2.399 3.987c2.799.968 16.138 4.342 16.138 4.342s5.089.451 7.039-2.088c.455-.593 1.134-1.364 1.869-2.635 0-7.698 0-15.057 0-15.057l-1.869 2.892s-2.482 2.293-7.039 1.757c-4.556-.535-16.138-4.147-16.138-4.147s-2.399-1.465-2.399-3.328z" fill="#1b127d" fill-rule="evenodd" stroke="#dfe4e8"/><path clip-rule="evenodd" d="m479.08 137.43v15.056s.856 1.173 2.16 2.894c1.303 1.72 5.835 2.486 7.779 2.103 1.943-.383 11.849-2.786 14.27-3.465 2.422-.68 3.146-2.761 3.146-3.29s0-15.458 0-15.458-.569 2.795-2.91 3.477c-2.342.682-12.374 2.91-14.506 3.46-2.133.55-6.127-.55-6.835-1.162-.707-.612-3.104-3.615-3.104-3.615z" fill="#1b127d" fill-rule="evenodd" stroke="#dfe4e8"/><path clip-rule="evenodd" d="m511.967 126.645v15.057s2.339.724 5.034 1.389c1.509.332 6.073.006 7.476-2.093 1.402-2.1 5.26-8.358 5.26-8.358s.191-.607.191-1.693c0-1.085 0-14.3 0-14.3s.178.497-.432 1.377c-.611.88-5.28 7.983-5.28 7.983s-3.594 2.565-6.833 1.848c-3.238-.717-5.416-1.21-5.416-1.21z" fill="#1b127d" fill-rule="evenodd" stroke="#dfe4e8"/><path d="m449.407 115.717v-7.189l43.132.435v8.868c-2.114 1.692-5.297 5.996-19.029 6.343-13.731.347-22.196-5.128-24.103-8.457z" fill="#1b127d"/><path d="m449.407 108.528.01-1-1.01-.01v1.01zm0 7.189h-1v.266l.133.231zm24.103 8.457-.025-1zm19.029-6.343.625.781.375-.3v-.481zm0-8.868h1v-.99l-.99-.01zm-44.132-.435v7.189h2v-7.189zm.133 7.686c1.107 1.934 3.927 4.248 8.091 6.029 4.208 1.801 9.901 3.108 16.905 2.931l-.051-2c-6.728.171-12.133-1.087-16.067-2.769-3.978-1.702-6.344-3.79-7.143-5.185zm24.996 8.96c6.967-.177 11.342-1.359 14.278-2.766 2.914-1.396 4.41-3.044 5.35-3.796l-1.249-1.562c-1.175.939-2.327 2.29-4.966 3.555-2.617 1.254-6.699 2.398-13.464 2.569zm20.003-7.343v-8.868h-2v8.868zm-.99-9.868-43.132-.435-.02 2 43.132.435z" fill="#dfe4e8" mask="url(#c)"/><ellipse cx="470.972" cy="108.528" fill="#ed26b7" rx="21.2294" ry="12.4879" stroke="#dfe4e8" transform="matrix(.99955733 .02975138 -.02975138 .99955733 3.437343 -13.964024)"/></g><path d="m949.111 347.888 218.929-242.96" stroke="#dfe4e8" stroke-dasharray="2.67 5.34"/><path d="m1038.74 19.965-124.395-74.9438c-2.472-1.4895-8.079 2.3636-7.822 4.272 0 55.6283.772 169.5118.772 173.8388 0 4.326 1.546 6.438 2.318 6.953 39.404 23.179 126.707 76.489 126.707 76.489s5.41-1.545 7.82-6.59v-172.2929c0-4.9447-3.6-7.2111-5.4-7.7261z" fill="#bfc9d1"/><path d="m1032.55 23.0528-124.388-74.9437c-2.472-1.4896-2.575 1.9547-2.318 3.863v172.2929c0 4.327 1.546 6.439 2.318 6.954 39.404 23.178 119.448 70.463 124.388 74.171 4.95 3.709 5.67 0 5.41-2.318v-172.2931c0-4.9447-3.6-7.211-5.41-7.7261z" fill="#1b127d"/><path d="m908.162-51.8909-.516.8565zm124.388 74.9437-.51.8565.11.0685.13.0365zm5.41 180.0192h-1v.056l.01.055zm-5.41 2.318-.6.8zm-124.388-74.171-.555.832.024.016.024.014zm-2.318-179.2469h1v-.0671l-.009-.0666zm1.802-3.0065 124.394 74.9437 1.03-1.7131-124.392-74.9437zm124.634 75.0487c1.52.435 4.68 2.4042 4.68 6.7646h2c0-5.529-4.05-8.0924-6.13-8.6876zm4.68 6.7646v172.2931h2v-172.2931zm.01 172.4041c.05.509.05 1.076-.03 1.577-.1.518-.26.848-.43 1.018-.12.118-.33.244-.81.156-.54-.097-1.37-.458-2.55-1.344l-1.2 1.6c1.29.968 2.41 1.535 3.39 1.712 1.04.188 1.92-.063 2.57-.698.59-.584.87-1.383 1-2.096.12-.731.12-1.496.05-2.146zm-3.82 1.407c-1.29-.966-7.28-4.654-16.06-9.951-8.82-5.318-20.522-12.302-33.3-19.893-25.555-15.183-55.418-32.799-75.121-44.389l-1.014 1.724c19.701 11.589 49.561 29.204 75.114 44.384 12.776 7.591 24.471 14.572 33.291 19.887 8.84 5.337 14.71 8.95 15.89 9.838zm-124.433-74.203c-.393-.262-1.873-1.984-1.873-6.122h-2c0 4.517 1.611 7.017 2.763 7.786zm-1.873-6.122v-172.2929h-2v172.2929zm-.009-172.4266c-.123-.9157-.135-2.067.094-2.7575.115-.3467.216-.3578.167-.3383-.069.0281.052-.0772.55.223l1.032-1.7131c-.738-.4446-1.557-.6779-2.333-.3633-.755.306-1.127.996-1.315 1.5627-.376 1.1363-.311 2.6613-.177 3.654z" fill="#dfe4e8" mask="url(#d)"/><path d="m1030.14 24.5953-119.758-72.2168c-2.472-1.4896-2.318-1.5453-2.318 3.863v13.5434l127.476 76.08v-13.5434c0-4.9447-1.54-5.772-5.4-7.7262z" fill="#1b127d"/><path d="m915.794 26.5532 76.489 47.1296m5.408 2.3178 30.909 18.5428" stroke="#dfe4e8" stroke-linecap="round"/><path d="m915.794 41.2332 44.812 27.8141m5.408 3.0905 20.861 13.1344" stroke="#dfe4e8" stroke-linecap="round"/><path d="m915.02 55.9114 16.224 9.2714m-16.224 5.4083 16.224 9.2714m-16.224 6.1809 45.584 27.8146m-45.584-12.362 16.224 10.044m6.181 3.863 16.225 10.044m-37.858-8.499 44.812 27.814" stroke="#dfe4e8" stroke-linecap="round"/><path d="m966.785 148.625 20.861 13.134" stroke="#dfe4e8" stroke-linecap="round"/><ellipse cx="1010.05" cy="21.146" fill="#1b127d" rx="2.31785" ry="3.86308"/><ellipse cx="1019.32" cy="27.3243" fill="#1b127d" rx="2.31785" ry="3.86308"/><ellipse cx="1028.59" cy="31.959" fill="#1b127d" rx="2.31785" ry="3.86308"/><path clip-rule="evenodd" d="m929.114-1.21635c.657.18408 1.041.866271.857 1.523711l-5.408 19.315439c-.185.6574-.867 1.0411-1.524.857-.658-.184-1.041-.8662-.857-1.5237l5.408-19.315364c.184-.657436.866-1.041176 1.524-.857086zm-8.833.2251c.533.426496.62 1.204418.193 1.737538l-2.656 3.320902 2.853 7.84621c.233.6417-.098 1.3509-.74 1.5843-.641.2333-1.35-.0977-1.584-.7393l-3.327-9.15134 3.524-4.40525c.426-.53312 1.204-.61956 1.737-.19306zm11.851 8.33869c.621-.28251 1.354-.00769 1.637.61384l4.284 9.42492-6.236 4.4544c-.556.3968-1.328.2681-1.725-.2874-.396-.5556-.268-1.3276.288-1.7245l4.58-3.2717-3.442-7.57264c-.282-.62153-.008-1.35441.614-1.63692z" fill="#dfe4e8" fill-rule="evenodd"/><ellipse cx="945.778" cy="28.56" fill="#dfe4e8" rx="1.54523" ry="2.31785"/><ellipse cx="950.413" cy="31.6511" fill="#dfe4e8" rx="1.54523" ry="2.31785"/><ellipse cx="955.05" cy="34.7424" fill="#dfe4e8" rx="1.54523" ry="2.31785"/></g></g></svg>