<?xml version="1.0" encoding="UTF-8"?>
<svg width="60px" height="64px" viewBox="0 0 60 64" version="1.1" xmlns="http://www.w3.org/2000/svg" xmlns:xlink="http://www.w3.org/1999/xlink">
    <title>Icon Docs &amp; APIs 2</title>
    <g id="Developers-section" stroke="none" stroke-width="1" fill="none" fill-rule="evenodd">
        <g id="Docs-&amp;-APIs" transform="translate(-692.000000, -195.000000)" fill="#FFFFFF" fill-rule="nonzero">
            <g id="main-banner" transform="translate(0.000000, 119.000000)">
                <g id="Icon-Docs-&amp;-APIs-2" transform="translate(692.000000, 76.075000)">
                    <path d="M52.5,0 L52.5,20.925 C52.5,20.925 52.5,21.675 51.75,21.675 C51,21.675 51,20.925 51,20.925 L51,20.925 L50.925,10.5 L50.925,10.5 L6.225,10.5 C4.875,10.5 3.675,10.425 2.475,9.75 C2.1,9.525 1.8,9.225 1.5,8.925 C1.5,8.9265 1.4999925,8.93271 1.49997765,8.94353617 L1.4992224,9.4404138 C1.4991378,9.4950561 1.4990466,9.55384545 1.49894895,9.61668802 L1.49828685,10.0416316 C1.498164,10.1203117 1.498035,10.2028575 1.4979,10.289175 L1.4970192,10.8515904 C1.4913168,14.4886416 1.4782272,22.7706864 1.4647488,31.3202256 L1.4625,32.746875 C1.462125,32.9848125 1.46175,33.2227687 1.46137515,33.4606499 L1.45912905,34.8862855 C1.4460513,43.1884806 1.4335248,51.1688376 1.4279808,54.8046096 L1.4271,55.384575 C1.426965,55.4738925 1.426836,55.5594758 1.42671315,55.6412309 L1.42605105,56.0850745 C1.4259534,56.151142 1.4258622,56.2131939 1.4257776,56.2711362 L1.42502235,56.8203263 L1.42502235,56.8203263 L1.425,56.85 C1.425,59.925 3.225,61.5 6.75,61.5 L6.75,61.5 L51,61.5 L51,60.15 C51,60.15 51.075,59.55 51.75,59.55 C52.425,59.55 52.5,60.15 52.5,60.15 L52.5,60.15 L52.5,63 L52.5,63 L6.75,63 C2.4,63 -3.55271368e-13,60.75 -3.55271368e-13,57.225 L-3.55271368e-13,57.225 L-3.55271368e-13,5.25 C-3.55271368e-13,2.25 2.475,0 5.4,0 L5.4,0 L52.5,0 Z M39.2136,23.9250603 C40.212,23.9228612 41.1622118,24.4903609 41.6227043,25.4388612 L41.7032,25.6211238 L41.9304,26.1915238 C42.2608,26.1699238 42.592,26.1387238 42.9208,26.1387238 C43.1976,26.1387238 43.4719111,26.1579238 43.7451556,26.1813905 L44.1544,26.2179238 L44.3952,25.6483238 C44.8312,24.6099238 45.8248,23.9923238 46.8672,23.9923238 C47.14688,23.9923238 47.430144,24.0363558 47.7059328,24.1289254 L47.9112,24.2075238 L51.4112,25.7131238 C52.4328,26.1555238 53.0456,27.1627238 53.0456,28.2203238 C53.0456,28.5000038 53.00208,28.7863398 52.910944,29.0649958 L52.8336,29.2723238 L52.8336,29.2747238 L52.5944,29.8435238 C53.04048,30.2371238 53.462496,30.6588838 53.8600384,31.107575 L54.1536,31.4491238 L54.72,31.2195238 C55.044,31.0859238 55.3856,31.0227238 55.72,31.0227238 C56.7176471,31.0227238 57.6678145,31.5889355 58.1283045,32.5379436 L58.2088,32.7203238 L59.6328,36.2923238 C59.764,36.6235238 59.825603,36.9667238 59.825603,37.3075238 C59.8271061,38.315712 59.2694865,39.2764207 58.3348234,39.744784 L58.1552,39.8267238 L57.5896,40.0571238 C57.612,40.3939238 57.644,40.7323238 57.644,41.0683238 C57.644,41.3467238 57.6255111,41.623346 57.6027556,41.8993756 L57.5672,42.3131238 L58.1312,42.5563238 C59.1496,42.9955238 59.7608,44.0019238 59.7608,45.0611238 C59.7608,45.3408038 59.718304,45.6261158 59.6279872,45.9047718 L59.5512,46.1123238 L59.5512,46.1147238 L58.0648,49.6611238 C57.628,50.6939238 56.6328,51.3147238 55.5872,51.3147238 C55.30944,51.3147238 55.02656,51.2696678 54.750848,51.1775078 L54.5456,51.0995238 L53.9848,50.8571238 C53.59568,51.3089638 53.178912,51.7367398 52.7357248,52.1404518 L52.3984,52.4387238 L52.6232,53.0123238 C52.7568,53.3427238 52.82,53.6883238 52.82,54.0275238 C52.82,55.0379708 52.2587488,55.9988124 51.3236636,56.4638486 L51.144,56.5451238 L47.616,57.9891238 C47.2904,58.1219238 46.9512,58.1859238 46.6184,58.1859238 C45.62,58.1859238 44.6697882,57.6175861 44.2099626,56.6703287 L44.1296,56.4883238 L43.9,55.9171238 C43.572,55.9387238 43.244,55.9691238 42.916,55.9691238 C42.6386667,55.9691238 42.3634667,55.9495682 42.0885037,55.9261016 L41.676,55.8899238 L41.4368,56.4635238 C40.9968,57.4979238 40.004,58.1171238 38.96,58.1171238 C38.68224,58.1171238 38.398848,58.0720678 38.12416,57.9799078 L37.92,57.9019238 L34.42,56.3971238 C33.3976,55.9547238 32.7848,54.9483238 32.7848,53.8947238 C32.7848,53.6092838 32.83088,53.3212838 32.9234496,53.041783 L33.0016,52.8339238 L33.0016,52.8363238 L33.2376,52.2683238 C32.79152,51.8734438 32.368992,51.4519398 31.9704256,51.0009446 L31.676,50.6571238 L31.1096,50.8907238 C30.784,51.0243238 30.4416,51.0875238 30.1096,51.0875238 C29.1104471,51.0875238 28.1608997,50.5198947 27.7011548,49.5707199 L27.6208,49.3883238 L27.6232,49.3907238 L26.1968,45.8179238 C26.0632,45.4875238 26,45.1403238 26,44.8035238 C26,43.7923238 26.5619599,42.8300207 27.5004633,42.3621472 L27.6808,42.2803238 L28.2424,42.0507238 C28.2208,41.7171238 28.188,41.3811238 28.188,41.0483238 C28.188,40.7688571 28.2075556,40.4911682 28.2310222,40.2138349 L28.2672,39.7979238 L27.7032,39.5571238 C26.6792,39.1139238 26.0688,38.1059238 26.0688,37.0507238 C26.0688,36.7678438 26.113856,36.4808678 26.2051968,36.2024934 L26.2824,35.9955238 L27.7704,32.4483238 C28.2008,31.4131238 29.1992,30.7947238 30.2408,30.7963238 C30.5192,30.7963238 30.80272,30.8408678 31.0786624,30.932823 L31.284,31.0107238 L31.8448,31.2515238 C32.23392,30.8009638 32.650688,30.3739558 33.0955136,29.9700902 L33.4344,29.6715238 L33.2048,29.1011238 C33.0712,28.7683238 33.0096,28.4227238 33.0096,28.0867238 C33.0096,27.0755238 33.5701426,26.112512 34.5058114,25.6452221 L34.6856,25.5635238 L38.216,24.1219238 C38.5376,23.9883238 38.8792,23.9227238 39.2136,23.9250603 Z M39.2128,25.5027238 C39.1194667,25.5027238 39.0264889,25.5151682 38.9352889,25.539583 L38.8,25.5851238 L38.7968,25.5875238 L35.2688,27.0291238 C34.8336,27.2043238 34.5664,27.6363238 34.5664,28.0891238 C34.5664,28.1835238 34.5774222,28.2768571 34.6016,28.3700719 L34.648,28.5099238 L35.0832,29.6011238 C35.2144,29.9267238 35.1136,30.3027238 34.84,30.5195238 C34.0208,31.1627238 33.296,31.8923238 32.6528,32.6939238 C32.4572444,32.9371238 32.1441185,33.0387337 31.852203,32.9611084 L31.744,32.9235238 L30.6752,32.4643238 C30.5304,32.4035238 30.3864,32.3747238 30.24,32.3747238 C29.84256,32.3747238 29.463264,32.5872678 29.2642416,32.9406222 L29.2048,33.0635238 L29.204,33.0659238 L27.7152,36.6123238 C27.6544,36.7595238 27.6264,36.9075238 27.6264,37.0531238 C27.6264,37.4534438 27.835056,37.8388598 28.1876328,38.0443262 L28.3104,38.1059238 L29.3816,38.5651238 C29.7016,38.7019238 29.8944,39.0395238 29.8504,39.3899238 C29.7824,39.9363238 29.748,40.4923238 29.748,41.0499238 C29.748,41.5291238 29.772,42.0091238 29.8232,42.4875238 C29.8566222,42.7982793 29.7048395,43.0989213 29.4437037,43.2540401 L29.3408,43.3051238 L28.2616,43.7451238 C27.8264,43.9219238 27.5584,44.3523238 27.5568,44.8019238 C27.5568,44.8963238 27.5688889,44.9900127 27.5925926,45.0822793 L27.6368,45.2195238 L27.6392,45.2235238 L29.0656,48.7987238 C29.236,49.2363238 29.6624,49.5075238 30.1088,49.5099238 C30.2010667,49.5088571 30.2929778,49.4974793 30.3854815,49.473183 L30.5248,49.4267238 L31.6048,48.9851238 C31.928,48.8515238 32.2992,48.9539238 32.512,49.2323238 C33.1464,50.0635238 33.8664,50.8011238 34.6584,51.4419238 C34.8994667,51.6381905 34.9983111,51.9589806 34.9240307,52.2553998 L34.888,52.3651238 L34.4352,53.4491238 C34.3728,53.6011238 34.3448,53.7467238 34.3448,53.8939238 C34.34552,54.2935238 34.552952,54.6769238 34.9070264,54.8825774 L35.0304,54.9443238 L38.5304,56.4491238 C38.6728,56.5107238 38.816,56.5387238 38.9608,56.5387238 C39.35464,56.5387238 39.737464,56.3261798 39.94306,55.9681598 L40.0048,55.8435238 L40.0024,55.8451238 L40.4568,54.7611238 C40.5928,54.4363238 40.9256,54.2419238 41.2712,54.2859238 C41.8152,54.3563238 42.3648,54.3907238 42.9168,54.3907238 C43.3872,54.3907238 43.8584,54.3667238 44.332,54.3139238 C44.6399111,54.2812127 44.933284,54.4349707 45.0856988,54.6982223 L45.136,54.8019238 L45.5728,55.8931238 C45.7464,56.3331238 46.1752,56.6067238 46.6208,56.6067238 C46.712,56.6067238 46.8042667,56.5949905 46.8968889,56.5703386 L47.036,56.5235238 L50.564,55.0795238 C50.9992,54.9051238 51.2632,54.4763238 51.2648,54.0259238 C51.2648,53.9325905 51.2530667,53.8374793 51.2284148,53.7422497 L51.1816,53.5995238 L50.7488,52.5083238 C50.6192,52.1803238 50.7176,51.8083238 50.9952,51.5915238 C51.812,50.9459238 52.544,50.2155238 53.1736,49.4195238 C53.3677333,49.1741905 53.6851259,49.0710793 53.978569,49.1478354 L54.0872,49.1851238 L55.1584,49.6467238 C55.3,49.7059238 55.4448,49.7339238 55.5904,49.7339238 C55.98856,49.7339238 56.369872,49.5213798 56.5733728,49.1662758 L56.6344,49.0427238 L58.12,45.4971238 C58.1776,45.3563238 58.2064,45.2083238 58.2064,45.0595238 C58.2064,44.6599238 57.995152,44.2713398 57.6449728,44.0681486 L57.5232,44.0075238 L57.52,44.0051238 L56.4536,43.5435238 C56.132,43.4059238 55.9416,43.0699238 55.9856,42.7195238 C56.0552,42.1747238 56.088,41.6235238 56.088,41.0683238 C56.088,40.5883238 56.0616,40.1051238 56.0104,39.6219238 C55.9769778,39.3104571 56.1306568,39.0128966 56.3905284,38.8567858 L56.4928,38.8051238 L57.572,38.3635238 C58.0048,38.1891238 58.272,37.7571238 58.272,37.3067238 C58.272,37.2133905 58.2602667,37.1179238 58.2356148,37.021746 L58.1888,36.8771238 L58.1888,36.8819238 L56.7672,33.3083238 C56.5968,32.8731238 56.1672,32.5995238 55.7216,32.5995238 C55.6266667,32.5995238 55.5331556,32.6112571 55.4417778,32.6351979 L55.3064,32.6803238 L55.3024,32.6827238 L54.2248,33.1227238 C53.9024,33.2539238 53.5328,33.1531238 53.3192,32.8755238 C52.6848,32.0459238 51.964,31.3067238 51.1752,30.6643238 C50.9327111,30.4694793 50.8324444,30.147583 50.9086738,29.8503386 L50.9456,29.7403238 L51.3992,28.6595238 C51.4592,28.5147238 51.4872,28.3691238 51.4872,28.2195238 C51.4872,27.8206438 51.274656,27.4327798 50.9248008,27.2273926 L50.8032,27.1659238 L47.3016,25.6595238 C47.1584,25.5995238 47.0136,25.5707238 46.8672,25.5707238 C46.47192,25.5707238 46.092192,25.7826198 45.8907288,26.1364278 L45.8304,26.2595238 L45.8304,26.2643238 L45.3736,27.3475238 C45.2368,27.6723238 44.9056,27.8651238 44.5592,27.8211238 C44.0192,27.7523238 43.4712,27.7163238 42.9208,27.7163238 C42.4504,27.7163238 41.9752,27.7435238 41.4992,27.7939238 C41.1927111,27.8280571 40.9007605,27.673825 40.7475204,27.4104505 L40.6968,27.3067238 L40.2592,26.2139238 C40.0856,25.7755238 39.6576,25.5027238 39.2128,25.5027238 Z M42.8752,33.6411238 C46.868,33.6411238 50.1056,36.9179238 50.1056,40.9643238 C50.1056,45.0083238 46.868,48.2875238 42.8752,48.2875238 C38.8816,48.2875238 35.6432,45.0091238 35.6432,40.9643238 C35.6432,36.9187238 38.8816,33.6411238 42.8752,33.6411238 Z M42.8752,35.2171238 C39.7456,35.2171238 37.2016,37.7955238 37.2016,40.9643238 C37.2016,44.1315238 39.7456,46.7115238 42.8752,46.7115238 C46.0032,46.7115238 48.5488,44.1315238 48.5488,40.9643238 C48.5488,37.7955238 46.0032,35.2171238 42.8752,35.2171238 Z M51,1.5 L5.625,1.5 C3.45,1.5 1.5,2.925 1.5,5.25 L1.5,5.25 L1.5,5.4 C1.5,5.55 1.5,5.85 1.575,6.075 C1.95,7.875 3.6,9 5.475,9 L5.475,9 L51,9 L51,1.5 L51,1.5 Z" id="Icon-Docs-&amp;-APIs"></path>
                </g>
            </g>
        </g>
    </g>
</svg>