<svg fill="none" height="100" viewBox="0 0 120 100" width="120" xmlns="http://www.w3.org/2000/svg" xmlns:xlink="http://www.w3.org/1999/xlink"><mask id="a" fill="#000" height="36" maskUnits="userSpaceOnUse" width="59" x="25.7334" y="33.9554"><path d="m25.7334 33.9554h59v36h-59z" fill="#fff"/><path d="m26.7661 68.2963 56.221-33.2643c3.3327-1.9568-57.8678 34.2427-56.221 33.2643z" fill="#000"/></mask><mask id="b" height="48" maskUnits="userSpaceOnUse" width="83" x="27" y="0"><path d="m109 32.7481c0 1.1645-.766 2.2927-2.297 3.1661l-16.9412 10.0268c-3.0992 1.7468-8.1308 1.7468-11.2299 0l-47.7661-27.2718c-1.5314-.8734-2.297-2.038-2.297-3.1661 0-1.1646.7656-2.2928 2.297-3.1662l16.9413-10.02677c3.0992-1.74684 8.1308-1.74684 11.2299 0l47.766 27.27177c1.531.837 2.297 2.0016 2.297 3.1662z" fill="#fff" stroke="#fff"/></mask><path d="m108.287 55.0978c0 1.1871-.749 2.3372-2.245 3.2276 0 0-2.309 1.3674-3.463 2.051-33.0837 19.5938-41.9806 25.6846-41.9806 25.6846-3.0284 1.7808-7.945 1.7808-10.9733 0l-46.38057-26.5172c-1.49635-.8904-2.24453-2.0776-2.24453-3.2276 0-1.1872.74818-2.3373 2.24453-3.2277l45.44367-27.7356c3.0284-1.7808 7.945-1.7808 10.9733 0l48.6255 24.8108z" fill="#bfc9d1" opacity=".422596"/><path d="m106.297 54.7661.001-.0005c1.589-.9458 2.489-2.2351 2.489-3.6573 0-1.4159-.893-2.7456-2.493-3.6597-.002-.0007-.003-.0014-.004-.0022l-46.3801-27.487-.0015-.0009c-1.6089-.946-3.6881-1.4045-5.7402-1.4045s-4.1313.4585-5.7401 1.4045v-.0001l-.0056.0034-45.43361 27.5234c-.00061.0004-.00123.0007-.00184.0011-1.58836.9457-2.48705 2.2346-2.48705 3.6561 0 1.3825.89643 2.7097 2.48889 3.6573l.00075.0004 46.38716 27.4913.0014.0009c1.6089.946 3.6881 1.4045 5.7402 1.4045s4.1312-.4585 5.7401-1.4045l.0114-.0067.011-.0073-.2758-.417.2759.417.0002-.0002.0011-.0007.0046-.0031.0194-.0127.0803-.0527c.0725-.0474.1835-.1197.3367-.2188.3064-.1982.7817-.5037 1.4558-.9318 1.3482-.8561 3.4914-2.2024 6.6687-4.1611 6.3549-3.9175 16.8457-10.2846 33.3862-20.0801l2.164-1.2819.92-.5448.277-.1642.076-.0446.019-.0116.005-.0029.001-.0008.001-.0001v-.0001l-.255-.4302z" fill="#fff" stroke="#1b127d"/><path d="m26.7661 68.2963-.2547-.4303-.0007.0005zm56.221-33.2643-.2532-.4311-.0014.0008zm-55.9664 33.6947.4259-.252-.5092-.8607-.426.252zm2.1295-1.26.8519-.5041-.5092-.8606-.8519.504zm2.5555-1.5121.8519-.504-.5092-.8606-.8519.504zm2.5555-1.512.8519-.504-.5092-.8606-.8519.504zm2.5555-1.512.8519-.504-.5092-.8606-.8519.504zm2.5555-1.512.8519-.504-.5092-.8607-.8519.5041zm2.5555-1.512.8519-.504-.5092-.8607-.8519.504zm2.5555-1.512.8519-.504-.5092-.8607-.8519.504zm2.5555-1.512.8519-.5041-.5092-.8606-.8519.504zm2.5555-1.5121.8519-.504-.5092-.8606-.8519.504zm2.5555-1.512.8519-.504-.5092-.8606-.8519.504zm2.5556-1.512.8518-.504-.5092-.8606-.8519.504zm2.5555-1.512.8518-.504-.5092-.8607-.8519.5041zm2.5555-1.512.8518-.504-.5092-.8607-.8519.504zm2.5555-1.512.8518-.504-.5092-.8607-.8519.504zm2.5555-1.5121.8518-.504-.5092-.8606-.8519.504zm2.5555-1.512.8518-.504-.5092-.8606-.8519.504zm2.5555-1.512.8518-.504-.5092-.8606-.8518.504zm2.5555-1.512.8518-.504-.5092-.8606-.8518.504zm2.5555-1.512.8518-.504-.5092-.8607-.8518.504zm2.5555-1.512.8518-.504-.5092-.8607-.8518.504zm2.5555-1.512.8518-.5041-.5092-.8606-.8518.504zm2.5555-1.5121.4259-.252-.5092-.8606-.4259.252zm.4244-.2511c.0556-.0326.0921-.054.1111-.065.017-.0099.0088-.0049-.003.0012-.0022.0012-.0069.0036-.0129.0065-.0021.001-.0199.0098-.0434.0184-.004.0015-.0477.0186-.1058.0265-.0403.0039-.1625-.0044-.2417-.0266-.1413-.0806-.3136-.3576-.3229-.5252.0173-.0851.0694-.203.0929-.2382.0144-.0189.0399-.0481.0503-.0588.0192-.0192.0357-.0325.0409-.0367.0131-.0105.0238-.0179.0264-.0198.0044-.003.0079-.0053.0097-.0065.0038-.0025.0066-.0043.0076-.0049.0032-.0021.0045-.0029.0009-.0007-.0246.015-.1159.0695-.2736.1631l.5108.8597c.155-.0921.2521-.1499.2823-.1683.0032-.0019.0093-.0057.0152-.0094.0016-.001.005-.0031.0091-.0059.0021-.0014.0057-.0038.0102-.0069.0028-.0019.0136-.0095.0267-.02.0053-.0042.0219-.0176.0411-.0368.0104-.0107.0358-.0399.0503-.0588.0235-.0352.0756-.1531.0928-.2382-.0093-.1676-.1815-.4446-.3229-.5252-.0792-.0222-.2014-.0305-.2417-.0266-.0581.0079-.1018.025-.1058.0265-.0236.0087-.0415.0175-.0438.0186-.0061.0029-.0109.0054-.0133.0066-.015.0078-.0348.0194-.0381.0214-.0216.0125-.0603.0351-.1157.0677zm-2.3623.2406c-.2689.1592-.5626.3332-.8796.5209l.5096.8605c.317-.1878.6108-.3618.8796-.5211zm-2.5763 1.5256c-.2741.1623-.5587.3307-.8531.505l.5094.8605c.2945-.1743.579-.3427.8531-.505zm-2.5642 1.5179c-.2827.1673-.5719.3385-.8673.5133l.5093.8606c.2955-.1749.5847-.3461.8673-.5134zm-2.5852 1.53c-.2763.1635-.5568.3295-.8412.4979l.5092.8606c.2845-.1684.565-.3344.8413-.4979zm-2.5638 1.5172c-.2788.165-.5608.3318-.8456.5004l.5093.8606c.2848-.1686.5667-.3354.8456-.5004zm-2.5652 1.5179c-.2812.1664-.5646.3341-.8503.5031l.5092.8606c.2857-.169.5692-.3367.8504-.5031zm-2.5681 1.5195c-.2824.1671-.5665.3352-.8521.5042l.5092.8606c.2856-.169.5697-.3371.8521-.5042zm-2.5692 1.5201c-.2831.1675-.5674.3357-.8528.5045l.5092.8607c.2854-.1689.5697-.3371.8528-.5046zm-2.5694 1.5201c-.2837.1678-.5682.3362-.8534.5049l.5092.8606c.2852-.1687.5697-.337.8534-.5048zm-2.5689 1.5198c-.2845.1683-.5693.3368-.8545.5055l.5092.8607c.2852-.1687.57-.3373.8544-.5055zm-2.568 1.5192c-.2854.1688-.5709.3377-.8563.5065l.5092.8607c.2854-.1688.5709-.3377.8563-.5065zm-2.5673 1.5187c-.2864.1694-.5726.3387-.8583.5078l.5091.8606c.2858-.169.5719-.3383.8584-.5077zm-2.5684 1.5194c-.2869.1697-.5731.339-.8586.5078l.5091.8607c.2855-.1688.5717-.3381.8586-.5078zm-2.5692 1.5197c-.287.1698-.5729.3389-.8576.5073l.5091.8607c.2847-.1684.5706-.3375.8576-.5073zm-2.5694 1.5198c-.2871.1699-.5726.3388-.8565.5067l.5091.8607c.2839-.1679.5694-.3368.8565-.5067zm-2.5687 1.5194c-.2879.1703-.5738.3394-.8573.5071l.5091.8607c.2835-.1677.5694-.3367.8573-.5071zm-2.5665 1.5181c-.2907.1719-.5783.342-.8628.5103l.5091.8607c.2845-.1683.5721-.3384.8627-.5103zm-2.561 1.5147c-.2963.1752-.5883.3479-.8758.518l.5091.8607c.2875-.1701.5795-.3428.8758-.518zm-2.5834 1.5279c-.2932.1734-.5804.3432-.8613.5094l.509.8607c.2809-.1661.5681-.336.8613-.5094zm-2.5771 1.524c-.2896.1713-.5699.3371-.8405.4971l.509.8608c.2706-.1601.5509-.3258.8405-.4971zm-2.5674 1.5182c-.2986.1766-.5776.3416-.8357.4942l.509.8608c.2581-.1526.5371-.3176.8357-.4942zm-2.5481 1.5064c-.1876.1108-.3191.1885-.3905.2306-.0178.0105-.0318.0187-.0419.0247-.0051.003-.0091.0053-.012.007-.0033.002-.0045.0026-.0044.0026s.0007-.0004.0017-.0009c.0004-.0003.0013-.0008.0025-.0015.0008-.0004.0034-.0019.0067-.0037.0015-.0008.0049-.0026.0093-.0049.0006-.0003.0154-.0081.0346-.0162.0151-.006.0734-.0244.1174-.0333.2722.0337.5769.499.4798.7901-.031.0381-.0783.0843-.0915.0952-.0068.0053-.0179.0135-.0221.0165-.0075.0053-.0134.0092-.0152.0104-.0026.0017-.0047.003-.0059.0038-.0023.0015-.0042.0026-.0049.0031-.0033.002-.0053.0032-.0015.0009.0045-.0027.0131-.0078.0262-.0156l-.5107-.8597c-.0132.0078-.0229.0136-.0288.0171-.0014.0008-.0067.004-.0112.0068-.0009.0005-.0028.0017-.0053.0033-.0012.0008-.0034.0022-.006.0039-.0018.0012-.0078.0051-.0153.0104-.0042.003-.0153.0113-.022.0166-.0133.0109-.0606.0571-.0916.0951-.0971.2912.2076.7564.4798.7902.044-.0089.1023-.0273.1174-.0334.0192-.0081.034-.0159.0347-.0162.0044-.0022.0078-.0041.0094-.005.0055-.0029.0099-.0055.0101-.0056.0014-.0008.0025-.0014.0033-.0019.0075-.0043.0308-.018.0654-.0384.0718-.0424.2037-.1203.3912-.2311zm-.167.6789-.5093-.8606-.0015.0009zm56.221-33.2643-.5064-.8623-.0029.0017zm-55.7118 34.125.4259-.252-1.0184-1.7213-.426.252zm2.1296-1.26.8518-.504-1.0184-1.7213-.8519.504zm2.5555-1.512.8518-.504-1.0184-1.7213-.8519.504zm2.5555-1.5121.8518-.504-1.0184-1.7212-.8519.504zm2.5555-1.512.8518-.504-1.0184-1.7213-.8519.504zm2.5555-1.512.8518-.504-1.0184-1.7213-.8519.504zm2.5555-1.512.8518-.504-1.0184-1.7213-.8519.504zm2.5555-1.512.8518-.504-1.0184-1.7213-.8519.504zm2.5555-1.512.8518-.504-1.0184-1.7213-.8519.504zm2.5555-1.512.8518-.504-1.0184-1.7213-.8519.504zm2.5555-1.5121.8518-.504-1.0184-1.7212-.8519.504zm2.5555-1.512.8518-.504-1.0184-1.7213-.8519.504zm2.5555-1.512.8518-.504-1.0184-1.7213-.8519.504zm2.5555-1.512.8518-.504-1.0184-1.7213-.8519.504zm2.5555-1.512.8518-.504-1.0184-1.7213-.8519.504zm2.5555-1.512.8518-.504-1.0184-1.7213-.8519.504zm2.5555-1.5121.8518-.504-1.0184-1.7212-.8519.504zm2.5555-1.512.8518-.504-1.0184-1.7213-.8519.5041zm2.5555-1.512.8518-.504-1.0184-1.7213-.8519.504zm2.5555-1.512.8518-.504-1.0184-1.7213-.8519.504zm2.5555-1.512.8518-.504-1.0184-1.7213-.8518.504zm2.5555-1.512.8518-.504-1.0184-1.7213-.8518.504zm2.5555-1.512.4259-.252-1.0185-1.7213-.4258.252zm.423-.2503c.0557-.0327.0911-.0534.1088-.0637.0238-.0138.0016-.0005-.0236.0125-.0045.0024-.0139.0072-.026.013-.0044.0022-.04.0196-.087.037-.008.003-.0954.0371-.2116.053-.0806.0077-.325-.0089-.4833-.0532-.2827-.1613-.6272-.7152-.6459-1.0505.0345-.1701.1387-.4059.1857-.4764.029-.0377.0798-.0961.1006-.1176.0384-.0384.0715-.065.082-.0734.0262-.021.0477-.0359.053-.0396.0087-.0061.0158-.0108.0196-.0134.0077-.0051.0137-.0089.0159-.0103.0077-.0049.0128-.0079.009-.0056-.0219.0133-.1103.066-.2693.1605l1.0216 1.7194c.1537-.0913.2537-.1509.2866-.1709.003-.0019.0129-.0079.0233-.0144.0029-.0019.0094-.006.0175-.0114.004-.0026.0112-.0074.0201-.0136.0054-.0038.027-.0189.0532-.0399.0106-.0084.0437-.0351.0821-.0735.0208-.0215.0717-.0799.1006-.1176.047-.0705.1512-.3063.1857-.4764-.0186-.3353-.3631-.8892-.6458-1.0505-.1583-.0443-.4028-.0609-.4834-.0532-.1162.0159-.2036.05-.2116.053-.0471.0174-.0828.0349-.0874.0371-.0121.0059-.0217.0108-.0264.0133-.0162.0083-.0293.0157-.0303.0163-.0044.0025-.0083.0047-.011.0062-.0056.0032-.0116.0067-.0174.0101-.0229.0133-.0627.0365-.118.069zm-2.8704-.6208c-.2688.1592-.5625.3332-.8795.5209l1.0192 1.7209c.317-.1878.6108-.3618.8797-.5211zm-2.5761 1.5255c-.2741.1623-.5587.3308-.8531.505l1.0188 1.7211c.2945-.1743.579-.3428.8532-.5051zm-2.5642 1.5179c-.2826.1673-.5718.3385-.8673.5133l1.0187 1.7212c.2954-.1749.5847-.3461.8673-.5134zm-2.5852 1.53c-.2762.1635-.5567.3295-.8412.4979l1.0186 1.7211c.2845-.1683.565-.3343.8412-.4978zm-2.5637 1.5172c-.2789.165-.5608.3318-.8456.5004l1.0185 1.7212c.2848-.1686.5668-.3354.8456-.5004zm-2.5652 1.5179c-.2812.1663-.5647.3341-.8503.5031l1.0185 1.7213c.2856-.1691.5691-.3368.8503-.5032zm-2.5681 1.5195c-.2824.1671-.5665.3351-.8521.5042l1.0184 1.7212c.2856-.169.5697-.3371.8521-.5041zm-2.5692 1.5201c-.2831.1675-.5674.3357-.8528.5045l1.0184 1.7213c.2854-.1688.5697-.337.8528-.5045zm-2.5694 1.5201c-.2837.1678-.5682.3361-.8534.5048l1.0184 1.7214c.2852-.1687.5697-.3371.8534-.5049zm-2.5689 1.5198c-.2844.1682-.5693.3368-.8545.5055l1.0184 1.7213c.2851-.1687.57-.3372.8544-.5055zm-2.568 1.5191c-.2854.1689-.5708.3378-.8563.5066l1.0183 1.7214c.2855-.1689.5709-.3378.8563-.5066zm-2.5673 1.5188c-.2864.1694-.5725.3387-.8583.5077l1.0183 1.7214c.2857-.1691.5719-.3383.8583-.5078zm-2.5684 1.5193c-.2869.1697-.5731.339-.8586.5079l1.0183 1.7214c.2855-.1689.5717-.3382.8586-.5079zm-2.5692 1.5198c-.2869.1697-.5728.3388-.8575.5072l1.0182 1.7214c.2847-.1684.5706-.3375.8576-.5072zm-2.5693 1.5198c-.2871.1698-.5727.3387-.8565.5066l1.0182 1.7214c.2838-.1679.5694-.3368.8565-.5066zm-2.5687 1.5193c-.288.1704-.5738.3395-.8574.5072l1.0182 1.7214c.2836-.1677.5694-.3368.8574-.5071zm-2.5666 1.5181c-.2906.1719-.5783.3421-.8628.5103l1.0182 1.7215c.2845-.1683.5722-.3384.8628-.5103zm-2.5609 1.5147c-.2963.1752-.5883.3479-.8758.518l1.0181 1.7214c.2875-.17.5795-.3427.8758-.5179zm-2.5834 1.5279c-.2932.1734-.5804.3433-.8613.5094l1.0181 1.7215c.2809-.1662.5681-.336.8613-.5094zm-2.5771 1.5241c-.2896.1712-.5699.337-.8405.497l1.018 1.7215c.2706-.16.551-.3258.8406-.497zm-2.5673 1.5181c-.2987.1766-.5777.3416-.8358.4942l1.0179 1.7216c.2581-.1526.5371-.3176.8358-.4942zm-2.548 1.5063c-.1876.1109-.3189.1884-.3901.2304-.0178.0105-.0316.0186-.0415.0244-.0115.0068-.0145.0085-.0133.0078.0005-.0002.002-.0011.0041-.0023.001-.0006.0029-.0017.0053-.003.0017-.001.0069-.0039.0136-.0075.0031-.0017.0099-.0054.0186-.0099.0013-.0006.0309-.0162.0693-.0324.0301-.0121.1467-.0489.2347-.0667.5444.0675 1.1538.9981.9597 1.5803-.0619.0761-.1567.1685-.1831.1903-.0136.0106-.0357.0271-.0441.0332-.015.0105-.0269.0184-.0304.0207-.0053.0034-.0095.0061-.0119.0076-.0048.0031-.0085.0054-.0101.0063-.0071.0044-.0128.0078-.0078.0048.0038-.0022.0118-.007.025-.0149l-1.0215-1.7194c-.0132.0078-.0234.014-.03.0179-.0002.0001-.0092.0054-.0175.0106-.0017.0011-.0056.0035-.0105.0066-.0024.0015-.0067.0042-.012.0077-.0035.0023-.0155.0102-.0304.0208-.0085.006-.0306.0225-.0442.0332-.0264.0218-.1212.1141-.1831.1903-.1942.5822.4153 1.5127.9597 1.5802.088-.0178.2046-.0545.2347-.0667.0384-.0162.0681-.0317.0693-.0324.0088-.0045.0156-.0082.0188-.0099.0109-.0059.0197-.011.0198-.011.0025-.0014.0046-.0026.0057-.0033.0098-.0057.0356-.0209.0689-.0405.0721-.0425.2041-.1205.3916-.2313z" fill="#1b127d" mask="url(#a)"/><path d="m83.371 67.8652.0023.0014.0402.024.0139.0084.0122.0077.0002.0001c.0016.0011.0115.0075.0231.0159.0027.002.007.0052.0122.0092.0017.0014.0035.0028.0055.0044.0054.0043.0224.0181.0422.0379.0107.0112.0368.0415.0516.0612.024.0368.0759.1595.0917.2476-.0138.1677-.1895.4369-.3272.5134-.0771.0213-.1964.0295-.2362.0259-.0555-.0073-.0978-.023-.1051-.0256l-.0007-.0003c-.0141-.0051-.025-.0098-.0302-.0121-.0109-.0048-.0192-.009-.0222-.0105-.0072-.0035-.0127-.0065-.0145-.0075l-.0103-.0056-.014-.008-.0406-.0235c-.0686-.0398-.2028-.1181-.397-.2317l.0011-.0019-.0235-.0138.2519-.4293c-.3644-.2131-.9323-.5456-1.6753-.981l-.2528.4314-.819-.48.0021-.0036-.0223-.0131.2509-.4277c-.5044-.2957-1.0654-.6245-1.6773-.9833l-.2506.4272-.0007-.0004-.0024.0041-.8392-.4921.253-.4313c-.5282-.3097-1.0878-.6379-1.6757-.9827l-.2504.4268-.0203-.0119-.0027.0045-.8384-.4918.2529-.4313c-.5326-.3124-1.0855-.6366-1.6567-.9717l-.2502.4266-.0339-.0199-.0027.0048-.853-.5003.253-.4313c-.5294-.3105-1.0728-.6293-1.6287-.9554l-.2502.4264-.0546-.032-.0029.0048-.8561-.5022.253-.4313c-.5252-.3081-1.0605-.6221-1.6046-.9413l-.2502.4264-.076-.0446-.0028.0049-.8546-.5014.253-.4313c-.5213-.3057-1.0498-.6158-1.5848-.9297l-.2502.4265-.0969-.0569-.0028.0048-.8515-.4995.253-.4313c-.5172-.3034-1.0398-.6101-1.567-.9193l-.2503.4265-.1178-.0691-.0027.0047-.8482-.4976.253-.4313c-.5129-.3009-1.0296-.6041-1.5494-.909l-.2503.4267-.1391-.0816-.0026.0045-.8457-.4961.253-.4313c-.5079-.298-1.0184-.5975-1.5306-.898l-.2504.4269-.1605-.0941-.0025.0043-.8443-.4954.253-.4312c-.5024-.2948-1.0061-.5904-1.5106-.8864l-.2506.4271-.1812-.1062-.0024.0041-.8443-.4955.253-.4312c-.4965-.2913-.9933-.5828-1.4898-.8742l-.2507.4274-.2005-.1176-.0022.0039-.8459-.4964.253-.4312c-.4905-.2878-.9804-.5753-1.469-.862l-.2508.4277-.2182-.128-.0021.0036-.8482-.4977.253-.4313c-.4848-.2845-.968-.568-1.4489-.8502l-.2511.4279-.2385-.1399-.0019.0033-.8464-.4966.253-.4313c-.4796-.2814-.9566-.5613-1.4304-.8393l-.2512.4282-.2599-.1524-.0017.003-.8421-.4942.253-.4312c-.475-.2788-.9464-.5554-1.4133-.8294l-.2514.4286-.2815-.1651-.0015.0026-.8368-.491.2531-.4312c-.471-.2764-.9369-.5498-1.3972-.8199l-.2516.4289-.3026-.1775-.0014.0023-.8327-.4887.253-.4312c-.4669-.274-.9271-.544-1.3799-.8098l-.2518.4293-.3228-.1894-.0012.002-.8335-.4892.253-.4312c-.4621-.2712-.9153-.5372-1.3589-.7975l-.252.4297-.3401-.1995-.0009.0016-.8435-.495.2531-.4312c-.4563-.2678-.9006-.5285-1.3318-.7816l-.2523.43-.3471-.2036-.0007.0012-.8671-.5088.2531-.4313c-.4516-.265-.8858-.5198-1.3011-.7635l-.2525.4304-.3881-.2276-.0005.0007-.8358-.4905.2531-.4312c-.4621-.2712-.8935-.5243-1.2914-.7578l-.2528.4308-.3836-.2251-.0003.0004-.8715-.5115.2531-.4312c-.5244-.3077-.9484-.5566-1.2601-.7395l-.253.4312-.4115-.2414-.0077-.0045h-.0001l-.1456-.0855-.0075-.0044-.0324-.019-.0043-.0025-.0062-.0037-.0011-.0007-.0013-.0007-.0001-.0001-.0006-.0003-.0004-.0003-.0011-.0006-.0004-.0002-.0012-.0007-.001-.0006-.0042-.0026c-.0114-.0071-.1661-.6887.5-.8657l.0097.0055.0015.0008.0006.0004.0005.0003.0016.0009.0009.0006.0007.0003.0003.0003.0081.0047.0367.0215.1529.0898h.0001l.0077.0045.4114.2414-.253.4313 1.2602.7392.2529-.431.4167.2446.0002-.0003.8384.4918-.253.4313 1.2915.7576.2527-.4305.3854.2261.0004-.0007.8385.4919-.253.4312 1.3012.7634.2525-.4302.3756.2204.0006-.0011.8385.4919-.253.4313 1.3319.7813.2522-.4298.345.2025.0009-.0015.8384.4918-.253.4313 1.3591.7973.252-.4294.3178.1865.0011-.0019.8385.4919-.253.4312 1.38.8096.2518-.429.2968.1742.0013-.0023.8385.4919-.253.4313 1.3973.8197.2515-.4287.2797.164.0015-.0025.8385.4918-.253.4313 1.4134.8292.2514-.4284.2634.1546.0017-.0029.8385.4919-.253.4312 1.4305.8392.2512-.428.2463.1446.0019-.0033.8385.4919-.253.4313 1.4491.85.251-.4277.2278.1337.0021-.0035.8385.4918-.253.4313 1.469.8618.2508-.4275.2079.122.0022-.0038.8385.4919-.253.4312 1.4899.8741.2507-.4272.187.1097.0023-.0041.8385.4919-.253.4313 1.5107.8862.2506-.427.1662.0975.0025-.0042.8385.4918-.253.4313 1.5306.898.2505-.4268.1462.0858.0026-.0045.8385.4919-.253.4312 1.5494.909.2503-.4267.1275.0749.0027-.0047.8385.4919-.253.4313 1.5671.9193.2502-.4265.1099.0644.0028-.0047.8385.4918-.253.4313 1.5848.9297.2502-.4264.0921.054.0028-.0048.8385.4919-.253.4312 1.6046.9414.2502-.4265.0723.0425.0028-.0049.8385.4919-.253.4313 1.6287.9554.2502-.4265.0483.0283.0028-.0047.8385.4918-.253.4313 1.6566.9718.2503-.4267.0203.012.0027-.0046.8385.4919-.253.4312 1.6755.983.2505-.4271.0015.0009.0024-.0043.8385.4919-.253.4313 1.677.9837.253-.4312.8385.4918-.0019.0033.0022.0013-.2509.4281 1.6745.9824.253-.4313z" stroke="#1b127d" stroke-dasharray=".98 1.96"/><path d="m57.1136 49.6084 1.1317.6789-2.301 1.4005 2.301 1.3539-.976.6659-2.5067-1.3318-2.3032 1.3276-1.1059-.6617 2.2276-1.3537-1.9788-1.1521 1.0413-.5986 2.119 1.0626z" fill="#fff" opacity=".462705"/><path clip-rule="evenodd" d="m108.38 50.2505c0 .3116-.201.6135-.604.8472l-.615.3653c-.816.4675-2.14.4675-2.955 0l-54.628-31.8089c-.4029-.2337-.6044-.5454-.6044-.8473 0-.3116.2015-.6135.6044-.8472l.6151-.3653c.8155-.4675 2.1394-.4675 2.9548 0l54.6281 31.8089c.403.224.604.5356.604.8473z" fill="#dfe4e8" fill-rule="evenodd"/><path d="m107.409 50.6433.007-.0039.611-.3627c0-.0004.001-.0009.002-.0013.492-.2863.851-.7263.851-1.2785 0-.5463-.352-.9996-.857-1.2817l-54.6235-31.8066-.0029-.0017c-.5014-.2874-1.1274-.4168-1.7261-.4168-.5986 0-1.2246.1294-1.726.4168h-.0001l-.0066.0039-.613.3641c-.4922.2862-.8512.7263-.8512 1.2784 0 .5405.3569.9916.8531 1.2795.0002.0001.0003.0002.0004.0003l54.6269 31.8085.003.0017c.502.2874 1.128.4168 1.726.4168.599 0 1.225-.1294 1.726-.4168z" fill="#fff" stroke="#1b127d"/><ellipse cx="52.2354" cy="17.9151" fill="#000" rx="1.00883" ry=".592126"/><ellipse cx="54.4366" cy="19.1904" fill="#000" rx="1.00883" ry=".592126"/><ellipse cx="56.8204" cy="20.4658" fill="#000" rx="1.00883" ry=".592126"/><path clip-rule="evenodd" d="m104.182 47.8343c.82.464 1.009.868.566 1.212l-2.383-1.3744c.391-.3558.996-.3016 1.817.1624zm.79-.7112c.375.2045.494.5335.266.7348-.227.2013-.716.1987-1.09-.0058-.375-.2045-.494-.5335-.267-.7348.228-.2013.716-.1987 1.091.0058z" fill="#000" fill-rule="evenodd"/><path clip-rule="evenodd" d="m99.9337 44.9487 2.4023 1.4185c.229.1341.268.3428.089.4662-.18.1234-.512.1148-.74-.0192l-2.4026-1.4185c-.2288-.1341-.2685-.3428-.0887-.4662.1799-.1234.5112-.1148.74.0192z" fill="#000" fill-rule="evenodd"/><path clip-rule="evenodd" d="m98.1251 43.9084.7619.4807c.2199.1327.258.3392.0852.4613-.1729.1222-.4912.1136-.7111-.019l-.7619-.4807c-.2199-.1326-.2581-.3392-.0852-.4613.1728-.1221.4912-.1136.7111.019z" fill="#000" fill-rule="evenodd"/><path d="m105.063 52.5529c0 1.1077-.729 2.1809-2.187 3.0117l-16.1285 9.5377c-2.9506 1.6616-7.7409 1.6616-10.6914 0l-45.4757-25.9415c-1.4579-.8308-2.1868-1.9386-2.1868-3.0117 0-1.1077.7289-2.1809 2.1868-3.0117l16.129-9.5377c2.9506-1.6616 7.7409-1.6616 10.6914 0l45.4752 25.9415c1.458.7962 2.187 1.9039 2.187 3.0117z" fill="#000" opacity=".04"/><path d="m60.1428 78.8556.0001.0001.0083-.0049 17.5237-10.4492c.0011-.0006.0021-.0012.0032-.0018.7882-.4555 1.3821-.9783 1.7827-1.4142.2003-.218.3561-.4183.4653-.5827.0541-.0815.101-.1605.1366-.2329.0177-.036.0359-.0772.0507-.121.0119-.0351.0352-.1099.0352-.2013 0-1.1177-.1952-2.026-.6211-2.7764-.4276-.7535-1.0619-1.302-1.8595-1.7434-.0004-.0002-.0007-.0004-.001-.0005l-45.0322-25.1425c-.0007-.0004-.0013-.0008-.002-.0011-1.5933-.9083-3.6509-1.3481-5.6812-1.3481-2.029 0-4.0853.4393-5.6781 1.3463l-17.5249 9.4691-.00009-.0002-.01219.007c-1.57233.9076-2.47362 2.1514-2.47362 3.5349 0 1.3452.89812 2.6253 2.4733 3.5347.00011 0 .00021.0001.00032.0002l45.03698 26.1261.0032.0018c1.5935.909 3.652 1.3492 5.6832 1.3492 2.0311 0 4.0896-.4402 5.6831-1.3492z" fill="#bfc9d1" stroke="#bfc9d1"/><path d="m60.1428 76.4808.0001.0001.0083-.0049 17.5237-10.4492c.0011-.0006.0021-.0012.0032-.0018.7882-.4555 1.3821-.9783 1.7827-1.4143.2003-.2179.3561-.4183.4653-.5826.0541-.0815.101-.1605.1366-.2329.0177-.036.0359-.0772.0507-.121.0119-.0351.0352-.1099.0352-.2013 0-1.1177-.1952-2.026-.6211-2.7764-.427-.7524-1.06-1.3004-1.856-1.7415-.0015-.0008-.003-.0016-.0045-.0025l-45.029-26.1216-.0032-.0018c-1.5935-.909-3.652-1.3492-5.6832-1.3492s-4.0896.4402-5.6832 1.3492v-.0001l-.0083.0049-17.52687 10.451c-1.57043.9074-2.47053 2.1505-2.47053 3.5331 0 1.3451.89809 2.6253 2.4732 3.5346.00014.0001.00028.0002.00042.0003l45.03698 26.1261.0032.0018c1.5935.909 3.652 1.3492 5.6832 1.3492 2.0311 0 4.0896-.4402 5.6831-1.3492z" fill="#fff" stroke="#1b127d"/><path clip-rule="evenodd" d="m62.5902 69.102c.7554-.4606.9781-1.0571.4974-1.3323l-20.601-11.7916c-.4808-.2752-1.4829-.1249-2.2383.3358l-6.2314 3.7995c-.7554.4606-.9781 1.0571-.4974 1.3323l20.601 11.7917c.4808.2752 1.4829.1248 2.2384-.3358zm-21.4889-12.7116c.2564-.1177.8239-.1111.9848-.019l20.5287 11.7358c.1609.0922.0877.2896-.1635.441l-6.8982 4.2002c-.2512.1514-.8239.1111-.9848.0189l-20.6111-11.7478c-.1609-.0921.2362-.4719.4874-.6233z" fill="#1b127d" fill-rule="evenodd"/><path d="m63.0876 67.7697-.2818.4147zm-.4974 1.3323-.2702-.4016zm-20.1036-13.1239-.2817.4146zm-2.2383.3358-.2702-.4017zm-6.2314 3.7995.2702.4016zm-.4974 1.3323-.2817.4147zm20.601 11.7917-.2817.4147zm2.2384-.3358-.2702-.4016zm-14.2728-16.5302-.2818.4147.0003.0001zm-.9848.019-.213-.432-.028.0129-.0264.0158zm21.5135 11.7168.2818-.4146-.0003-.0002zm-.1635.441-.2678-.4031-.0021.0013zm-6.8982 4.2002.2678.4031.0021-.0013zm-.9848.0189.2818-.4146-.0009-.0005zm-20.6111-11.7478-.2818.4147.0009.0004zm.4874-.6233-.2674-.4033-.0003.0002zm28.3612 7.7882c.0356.0203.0271.0267.0208.0083-.0054-.0157.0043-.0108-.011.0302-.0358.096-.173.2808-.4956.4775l.5403.8033c.4329-.264.7848-.6077.929-.9939.0747-.2001.0971-.4247.0219-.644-.0762-.2221-.2371-.3935-.4419-.5107zm-20.6009-11.7917 20.6009 11.7917.5635-.8293-20.601-11.7917zm-1.6865.3228c.3126-.1906.6809-.3185 1.0146-.3686.3516-.0528.5783-.0077.6719.0458l.5634-.8293c-.3873-.2217-.9019-.239-1.3604-.1702-.4764.0714-.987.249-1.4298.519zm-6.2313 3.7995 6.2313-3.7995-.5403-.8033-6.2313 3.7996zm-.4858.516c-.0356-.0203-.0271-.0267-.0208-.0082.0054.0157-.0043.0108.011-.0303.0358-.0959.173-.2808.4956-.4775l-.5403-.8032c-.4329.2639-.7848.6076-.929.9939-.0747.2-.0971.4246-.0219.644.0762.222.2371.3934.4419.5107zm20.6009 11.7917-20.6009-11.7917-.5635.8294 20.601 11.7917zm1.6865-.3227c-.3126.1906-.6809.3185-1.0146.3686-.3516.0527-.5783.0077-.6719-.0459l-.5634.8294c.3873.2216.9019.239 1.3604.1702.4764-.0715.987-.2491 1.4298-.5191zm6.2313-3.7996-6.2313 3.7996.5403.8032 6.2313-3.7995zm-19.9521-12.7436c-.1256-.0719-.2711-.1008-.3682-.1151-.1123-.0165-.2349-.0234-.3547-.0225-.2178.0017-.5196.0303-.7567.1392l.4261.864c-.0004.0002.0275-.011.0932-.0214.0604-.0095.1326-.0152.2064-.0158.0743-.0006.1398.004.1872.011.0235.0035.037.0067.0419.0081.0078.0022-.0097-.0016-.0388-.0182zm20.5284 11.7356-20.5287-11.7357-.563.8295 20.5287 11.7358zm-.1773 1.2589c.1813-.1092.3717-.2764.4558-.5034.0448-.1207.0619-.2691.0091-.4202-.0537-.1534-.1638-.2643-.2873-.3351l-.5636.8292c-.0431-.0247-.102-.0764-.132-.1621-.0292-.0834-.0158-.1557-.0007-.1966.025-.0674.0532-.0601-.0168-.018zm-6.896 4.1989 6.8981-4.2002-.5397-.8036-6.8982 4.2002zm-1.5365.0318c.1169.0669.2536.0994.3524.1171.1119.02.2362.0314.3605.0331.217.003.5566-.0211.8214-.1807l-.5355-.8062c.0183-.011.0101-.0015-.0457.0083-.0501.0088-.1146.0136-.1854.0126-.0703-.0009-.1351-.0075-.1837-.0162-.0241-.0043-.0395-.0083-.047-.0106-.0101-.0031.0025-.0004.0266.0133zm-20.6102-11.7474 20.6111 11.7479.5618-.8303-20.6111-11.7478zm.5006-1.4415c-.1733.1045-.3777.2726-.5238.4383-.0685.0777-.161.1954-.2112.3335-.0259.0711-.0547.1856-.0273.3172.0311.1498.1256.2747.2608.3521l.5636-.8293c.0949.0544.1667.1473.1897.258.0193.0926-.003.1612-.0103.1813-.0132.0362-.0208.0323.0212-.0154.075-.085.1948-.1825.2728-.2295zm6.657-4.006-6.6567 4.0058.5349.8066 6.6567-4.0058z" fill="#1b127d"/><path clip-rule="evenodd" d="m28.0348 36.4318 5.5365 3.4457c.6294.3747.7386.9583.2438 1.3033-.4947.3451-1.406.321-2.0354-.0538l-5.5364-3.4457c-.6294-.3747-.7386-.9583-.2439-1.3033.4948-.3451 1.406-.321 2.0354.0538z" fill="#1b127d" fill-rule="evenodd"/><path clip-rule="evenodd" d="m12.032 45.3498 19.0862 11.3734c.6339.3764.7438.9625.2456 1.3091-.4983.3465-1.4161.3223-2.0499-.0541l-19.0862-11.3734c-.63389-.3764-.74385-.9625-.24559-1.309.49829-.3466 1.41599-.3224 2.04989.054z" fill="#1b127d" fill-rule="evenodd"/><path clip-rule="evenodd" d="m16.4344 42.7079 10.6493 6.44c.6341.3807.7441.9733.2457 1.3237-.4985.3505-1.4166.326-2.0508-.0546l-10.6493-6.44c-.6342-.3807-.7442-.9733-.2457-1.3237.4985-.3505 1.4166-.326 2.0508.0546z" fill="#1b127d" fill-rule="evenodd"/><path clip-rule="evenodd" d="m36.4694 41.7223 5.5364 3.4457c.6294.3748.7386.9583.2439 1.3034-.4947.345-1.406.3209-2.0354-.0539l-5.5364-3.4456c-.6295-.3748-.7386-.9584-.2439-1.3034.4947-.3451 1.406-.321 2.0354.0538z" fill="#1b127d" fill-rule="evenodd"/><path d="m87.068 47.2224.0001.0001.0091-.0054 16.1218-9.5336c.001-.0007.003-.0014.004-.002 1.544-.8811 2.436-2.0916 2.436-3.4442 0-1.3475-.886-2.5964-2.444-3.4483-.001-.0007-.002-.0015-.004-.0022l-45.4673-25.93693-.0024-.00135c-1.5682-.88317-3.5933-1.31056-5.591-1.31056s-4.0228.42739-5.591 1.31056l-.0001-.0001-.0091.00538-16.1256 9.5357c-1.5442.881-2.4357 2.0915-2.4357 3.4441 0 1.3163.8897 2.563 2.4391 3.446 0 0 .0001 0 .0002.0001l45.4754 25.9413.0024.0014c1.5683.8831 3.5934 1.3105 5.5911 1.3105s4.0228-.4274 5.591-1.3105z" fill="#bfc9d1" stroke="#bfc9d1"/><path d="m87.068 44.8664.0001.0001.0091-.0054 16.1218-9.5336c.001-.0007.003-.0013.004-.002 1.544-.881 2.436-2.0915 2.436-3.4441 0-1.3476-.886-2.5964-2.444-3.4483-.001-.0008-.002-.0015-.004-.0022l-45.4673-25.93698-.0024-.00136c-1.5682-.88317-3.5933-1.31055-5.591-1.31055s-4.0228.42738-5.591 1.31055l-.0001-.00009-.0091.00538-16.1256 9.53565c-1.5442.8811-2.4357 2.0915-2.4357 3.4441 0 1.3164.8897 2.563 2.4391 3.446 0 0 .0001.0001.0002.0001l45.4754 25.9414.0024.0013c1.5683.8832 3.5934 1.3106 5.5911 1.3106s4.0228-.4274 5.591-1.3106z" fill="#fff" stroke="#1b127d"/><g mask="url(#b)"><path d="m34.8574 15.5217 13.3846-2.3351 1.4787 5.2258h10.4685l3.0982 6.0223 15.6723-2.8907v6.0222h11.4571l8.3353 2.3351" stroke="#ed26b7"/></g><g fill="#fff" stroke="#1b127d" stroke-linejoin="round"><path d="m12.0484 76.5552c-.049.2374.0793.4757.3045.5655l42.4438 16.9262c.1408.0561.2995.0453.4315-.0293.1319-.0747.2228-.2052.2472-.3548l.5557-3.4105c.0376-.2313-.0904-.4578-.3081-.5447l-42.302-16.8956c-.1374-.0549-.2921-.0461-.4224.0241-.1303.0701-.2229.1943-.2528.3392z" stroke-miterlimit="10"/><path d="m55.0685 95.0164c.1765.0705.3777.0349.5192-.092.1415-.1268.1989-.3228.1481-.506l-.2721-.981c-.0417-.1506-.1515-.273-.2967-.3308l-42.4438-16.9147c-.228-.0909-.4883-.0028-.6143.2079-.1259.2107-.0803.4816.1076.6395l1.8892 1.5864c.0408.0343.0867.0617.1361.0815z" stroke-miterlimit="10"/><path d="m12.9055 72.8892c-.1307.1147-.1924.2891-.1629.4605.0294.1713.1458.3151.3073.3796l42.302 16.8955c.2379.095.5091-.0051.6282-.2318.2033-.3873.4987-.7187.86-.9653.3614-.2465.7777-.4006 1.2125-.4487.2277-.0252.4091-.2019.4403-.4289s-.0959-.4461-.3083-.5318c-16.9651-6.8404-27.6314-11.1058-34.0568-13.6612-3.2126-1.2777-5.3652-2.1279-6.7147-2.6588-.6748-.2654-1.1489-.451-1.4544-.5703-.1527-.0597-.2633-.1028-.3358-.131l-.0806-.0313-.0199-.0077-.0049-.0019-.0013-.0005-.0003-.0001c-.0001 0-.0001 0-.1806.4663l.1805-.4663c-.1737-.0673-.3703-.0324-.5103.0905z" stroke-miterlimit="10"/><path d="m4.25585 71.698c.02021.144.10212.2721.22438.3508l7.78677 5.0162c.1386.0893.3123.1045.4643.0407.152-.0639.2628-.1985.2961-.36l.6635-3.2154 1.9737-1.7288c.1472-.1289.2057-.3319.1496-.5194-.0561-.1874-.2164-.325-.4102-.3519l-10.11664-1.4064c-.14435-.0201-.29028.0239-.39958.1203l-.61695.5441c-.12599.1111-.18776.2781-.16442.4445z"/><path d="m5.02273 71.2083c-.22934-.1477-.53477-.0843-.68641.1424-.15165.2268-.09352.5333.13063.6888l9.14715 6.3459c.2135.1481.505.1079.6705-.0925s.1499-.4942-.036-.6759l-1.3604-1.3297c-.0241-.0236-.0504-.0446-.0787-.0628z" stroke-miterlimit="10"/><path d="m4.40228 71.994c.12696.1186.30638.1628.47389.1167.16751-.046.2991-.1758.34756-.3426l.46751-1.6095c.04367-.1503.01442-.3124-.07902-.4379-.09343-.1256-.24028-.2002-.3968-.2015l-2.21109-.0192c-.20612-.0018-.39221.1231-.46866.3145-.07646.1915-.02761.4102.12303.5509z" stroke-miterlimit="10"/><path d="m55.0606 94.7511c.0514.0973.1334.1749.2334.2208 1.4651.6729 3.1935 1.4305 4.554 2.0192.6806.2945 1.2698.547 1.6889.7259.2096.0895.3767.1606.4914.2093l.1316.0559.0341.0144.0087.0037.0022.0009.0005.0002.0002.0001.1948-.4605-.1948.4605c.2407.1018.5191.0011.639-.2311l3.127-6.0546c.0647-.1252.0735-.272.0243-.4041-.0493-.132-.152-.2372-.2829-.2896l-.1856.4643.1856-.4643h-.0001l-.0005-.0002-.0021-.0009-.0082-.0033-.0326-.013-.127-.0509c-.111-.0445-.2732-.1097-.4781-.1922-.4097-.165-.99-.3992-1.672-.6764-1.3643-.5543-3.1344-1.2796-4.7603-1.9643-.0833-.0351-.1746-.047-.2641-.0343-3.4699.4907-4.6481 4.1274-3.3074 6.6645z" stroke-miterlimit="10"/><path d="m59.925 96.4833-.4679.1764c.0707.1874.2464.3146.4466.3232.2002.0085.3861-.1033.4725-.284l2.8778-6.024c.0821-.1718.0595-.3753-.0583-.5249s-.3104-.2193-.4966-.1798c-1.2852.2728-2.1695.8276-2.7463 1.5435-.5724.7103-.8067 1.5353-.8745 2.2924-.0677.7556.028 1.4665.1368 1.9816.0548.2593.1138.4733.1597.624.023.0754.0428.1353.0572.1773.0072.021.0131.0376.0173.0494l.0052.0143.0017.0044.0005.0015.0003.0006c0 .0002.0001.0005.468-.1759z"/><path d="m57.4729 95.5062-.4679.1763c.0706.1875.2464.3147.4466.3232.2001.0086.3861-.1032.4724-.284l2.8779-6.024c.0821-.1718.0594-.3753-.0584-.5249s-.3103-.2193-.4966-.1797c-1.2851.2727-2.1695.8275-2.7463 1.5434-.5723.7103-.8066 1.5353-.8745 2.2924-.0677.7556.028 1.4665.1369 1.9817.0547.2592.1138.4732.1597.6239.023.0755.0427.1353.0571.1773.0072.021.0131.0376.0174.0495l.0052.0142.0016.0045.0006.0015.0002.0006c.0001.0002.0002.0004.4681-.1759z"/><path d="m66.0827 91.5671-.0005-.0007c-.1124-.1597-.2712-.26-.4136-.323-.1475-.0652-.3129-.1063-.4822-.128-.3391-.0433-.74-.0147-1.149.1033-.8285.2389-1.7194.8546-2.2165 2.0402-.4574 1.0909-.6127 2.0813-.5336 2.8719.0762.7621.3917 1.4624 1.0103 1.7369.3542.1573.7451.1 1.0659-.0061.334-.1105.6781-.302.9989-.5298.6372-.4524 1.2684-1.1098 1.6176-1.762.3586-.6698.4808-1.5132.4798-2.2251-.0005-.3616-.0328-.7072-.0903-1.0021-.0543-.2781-.1416-.5685-.2868-.7755z" stroke-miterlimit="10"/><path d="m66.3707 91.731c-.0983-.0973-.2134-.1645-.3188-.211-.1472-.0649-.3123-.1057-.4814-.1272-.3385-.0431-.7394-.0147-1.1485.1029-.8286.2383-1.721.8529-2.2183 2.039-.4575 1.0909-.6127 2.0823-.5336 2.8732.0761.7617.3914 1.4641 1.0122 1.7365.4161.1825 1.5308.5485 2.6267.7259.5472.0886 1.1245.1362 1.6225.075.4763-.0586 1.0263-.237 1.2973-.7426zm0 0c.0427.0145.1018.0327.1794.0555.0569.0166.1227.0354.1944.0558.1613.046.3526.1005.5404.1592.2737.0855.5748.19.8314.3146.1286.0623.2588.1358.3732.2226.1105.0838.236.2022.3169.364l.0067.014c.4045.8756.3491 2.0061.1733 2.9549-.1786.964-.5045 1.8594-.7573 2.3306z" stroke-miterlimit="10"/><path d="m69.1506 93.141c-.1998-.2892-.5616-.4004-.8415-.4386zm0 0c.0001.0001.0002.0003.0003.0005l-.4116.2838.4111-.2846c.0001.0001.0001.0002.0002.0003z" stroke-miterlimit="10"/></g></svg>