<svg width="120" height="100" viewBox="0 0 120 100" fill="none" xmlns="http://www.w3.org/2000/svg">
<g clip-path="url(#clip0_58_15329)">
<path fill-rule="evenodd" clip-rule="evenodd" d="M15.5985 91.9872L7.51829 87.2916C7.31376 87.1725 7.14803 86.9868 7.03328 86.741C6.91852 86.4952 6.8547 86.189 6.85354 85.8294L6.77848 59.3123L0.782354 55.8279C-0.234944 55.2497 -0.253307 53.4572 0.687328 51.7755L29.2943 2.22478C29.7848 1.37527 30.4295 0.719486 31.0754 0.346493C31.7028 -0.0157139 32.331 -0.110971 32.8201 0.141976L61.6151 16.5498L69.7039 21.2504L69.7043 21.2506C70.6923 21.8152 70.6972 23.6508 69.7159 25.3526C69.2248 26.2033 68.5799 26.8591 67.9341 27.2318C67.3061 27.5945 66.6777 27.6895 66.1884 27.4366L63.6888 26.0137L63.7919 62.327C63.7959 63.7736 62.7795 65.5345 61.5191 66.262L47.7609 74.2055C47.1192 74.5757 46.5387 74.6064 46.1232 74.3562L38.0488 69.6642C37.6398 69.4265 37.3864 68.9211 37.3843 68.2025L37.3435 53.7599L35.4725 54.8404C34.2135 55.567 33.1969 57.3297 33.2011 58.7763L33.2612 79.9539C33.2651 81.4006 32.2471 83.1623 30.9881 83.889L17.2287 91.8334C16.5908 92.2014 16.0134 92.2334 15.5985 91.9872ZM44.7379 50.2573L44.7476 50.2631C44.7943 50.2897 44.8387 50.3204 44.881 50.3542C44.8356 50.3182 44.7881 50.2857 44.7379 50.2573ZM38.2152 5.8076C37.912 6.12435 37.6281 6.50066 37.3828 6.92541L11.276 52.1461L37.3829 6.92554C37.6282 6.5007 37.912 6.12435 38.2152 5.8076Z" fill="#DFE4E8"/>
<path d="M39.1614 5.04186C39.7887 4.67965 40.4171 4.5844 40.906 4.83711L69.7014 21.2452C70.6894 21.8099 70.6947 23.6454 69.7129 25.3472C69.2218 26.1979 68.5769 26.8536 67.9311 27.2264C67.3032 27.5891 66.6747 27.6841 66.1858 27.4311L63.6863 26.0083L63.789 62.3216C63.7934 63.7682 62.7765 65.5291 61.5161 66.2567L47.758 74.2001C46.4975 74.9277 45.4744 74.3446 45.4704 72.8979L45.41 51.7203C45.4064 50.2737 44.3828 49.6888 43.1227 50.4163L35.4698 54.835C34.2108 55.5616 33.1941 57.3243 33.1983 58.7709L33.2584 79.9485C33.2623 81.3952 32.2443 83.157 30.9853 83.8836L17.2259 91.828C15.9669 92.5547 14.9436 91.9711 14.9394 90.5249L14.8366 54.2119L12.3958 58.4394C11.9048 59.29 11.2598 59.946 10.6139 60.3185C9.9861 60.6811 9.35762 60.7763 8.86851 60.5234C7.85096 59.9451 7.83261 58.1527 8.77322 56.471L37.3802 6.92016C37.8707 6.07039 38.5154 5.41484 39.1614 5.04186Z" fill="white" stroke="#1B127D" stroke-miterlimit="10" stroke-linejoin="round"/>
<path d="M59.8828 82.8792L90.4772 65.3594L120 81.8472L90.4772 99.8831L59.8828 82.8792Z" fill="#DFE4E8"/>
<path d="M59.8828 68.6605L90.4772 51.1406L120 67.6285L90.4772 85.6644L59.8828 68.6605Z" fill="white" stroke="#1B127D" stroke-miterlimit="10" stroke-linejoin="round"/>
<path d="M120 67.625V74.4516L90.2568 92.7292L60.0322 75.6778L59.8828 68.6574L90.4772 85.6613L120 67.625Z" fill="white" stroke="#1B127D" stroke-miterlimit="10" stroke-linejoin="round"/>
<path d="M90.4766 85.6613V92.5772L119.999 74.4516V67.625L90.4766 85.6613Z" fill="white" stroke="#1B127D" stroke-miterlimit="10" stroke-linejoin="round"/>
<path d="M59.8828 57.6446L90.4772 40.125L120 56.6126L90.4772 74.6485L59.8828 57.6446Z" fill="white" stroke="#1B127D" stroke-miterlimit="10" stroke-linejoin="round"/>
<path d="M120 56.6094V63.4355L90.2568 81.7132L60.0322 64.6618L59.8828 57.6414L90.4772 74.6452L120 56.6094Z" fill="white" stroke="#1B127D" stroke-miterlimit="10" stroke-linejoin="round"/>
<path d="M90.4766 74.6452V81.5612L119.999 63.4355V56.6094L90.4766 74.6452Z" fill="white" stroke="#1B127D" stroke-miterlimit="10" stroke-linejoin="round"/>
<path d="M59.8828 46.5198L90.4772 29L120 45.4874L90.4772 63.5232L59.8828 46.5198Z" fill="white" stroke="#1B127D" stroke-miterlimit="10" stroke-linejoin="round"/>
<path d="M120 45.4844V52.311L90.2568 70.5886L60.0322 53.5372L59.8828 46.5168L90.4772 63.5202L120 45.4844Z" fill="white" stroke="#1B127D" stroke-miterlimit="10" stroke-linejoin="round"/>
<path d="M90.4766 63.5202V70.4362L119.999 52.311V45.4844L90.4766 63.5202Z" fill="white" stroke="#1B127D" stroke-miterlimit="10" stroke-linejoin="round"/>
<path d="M95.8699 65.1203C96.1329 64.1353 95.6931 63.1624 94.8876 62.9473C94.082 62.7322 93.2158 63.3564 92.9528 64.3414C92.6898 65.3265 93.1296 66.2994 93.9351 66.5145C94.7406 66.7295 95.6069 66.1054 95.8699 65.1203Z" fill="#ED26B7"/>
<path d="M95.5285 76.3571C95.8106 75.3769 95.3901 74.3954 94.5892 74.1649C93.7883 73.9343 92.9103 74.542 92.6281 75.5221C92.3459 76.5023 92.7665 77.4838 93.5674 77.7143C94.3683 77.9449 95.2463 77.3372 95.5285 76.3571Z" fill="#1B127D"/>
<path d="M95.334 87.445C95.635 86.47 95.2338 85.4804 94.4378 85.2346C93.6418 84.9888 92.7524 85.5799 92.4514 86.5549C92.1503 87.5299 92.5515 88.5196 93.3475 88.7654C94.1436 89.0112 95.0329 88.42 95.334 87.445Z" fill="#ED26B7"/>
</g>
<defs>
<clipPath id="clip0_58_15329">
<rect width="120" height="100" fill="white"/>
</clipPath>
</defs>
</svg>
