<svg width="48" height="48" fill="none" xmlns="http://www.w3.org/2000/svg"><g clip-path="url(#a)"><path d="M13.2187 28.9004c0 2.1678-1.7521 3.9199-3.91988 3.9199-2.16783 0-3.91991-1.7521-3.91991-3.9199 0-2.1679 1.75208-3.9199 3.91991-3.9199h3.91988v3.9199Zm1.96 0c0-2.1679 1.7521-3.9199 3.9199-3.9199s3.9199 1.752 3.9199 3.9199v9.7998c0 2.1678-1.7521 3.9199-3.9199 3.9199s-3.9199-1.7521-3.9199-3.9199v-9.7998Z" fill="#E01E5A"/><path d="M19.099 13.1601c-2.1678 0-3.9199-1.752-3.9199-3.91988 0-2.16783 1.7521-3.91991 3.9199-3.91991s3.9199 1.75208 3.9199 3.91991v3.91988H19.099Zm0 1.9897c2.1678 0 3.9199 1.7521 3.9199 3.9199s-1.7521 3.9199-3.9199 3.9199H9.26952c-2.16783 0-3.91991-1.7521-3.91991-3.9199s1.75208-3.9199 3.91991-3.9199H19.099Z" fill="#36C5F0"/><path d="M34.8095 19.0697c0-2.1678 1.7521-3.9199 3.92-3.9199 2.1678 0 3.9199 1.7521 3.9199 3.9199s-1.7521 3.9199-3.9199 3.9199h-3.92v-3.9199Zm-1.9599 0c0 2.1678-1.7521 3.9199-3.9199 3.9199-2.1679 0-3.9199-1.7521-3.9199-3.9199V9.24022c0-2.16783 1.752-3.91991 3.9199-3.91991 2.1678 0 3.9199 1.75208 3.9199 3.91991v9.82948Z" fill="#2EB67D"/><path d="M28.9297 34.7802c2.1678 0 3.9199 1.7521 3.9199 3.92 0 2.1678-1.7521 3.9199-3.9199 3.9199-2.1679 0-3.9199-1.7521-3.9199-3.9199v-3.92h3.9199Zm0-1.9599c-2.1679 0-3.9199-1.7521-3.9199-3.9199 0-2.1679 1.752-3.9199 3.9199-3.9199h9.8294c2.1679 0 3.92 1.752 3.92 3.9199 0 2.1678-1.7521 3.9199-3.92 3.9199h-9.8294Z" fill="#ECB22E"/></g><defs><clipPath id="a"><path fill="#fff" transform="translate(5.14258 5.14258)" d="M0 0h37.7143v37.7143H0z"/></clipPath></defs></svg>