<svg width="48" height="48" fill="none" xmlns="http://www.w3.org/2000/svg"><path d="M29.0967 18.2002c0-.1439-.0332-.4925-.0996-1.0459-.0664-.5534-.2325-1.1455-.4981-1.7764-.1771-.4427-.3929-.8356-.6474-1.1787-.2546-.3541-.5424-.6585-.8633-.9131-.0775-.0664-.1605-.1272-.249-.1826-.0886-.0664-.1771-.1217-.2657-.166.2878-.3099.5147-.6641.6807-1.0625.166-.3984.249-.8245.249-1.2783 0-.4649-.0885-.90204-.2656-1.31154-.1771-.42058-.4206-.78028-.7305-1.07911-.3099-.30989-.6751-.55338-1.0957-.73046-.4095-.18816-.8467-.28223-1.3115-.28223-.4648 0-.9076.09407-1.3281.28223-.4095.17708-.7692.42057-1.0791.73046-.3099.29883-.5534.65853-.7305 1.07911-.1771.4095-.2656.84664-.2656 1.31154 0 .4538.083.8799.249 1.2783.166.3984.3929.7526.6807 1.0625-.0886.0443-.1771.0996-.2657.166-.0885.0554-.1715.1162-.249.1826-.3209.2546-.6087.559-.8633.9131-.2545.3431-.4703.736-.6474 1.1787-.2989.7084-.4759 1.3558-.5313 1.9424-.0442.5866-.0664.8965-.0664.9297 0 .2324.083.4316.249.5977.1661.166.3653.249.5977.249h8.5c.2324 0 .4316-.083.5977-.249.166-.1661.249-.3653.249-.5977v-.0498Zm-6.7901-7.6035c0-.4649.1661-.8633.4981-1.19533.332-.33203.7305-.49805 1.1953-.49805s.8633.16602 1.1953.49805c.332.33203.4981.73043.4981 1.19533 0 .4759-.1661.8799-.4981 1.2119-.332.332-.7305.498-1.1953.498s-.8633-.166-1.1953-.498c-.332-.332-.4981-.736-.4981-1.2119Zm-1.6269 6.8066c.0332-.1992.0775-.415.1328-.6474.0664-.2435.1494-.487.249-.7305.2878-.6862.6696-1.1953 1.1455-1.5274C22.694 14.166 23.2917 14 24 14c.6087 0 1.1123.1217 1.5107.3652.4095.2325.736.5258.9795.8799.2546.3431.4427.7139.5645 1.1123.1328.3874.2213.736.2656 1.0459h-6.6406Zm-3.4863 19.4903c0-.1439-.0332-.487-.0996-1.0293-.0665-.5534-.2325-1.1511-.4981-1.793-.1771-.4317-.3929-.8246-.6475-1.1787-.2545-.3542-.5423-.6586-.8632-.9131-.0775-.0664-.1605-.1273-.2491-.1826-.0885-.0554-.177-.1107-.2656-.166.2878-.3099.5147-.6641.6807-1.0625.166-.3985.249-.8191.249-1.2618 0-.4759-.0885-.9186-.2656-1.3281-.1771-.4095-.4206-.7692-.7305-1.0791-.3099-.3099-.6696-.5534-1.0791-.7305-.4095-.177-.8522-.2656-1.3281-.2656-.4649 0-.9076.0886-1.3281.2656-.4096.1771-.76925.4206-1.07915.7305-.29883.3099-.54231.6696-.73047 1.0791-.17708.4095-.26562.8522-.26562 1.3281 0 .4427.08301.8633.24902 1.2618.16602.3984.39291.7526.68067 1.0625-.08854.0553-.17709.1106-.26563.166-.07747.0553-.16048.1162-.24902.1826-.32097.2545-.60873.5589-.86328.9131-.25456.3541-.47038.747-.64746 1.1787-.29883.7083-.47592 1.3613-.53125 1.959-.04427.5866-.06641.8909-.06641.9131 0 .2434.08301.4482.24902.6142.16602.166.36524.249.59766.249h8.50002c.2324 0 .4316-.083.5976-.249.1661-.166.2491-.3708.2491-.6142v-.0498Zm-6.7901-7.587c0-.4759.166-.8798.4981-1.2119.332-.332.7304-.498 1.1953-.498.4759 0 .8799.166 1.2119.498.332.3321.498.736.498 1.2119 0 .4649-.166.8633-.498 1.1954-.332.332-.736.498-1.2119.498-.4649 0-.8633-.166-1.1953-.498-.3321-.3321-.4981-.7305-.4981-1.1954Zm-1.61033 6.7901c.02213-.1992.06087-.4151.11621-.6475.06641-.2435.14941-.487.24902-.7304.28776-.6752.67513-1.1788 1.1621-1.5108.487-.3431 1.0791-.5146 1.7764-.5146.6087 0 1.1123.1217 1.5107.3652.4095.2324.736.5257.9795.8799.2546.3431.4427.7138.5645 1.1123.1328.3874.2213.736.2656 1.0459H8.79297ZM41 36.8936c0-.1439-.0332-.487-.0996-1.0293-.0664-.5534-.2324-1.1511-.4981-1.793-.177-.4317-.3929-.8246-.6474-1.1787-.2546-.3542-.5423-.6586-.8633-.9131-.0885-.0664-.1771-.1273-.2656-.1826-.0775-.0554-.1605-.1107-.249-.166.2877-.3099.5146-.6641.6806-1.0625.166-.3985.249-.8191.249-1.2618 0-.4759-.094-.9186-.2822-1.3281-.1771-.4095-.4206-.7692-.7305-1.0791-.2988-.3099-.6585-.5534-1.0791-.7305-.4095-.177-.8466-.2656-1.3115-.2656-.4759 0-.9186.0886-1.3281.2656-.4095.1771-.7692.4206-1.0791.7305-.3099.3099-.5534.6696-.7305 1.0791-.1771.4095-.2656.8522-.2656 1.3281 0 .4427.083.8633.249 1.2618.166.3984.3929.7526.6807 1.0625-.0886.0553-.1771.1106-.2656.166-.0886.0553-.1716.1162-.2491.1826-.3209.2545-.6087.5589-.8632.9131-.2546.3541-.4704.747-.6475 1.1787-.2988.7083-.4759 1.3613-.5313 1.959-.0442.5866-.0664.8909-.0664.9131 0 .2434.083.4482.2491.6142.166.166.3652.249.5976.249h8.5c.2324 0 .4317-.083.5977-.249.166-.166.249-.3708.249-.6142v-.0498Zm-6.8066-7.587c0-.4759.166-.8798.498-1.2119.332-.332.736-.498 1.2119-.498.4649 0 .8633.166 1.1953.498.3321.3321.4981.736.4981 1.2119 0 .4649-.166.8633-.4981 1.1954-.332.332-.7304.498-1.1953.498-.4759 0-.8799-.166-1.2119-.498-.332-.3321-.498-.7305-.498-1.1954Zm-1.6104 6.7901c.0332-.1992.0775-.4151.1328-.6475.0664-.2435.1494-.487.249-.7304.2878-.6752.6696-1.1788 1.1456-1.5108.4869-.3431 1.0846-.5146 1.7929-.5146.6087 0 1.1123.1217 1.5108.3652.4095.2324.736.5257.9795.8799.2545.3431.4427.7138.5644 1.1123.1218.3874.2103.736.2656 1.0459H32.583ZM24 41.1934c-.5534 0-1.1068-.0332-1.6602-.0996-.5423-.0665-1.0791-.1661-1.6103-.2989-.5313-.1328-1.057-.2988-1.5772-.498-.5091-.1882-1.0071-.4095-1.4941-.6641-.2103-.1107-.3542-.2767-.4316-.498-.0664-.2325-.0443-.4483.0664-.6475.1106-.2103.2767-.3486.498-.415.2324-.0775.4538-.0609.6641.0498.4206.2324.8522.4371 1.2949.6142.4538.166.9131.3044 1.3779.4151.4759.1106.9519.1992 1.4278.2656.4759.0553.9573.083 1.4443.083.487 0 .9684-.0277 1.4443-.083.4759-.0664.9463-.155 1.4112-.2656.4759-.1107.9352-.2491 1.3779-.4151.4538-.1771.8909-.3818 1.3115-.6142.2103-.1107.4261-.1273.6475-.0498.2324.0664.404.2047.5146.415.1107.1992.1273.415.0498.6475-.0664.2213-.2047.3873-.415.498-.487.2546-.9906.4759-1.5107.6641-.5092.1992-1.0293.3652-1.5606.498-.5312.1328-1.0736.2324-1.6269.2989-.5424.0664-1.0902.0996-1.6436.0996Zm12.2852-16.1368c-.1771 0-.3431-.0553-.4981-.166-.1549-.1217-.2601-.2767-.3154-.4648-.1992-.7084-.4593-1.389-.7803-2.042-.321-.6641-.7028-1.2894-1.1455-1.876-.4316-.5866-.9186-1.1289-1.4609-1.6269-.5313-.4981-1.1123-.9463-1.7432-1.3448-.1992-.1328-.3265-.3099-.3818-.5312-.0443-.2324-.0056-.4483.1162-.6475.1328-.1992.3099-.3209.5312-.3652.2324-.0554.4483-.0221.6475.0996.7194.4538 1.3834.9684 1.9922 1.5439.6198.5645 1.1787 1.1843 1.6767 1.8594.4981.6641.9297 1.3724 1.295 2.125.3652.7526.664 1.5384.8964 2.3574.0554.2214.0222.4372-.0996.6475-.1107.1992-.2767.332-.498.3984-.0332.0111-.072.0222-.1162.0332h-.1162Zm-24.5704 0h-.1328c-.0332-.011-.0664-.0221-.0996-.0332-.2213-.0664-.3929-.1992-.5146-.3984-.1107-.2103-.1384-.4261-.083-.6475.2324-.819.5312-1.6048.8964-2.3574.3653-.7526.7969-1.4609 1.295-2.125.498-.6751 1.0514-1.2949 1.6601-1.8594.6198-.5755 1.2894-1.0901 2.0088-1.5439.1992-.1217.4095-.155.6309-.0996.2324.0443.415.166.5478.3652.1218.1992.155.4151.0996.6475-.0442.2213-.166.3984-.3652.5312-.6309.3985-1.2174.8467-1.7598 1.3448-.5312.498-1.0182 1.0403-1.4609 1.6269-.4316.5866-.8079 1.2119-1.1289 1.876-.321.653-.5811 1.3336-.7803 2.042-.0553.1881-.1605.3431-.3154.4648-.155.1107-.321.166-.4981.166Z" fill="#1B127D"/></svg>