<svg width="49" height="48" fill="none" xmlns="http://www.w3.org/2000/svg"><path d="m37.6816 16.8057-7.6533-7.65336c-.0775-.07747-.1715-.13834-.2822-.18261-.0996-.04427-.2048-.06641-.3154-.06641H13.2773c-.6972 0-1.2949.24902-1.7929.74707-.4981.49801-.7471 1.09571-.7471 1.79301v27.2099c0 .6973.249 1.2949.7471 1.793.498.498 1.0957.7471 1.7929.7471h22.1133c.6973 0 1.2949-.2491 1.793-.7471.498-.4981.7471-1.0957.7471-1.793v-21.25c0-.1107-.0222-.2158-.0664-.3154-.0443-.1107-.1052-.2048-.1827-.2822Zm-1.7929.5976h-5.6114c-.2324 0-.4316-.083-.5976-.249-.166-.166-.249-.3652-.249-.5977v-5.6113l6.458 6.458ZM35.3906 39.5H13.2773c-.2324 0-.4316-.083-.5976-.249-.166-.166-.249-.3653-.249-.5977V11.4434c0-.2325.083-.4317.249-.5977.166-.166.3652-.249.5976-.249h14.46v5.9599c0 .6973.249 1.295.7471 1.793.498.4981 1.0957.7471 1.7929.7471h5.96v19.5566c0 .2324-.083.4317-.249.5977-.166.166-.3653.249-.5977.249Zm-16.1533-3.4033c-.1107 0-.2213-.0166-.332-.0498-.0996-.0443-.1882-.1107-.2657-.1992l-3.4033-3.4034c-.166-.166-.249-.3652-.249-.5976s.083-.4317.249-.5977l3.4033-3.4033c.1661-.166.3653-.249.5977-.249s.4316.083.5977.249c.166.166.249.3708.249.6143 0 .2324-.083.4316-.249.5976l-2.8057 2.7891 2.8057 2.8056c.166.1661.249.3653.249.5977s-.083.4316-.249.5977c-.0775.0885-.1716.1549-.2823.1992-.0996.0332-.2047.0498-.3154.0498Zm4.25 0h-.0996c-.0332 0-.0664-.0056-.0996-.0166-.2214-.0554-.3985-.1826-.5313-.3819-.1217-.1992-.1549-.4095-.0996-.6308l1.544-6.8067c.0553-.2324.1826-.4095.3818-.5312.1992-.1218.415-.1605.6475-.1162.2213.0553.3929.1826.5146.3818.1328.1992.1716.4151.1162.6475l-1.5439 6.79c-.0443.1992-.1494.3597-.3154.4815-.155.1217-.3265.1826-.5147.1826Zm5.9434 0c-.1107 0-.2214-.0166-.3321-.0498-.0996-.0443-.1881-.1107-.2656-.1992-.166-.1661-.249-.3653-.249-.5977s.083-.4316.249-.5977l2.8057-2.8056-2.8057-2.7891c-.166-.166-.249-.3652-.249-.5976 0-.2435.083-.4483.249-.6143.166-.166.3652-.249.5977-.249.2324 0 .4316.083.5976.249l3.4033 3.4033c.1661.166.2491.3653.2491.5977s-.083.4316-.2491.5976l-3.4033 3.4034c-.0775.0885-.1715.1549-.2822.1992-.0996.0332-.2048.0498-.3154.0498Z" fill="#1B127D"/></svg>