<svg width="48" height="48" fill="none" xmlns="http://www.w3.org/2000/svg"><path d="M23.8629 5.24219c-9.5738 0-8.9759 4.15178-8.9759 4.15178l.0107 4.30123h9.136v1.2914H11.2689s-6.12632-.6948-6.12632 8.9653c0 9.66 5.34712 9.3175 5.34712 9.3175h3.1912v-4.4827s-.172-5.3471 5.2618-5.3471h9.0613s5.091.0823 5.091-4.9203v-8.2715s.773-5.00561-9.2321-5.00561Zm-5.0376 2.89237c.909 0 1.6436.73466 1.6436 1.64363 0 .90901-.7346 1.64361-1.6436 1.64361-.909 0-1.6436-.7346-1.6436-1.64361 0-.90897.7346-1.64363 1.6436-1.64363Z" fill="url(#a)"/><path d="M24.1366 42.7572c9.5738 0 8.9759-4.1518 8.9759-4.1518l-.0106-4.3012h-9.1361v-1.2914h12.7649s6.1262.6948 6.1262-8.9653c0-9.66-5.3471-9.3175-5.3471-9.3175h-3.1912v4.4827s.172 5.3471-5.2618 5.3471h-9.0613s-5.091-.0823-5.091 4.9202v8.2716s-.773 5.0056 9.2321 5.0056Zm5.0376-2.8924c-.909 0-1.6436-.7346-1.6436-1.6436 0-.909.7346-1.6436 1.6436-1.6436.909 0 1.6436.7346 1.6436 1.6436 0 .909-.7346 1.6436-1.6436 1.6436Z" fill="url(#b)"/><defs><linearGradient id="a" x1="8.76683" y1="8.52144" x2="27.4146" y2="27.2316" gradientUnits="userSpaceOnUse"><stop stop-color="#387EB8"/><stop offset="1" stop-color="#366994"/></linearGradient><linearGradient id="b" x1="20.2399" y1="20.4228" x2="40.2677" y2="39.6104" gradientUnits="userSpaceOnUse"><stop stop-color="#FFE052"/><stop offset="1" stop-color="#FFC331"/></linearGradient></defs></svg>