<svg width="64" height="65" fill="none" xmlns="http://www.w3.org/2000/svg"><path d="M23.8965 44.9033H23V28.7139h.8965c.2461 0 .457-.0879.6328-.2637.1758-.1758.2637-.3926.2637-.6504 0-.2461-.0879-.457-.2637-.6328-.1758-.1758-.3867-.2637-.6328-.2637H16.707c-.2578 0-.4746.0879-.6504.2637-.1757.1758-.2636.3867-.2636.6328 0 .2578.0879.4746.2636.6504.1758.1758.3926.2637.6504.2637h.8965v16.1894h-.8965c-.2578 0-.4746.0879-.6504.2637-.1757.1758-.2636.3867-.2636.6328 0 .2578.0879.4746.2636.6504.1758.1758.3926.2637.6504.2637h7.1895c.2461 0 .457-.0879.6328-.2637.1758-.1758.2637-.3926.2637-.6504 0-.2461-.0879-.457-.2637-.6328-.1758-.1758-.3867-.2637-.6328-.2637Zm-2.6895 0h-1.8105V28.7139h1.8105v16.1894Zm13.5 0h-.914V28.7139h.914c.2461 0 .4571-.0879.6328-.2637.1758-.1758.2637-.3926.2637-.6504 0-.2461-.0879-.457-.2637-.6328-.1757-.1758-.3867-.2637-.6328-.2637H27.5c-.2461 0-.457.0879-.6328.2637-.1758.1758-.2637.3867-.2637.6328 0 .2578.0879.4746.2637.6504.1758.1758.3867.2637.6328.2637h.8965v16.1894H27.5c-.2461 0-.457.0879-.6328.2637-.1758.1758-.2637.3867-.2637.6328 0 .2578.0879.4746.2637.6504.1758.1758.3867.2637.6328.2637h7.207c.2461 0 .4571-.0879.6328-.2637.1758-.1758.2637-.3926.2637-.6504 0-.2461-.0879-.457-.2637-.6328-.1757-.1758-.3867-.2637-.6328-.2637Zm-2.707 0h-1.793V28.7139H32v16.1894Zm13.5 0h-.8965V28.7139H45.5c.2461 0 .457-.0879.6328-.2637.1758-.1758.2637-.3926.2637-.6504 0-.2461-.0879-.457-.2637-.6328-.1758-.1758-.3867-.2637-.6328-.2637h-7.207c-.2461 0-.4571.0879-.6328.2637-.1758.1758-.2637.3867-.2637.6328 0 .2578.0879.4746.2637.6504.1757.1758.3867.2637.6328.2637h.914v16.1894h-.914c-.2461 0-.4571.0879-.6328.2637-.1758.1758-.2637.3867-.2637.6328 0 .2578.0879.4746.2637.6504.1757.1758.3867.2637.6328.2637H45.5c.2461 0 .457-.0879.6328-.2637.1758-.1758.2637-.3926.2637-.6504 0-.2461-.0879-.457-.2637-.6328-.1758-.1758-.3867-.2637-.6328-.2637Zm-2.707 0H41V28.7139h1.793v16.1894Zm4.5 5.3965H14.8965c-.2461 0-.457-.0879-.6328-.2637-.1758-.1757-.2637-.3867-.2637-.6328 0-.2461.0879-.457.2637-.6328.1758-.1758.3867-.2637.6328-.2637H47.293c.2578 0 .4746.0879.6504.2637.1757.1758.2636.3867.2636.6328 0 .2461-.0879.4571-.2636.6328-.1758.1758-.3926.2637-.6504.2637ZM45.5 25.1104H16.707c-.2109 0-.3984-.0586-.5625-.1758-.1523-.1289-.2578-.2871-.3164-.4746-.0469-.1993-.0351-.3926.0352-.5801.0703-.1875.1875-.334.3515-.4395l14.4141-9c.1406-.0937.293-.1406.457-.1406.1758 0 .3399.0469.4922.1406l14.3965 9c.1758.1055.2988.252.3692.4395.0703.1875.0761.3808.0175.5801-.0586.1875-.1699.3457-.334.4746-.1523.1172-.3281.1758-.5273.1758Zm-25.6641-1.8106h22.5176l-11.25-7.0312-11.2676 7.0312Z" fill="#1B127D"/></svg>