<svg width="8" height="14" xmlns="http://www.w3.org/2000/svg"><path d="M.5 13.6972656c.04557292 0 .08886719-.0091146.12988281-.0273437.04101563-.0182292.0797526-.0410157.11621094-.0683594l6.30273437-6.30273438c.06380209-.07291666.09570313-.15722656.09570313-.25292968 0-.09570313-.03190104-.17545573-.09570313-.23925782L.74609375.50390625C.68229167.43098958.60026042.39453125.5.39453125c-.10026042 0-.18229167.03645833-.24609375.109375C.18098958.56770833.14453125.64973958.14453125.75c0 .10026042.03645833.18229167.109375.24609375l6.05664063 6.05664063L.25390625 13.0957031c-.07291667.0729167-.109375.1572266-.109375.2529297 0 .0957031.03645833.180013.109375.2529297.03645833.0273437.07519531.0501302.11621094.0683594.04101562.0182291.0843099.0273437.12988281.0273437z" fill="#94A1AE" fill-rule="nonzero"/></svg>