<?xml version="1.0" encoding="UTF-8"?>
<svg width="570px" height="166px" viewBox="0 0 570 166" version="1.1" xmlns="http://www.w3.org/2000/svg" xmlns:xlink="http://www.w3.org/1999/xlink">
    <title>GoodDataSupport</title>
    <g id="Page-1" stroke="none" stroke-width="1" fill="none" fill-rule="evenodd">
        <g id="GoodDataSupport" fill-rule="nonzero">
            <g id="Group-Copy" transform="translate(215.000000, 55.000000)" fill="#000000">
                <path d="M80.3,20.65 C91.4183451,20.787683 100.332628,29.8891338 100.239287,41.0079396 C100.145945,52.1267454 91.0801173,61.0772546 79.9610277,61.0286549 C68.8419381,60.9792575 59.8553452,51.9491966 59.8599964,40.83 C59.8649614,35.4342518 62.0284367,30.2647583 65.8681512,26.4738856 C69.7078657,22.6830128 74.9046304,20.5858898 80.3,20.65 L80.3,20.65 Z M80.3,54.21 C88.09,54.21 92.94,48.63 92.94,40.83 C92.94,33.03 88.09,27.47 80.3,27.47 C72.51,27.47 67.69,33.04 67.69,40.83 C67.69,48.62 72.52,54.21 80.3,54.21 Z" id="Shape"></path>
                <path d="M53.92,27.95 L53.92,56.25 C48.33,59.64 39.16,61.52 32.2,61.52 C12.74,61.52 1.47,47.66 1.47,31.35 C1.47,14.35 13.88,1.19 31.38,1.19 C41.92,1.19 48.33,4.04 52.78,8.66 L47.28,14.57 C42.57,10.03 37.14,8.5 31.38,8.5 C18.25,8.5 9.74,18.79 9.74,31.35 C9.74,44.35 19.39,54.21 32.03,54.21 C37.46,54.21 42.66,53.21 46.14,51.21 L46.14,35.21 L33.41,35.21 L33.41,27.92 L53.92,27.95 Z" id="Path"></path>
                <path d="M32.2,62.14 C13.73,62.14 0.84,49.47 0.84,31.35 C0.84,13.81 13.97,0.56 31.38,0.56 C41.27,0.56 48.21,3 53.25,8.22 L53.65,8.64 L47.3,15.46 L46.84,15.03 C42.72,11.03 37.66,9.11 31.38,9.11 C19.2,9.11 10.38,18.47 10.38,31.35 C10.38,44.02 19.7,53.58 32.05,53.58 C37.34,53.58 42.2,52.58 45.53,50.85 L45.53,35.85 L32.78,35.85 L32.78,27.29 L54.54,27.29 L54.54,56.58 L54.26,56.76 C48.21,60.44 38.58,62.12 32.2,62.12 L32.2,62.14 Z M31.38,1.82 C14.38,1.82 2.09,14.24 2.09,31.35 C2.09,48.74 14.47,60.88 32.2,60.88 C38.3,60.88 47.44,59.31 53.3,55.88 L53.3,28.58 L34.03,28.58 L34.03,34.58 L46.76,34.58 L46.76,51.58 L46.45,51.75 C42.94,53.75 37.69,54.84 32.03,54.84 C18.97,54.84 9.11,44.75 9.11,31.35 C9.11,17.74 18.48,7.87 31.38,7.87 C37.77,7.87 42.97,9.77 47.25,13.69 L51.91,8.69 C47.17,4.02 40.62,1.85 31.38,1.85 L31.38,1.82 Z" id="Shape"></path>
                <path d="M80.3,61.65 C68.8253864,61.5507921 59.5943483,52.1858894 59.6596447,40.7110366 C59.7263404,29.2361839 69.0644863,19.9780793 80.5394819,20.01069 C92.0144776,20.0436468 101.299571,29.3549575 101.3006,40.83 C101.330091,46.3922971 99.1214066,51.7328807 95.1713185,55.6491109 C91.2212304,59.5653411 85.861832,61.7279708 80.3,61.65 Z M80.3,21.27 C69.521336,21.396688 60.8745778,30.2158026 60.9606254,40.9948676 C61.046673,51.7739327 69.8331235,60.4538807 80.6124363,60.4088281 C91.3917491,60.3630688 100.104764,51.6094074 100.100349,40.83 C100.122211,35.5938006 98.0354633,30.5691359 94.3103704,26.8891956 C90.5852775,23.2092554 85.5355392,21.1839365 80.3,21.27 L80.3,21.27 Z M80.3,54.84 C72.37,54.84 67.02,49.21 67.02,40.84 C67.02,32.47 72.37,26.84 80.3,26.84 C88.23,26.84 93.58,32.48 93.58,40.84 C93.58,49.2 88.23,54.84 80.3,54.84 Z M80.3,28.09 C73.12,28.09 68.3,33.21 68.3,40.83 C68.3,48.45 73.14,53.58 80.3,53.58 C87.46,53.58 92.3,48.46 92.3,40.83 C92.3,33.2 87.46,28.09 80.3,28.09 Z" id="Shape"></path>
                <path d="M125.31,20.65 C136.431108,20.7766985 145.355456,29.8734257 145.269394,40.9949228 C145.183331,52.11642 136.119273,61.0739463 124.997536,61.0288642 C113.875799,60.9830966 104.885213,51.9518291 104.889996,40.83 C104.892321,35.4369235 107.052196,30.2689342 110.888153,26.4780619 C114.72411,22.6871895 119.917273,20.5885628 125.31,20.65 L125.31,20.65 Z M125.31,54.21 C133.1,54.21 137.95,48.63 137.95,40.83 C137.95,33.03 133.1,27.47 125.31,27.47 C117.52,27.47 112.69,33.04 112.69,40.83 C112.69,48.62 117.52,54.21 125.31,54.21 Z" id="Shape"></path>
                <path d="M125.31,61.65 C113.835386,61.5507921 104.604348,52.1858894 104.669644,40.7110366 C104.73634,29.2361839 114.074486,19.9780793 125.549482,20.01069 C137.024478,20.0436468 146.309571,29.3549575 146.310497,40.83 C146.33735,46.3914615 144.127791,51.730441 140.178307,55.6460729 C136.228822,59.5617048 130.87102,61.725223 125.31,61.65 Z M125.31,21.27 C114.532719,21.40218 105.890993,30.2236555 105.980679,41.0013744 C106.070366,51.7790933 114.857701,60.4555329 125.63569,60.4087224 C136.413678,60.3611485 145.124697,51.608091 145.120349,40.83 C145.142264,35.5920371 143.054149,30.5658121 139.326872,26.8855731 C135.599595,23.2053341 130.547258,21.1812184 125.31,21.27 L125.31,21.27 Z M125.31,54.84 C117.31,54.84 112.03,49.21 112.03,40.84 C112.03,32.47 117.36,26.84 125.31,26.84 C133.26,26.84 138.58,32.48 138.58,40.84 C138.58,49.2 133.25,54.84 125.31,54.84 Z M125.31,28.09 C118.11,28.09 113.31,33.21 113.31,40.83 C113.31,48.45 118.12,53.58 125.31,53.58 C132.5,53.58 137.31,48.46 137.31,40.83 C137.31,33.2 132.49,28.09 125.31,28.09 Z" id="Shape"></path>
                <path d="M190.44,60.04 L183.12,60.04 L183.12,54.54 L182.96,54.54 C180.14,58.66 174.78,61.01 169.58,61.01 C157.68,61.01 150.07,52.18 150.07,40.82 C150.07,29.31 157.76,20.64 169.58,20.64 C175.11,20.64 180.36,23.15 182.96,27.14 L183.12,27.14 L183.12,1.71 L190.44,1.71 L190.44,60.04 Z M183.12,40.82 C183.12,33.05 178.27,27.46 170.48,27.46 C162.69,27.46 157.84,33.05 157.84,40.82 C157.84,48.59 162.7,54.2 170.48,54.2 C178.26,54.2 183.12,48.63 183.12,40.83 L183.12,40.82 Z" id="Shape"></path>
                <path d="M169.58,61.65 C157.73,61.65 149.43,53.08 149.43,40.83 C149.43,28.58 157.69,20.04 169.58,20.04 C174.463424,19.959216 179.154473,21.9416562 182.5,25.5 L182.5,1.09 L191.06,1.09 L191.06,60.68 L182.5,60.68 L182.5,56.15 C179.147096,59.7024468 174.464645,61.6957503 169.58,61.65 L169.58,61.65 Z M169.58,21.27 C158.46,21.27 150.67,29.27 150.67,40.83 C150.67,52.39 158.46,60.4 169.58,60.4 C174.81,60.4 179.86,57.97 182.45,54.19 L182.65,53.92 L183.6,53.92 L183.75,54.55 L183.75,59.43 L189.8,59.43 L189.8,2.33 L183.75,2.33 L183.75,27.77 L182.75,27.77 L182.41,27.47 C179.95,23.71 174.9,21.27 169.54,21.27 L169.58,21.27 Z M170.48,54.84 C162.55,54.84 157.22,49.21 157.22,40.84 C157.22,32.47 162.55,26.84 170.48,26.84 C178.41,26.84 183.75,32.48 183.75,40.84 C183.75,49.2 178.43,54.84 170.48,54.84 Z M170.48,28.09 C163.29,28.09 158.48,33.21 158.48,40.83 C158.48,48.45 163.31,53.58 170.48,53.58 C177.65,53.58 182.48,48.46 182.48,40.83 C182.48,33.2 177.66,28.09 170.48,28.09 Z" id="Shape"></path>
                <path d="M200.11,2.24 L217.61,2.24 C241.84,2.24 247.76,20.73 247.76,31.35 C247.76,46.03 236.82,60.05 216.3,60.05 L200.11,60.05 L200.11,2.24 Z M207.9,52.76 L215.18,52.76 C228.31,52.76 239.49,45.54 239.49,31.35 C239.49,24.05 235.69,9.52 217.05,9.52 L207.9,9.52 L207.9,52.76 Z" id="Shape"></path>
                <path d="M216.3,60.68 L199.49,60.68 L199.49,1.62 L217.61,1.62 C241.92,1.62 248.38,20.31 248.38,31.35 C248.38,45.92 237.38,60.68 216.3,60.68 L216.3,60.68 Z M200.69,59.43 L216.26,59.43 C237.45,59.43 247.1,44.86 247.1,31.35 C247.1,28.43 246.28,2.86 217.57,2.86 L200.69,2.86 L200.69,59.43 Z M215.14,53.38 L207.23,53.38 L207.23,8.9 L217.01,8.9 C239.44,8.9 240.07,29.06 240.07,31.35 C240.07,46.57 227.56,53.35 215.14,53.35 L215.14,53.38 Z M208.48,52.13 L215.14,52.13 C226.06,52.13 238.83,46.7 238.83,31.35 C238.83,29.18 238.22,10.14 217.01,10.14 L208.48,10.14 L208.48,52.14 L208.48,52.13 Z" id="Shape"></path>
                <path d="M253.47,26.34 C257.665979,22.627862 263.087876,20.6008849 268.69,20.65 C280.03,20.65 284.74,26.81 284.74,33.45 L284.74,53.04 C284.715192,55.3774901 284.822028,57.7145227 285.06,60.04 L278.58,60.04 C278.42,58.1 278.34,56.16 278.34,54.2 L278.17,54.2 C274.93,59.14 270.54,61.01 264.72,61.01 C257.59,61.01 251.42,56.96 251.42,49.5 C251.42,39.62 260.9,36.21 272.58,36.21 L277.93,36.21 L277.93,34.58 C277.93,30.58 275.01,26.47 268.77,26.47 C263.18,26.47 260.49,28.84 257.83,30.86 L253.47,26.34 Z M274.08,41.56 C267.17,41.56 258.74,42.78 258.74,48.96 C258.74,53.32 261.99,55.18 267.02,55.18 C275.12,55.18 277.96,49.18 277.96,44 L277.96,41.56 L274.08,41.56 Z" id="Shape"></path>
                <path d="M264.75,61.65 C256.55,61.65 250.83,56.65 250.83,49.51 C250.83,40.51 258.56,35.59 272.61,35.59 L277.34,35.59 L277.34,34.59 C277.34,30.99 274.66,27.12 268.8,27.12 C263.8,27.12 261.24,29.07 258.8,30.96 L257.8,31.69 L252.61,26.31 L253.07,25.87 C257.374388,22.0583013 262.940801,19.9806962 268.69,20.04 C280.99,20.04 285.36,26.97 285.36,33.47 L285.36,53.04 C285.324067,55.3779296 285.434282,57.7158197 285.69,60.04 L285.77,60.73 L278,60.73 L278,60.16 C277.88,58.77 277.8,57.36 277.77,55.95 C274.69,59.87 270.49,61.7 264.77,61.7 L264.75,61.65 Z M272.61,36.84 C263.23,36.84 252.08,39.03 252.08,49.51 C252.08,57.04 258.45,60.4 264.75,60.4 C270.75,60.4 274.75,58.4 277.68,53.87 L277.87,53.58 L278.87,53.58 L279.03,54.21 C279.03,55.95 279.09,57.7 279.23,59.43 L284.44,59.43 C284.248417,57.3189827 284.164975,55.1995452 284.19,53.08 L284.19,33.45 C284.19,27.56 280.14,21.27 268.76,21.27 C263.528906,21.2200389 258.44895,23.0231753 254.42,26.36 L257.95,30.03 L258.05,29.96 C260.55,28.04 263.41,25.86 268.84,25.86 C275.57,25.86 278.63,30.38 278.63,34.59 L278.63,36.84 L272.61,36.84 Z M267.02,55.84 C261.29,55.84 258.12,53.4 258.12,48.98 C258.12,45.32 260.89,40.98 274.12,40.98 L278.63,40.98 L278.63,44.04 C278.63,49.49 275.63,55.86 267.06,55.86 L267.02,55.84 Z M274.08,42.22 C267.36,42.22 259.36,43.38 259.36,48.98 C259.36,52.68 261.95,54.58 267.02,54.58 C274.62,54.58 277.34,49.14 277.34,44.02 L277.34,42.22 L274.08,42.22 Z" id="Shape"></path>
                <path d="M314.93,27.95 L304.47,27.95 L304.47,45.38 C304.47,49.67 304.47,54.21 309.98,54.21 C311.775175,54.2858002 313.55949,53.8965579 315.16,53.08 L315.16,59.73 C313.47,60.73 310.06,61.02 308.61,61.02 C297.34,61.02 297.19,54.12 297.19,47.97 L297.19,27.97 L288.75,27.97 L288.75,21.64 L297.19,21.64 L297.19,10.83 L304.47,10.83 L304.47,21.62 L314.93,21.62 L314.93,27.95 Z" id="Path"></path>
                <path d="M308.61,61.65 C296.55,61.65 296.55,53.75 296.55,47.97 L296.55,28.58 L288.12,28.58 L288.12,21.04 L296.55,21.04 L296.55,10.23 L305.09,10.23 L305.09,21.04 L315.56,21.04 L315.56,28.62 L305.09,28.62 L305.09,45.42 C305.09,50.53 305.43,53.62 309.98,53.62 C311.662371,53.7117262 313.339906,53.3672631 314.85,52.62 L315.85,52.02 L315.85,60.17 L315.54,60.35 C313.54,61.48 309.81,61.73 308.66,61.73 L308.61,61.65 Z M289.37,27.31 L297.81,27.31 L297.81,47.97 C297.81,53.8 297.81,60.4001704 308.61,60.4001704 C310.635253,60.406517 312.644743,60.0439278 314.54,59.33 L314.54,54.09 C313.078488,54.6161134 311.533028,54.8703009 309.98,54.84 C303.83,54.84 303.83,49.59 303.83,45.38 L303.83,27.31 L314.31,27.31 L314.31,22.25 L303.83,22.25 L303.83,11.47 L297.83,11.47 L297.83,22.25 L289.39,22.25 L289.39,27.31 L289.37,27.31 Z" id="Shape"></path>
                <path d="M322.07,26.34 C326.26912,22.6199024 331.700331,20.5921079 337.31,20.65 C348.65,20.65 353.31,26.81 353.31,33.45 L353.31,53.04 C353.283024,55.3777788 353.393213,57.7151271 353.64,60.04 L347.15,60.04 C346.99,58.1 346.91,56.16 346.91,54.2 L346.73,54.2 C343.5,59.14 339.12,61.01 333.29,61.01 C326.15,61.01 319.98,56.96 319.98,49.5 C319.98,39.62 329.47,36.21 341.14,36.21 L346.49,36.21 L346.49,34.58 C346.49,30.58 343.58,26.47 337.34,26.47 C331.75,26.47 329.07,28.84 326.34,30.86 L322.07,26.34 Z M342.69,41.56 C335.8,41.56 327.36,42.78 327.36,48.96 C327.36,53.32 330.61,55.18 335.63,55.18 C343.73,55.18 346.57,49.18 346.57,44 L346.57,41.56 L342.69,41.56 Z" id="Shape"></path>
                <path d="M333.34,61.65 C325.13,61.65 319.41,56.65 319.41,49.51 C319.41,40.51 327.15,35.59 341.19,35.59 L345.92,35.59 L345.92,34.59 C345.92,30.99 343.25,27.12 337.39,27.12 C332.39,27.12 329.82,29.07 327.39,30.96 L326.39,31.69 L321.17,26.31 L321.63,25.87 C325.953286,22.0501804 331.541355,19.9724734 337.31,20.04 C349.61,20.04 353.98,26.97 353.98,33.47 L353.98,53.04 C353.95279,55.3473388 354.05629,57.6543667 354.29,59.95 L354.39,60.64 L346.62,60.64 L346.62,60.07 C346.5,58.68 346.42,57.27 346.37,55.86 C343.3,59.78 339.1,61.61 333.37,61.61 L333.34,61.65 Z M341.19,36.84 C331.83,36.84 320.67,39.03 320.67,49.51 C320.67,57.04 327.02,60.4 333.34,60.4 C339.34,60.4 343.34,58.4 346.26,53.87 L346.46,53.58 L347.46,53.58 L347.62,54.21 C347.62,55.95 347.69,57.7 347.81,59.43 L353.02,59.43 C352.85,57.7 352.76,55.69 352.76,53.08 L352.76,33.45 C352.76,27.56 348.76,21.27 337.35,21.27 C332.116201,21.2219915 327.033747,23.0247577 323,26.36 L326.54,30.03 L326.63,29.96 C329.14,28.04 331.98,25.86 337.43,25.86 C344.16,25.86 347.21,30.38 347.21,34.59 L347.21,36.84 L341.19,36.84 Z M335.6,55.84 C329.86,55.84 326.71,53.4 326.71,48.98 C326.71,45.32 329.47,40.98 342.71,40.98 L347.22,40.98 L347.22,44.04 C347.22,49.49 344.22,55.86 335.65,55.86 L335.6,55.84 Z M342.69,42.2 C335.98,42.2 327.99,43.36 327.99,48.96 C327.99,52.66 330.55,54.56 335.63,54.56 C343.24,54.56 345.95,49.12 345.95,44 L345.95,42.2 L342.69,42.2 Z" id="Shape"></path>
            </g>
            <g id="Group-2-Copy-2">
                <polyline id="Path" fill="#4E4D4D" points="101.56 131.5 101.56 131.84 101.56 131.84 101.56 131.5"></polyline>
                <path d="M109.05,82.94 L83.45,82.94 C83.475295,91.4764253 84.8246726,99.9572632 87.45,108.08 C99.792002,106.038168 108.898871,95.4485893 109.07,82.94" id="Path" fill="#6A6A6A"></path>
                <path d="M165.69,87.2 C164.149284,114.959587 148.738632,140.07895 124.69,154.03 C137.15945,161.232218 151.290245,165.061319 165.69,165.14 L165.69,87.2 Z" id="Path" fill="#6A6A6A"></path>
                <path d="M57.74,82.94 L1,82.94 C1.02946289,104.758043 9.7107974,125.673802 25.14,141.1 L65.24,100.97 C60.4887305,96.1773681 57.7974838,89.7183759 57.74,82.97" id="Path" fill="#8B8B8A"></path>
                <path d="M83.37,108.42 C76.5861704,108.396985 70.0799903,105.723458 65.24,100.97 L25.14,141.1 C40.6030264,156.5059 61.5423356,165.154198 83.37,165.150006 L83.37,165.150006 L83.37,108.42 L83.37,108.42" id="Path" fill="#3C3C3B"></path>
                <path d="M83.69,56.73 L83.69,56.73 L83.69,0.0398307135 L83.69,0.0398307135 C61.6287333,0.0141938376 40.4711617,8.80194819 24.92,24.45 L64.92,64.64 C69.8653895,59.596793 76.6266786,56.7474698 83.69,56.73" id="Path" fill="#292627"></path>
                <path d="M57.69,82.58 C57.7011993,75.8650237 60.3099644,69.4147804 64.97,64.58 L24.97,24.39 C9.58503916,39.8384269 0.95418404,60.757462 0.969956662,82.56 L0.969956662,82.92 L57.71,82.92 C57.71,82.8 57.71,82.68 57.71,82.56" id="Path" fill="#575756"></path>
                <path d="M101.55,64.36 L141.69,24.25 C126.307068,8.84524095 105.459945,0.143364609 83.69,0.04 L83.69,56.77 C90.3914752,56.9211143 96.77565,59.6546302 101.51,64.4" id="Path" fill="#7C7B7B"></path>
                <path d="M87.43,108.04 C86.087056,108.254561 84.729925,108.368212 83.37,108.38 L83.37,165.11 C97.8573411,165.111271 112.088956,161.292949 124.63,154.04 C106.922188,143.888391 93.652546,127.479694 87.43,108.04" id="Path" fill="#6F6F6E"></path>
                <path d="M165.69,87.2 L165.69,82.94 L109.05,82.94 C108.859687,95.4334052 99.7573431,106.000881 87.43,108.04 C93.652546,127.479694 106.922188,143.888391 124.63,154.04 C148.678632,140.08895 164.089284,114.969587 165.63,87.21" id="Path" fill="#292627"></path>
            </g>
        </g>
    </g>
</svg>