<?xml version="1.0" encoding="UTF-8"?>
<svg width="60px" height="66px" viewBox="0 0 60 66" version="1.1" xmlns="http://www.w3.org/2000/svg" xmlns:xlink="http://www.w3.org/1999/xlink">
    <title>Shape</title>
    <g id="Symbols" stroke="none" stroke-width="1" fill="none" fill-rule="evenodd">
        <g id="icon-GD.UI" transform="translate(-3.000000, 1.000000)" fill="#14B2E2" fill-rule="nonzero">
            <path d="M14.1330312,13.52 C14.2581307,13.52 14.3790497,13.5604537 14.4781584,13.6334651 L14.5481251,13.6942049 L32.2668538,31.1041584 L32.294868,31.1384112 L32.3096064,31.1612857 L45.7081714,17.740137 C45.7516923,17.6987878 45.8004162,17.6646711 45.8527547,17.638352 L45.9337751,17.6047923 L45.9496064,17.6002857 L45.9544817,17.5779311 C46.0024498,17.3979967 46.1256199,17.2504837 46.285843,17.1768378 L46.3688657,17.1463623 L46.6462504,17.0855193 L48.2576962,16.6376361 L52.704249,15.3446309 C52.7797748,15.2768068 52.8709731,15.2285784 52.9707998,15.2040077 C53.0271974,15.1901263 53.0848358,15.1841681 53.1422006,15.1860531 L53.2066064,15.1922857 L53.2915948,15.1859958 C53.3761592,15.1859455 53.4521658,15.2042064 53.5080392,15.2371072 L53.5567728,15.2747521 L53.5894484,15.3213529 L56.109987,14.6111501 C56.316065,14.5526473 56.5377853,14.6097121 56.6897187,14.7604028 C56.820044,14.889662 56.8815633,15.0704997 56.8601794,15.2487912 L56.8425135,15.3374741 L56.1272834,17.7955392 L56.1666951,17.8441742 C56.2521013,17.9697084 56.2853351,18.1220127 56.2595129,18.2365584 C56.2784175,18.3499253 56.2653022,18.4678036 56.2208054,18.5764474 C56.2038987,18.6177271 56.1828048,18.6568484 56.1638172,18.6822955 L56.1377019,18.708771 L54.3026269,25.0992576 C54.2443463,25.3023505 54.0805738,25.457543 53.8760937,25.5140161 L53.8536064,25.5172857 L53.8494768,25.5358915 C53.8398634,25.5635513 53.8281625,25.5904595 53.8144973,25.6163778 L53.7677311,25.6909252 L53.7099159,25.758105 L40.5516064,38.9362857 L57.1289375,55.5584158 C57.3100977,55.7401507 57.3503555,56.0095555 57.2497323,56.2302333 L57.1979828,56.3214286 L57.1289829,56.4042713 L49.548762,64.0183415 C49.4327703,64.1354119 49.2735101,64.1990307 49.1119495,64.1943274 C48.9852235,64.1943274 48.8626754,64.1535845 48.7614234,64.0799358 L48.6897449,64.01858 L46.6899472,61.9521504 C46.6548151,61.958667 46.6191442,61.9622258 46.5835297,61.9627593 C46.3193371,61.9673638 46.0794104,61.8092029 45.9792053,61.5644432 C45.9414864,61.4723116 45.9259936,61.3737063 45.9469438,61.3215812 L45.9697117,61.2920299 L37.7572159,52.9934838 C37.7157386,53.0016869 37.6734877,53.005797 37.6315821,53.0057137 C37.4602081,53.0063098 37.2958755,52.9375517 37.1766114,52.8157618 C37.0450482,52.6840041 36.9789057,52.5056222 37.0051651,52.3817679 L37.0261199,52.324853 L32.1086064,47.3922857 L20.4908785,58.9934743 L20.483978,59.0630623 L20.4690876,59.1314781 L20.4462731,59.1980894 C20.3695565,59.3859013 20.2054368,59.5203963 20.0538052,59.5429163 L19.9794925,59.5445735 L17.4273468,62.0993513 C16.3680916,63.1642934 14.9272806,63.7602501 13.4268103,63.7542415 C11.139571,63.7542415 9.07726802,62.3741259 8.20114053,60.2575468 C7.356409,58.2168152 7.77476814,55.8784164 9.25474698,54.2601809 L9.42354765,54.0833923 L10.2986064,53.2052857 L10.2888737,53.1953549 C10.1384603,53.0086413 10.1156066,52.7571841 10.2147547,52.5514204 L10.2647,52.4663556 L10.3294871,52.3888177 C10.521994,52.1937641 10.8173041,52.1549011 11.0567114,52.2878794 L11.1435587,52.3458319 L11.1516064,52.3542857 L11.9439173,51.5983382 C11.9472116,51.5069202 11.9708913,51.4180349 12.0129951,51.3378748 L12.0611676,51.2608524 L12.121187,51.1910227 C12.2084939,51.1037462 12.3182782,51.0467579 12.401735,51.0396444 L12.4586286,51.0439668 L23.9456064,39.5362857 L22.2622973,37.8837122 L22.2529002,37.8723163 L6.24395847,22.1363998 C6.04359792,21.9279774 6.02133564,21.6094269 6.1777297,21.3759576 L6.24475308,21.2927761 L13.7166383,13.6955048 C13.8268146,13.583209 13.9766569,13.52 14.1330312,13.52 Z M39.7086064,39.7802857 L32.9536064,46.5462857 L33.3226064,46.9162857 L36.2502863,43.987258 C36.4499632,43.8137651 36.7387108,43.804134 36.9478683,43.9522601 L37.0222421,44.0151903 C37.2088462,44.2026395 37.2381338,44.4901264 37.1016709,44.7122006 L37.0427113,44.792089 L34.1286064,47.7242857 L37.7326064,51.3412857 L39.0944706,49.9805071 C39.3221567,49.7809574 39.6525415,49.7685848 39.8925762,49.9371858 L39.9779769,50.0088822 C40.1923666,50.2225889 40.2272171,50.5515327 40.0721931,50.8062614 L40.0051385,50.8979358 L38.6456064,52.2582857 L42.2586064,55.8822857 L45.1944342,52.9444048 C45.3941115,52.770907 45.6828601,52.7612756 45.892018,52.9094058 L45.966392,52.9723377 C46.152995,53.1597909 46.1822824,53.447283 46.0456598,53.6695226 L45.9866325,53.7494809 L43.0546064,56.6812857 L46.6736064,60.3112857 L48.0222785,58.9644977 C48.2467765,58.7396719 48.5968601,58.7171893 48.8464751,58.8970499 L48.925649,58.9644977 C49.1500744,59.1892509 49.172517,59.5396345 48.9929935,59.789497 L48.9256721,59.8687512 L47.5776064,61.2192857 L49.1116064,62.7572857 L55.8536064,55.9972857 L39.7086064,39.7802857 Z M11.1336064,54.0422857 L10.2620575,54.9169056 C8.57586366,56.6790305 8.60508863,59.4679984 10.3278345,61.1942838 C11.994923,62.8647976 14.6561502,62.9472369 16.4197358,61.4222894 L16.5930321,61.264436 L17.4696064,60.3862857 L11.1336064,54.0422857 Z M12.6226064,52.5502857 L11.9856064,53.1882857 L18.3226064,59.5312857 L18.9506064,58.9012857 L16.0830426,55.9887577 L16.0227965,55.9841711 C15.8183952,55.9517547 15.6446228,55.8148529 15.5656226,55.6218736 C15.5460886,55.5741565 15.5329328,55.5244611 15.5385355,55.5017933 L15.5508496,55.4892089 L12.6226064,52.5502857 Z M49.7106064,22.5892857 L17.0676064,55.2912857 L19.8126064,58.0382857 L52.4576064,25.3412857 L49.7106064,22.5892857 Z M46.1236064,18.9962857 L13.4756064,51.6952857 L16.2226064,54.4452857 L48.8736064,21.7502857 L46.1236064,18.9962857 Z M57.5795957,-1 C59.8981128,-1 61.8329131,0.78537516 62.053088,3.06960841 L62.0686655,3.28517751 L62.0738404,3.5 L62.0738404,41.34 C62.0738404,43.6616399 60.2906045,45.5993474 58.0099019,45.8193223 L57.7946679,45.8348719 L57.5802097,45.84 L50.2234523,45.8088636 L49.0204523,44.5768636 L49.0920044,44.407 L57.5795957,44.4073714 C59.143677,44.4073714 60.4470475,43.2236081 60.6227452,41.6944691 L60.6379642,41.516545 L60.643,41.34 L60.6426064,10.0822857 L4.42860638,10.0822857 L4.42958511,41.34 C4.42958511,42.8453462 5.52318932,44.1107661 6.9648755,44.3619655 L7.13950092,44.3871916 L7.31718165,44.4023838 L7.49361241,44.4073714 L15.5499954,44.407 L15.6214607,44.5769526 L14.3440146,45.839 L7.49361702,45.84 C5.17440484,45.84 3.24019744,44.0545376 3.02063718,41.7703121 L3.00511737,41.5547441 L3,41.34 L3,3.5 C3,1.17756423 4.78232418,-0.759441197 7.06376224,-0.979330163 L7.27907015,-0.994873499 L7.49361702,-1 L57.5795957,-1 Z M14.1316064,14.9602857 L7.49060638,21.7132857 L10.0126064,24.1912857 L13.4280341,20.7744225 C13.5605176,20.623054 13.7558255,20.5458255 13.9524094,20.5621452 L14.0505227,20.5781906 C14.2783621,20.6342367 14.4559701,20.8126538 14.5110552,21.0408025 C14.5582689,21.23635 14.5087277,21.4404908 14.3853093,21.58872 L10.9076064,25.0702857 L14.2176064,28.3222857 L15.8203186,26.7194839 C16.045439,26.4938175 16.3965257,26.4712509 16.6468393,26.651784 L16.7262339,26.7194839 C16.9512341,26.9450297 16.9737341,27.296617 16.7937532,27.5473518 L16.7262603,27.6268836 L15.1356064,29.2222857 L18.4416064,32.4692857 L21.7768102,29.1365214 C21.9083521,28.9845044 22.1029297,28.9064033 22.2991749,28.9219419 L22.3971523,28.9376058 C22.6246882,28.9927703 22.8025414,29.1705495 22.8583838,29.3985003 C22.9062324,29.5938204 22.857683,29.7981357 22.735062,29.9470579 L22.6676821,30.0166049 L19.3426064,33.3552857 L22.6466064,36.6002857 L24.1534875,35.0841837 C24.2928464,34.9428957 24.4876593,34.8746346 24.6814375,34.8949421 L24.7779789,34.9125485 C25.0017846,34.9711782 25.1773323,35.1449269 25.2385249,35.3683143 C25.290967,35.5597572 25.2526018,35.7627589 25.1379285,35.920913 L25.0742999,35.9959916 L23.5666064,37.5042857 L24.7816064,38.6992857 L31.4836064,31.9882857 L31.4624593,31.9733223 L14.1316064,14.9602857 Z M52.8076064,16.6002857 L49.0254208,17.7104843 L47.4440323,18.1594499 L47.0596064,18.2622857 L50.0713066,21.2781076 C50.1000352,21.299979 50.1266852,21.3244149 50.1482549,21.348009 L50.176424,21.3823429 L53.2126064,24.4242857 L54.8925559,18.6855649 L54.8683612,18.6466324 C54.8285377,18.5688611 54.8066281,18.4834405 54.8188277,18.4370307 L54.8346259,18.4102669 L53.1338693,16.6686489 C53.0364296,16.6770061 52.9393717,16.6609975 52.8508426,16.6232846 L52.8076064,16.6002857 Z M55.4246064,16.0362857 L54.4926064,16.2972857 L55.1666064,16.9722857 L55.4246064,16.0362857 Z M57.5802234,0.432 L7.49361702,0.432 C5.92915788,0.432 4.62504484,1.61612681 4.44973294,3.14541799 L4.43456353,3.32335872 L4.42958511,3.5 L4.42860638,8.65028571 L60.643,8.65028571 L60.643,3.5 C60.643,1.86908309 59.3652816,0.530735527 57.7598994,0.437219523 L57.5802234,0.432 Z M14.0432447,3.84 C14.5838112,3.84 15.0219681,4.27879342 15.0219681,4.82 C15.0219681,5.36120658 14.5838112,5.8 14.0432447,5.8 C13.5026781,5.8 13.0645213,5.36120658 13.0645213,4.82 C13.0645213,4.27879342 13.5026781,3.84 14.0432447,3.84 Z M9.64962766,3.84 C10.1901942,3.84 10.6283511,4.27879342 10.6283511,4.82 C10.6283511,5.36120658 10.1901942,5.8 9.64962766,5.8 C9.10906112,5.8 8.67090426,5.36120658 8.67090426,4.82 C8.67090426,4.27879342 9.10906112,3.84 9.64962766,3.84 Z" id="Shape"></path>
        </g>
    </g>
</svg>