<?xml version="1.0" encoding="UTF-8"?>
<svg width="16px" height="16px" viewBox="0 0 16 16" version="1.1" xmlns="http://www.w3.org/2000/svg" xmlns:xlink="http://www.w3.org/1999/xlink">
    <!-- Generator: Sketch 56.3 (81716) - https://sketch.com -->
    <title>horizontal_center copy</title>
    <desc>Created with Sketch.</desc>
    <g id="horizontal_center-copy" stroke="none" stroke-width="1" fill="none" fill-rule="evenodd">
        <rect id="Rectangle" x="0" y="0" width="16" height="16"></rect>
        <rect id="Rectangle-8-Copy-6" fill="#B0BECA" transform="translate(8.000000, 15.000000) rotate(-180.000000) translate(-8.000000, -15.000000) " x="5" y="14" width="6" height="2"></rect>
        <rect id="Rectangle-8-Copy" fill="#B0BECA" opacity="0.400000006" transform="translate(8.000000, 4.000000) rotate(-180.000000) translate(-8.000000, -4.000000) " x="0" y="3" width="16" height="2"></rect>
        <rect id="Rectangle-8-Copy-2" fill="#B0BECA" opacity="0.400000006" transform="translate(0.500000, 7.500000) rotate(-180.000000) translate(-0.500000, -7.500000) " x="-2.16715534e-13" y="6" width="1" height="3"></rect>
        <rect id="Rectangle-8-Copy-3" fill="#B0BECA" opacity="0.400000006" transform="translate(5.500000, 7.500000) rotate(-180.000000) translate(-5.500000, -7.500000) " x="5" y="6" width="1" height="3"></rect>
        <rect id="Rectangle-8-Copy-4" fill="#B0BECA" opacity="0.400000006" transform="translate(15.500000, 7.500000) rotate(-180.000000) translate(-15.500000, -7.500000) " x="15" y="6" width="1" height="3"></rect>
        <rect id="Rectangle-8-Copy-5" fill="#B0BECA" opacity="0.400000006" transform="translate(10.500000, 7.500000) rotate(-180.000000) translate(-10.500000, -7.500000) " x="10" y="6" width="1" height="3"></rect>
    </g>
</svg>